<?xml version="1.0" encoding="utf-8"?>
<!-- Uploaded to: SVG Repo, www.svgrepo.com, Generator: SVG Repo Mixer Tools -->
<svg width="800px" height="800px" viewBox="0 0 1024 1024" fill="#000000" class="icon"  version="1.1" xmlns="http://www.w3.org/2000/svg"><path d="M349.92 427.474c-24.466 0-48.942-9.314-67.57-27.942-18.096-18.08-28.058-42.086-28.058-67.584 0-25.498 9.96-49.496 28.058-67.57a95.214 95.214 0 0 1 24.186-17.628c3.934-1.984 8.75-0.446 10.758 3.482a8 8 0 0 1-3.482 10.758 79.3 79.3 0 0 0-20.15 14.684c-15.084 15.068-23.382 35.054-23.382 56.274 0 21.226 8.298 41.212 23.374 56.28 31.024 31.026 81.504 31.026 112.528 0a7.988 7.988 0 0 1 11.304 0 7.988 7.988 0 0 1 0 11.304c-18.624 18.628-43.098 27.942-67.566 27.942zM761.528 404.452a7.994 7.994 0 0 1-7.198-11.476c5.246-10.844 7.916-22.522 7.916-34.726 0-43.882-35.694-79.584-79.568-79.584a7.99 7.99 0 0 1-7.994-7.994 7.99 7.99 0 0 1 7.994-7.994c52.698 0 95.558 42.876 95.558 95.572 0 14.638-3.204 28.668-9.51 41.69a7.998 7.998 0 0 1-7.198 4.512z" fill="" /><path d="M731.954 293.782a8.004 8.004 0 0 1-7.698-10.18 79.114 79.114 0 0 0 2.982-21.704c0-41.704-31.29-75.796-72.776-79.302a7.984 7.984 0 0 1-7.292-8.634c0.376-4.404 4.42-7.652 8.634-7.292 49.84 4.2 87.422 45.14 87.422 95.228 0 8.932-1.202 17.7-3.574 26.076a8.016 8.016 0 0 1-7.698 5.808zM437.492 462.55c-34.046 0-65.938-13.28-89.81-37.394a7.99 7.99 0 0 1 0.062-11.304 7.99 7.99 0 0 1 11.304 0.062c20.844 21.054 48.7 32.648 78.444 32.648 15.676 0 63.384 0 83.512-15.792a7.966 7.966 0 0 1 11.232 1.35 7.988 7.988 0 0 1-1.358 11.218c-21.938 17.222-63.806 19.212-93.386 19.212z" fill="" /><path d="M665.19 230.482a7.988 7.988 0 0 1-7.994-7.994c0-60.77-49.45-110.204-110.234-110.204-60.786 0-110.236 49.434-110.236 110.204a7.99 7.99 0 0 1-7.994 7.994 7.99 7.99 0 0 1-7.994-7.994c0-69.584 56.616-126.192 126.224-126.192 69.606 0 126.222 56.608 126.222 126.192a7.99 7.99 0 0 1-7.994 7.994zM612.632 497.588c-40.268 0-77.148-18.47-101.21-50.674a7.99 7.99 0 0 1 1.616-11.188 8 8 0 0 1 11.196 1.616c21.008 28.128 53.236 44.258 88.398 44.258 17.222 0 33.71-3.84 49.012-11.414 3.902-1.944 8.76-0.352 10.71 3.624a7.99 7.99 0 0 1-3.622 10.71c-17.518 8.674-36.394 13.068-56.1 13.068z" fill="" /><path d="M319.13 322.448a7.988 7.988 0 0 1-7.346-4.824c-6.87-15.886-10.352-32.796-10.352-50.262 0-69.59 56.616-126.206 126.206-126.206 8.75 0 17.566 0.914 26.192 2.716a7.986 7.986 0 0 1 6.192 9.454c-0.898 4.31-5.168 7.104-9.456 6.192a112.382 112.382 0 0 0-22.928-2.374c-60.776 0-110.218 49.44-110.218 110.216 0 15.272 3.044 30.042 9.04 43.922a7.996 7.996 0 0 1-7.33 11.166zM817.486 418.894a7.99 7.99 0 0 1-6.384-12.794c10.398-13.874 15.91-30.416 15.91-47.85 0-35.052-22.406-65.578-55.742-75.96a7.998 7.998 0 0 1 4.746-15.27c40.066 12.476 66.984 49.136 66.984 91.232 0 20.916-6.606 40.784-19.126 57.452a7.972 7.972 0 0 1-6.388 3.19z" fill="" /><path d="M796.72 293.782a7.994 7.994 0 0 1-7.696-10.148 80.914 80.914 0 0 0 2.95-21.736c0-35.022-22.376-65.546-55.662-75.954a7.99 7.99 0 0 1-5.246-10.008c1.326-4.216 5.744-6.606 10.024-5.246 40.002 12.498 66.874 49.152 66.874 91.208 0 8.876-1.186 17.644-3.542 26.044a8.008 8.008 0 0 1-7.702 5.84zM738.964 562.854c-47.264 0-70.622-41.33-70.918-41.852a7.984 7.984 0 0 1 3.152-10.836 8.02 8.02 0 0 1 10.852 3.116c1.172 2.124 29.668 51.648 89.406 26.324 42.39-17.964 28.012-61.816 27.372-63.674a7.99 7.99 0 0 1 4.996-10.14 7.984 7.984 0 0 1 10.148 4.988c7.012 20.602 8.462 64.58-36.27 83.564-14.332 6.058-27.244 8.51-38.738 8.51zM751.862 687.876c-0.438 0-0.86-0.032-1.294-0.094a8 8 0 0 1-6.606-9.182c10.196-62.956 0.454-91.67 0.36-91.95-1.454-4.138 0.704-8.728 4.84-10.198 4.168-1.466 8.698 0.624 10.196 4.748 0.468 1.28 11.368 32.226 0.376 99.958a7.978 7.978 0 0 1-7.872 6.718zM783.822 687.876a8.01 8.01 0 0 1-7.806-9.73c15.162-68.216 0.532-106.862 0.376-107.252a7.998 7.998 0 0 1 4.496-10.352c4.076-1.638 8.712 0.36 10.354 4.45 0.702 1.718 16.72 43.112 0.388 116.622a8 8 0 0 1-7.808 6.262z" fill="" /><path d="M787.352 544.352c-20.016 0-29.9-15.864-32.446-25.076a8 8 0 0 1 5.59-9.828 7.98 7.98 0 0 1 9.82 5.528c0.766 2.624 5.402 15.48 20.784 13.108 4.34-0.546 8.448 2.342 9.086 6.714a7.978 7.978 0 0 1-6.712 9.086 40.646 40.646 0 0 1-6.122 0.468zM760.106 559.964c-0.516 0-1.016-0.046-1.532-0.14-31.852-6.134-38.47-30.914-38.736-31.96a7.984 7.984 0 0 1 5.778-9.718c4.308-1.04 8.588 1.49 9.696 5.708 0.218 0.772 4.808 16.128 26.294 20.266 4.34 0.828 7.166 5.028 6.338 9.37a7.992 7.992 0 0 1-7.838 6.474zM384.092 671.886a7.954 7.954 0 0 1-5.464-2.156 8 8 0 0 1-1.038-10.492l70.91-99.274h-48.42a7.976 7.976 0 0 1-7.386-4.934 7.976 7.976 0 0 1 1.734-8.71l63.954-63.956c3.124-3.124 8.182-3.124 11.304 0s3.124 8.182 0 11.304l-50.308 50.306h44.656a7.998 7.998 0 0 1 6.504 12.648l-45.054 63.078 112.108-91.714h-41.58a8 8 0 0 1-7.37-4.894 8 8 0 0 1 1.656-8.69l31.986-32.726c3.076-3.146 8.158-3.208 11.312-0.124s3.216 8.142 0.124 11.304L515.008 512h44.974a7.998 7.998 0 0 1 5.06 14.184l-175.89 143.888a7.92 7.92 0 0 1-5.06 1.814z" fill="" /><path d="M714.53 498.956c-21.346 0-41.252-7.48-53.432-14.732a7.992 7.992 0 0 1 8.166-13.74c2.388 1.398 59.1 34.172 94.948-11.936 26.78-34.414-1.358-84.276-1.638-84.776a8 8 0 0 1 2.92-10.914 7.98 7.98 0 0 1 10.914 2.912c1.406 2.412 33.852 59.628 0.422 102.598-17.896 23.006-40.816 30.588-62.3 30.588z" fill="" /><path d="M815.8 1023.634H368.102a7.99 7.99 0 0 1-7.994-7.994v-102.832c-126.666 15.786-197.328 6.12-224.2-31.182-20.258-28.106-12.436-67.31-1.014-102.912l-16.464-12.522a8.01 8.01 0 0 1-2.436-9.65l8.306-18.424-14.162-14.1a7.992 7.992 0 0 1-2.264-6.806l11.664-80.74-58.794-29.384a7.954 7.954 0 0 1-4.06-4.778 7.964 7.964 0 0 1 0.648-6.246l103.942-187.302c-22.484-100.29-3.576-192.004 54.758-265.42C286.106 55.146 411.362 0.366 542.918 0.366c72.276 0 142.258 16.356 202.372 47.31 117.104 60.284 188.8 141.304 213.098 240.796 41.484 169.902-66.61 347.174-115.012 415.5-64.018 90.358-20.19 307.858-19.752 310.042a8.042 8.042 0 0 1-1.624 6.684 8 8 0 0 1-6.2 2.936z m-439.704-15.988h430.038c-8.104-44.468-36.6-227.12 24.186-312.918 47.138-66.53 152.47-238.954 112.53-402.462-23.14-94.792-92.074-172.308-204.87-230.382-57.88-29.784-125.332-45.53-195.062-45.53-126.794 0-247.254 52.47-314.372 136.934-55.772 70.192-73.408 158.324-51.01 254.872a8.006 8.006 0 0 1-0.804 5.684l-101.374 182.674 56.492 28.246a7.98 7.98 0 0 1 4.332 8.292l-11.914 82.458 15.24 15.176a7.994 7.994 0 0 1 1.638 8.962l-7.97 17.674 15.934 12.118a8.014 8.014 0 0 1 2.732 8.898c-15.66 47-16.55 75.088-2.966 93.934 23.272 32.29 93.886 39.878 218.18 23.516a7.92 7.92 0 0 1 6.314 1.92 7.968 7.968 0 0 1 2.724 6.012v103.922z" fill="" /></svg>