<svg width="117" height="117" viewBox="0 0 117 117" fill="none" xmlns="http://www.w3.org/2000/svg">
<path d="M37.4889 66.2907C37.3024 66.2907 37.1132 66.2336 36.951 66.1143C27.5663 59.2645 21.9635 48.2224 21.9635 36.5782C21.9635 16.4323 38.3541 0.041748 58.5 0.041748C78.645 0.041748 95.0364 16.4323 95.0364 36.5782C95.0364 48.2215 89.433 59.262 80.0472 66.1106C79.6402 66.4105 79.0675 66.3193 78.7698 65.9125C78.6274 65.7168 78.5684 65.4726 78.6058 65.2335C78.6432 64.9944 78.7739 64.7798 78.9693 64.6369C87.886 58.129 93.2095 47.64 93.2095 36.5782C93.2099 17.4391 77.6391 1.8685 58.5 1.8685C39.3611 1.8685 23.7903 17.4393 23.7903 36.5782C23.7903 47.6418 29.1129 58.1316 38.0284 64.6406C38.1725 64.6408 38.3146 64.675 38.4429 64.7406C38.5712 64.8062 38.6822 64.9013 38.7668 65.018C38.8513 65.1347 38.907 65.2698 38.9293 65.4122C38.9516 65.5546 38.9399 65.7002 38.8951 65.8372C38.8503 65.9742 38.7737 66.0986 38.6716 66.2004C38.5695 66.3021 38.4447 66.3781 38.3076 66.4224C38.1704 66.4666 38.0247 66.4777 37.8824 66.4549C37.7401 66.432 37.6053 66.3757 37.4889 66.2907ZM108.738 116.958H8.26244C8.14246 116.958 8.02365 116.935 7.9128 116.889C7.80194 116.843 7.70121 116.776 7.61637 116.691C7.53152 116.606 7.46422 116.505 7.41832 116.394C7.37241 116.284 7.3488 116.165 7.34883 116.045V103.257C7.34883 95.4162 11.41 92.4139 18.9037 89.6128L20.81 88.9064C21.8911 88.5068 23.1203 88.0538 24.4379 87.5577C24.9071 87.3848 25.4361 87.6185 25.6143 88.0929C25.6991 88.32 25.6904 88.5713 25.5903 88.792C25.4902 89.0127 25.3067 89.1847 25.08 89.2705C23.7599 89.7663 22.5264 90.2193 21.4425 90.6208L19.5427 91.3255C12.5192 93.948 9.17581 96.4029 9.17581 103.257V115.131H107.824V103.257C107.824 96.4029 104.481 93.948 97.4573 91.3255L95.3895 90.5586C94.251 90.1406 93.114 89.7184 91.9787 89.2919C91.5075 89.1153 91.2687 88.589 91.443 88.116C91.6215 87.6434 92.1478 87.4078 92.6208 87.5827C93.7531 88.0066 94.8864 88.4276 96.0209 88.8457L98.0976 89.6126C105.59 92.4137 109.651 95.4159 109.651 103.257V116.045C109.651 116.164 109.627 116.283 109.582 116.394C109.536 116.505 109.468 116.606 109.384 116.691C109.299 116.775 109.198 116.843 109.087 116.889C108.977 116.935 108.858 116.958 108.738 116.958Z" fill="black"/>
<path d="M37.4917 76.6952C37.3717 76.6952 37.2529 76.6716 37.142 76.6258C37.0312 76.5799 36.9305 76.5126 36.8457 76.4278C36.7608 76.343 36.6936 76.2422 36.6477 76.1314C36.6018 76.0206 36.5782 75.9018 36.5783 75.7818V65.3775C36.5782 65.2575 36.6018 65.1387 36.6477 65.0279C36.6936 64.917 36.7608 64.8163 36.8457 64.7315C36.9305 64.6467 37.0312 64.5794 37.142 64.5335C37.2529 64.4876 37.3717 64.464 37.4917 64.4641C37.6116 64.464 37.7304 64.4876 37.8413 64.5335C37.9521 64.5794 38.0528 64.6467 38.1376 64.7315C38.2225 64.8163 38.2897 64.917 38.3356 65.0279C38.3815 65.1387 38.4051 65.2575 38.405 65.3775V75.7818C38.4051 75.9018 38.3815 76.0206 38.3356 76.1314C38.2897 76.2422 38.2225 76.343 38.1376 76.4278C38.0528 76.5126 37.9521 76.5799 37.8413 76.6258C37.7304 76.6716 37.6116 76.6952 37.4917 76.6952ZM79.5088 76.7683C79.3888 76.7684 79.27 76.7448 79.1591 76.6989C79.0482 76.6531 78.9475 76.5858 78.8626 76.5009C78.7778 76.4161 78.7105 76.3153 78.6646 76.2044C78.6187 76.0935 78.5951 75.9747 78.5952 75.8547V65.3738C78.5952 65.2538 78.6188 65.135 78.6646 65.0242C78.7105 64.9133 78.7778 64.8126 78.8627 64.7278C78.9475 64.6429 79.0483 64.5757 79.1591 64.5298C79.27 64.4839 79.3888 64.4604 79.5088 64.4604C79.6288 64.4604 79.7476 64.484 79.8584 64.5299C79.9692 64.5757 80.0699 64.643 80.1547 64.7279C80.2395 64.8127 80.3068 64.9134 80.3526 65.0242C80.3985 65.1351 80.4221 65.2539 80.422 65.3738V75.8547C80.4221 75.9747 80.3986 76.0935 80.3527 76.2044C80.3069 76.3152 80.2396 76.416 80.1548 76.5008C80.07 76.5857 79.9693 76.653 79.8584 76.6989C79.7476 76.7448 79.6288 76.7684 79.5088 76.7683Z" fill="black"/>
<path d="M79.5088 71.2877H37.4916C36.9869 71.2877 36.5783 70.8791 36.5783 70.3743C36.5783 69.8695 36.9869 69.4609 37.4916 69.4609H79.5088C80.0136 69.4609 80.422 69.8695 80.422 70.3743C80.422 70.8791 80.0136 71.2877 79.5088 71.2877ZM35.664 76.7682C35.4262 76.7658 35.1988 76.6709 35.0298 76.5036C34.8609 76.3363 34.7638 76.1097 34.7592 75.872C34.7546 75.6343 34.8427 75.4041 35.005 75.2303C35.1673 75.0566 35.3909 74.9529 35.6283 74.9412L81.2999 73.1145C81.778 73.0576 82.2275 73.4874 82.2487 73.9922C82.2579 74.2343 82.1706 74.4702 82.0061 74.6481C81.8416 74.826 81.6133 74.9314 81.3712 74.9412L35.7015 76.7682H35.664ZM32.0112 35.6646C31.8912 35.6647 31.7724 35.6411 31.6615 35.5952C31.5507 35.5494 31.4499 35.4821 31.3651 35.3973C31.2802 35.3124 31.2129 35.2117 31.167 35.1009C31.1211 34.99 31.0975 34.8712 31.0975 34.7513C31.0975 20.6486 42.5706 9.17578 56.673 9.17578C56.793 9.17572 56.9118 9.19931 57.0226 9.24519C57.1335 9.29107 57.2342 9.35834 57.319 9.44317C57.4038 9.528 57.4711 9.62871 57.517 9.73955C57.5629 9.8504 57.5865 9.9692 57.5864 10.0892C57.5865 10.2091 57.5629 10.3279 57.517 10.4388C57.4711 10.5496 57.4038 10.6503 57.319 10.7351C57.2342 10.82 57.1335 10.8873 57.0226 10.9331C56.9118 10.979 56.793 11.0026 56.673 11.0025C43.5775 11.0025 32.9243 21.6557 32.9243 34.7513C32.9244 34.8712 32.9008 34.99 32.855 35.1008C32.8091 35.2117 32.7419 35.3124 32.6571 35.3972C32.5723 35.4821 32.4716 35.5493 32.3607 35.5952C32.2499 35.6411 32.1311 35.6647 32.0112 35.6646ZM58.5009 84.0754C58.4447 84.0754 58.3867 84.0702 58.3286 84.0594L39.147 80.4059C38.909 80.3605 38.6988 80.2223 38.5627 80.0219C38.4265 79.8215 38.3756 79.5752 38.421 79.3372C38.4432 79.2192 38.4885 79.1067 38.5542 79.0063C38.62 78.9059 38.705 78.8194 38.8043 78.752C38.9036 78.6845 39.0153 78.6373 39.1329 78.6132C39.2505 78.589 39.3717 78.5883 39.4896 78.6112L58.6712 82.2647C58.8942 82.3076 59.0932 82.432 59.2295 82.6137C59.3657 82.7953 59.4294 83.0212 59.4082 83.2473C59.3869 83.4734 59.2822 83.6835 59.1145 83.8366C58.9467 83.9897 58.728 84.0749 58.5009 84.0754Z" fill="black"/>
<path d="M58.4993 84.0756C58.2726 84.0745 58.0543 83.9891 57.887 83.836C57.7197 83.683 57.6152 83.4732 57.594 83.2474C57.5727 83.0216 57.6362 82.796 57.772 82.6144C57.9078 82.4328 58.1063 82.3082 58.3289 82.2648L77.5107 78.6113C78.0155 78.5238 78.4846 78.8448 78.5792 79.3373C78.6018 79.4551 78.6008 79.5763 78.5765 79.6938C78.5522 79.8113 78.505 79.9229 78.4376 80.0221C78.3701 80.1214 78.2838 80.2064 78.1835 80.2723C78.0832 80.3381 77.9709 80.3836 77.853 80.4061L58.6714 84.0596C58.6134 84.0701 58.5553 84.0756 58.4993 84.0756ZM63.0671 95.0365H53.9329C53.7633 95.0364 53.5971 94.9891 53.4529 94.8999C53.3086 94.8108 53.192 94.6833 53.116 94.5317L51.2892 90.878C51.2355 90.7707 51.2034 90.6539 51.1949 90.5342C51.1864 90.4146 51.2015 90.2944 51.2395 90.1805C51.2774 90.0667 51.3374 89.9615 51.4161 89.8709C51.4947 89.7803 51.5904 89.7061 51.6978 89.6525C51.9145 89.5443 52.1653 89.5266 52.3951 89.6032C52.6249 89.6798 52.8149 89.8445 52.9233 90.0611L54.4978 93.2098H62.5036L64.0769 90.0611C64.1854 89.8445 64.3754 89.6799 64.6052 89.6033C64.835 89.5267 65.0857 89.5444 65.3025 89.6525C65.5191 89.7609 65.6838 89.9509 65.7605 90.1806C65.8371 90.4104 65.8194 90.6613 65.7113 90.878L63.8845 94.5317C63.8083 94.6833 63.6916 94.8107 63.5473 94.8998C63.403 94.989 63.2367 95.0363 63.0671 95.0365Z" fill="black"/>
<path d="M52.1061 104.17C51.9928 104.17 51.8778 104.149 51.7672 104.106C51.5424 104.016 51.3626 103.84 51.2671 103.617C51.1717 103.395 51.1683 103.143 51.2579 102.918L54.9114 93.7839C55.0979 93.3145 55.6358 93.0862 56.0988 93.2739C56.3236 93.3642 56.5034 93.54 56.5989 93.7627C56.6943 93.9853 56.6977 94.2368 56.6081 94.4619L52.9544 103.596C52.8865 103.766 52.7694 103.911 52.6182 104.013C52.467 104.116 52.2887 104.17 52.1061 104.17ZM64.8939 104.17C64.7112 104.17 64.5326 104.115 64.3813 104.013C64.2299 103.911 64.1126 103.765 64.0445 103.596L60.391 94.4617C60.2045 93.9941 60.4339 93.4626 60.901 93.2736C61.3651 93.0881 61.9021 93.3145 62.0891 93.7837L65.743 102.918C65.8318 103.143 65.8279 103.394 65.7323 103.617C65.6367 103.84 65.4571 104.015 65.2325 104.106C65.1247 104.148 65.0098 104.17 64.8939 104.17ZM48.5881 113.305C48.3767 113.305 48.1717 113.232 48.0082 113.098L36.911 103.963C36.7687 103.846 36.6653 103.687 36.6144 103.51C36.5634 103.332 36.5673 103.144 36.6256 102.968L38.2551 98.0798L27.7722 89.3452C27.5886 89.1918 27.4724 88.9726 27.4484 88.7345C27.4244 88.4965 27.4945 88.2585 27.6438 88.0715L34.951 78.9372C35.2668 78.5467 35.8404 78.4788 36.2355 78.7947C36.4245 78.9462 36.5457 79.1666 36.5725 79.4074C36.5993 79.6482 36.5294 79.8898 36.3783 80.0791L29.6303 88.5139L39.9034 97.0734C40.0444 97.1915 40.1466 97.3493 40.1967 97.5262C40.2468 97.7032 40.2424 97.8911 40.1842 98.0656L38.5563 102.95L49.1693 111.685C49.3562 111.839 49.4743 112.062 49.4976 112.303C49.521 112.544 49.4478 112.785 49.294 112.973C49.208 113.077 49.1002 113.16 48.9782 113.218C48.8561 113.275 48.723 113.305 48.5881 113.305Z" fill="black"/>
<path d="M53.9338 113.305C53.7706 113.305 53.6104 113.261 53.4698 113.178C53.3292 113.096 53.2135 112.976 53.1347 112.834L34.8665 79.9509C34.6213 79.5121 34.7801 78.9554 35.2216 78.7091C35.3265 78.651 35.4419 78.6141 35.5611 78.6006C35.6804 78.5871 35.8011 78.5972 35.9164 78.6304C36.0317 78.6635 36.1393 78.7191 36.2332 78.7938C36.327 78.8686 36.4052 78.9611 36.4633 79.066L54.7316 111.949C54.9767 112.388 54.8179 112.944 54.3764 113.191C54.2361 113.269 54.0837 113.305 53.9338 113.305ZM68.4119 113.305C68.1482 113.305 67.8874 113.191 67.7053 112.973C67.5519 112.785 67.479 112.544 67.5024 112.303C67.5259 112.062 67.6437 111.84 67.8303 111.685L78.4432 102.95L76.8146 98.0657C76.7569 97.8912 76.7529 97.7033 76.8031 97.5264C76.8533 97.3495 76.9554 97.1918 77.0961 97.0735L87.3686 88.514L80.6217 80.0793C80.4709 79.8898 80.4012 79.6483 80.428 79.4076C80.4548 79.1668 80.5757 78.9465 80.7645 78.7948C80.8581 78.7197 80.9656 78.6639 81.0809 78.6304C81.1961 78.597 81.3168 78.5866 81.4361 78.5998C81.5554 78.6131 81.6708 78.6497 81.7759 78.7076C81.881 78.7655 81.9737 78.8436 82.0485 78.9374L89.3562 88.0716C89.5053 88.2587 89.5753 88.4966 89.5513 88.7346C89.5273 88.9726 89.4112 89.1918 89.2278 89.3454L78.7451 98.0799L80.3756 102.968C80.4332 103.144 80.4369 103.332 80.386 103.51C80.3352 103.687 80.2322 103.845 80.0904 103.964L68.9934 113.098C68.8293 113.232 68.6238 113.305 68.4119 113.305Z" fill="black"/>
<path d="M63.0671 113.305C62.9123 113.305 62.7598 113.266 62.6247 113.19C62.5197 113.132 62.4272 113.054 62.3525 112.96C62.2777 112.866 62.2222 112.759 62.1891 112.644C62.1559 112.528 62.1458 112.408 62.1593 112.288C62.1728 112.169 62.2097 112.054 62.2678 111.949L80.536 79.066C80.7823 78.6236 81.339 78.4648 81.7777 78.7091C82.2201 78.9552 82.379 79.5121 82.1345 79.9508L63.8667 112.834C63.7877 112.976 63.6718 113.095 63.5312 113.178C63.3906 113.261 63.2303 113.305 63.0671 113.305ZM46.6268 91.3828C46.4705 91.3832 46.3168 91.3434 46.1804 91.2672C46.0439 91.1909 45.9295 91.0808 45.848 90.9475C45.7213 90.7412 45.6816 90.4931 45.7376 90.2577C45.7937 90.0222 45.9409 89.8186 46.1469 89.6915L58.0213 82.3843C58.2273 82.2641 58.4722 82.2293 58.7036 82.2872C58.935 82.3452 59.1345 82.4914 59.2596 82.6945C59.3846 82.8976 59.4253 83.1416 59.3728 83.3743C59.3204 83.607 59.1791 83.8099 58.979 83.9398L47.1048 91.2473C46.9613 91.3362 46.7957 91.3832 46.6268 91.3828Z" fill="black"/>
<path d="M70.3744 91.3827C70.2054 91.3832 70.0398 91.3362 69.8963 91.247L58.021 83.9395C57.8202 83.81 57.6781 83.6069 57.6253 83.3738C57.5724 83.1407 57.613 82.8962 57.7383 82.6927C57.8636 82.4892 58.0637 82.3429 58.2957 82.2852C58.5276 82.2275 58.7729 82.263 58.979 82.384L70.8524 89.6912C70.9546 89.754 71.0434 89.8362 71.1138 89.9333C71.1842 90.0304 71.2348 90.1404 71.2626 90.2571C71.2905 90.3737 71.2951 90.4947 71.2761 90.6131C71.2572 90.7315 71.2151 90.845 71.1522 90.9472C71.0711 91.0807 70.9569 91.1909 70.8206 91.2672C70.6843 91.3435 70.5306 91.3833 70.3744 91.3827ZM58.5 113.305C58.38 113.305 58.2612 113.281 58.1503 113.235C58.0394 113.189 57.9387 113.122 57.8539 113.037C57.769 112.953 57.7017 112.852 57.6558 112.741C57.6099 112.63 57.5863 112.511 57.5864 112.391V99.6033C57.5863 99.4834 57.6099 99.3646 57.6558 99.2537C57.7017 99.1429 57.769 99.0422 57.8539 98.9573C57.9387 98.8725 58.0395 98.8053 58.1503 98.7594C58.2612 98.7136 58.38 98.6901 58.5 98.6902C58.6199 98.6901 58.7387 98.7137 58.8496 98.7596C58.9604 98.8054 59.0611 98.8727 59.146 98.9575C59.2308 99.0423 59.2981 99.143 59.344 99.2538C59.39 99.3646 59.4136 99.4834 59.4136 99.6033V112.391C59.4136 112.511 59.39 112.63 59.3441 112.741C59.2982 112.852 59.2309 112.952 59.1461 113.037C59.0612 113.122 58.9605 113.189 58.8496 113.235C58.7388 113.281 58.62 113.305 58.5 113.305ZM53.9329 67.6342C53.8129 67.6343 53.6941 67.6107 53.5833 67.5648C53.4724 67.5189 53.3717 67.4517 53.2869 67.3668C53.2021 67.282 53.1348 67.1813 53.0889 67.0705C53.043 66.9596 53.0194 66.8408 53.0195 66.7209V59.4134C53.0194 59.2934 53.043 59.1746 53.0889 59.0638C53.1348 58.9529 53.2021 58.8522 53.2869 58.7674C53.3717 58.6826 53.4724 58.6153 53.5833 58.5694C53.6941 58.5235 53.8129 58.4999 53.9329 58.5C54.0529 58.4999 54.1717 58.5235 54.2826 58.5693C54.3934 58.6152 54.4942 58.6825 54.579 58.7673C54.6639 58.8521 54.7312 58.9529 54.7771 59.0637C54.823 59.1746 54.8465 59.2934 54.8465 59.4134V66.7209C54.8465 66.8408 54.823 66.9596 54.7771 67.0705C54.7312 67.1814 54.6639 67.2821 54.579 67.3669C54.4942 67.4517 54.3934 67.519 54.2826 67.5649C54.1717 67.6108 54.0529 67.6343 53.9329 67.6342ZM63.0671 67.6342C62.9471 67.6343 62.8283 67.6107 62.7175 67.5648C62.6066 67.5189 62.5059 67.4517 62.421 67.3668C62.3362 67.282 62.2689 67.1813 62.223 67.0705C62.1771 66.9596 62.1535 66.8408 62.1535 66.7209V59.4134C62.1535 58.9086 62.5623 58.5 63.0671 58.5C63.5719 58.5 63.9803 58.9086 63.9803 59.4134V66.7209C63.9803 66.8408 63.9568 66.9596 63.9109 67.0704C63.8651 67.1813 63.7978 67.282 63.713 67.3668C63.6282 67.4517 63.5275 67.5189 63.4167 67.5648C63.3058 67.6107 63.1871 67.6343 63.0671 67.6342Z" fill="black"/>
<path d="M53.9338 60.3267C53.7967 60.3267 53.6613 60.296 53.5376 60.2367C53.414 60.1774 53.3053 60.0911 53.2195 59.9841C53.0683 59.7948 52.9984 59.5532 53.0252 59.3124C53.052 59.0715 53.1732 58.8512 53.3623 58.6996L57.9294 55.0461C58.3245 54.7303 58.8974 54.7973 59.2139 55.189C59.3651 55.3783 59.435 55.6199 59.4082 55.8608C59.3814 56.1016 59.2602 56.322 59.071 56.4734L54.5042 60.1272C54.3422 60.2565 54.141 60.3268 53.9338 60.3267Z" fill="black"/>
<path d="M63.0671 60.3268C62.8596 60.3271 62.6583 60.2567 62.4963 60.127L57.9292 56.4733C57.7402 56.3217 57.619 56.1014 57.5923 55.8606C57.5655 55.6198 57.6353 55.3782 57.7863 55.1888C58.1031 54.799 58.6766 54.7313 59.0708 55.046L63.6379 58.6995C63.8265 58.8513 63.9474 59.0717 63.9742 59.3123C64.0009 59.553 63.9314 59.7944 63.7808 59.984C63.695 60.0909 63.5864 60.1771 63.4629 60.2365C63.3394 60.2958 63.2041 60.3266 63.0671 60.3268ZM63.0671 54.8465C62.9471 54.8466 62.8283 54.823 62.7174 54.7771C62.6065 54.7312 62.5058 54.6639 62.4209 54.579C62.3361 54.4942 62.2688 54.3935 62.2229 54.2826C62.177 54.1717 62.1534 54.0529 62.1535 53.9329V39.3184C62.1535 38.8136 62.5623 38.405 63.0671 38.405C63.5719 38.405 63.9803 38.8136 63.9803 39.3184V53.9331C63.9803 54.0531 63.9568 54.1719 63.9109 54.2827C63.8651 54.3936 63.7978 54.4943 63.713 54.5791C63.6282 54.6639 63.5275 54.7312 63.4167 54.7771C63.3058 54.823 63.1871 54.8466 63.0671 54.8465ZM53.9329 54.8465C53.8129 54.8466 53.6941 54.823 53.5832 54.7771C53.4724 54.7312 53.3716 54.6639 53.2868 54.579C53.202 54.4942 53.1347 54.3934 53.0888 54.2826C53.043 54.1717 53.0194 54.0529 53.0195 53.9329V39.3184C53.0194 39.1984 53.043 39.0796 53.0889 38.9688C53.1348 38.858 53.2021 38.7572 53.2869 38.6724C53.3717 38.5876 53.4724 38.5203 53.5833 38.4744C53.6941 38.4286 53.8129 38.405 53.9329 38.405C54.0529 38.4049 54.1717 38.4285 54.2826 38.4744C54.3934 38.5202 54.4942 38.5875 54.579 38.6723C54.6639 38.7572 54.7312 38.8579 54.7771 38.9687C54.823 39.0796 54.8465 39.1984 54.8465 39.3184V53.9331C54.8465 54.0531 54.823 54.1719 54.7771 54.2828C54.7312 54.3936 54.6639 54.4944 54.579 54.5792C54.4942 54.664 54.3934 54.7313 54.2826 54.7772C54.1717 54.823 54.0529 54.8466 53.9329 54.8465Z" fill="black"/>
<path d="M49.366 44.7989C46.3439 44.7989 43.8855 42.3405 43.8855 39.3184C43.8855 36.2963 46.3439 33.8381 49.366 33.8381C52.3881 33.8381 54.8465 36.2965 54.8465 39.3184C54.8466 39.4384 54.823 39.5572 54.7771 39.6681C54.7313 39.779 54.664 39.8797 54.5791 39.9646C54.4943 40.0495 54.3935 40.1167 54.2826 40.1626C54.1717 40.2085 54.0529 40.2321 53.9329 40.232C53.8129 40.232 53.6941 40.2085 53.5832 40.1626C53.4724 40.1167 53.3716 40.0494 53.2868 39.9645C53.202 39.8797 53.1347 39.7789 53.0889 39.6681C53.043 39.5572 53.0194 39.4384 53.0195 39.3184C53.0195 37.3036 51.3811 35.6649 49.366 35.6649C47.351 35.6649 45.7123 37.3036 45.7123 39.3184C45.7123 41.3334 47.3507 42.9721 49.366 42.9721C49.486 42.9721 49.6048 42.9957 49.7157 43.0415C49.8265 43.0874 49.9272 43.1547 50.0121 43.2396C50.0969 43.3244 50.1642 43.4252 50.21 43.536C50.2559 43.6469 50.2795 43.7657 50.2794 43.8857C50.2794 44.0057 50.2558 44.1244 50.2099 44.2353C50.164 44.3461 50.0967 44.4468 50.0119 44.5316C49.9271 44.6164 49.8264 44.6836 49.7156 44.7295C49.6047 44.7754 49.4859 44.7989 49.366 44.7989ZM67.6345 44.7989C67.5145 44.799 67.3957 44.7754 67.2848 44.7295C67.1739 44.6837 67.0732 44.6164 66.9883 44.5316C66.9035 44.4467 66.8362 44.346 66.7903 44.2352C66.7444 44.1243 66.7208 44.0055 66.7209 43.8855C66.7208 43.7655 66.7443 43.6467 66.7902 43.5358C66.8361 43.4249 66.9034 43.3241 66.9882 43.2393C67.0731 43.1544 67.1738 43.0871 67.2847 43.0413C67.3956 42.9954 67.5145 42.9718 67.6345 42.9719C69.65 42.9719 71.288 41.3334 71.288 39.3182C71.288 37.3033 69.65 35.6646 67.6345 35.6646C65.6185 35.6646 63.9805 37.3033 63.9805 39.3182C63.9805 39.8232 63.5721 40.2318 63.0673 40.2318C62.5626 40.2318 62.1537 39.8232 62.1537 39.3182C62.1537 36.296 64.6121 33.8379 67.6345 33.8379C70.6566 33.8379 73.1147 36.2963 73.1147 39.3182C73.1147 42.3405 70.6563 44.7989 67.6345 44.7989Z" fill="black"/>
<path d="M67.6345 44.7989H66.7209C66.6009 44.799 66.4821 44.7754 66.3712 44.7295C66.2604 44.6836 66.1596 44.6164 66.0748 44.5315C65.9899 44.4467 65.9226 44.346 65.8767 44.2352C65.8308 44.1243 65.8072 44.0055 65.8073 43.8855C65.8072 43.7655 65.8308 43.6467 65.8767 43.5358C65.9226 43.425 65.9899 43.3242 66.0747 43.2394C66.1596 43.1545 66.2603 43.0872 66.3712 43.0413C66.482 42.9955 66.6009 42.9719 66.7209 42.9719H67.6345C67.7544 42.9719 67.8732 42.9955 67.9841 43.0414C68.0949 43.0873 68.1956 43.1546 68.2805 43.2394C68.3653 43.3243 68.4325 43.425 68.4784 43.5359C68.5242 43.6467 68.5477 43.7656 68.5476 43.8855C68.5477 44.0055 68.5241 44.1243 68.4783 44.2351C68.4324 44.346 68.3652 44.4467 68.2804 44.5315C68.1956 44.6163 68.0949 44.6836 67.984 44.7295C67.8732 44.7754 67.7544 44.799 67.6345 44.7989Z" fill="black"/>
<path d="M50.2794 44.7989H49.366C49.246 44.799 49.1272 44.7754 49.0164 44.7295C48.9056 44.6836 48.8048 44.6163 48.72 44.5315C48.6352 44.4467 48.5679 44.346 48.522 44.2351C48.4761 44.1243 48.4526 44.0055 48.4526 43.8855C48.4525 43.7655 48.4761 43.6467 48.522 43.5359C48.5678 43.425 48.6351 43.3242 48.7199 43.2394C48.8048 43.1545 48.9055 43.0872 49.0163 43.0413C49.1272 42.9955 49.246 42.9719 49.366 42.9719H50.2794C50.3994 42.9719 50.5182 42.9955 50.629 43.0413C50.7399 43.0872 50.8406 43.1545 50.9254 43.2394C51.0103 43.3242 51.0775 43.425 51.1234 43.5359C51.1693 43.6467 51.1928 43.7655 51.1928 43.8855C51.1928 44.0055 51.1692 44.1243 51.1233 44.2351C51.0775 44.346 51.0102 44.4467 50.9254 44.5315C50.8405 44.6163 50.7398 44.6836 50.629 44.7295C50.5181 44.7754 50.3993 44.799 50.2794 44.7989Z" fill="black"/>
<path d="M59.4136 44.7989H57.5866C57.4667 44.799 57.3479 44.7754 57.237 44.7295C57.1262 44.6836 57.0255 44.6163 56.9406 44.5315C56.8558 44.4467 56.7885 44.346 56.7427 44.2351C56.6968 44.1243 56.6732 44.0055 56.6732 43.8855C56.6732 43.7655 56.6967 43.6467 56.7426 43.5359C56.7885 43.425 56.8557 43.3242 56.9406 43.2394C57.0254 43.1545 57.1261 43.0872 57.237 43.0413C57.3478 42.9955 57.4666 42.9719 57.5866 42.9719H59.4136C59.5336 42.9719 59.6524 42.9955 59.7632 43.0414C59.8741 43.0873 59.9748 43.1546 60.0596 43.2394C60.1444 43.3243 60.2117 43.425 60.2575 43.5359C60.3033 43.6467 60.3269 43.7656 60.3268 43.8855C60.3268 44.0055 60.3033 44.1243 60.2574 44.2351C60.2116 44.346 60.1443 44.4467 60.0595 44.5315C59.9747 44.6163 59.874 44.6836 59.7632 44.7295C59.6523 44.7754 59.5336 44.799 59.4136 44.7989Z" fill="black"/>
</svg>
