<svg width="32" height="28" viewBox="0 0 32 28" fill="none" xmlns="http://www.w3.org/2000/svg">
<path fill-rule="evenodd" clip-rule="evenodd" d="M15.0802 0.36781C15.5953 -0.122603 16.4044 -0.122603 16.9194 0.36781L27.5861 10.5265L30.9194 13.7012C31.4526 14.2089 31.4732 15.0529 30.9653 15.5863C30.4576 16.1195 29.6136 16.14 29.0802 15.6321L27.9998 14.6032V24.6667C27.9998 26.1395 26.806 27.3333 25.3332 27.3333H18.6665H13.3332H6.66651C5.19375 27.3333 3.99984 26.1395 3.99984 24.6667V14.6032L2.91939 15.6321C2.38613 16.14 1.54217 16.1195 1.03432 15.5863C0.526475 15.0529 0.547059 14.2089 1.0803 13.7012L4.41363 10.5265L15.0802 0.36781ZM6.66651 12.0635V24.6667H11.9998V18C11.9998 15.7908 13.7906 14 15.9998 14C18.209 14 19.9998 15.7908 19.9998 18V24.6667H25.3332V12.0635L15.9998 3.1746L6.66651 12.0635ZM17.3332 24.6667V18C17.3332 17.2636 16.7362 16.6667 15.9998 16.6667C15.2634 16.6667 14.6665 17.2636 14.6665 18V24.6667H17.3332Z" fill="black"/>
</svg>
