<svg width="172" height="108" viewBox="0 0 172 108" fill="none" xmlns="http://www.w3.org/2000/svg">
<g clip-path="url(#clip0_97_263)">
<path d="M6.82324 5.4149C6.08182 5.4149 5.46672 4.81145 5.46672 4.06524C5.46672 3.31903 6.05428 2.71558 6.7967 2.71558H6.8229C7.56532 2.71558 8.16631 3.31903 8.16631 4.06524C8.16631 4.81145 7.56566 5.4149 6.82324 5.4149ZM12.1966 5.4149C11.4551 5.4149 10.84 4.81145 10.84 4.06524C10.84 3.31903 11.4276 2.71558 12.17 2.71558H12.1962C12.9386 2.71558 13.5396 3.31903 13.5396 4.06524C13.5396 4.81145 12.939 5.4149 12.1966 5.4149ZM17.5699 5.4149C16.8285 5.4149 16.2134 4.81145 16.2134 4.06524C16.2134 3.31903 16.8009 2.71558 17.5433 2.71558H17.5695C18.312 2.71558 18.913 3.31903 18.913 4.06524C18.913 4.81145 18.3123 5.4149 17.5699 5.4149Z" fill="black"/>
<path d="M146.45 8.11409H1.36995C1.1935 8.11418 1.01877 8.07933 0.855743 8.01153C0.692712 7.94374 0.54458 7.84433 0.419815 7.71898C0.29505 7.59364 0.196098 7.44481 0.128617 7.28103C0.0611351 7.11724 0.0264469 6.94169 0.0265352 6.76443V4.0651C0.0265352 1.83254 1.83421 0.0161133 4.05644 0.0161133H143.764C145.986 0.0161133 147.794 1.8322 147.794 4.0651V6.76443C147.794 6.94168 147.759 7.11721 147.692 7.28097C147.624 7.44474 147.525 7.59354 147.4 7.71888C147.276 7.84422 147.127 7.94363 146.964 8.01144C146.801 8.07926 146.627 8.11413 146.45 8.11409ZM2.71303 5.41476H145.107V4.0651C145.107 3.33374 144.493 2.71544 143.763 2.71544H4.05644C3.70023 2.71571 3.35868 2.85799 3.1068 3.11104C2.85492 3.36409 2.71329 3.70723 2.71303 4.0651V5.41476Z" fill="black"/>
<path d="M146.45 40.5041C145.708 40.5041 145.107 39.9003 145.107 39.1544V6.76421C145.106 6.58692 145.141 6.41135 145.209 6.24754C145.276 6.08373 145.375 5.93489 145.5 5.80954C145.625 5.68419 145.773 5.58479 145.936 5.51701C146.099 5.44923 146.274 5.41442 146.45 5.41455C146.627 5.41451 146.801 5.44939 146.964 5.51721C147.127 5.58502 147.275 5.68444 147.4 5.80978C147.525 5.93512 147.624 6.08393 147.691 6.24769C147.759 6.41146 147.793 6.58698 147.793 6.76421V39.1544C147.793 39.3317 147.759 39.5072 147.691 39.671C147.624 39.8348 147.525 39.9836 147.4 40.109C147.276 40.2343 147.127 40.3337 146.964 40.4015C146.801 40.4693 146.627 40.5042 146.45 40.5041ZM1.36995 107.983C1.1935 107.984 1.01877 107.949 0.855743 107.881C0.692712 107.813 0.54458 107.714 0.419815 107.588C0.29505 107.463 0.196098 107.314 0.128617 107.15C0.0611351 106.987 0.0264469 106.811 0.0265352 106.634V6.76455C0.0264469 6.58729 0.0611351 6.41174 0.128617 6.24795C0.196098 6.08416 0.29505 5.93534 0.419815 5.81C0.54458 5.68465 0.692712 5.58524 0.855743 5.51744C1.01877 5.44965 1.1935 5.4148 1.36995 5.41489C1.54639 5.4148 1.72113 5.44965 1.88416 5.51744C2.04719 5.58524 2.19532 5.68465 2.32008 5.81C2.44485 5.93534 2.5438 6.08416 2.61128 6.24795C2.67876 6.41174 2.71345 6.58729 2.71336 6.76455V106.634C2.71341 106.811 2.67869 106.987 2.61119 107.15C2.54369 107.314 2.44474 107.463 2.31999 107.588C2.19523 107.714 2.04711 107.813 1.8841 107.881C1.72109 107.949 1.54638 107.984 1.36995 107.983Z" fill="black"/>
<path d="M124.957 107.983H1.36995C0.627527 107.983 0.026535 107.38 0.026535 106.634C0.026535 105.888 0.627527 105.284 1.36995 105.284H124.957C125.7 105.284 126.3 105.888 126.3 106.634C126.3 107.38 125.7 107.983 124.957 107.983ZM146.45 107.983C132.376 107.983 120.927 96.4801 120.927 82.3412C120.927 68.202 132.376 56.699 146.45 56.699C160.524 56.699 171.974 68.202 171.974 82.3412C171.974 96.4801 160.524 107.983 146.45 107.983ZM146.45 59.3983C133.857 59.3983 123.614 69.689 123.614 82.3412C123.614 94.9934 133.856 105.284 146.45 105.284C159.044 105.284 169.287 94.9937 169.287 82.3412C169.287 69.6887 159.044 59.3983 146.45 59.3983Z" fill="black"/>
<path d="M149.137 59.5463C148.394 59.5463 147.793 58.9428 147.793 58.1966V52.6504C147.793 52.4732 147.828 52.2976 147.895 52.1338C147.963 51.97 148.062 51.8211 148.187 51.6958C148.312 51.5704 148.46 51.471 148.623 51.4032C148.786 51.3355 148.961 51.3006 149.137 51.3008C149.314 51.3007 149.488 51.3356 149.651 51.4034C149.814 51.4712 149.962 51.5707 150.087 51.696C150.212 51.8214 150.311 51.9702 150.378 52.1339C150.446 52.2977 150.48 52.4732 150.48 52.6504V58.1966C150.48 58.3738 150.446 58.5494 150.378 58.7132C150.311 58.8769 150.212 59.0258 150.087 59.1511C149.962 59.2765 149.814 59.3759 149.651 59.4437C149.488 59.5115 149.314 59.5463 149.137 59.5463ZM143.763 59.5463C143.587 59.5464 143.412 59.5116 143.249 59.4438C143.086 59.376 142.938 59.2766 142.813 59.1512C142.689 59.0259 142.59 58.877 142.522 58.7132C142.455 58.5494 142.42 58.3738 142.42 58.1966V52.6504C142.42 51.9046 143.021 51.3008 143.763 51.3008C144.506 51.3008 145.107 51.9046 145.107 52.6504V58.1966C145.107 58.3738 145.072 58.5494 145.005 58.7132C144.937 58.877 144.838 59.0259 144.714 59.1512C144.589 59.2766 144.441 59.376 144.278 59.4438C144.115 59.5116 143.94 59.5464 143.763 59.5463Z" fill="black"/>
<path d="M151.823 54H141.077C140.9 54 140.726 53.9651 140.563 53.8973C140.4 53.8295 140.251 53.7301 140.127 53.6047C140.002 53.4794 139.903 53.3306 139.836 53.1668C139.768 53.0031 139.733 52.8276 139.734 52.6503V47.252C139.733 47.0748 139.768 46.8993 139.836 46.7355C139.903 46.5717 140.002 46.4229 140.127 46.2976C140.251 46.1722 140.4 46.0728 140.563 46.005C140.726 45.9372 140.9 45.9023 141.077 45.9023H151.823C152.566 45.9023 153.167 46.5061 153.167 47.252V52.6503C153.167 52.8276 153.132 53.0032 153.065 53.167C152.997 53.3308 152.898 53.4796 152.774 53.605C152.649 53.7303 152.501 53.8297 152.338 53.8975C152.175 53.9653 152 54.0001 151.823 54ZM142.42 51.3007H150.48V48.6013H142.42V51.3007ZM146.45 86.3902C144.228 86.3902 142.42 84.5741 142.42 82.3415C142.42 80.109 144.228 78.2929 146.45 78.2929C148.673 78.2929 150.48 80.109 150.48 82.3415C150.48 84.5741 148.673 86.3902 146.45 86.3902ZM146.45 80.9919C145.71 80.9919 145.107 81.598 145.107 82.3415C145.107 82.6993 145.249 83.0421 145.501 83.295C145.753 83.5479 146.094 83.6902 146.45 83.6909C146.806 83.6901 147.147 83.5478 147.399 83.2949C147.651 83.042 147.793 82.6992 147.793 82.3415C147.793 81.9838 147.651 81.641 147.399 81.388C147.148 81.135 146.806 80.9926 146.45 80.9919Z" fill="black"/>
<path d="M148.35 81.7822C148.084 81.7822 147.825 81.703 147.604 81.5548C147.383 81.4065 147.211 81.1957 147.109 80.9491C147.007 80.7026 146.981 80.4313 147.033 80.1695C147.084 79.9077 147.212 79.6672 147.4 79.4785L156.25 70.5901C156.375 70.4648 156.523 70.3654 156.686 70.2976C156.849 70.2298 157.023 70.1949 157.2 70.1949C157.376 70.1949 157.551 70.2298 157.714 70.2977C157.877 70.3655 158.025 70.4649 158.149 70.5902C158.274 70.7155 158.373 70.8643 158.441 71.028C158.508 71.1918 158.543 71.3672 158.543 71.5444C158.543 71.7217 158.508 71.8971 158.44 72.0608C158.373 72.2246 158.274 72.3733 158.149 72.4986L149.3 81.3867C149.175 81.5123 149.027 81.6118 148.864 81.6797C148.701 81.7476 148.526 81.7824 148.35 81.7822ZM146.45 62.0972C145.708 62.0972 145.107 61.4937 145.107 60.7479V58.0485C145.106 57.8713 145.141 57.6958 145.209 57.532C145.276 57.3682 145.375 57.2194 145.5 57.0941C145.625 56.9688 145.773 56.8694 145.936 56.8016C146.099 56.7339 146.274 56.6991 146.45 56.6992C146.627 56.6991 146.801 56.734 146.964 56.8018C147.127 56.8695 147.275 56.9689 147.4 57.0942C147.525 57.2195 147.624 57.3683 147.691 57.5321C147.759 57.6958 147.793 57.8713 147.793 58.0485V60.7479C147.793 60.9251 147.759 61.1006 147.691 61.2643C147.624 61.4281 147.525 61.5769 147.4 61.7022C147.275 61.8275 147.127 61.9269 146.964 61.9947C146.801 62.0624 146.627 62.0973 146.45 62.0972ZM146.45 107.983C145.708 107.983 145.107 107.38 145.107 106.634V103.935C145.106 103.757 145.141 103.582 145.209 103.418C145.276 103.254 145.375 103.105 145.5 102.98C145.625 102.855 145.773 102.755 145.936 102.688C146.099 102.62 146.274 102.585 146.45 102.585C146.627 102.585 146.801 102.62 146.964 102.688C147.127 102.755 147.276 102.855 147.4 102.98C147.525 103.106 147.624 103.254 147.691 103.418C147.759 103.582 147.793 103.757 147.793 103.935V106.634C147.793 106.811 147.759 106.986 147.691 107.15C147.624 107.314 147.525 107.463 147.4 107.588C147.275 107.713 147.127 107.813 146.964 107.881C146.801 107.949 146.627 107.983 146.45 107.983ZM135.704 64.9916C135.468 64.9914 135.236 64.9289 135.031 64.8105C134.827 64.692 134.657 64.5217 134.538 64.3166L133.195 61.976C132.825 61.3301 133.048 60.5052 133.689 60.1306C133.998 59.952 134.365 59.904 134.709 59.9969C135.053 60.0898 135.347 60.3162 135.525 60.6264L136.868 62.9673C137.239 63.6129 137.015 64.4378 136.376 64.8124C136.171 64.9297 135.939 64.9914 135.704 64.9916ZM158.54 104.728C158.304 104.728 158.073 104.665 157.869 104.547C157.664 104.428 157.494 104.258 157.376 104.054L156.032 101.715C155.854 101.405 155.807 101.036 155.899 100.69C155.992 100.344 156.217 100.05 156.525 99.8702C156.834 99.6919 157.201 99.6439 157.546 99.7368C157.89 99.8296 158.183 100.056 158.362 100.366L159.706 102.704C159.883 103.014 159.931 103.382 159.839 103.728C159.746 104.073 159.521 104.368 159.212 104.546C159.008 104.666 158.776 104.729 158.54 104.728ZM127.838 72.8938C127.602 72.8936 127.371 72.832 127.166 72.7149L124.836 71.3653C124.196 70.991 123.973 70.1658 124.343 69.5202C124.521 69.2099 124.814 68.9834 125.159 68.8904C125.503 68.7975 125.87 68.8456 126.179 69.0244L128.509 70.374C128.817 70.5537 129.042 70.8487 129.135 71.1944C129.227 71.5401 129.18 71.9085 129.003 72.2192C128.884 72.4242 128.715 72.5945 128.51 72.7129C128.306 72.8313 128.074 72.8937 127.838 72.8938ZM167.388 95.8371C167.153 95.8366 166.922 95.7748 166.718 95.6579L164.391 94.3082C164.083 94.1287 163.858 93.8337 163.765 93.4879C163.673 93.1421 163.721 92.7736 163.898 92.4631C164.077 92.1531 164.37 91.9269 164.715 91.8341C165.059 91.7412 165.426 91.7892 165.735 91.9676L168.062 93.3173C168.371 93.4966 168.596 93.7917 168.688 94.1378C168.78 94.4838 168.731 94.8523 168.553 95.1624C168.435 95.3681 168.265 95.5387 168.061 95.6572C167.856 95.7757 167.624 95.8377 167.388 95.8371ZM124.957 83.6908H122.27C122.094 83.6909 121.919 83.6561 121.756 83.5883C121.593 83.5206 121.445 83.4212 121.32 83.2959C121.195 83.1706 121.096 83.0217 121.029 82.858C120.962 82.6942 120.927 82.5187 120.927 82.3415C120.927 82.1642 120.962 81.9886 121.029 81.8248C121.096 81.661 121.195 81.5122 121.32 81.3868C121.445 81.2615 121.593 81.1621 121.756 81.0943C121.919 81.0265 122.094 80.9917 122.27 80.9918H124.957C125.133 80.9917 125.308 81.0265 125.471 81.0943C125.634 81.1621 125.782 81.2615 125.907 81.3868C126.032 81.5122 126.131 81.661 126.198 81.8248C126.266 81.9886 126.3 82.1642 126.3 82.3415C126.3 82.5187 126.266 82.6942 126.198 82.858C126.131 83.0217 126.032 83.1706 125.907 83.2959C125.782 83.4212 125.634 83.5206 125.471 83.5883C125.308 83.6561 125.133 83.6909 124.957 83.6908ZM170.631 83.6908H167.944C167.201 83.6908 166.6 83.0873 166.6 82.3415C166.6 82.1642 166.635 81.9886 166.702 81.8248C166.77 81.661 166.869 81.5121 166.994 81.3868C167.118 81.2614 167.267 81.162 167.43 81.0943C167.593 81.0265 167.767 80.9917 167.944 80.9918H170.631C170.807 80.9917 170.982 81.0266 171.145 81.0944C171.308 81.1622 171.456 81.2616 171.581 81.3869C171.705 81.5123 171.804 81.6611 171.872 81.8249C171.939 81.9887 171.974 82.1642 171.974 82.3415C171.974 82.5187 171.939 82.6942 171.872 82.8579C171.804 83.0217 171.705 83.1705 171.581 83.2958C171.456 83.4211 171.308 83.5205 171.145 83.5883C170.982 83.656 170.807 83.6909 170.631 83.6908ZM125.508 95.8371C125.272 95.8369 125.04 95.7744 124.836 95.656C124.631 95.5377 124.461 95.3675 124.343 95.1624C124.165 94.8518 124.118 94.4833 124.21 94.1375C124.303 93.7918 124.528 93.4969 124.836 93.3173L127.166 91.9676C127.475 91.7895 127.842 91.7416 128.186 91.8345C128.53 91.9273 128.824 92.1533 129.003 92.4631C129.18 92.7737 129.227 93.1422 129.135 93.488C129.042 93.8337 128.817 94.1286 128.509 94.3082L126.179 95.6579C125.975 95.7752 125.743 95.837 125.508 95.8371ZM165.063 72.8938C164.827 72.8933 164.595 72.8308 164.391 72.7124C164.187 72.5941 164.017 72.424 163.898 72.2192C163.721 71.9087 163.673 71.5402 163.765 71.1943C163.857 70.8484 164.083 70.5535 164.391 70.374L166.718 69.0244C167.356 68.6525 168.18 68.8742 168.553 69.5202C168.731 69.8303 168.78 70.1988 168.688 70.5448C168.596 70.8908 168.371 71.1859 168.062 71.3653L165.735 72.7149C165.53 72.8327 165.299 72.8944 165.063 72.8938ZM134.36 104.731C134.124 104.73 133.893 104.669 133.689 104.551C133.048 104.177 132.825 103.352 133.195 102.706L134.538 100.365C134.717 100.055 135.01 99.8285 135.355 99.7356C135.699 99.6427 136.066 99.691 136.376 99.8699C136.683 100.05 136.908 100.345 137 100.69C137.093 101.036 137.045 101.404 136.868 101.715L135.525 104.056C135.407 104.261 135.237 104.431 135.032 104.55C134.828 104.668 134.596 104.73 134.36 104.731ZM157.197 64.9916C156.969 64.9916 156.738 64.9335 156.525 64.8124C156.217 64.6326 155.993 64.3377 155.9 63.992C155.808 63.6463 155.855 63.278 156.032 62.9673L157.376 60.6264C157.554 60.3162 157.847 60.0897 158.192 59.9968C158.536 59.9038 158.903 59.9519 159.212 60.1306C159.52 60.3105 159.745 60.6054 159.837 60.9512C159.93 61.2969 159.883 61.6653 159.706 61.976L158.362 64.3166C158.244 64.5217 158.074 64.6921 157.869 64.8105C157.665 64.929 157.433 64.9914 157.197 64.9916ZM65.8511 97.1867C65.6233 97.1871 65.399 97.1292 65.1996 97.0185C65.0001 96.9078 64.832 96.7479 64.711 96.5539L52.4163 76.7899L40.1217 96.5539C40.0284 96.7045 39.9065 96.835 39.7628 96.9381C39.6192 97.0411 39.4567 97.1146 39.2846 97.1543C39.1126 97.194 38.9345 97.1992 38.7604 97.1695C38.5864 97.1397 38.42 97.0758 38.2707 96.9812C37.9687 96.791 37.7542 96.4882 37.6743 96.1393C37.5944 95.7904 37.6555 95.4239 37.8444 95.1202L51.2778 73.527C51.7683 72.7413 53.0644 72.7413 53.5552 73.527L66.9883 95.1202C67.1152 95.3245 67.1855 95.5591 67.1919 95.7999C67.1983 96.0406 67.1405 96.2786 67.0245 96.4894C66.9085 96.7001 66.7386 96.8759 66.5323 96.9985C66.326 97.1211 66.0908 97.1861 65.8511 97.1867Z" fill="black"/>
<path d="M25.5484 97.1868C25.3027 97.1865 25.0618 97.1184 24.8519 96.9902C24.642 96.8619 24.4711 96.6782 24.3579 96.4591C24.2447 96.2401 24.1934 95.994 24.2097 95.7477C24.2259 95.5014 24.3091 95.2643 24.4502 95.0622L33.8904 81.5663C34.0142 81.3889 34.1788 81.2441 34.3701 81.1441C34.5614 81.0441 34.7739 80.9919 34.9896 80.9918H34.9923C35.4307 80.9918 35.8412 81.2082 36.0914 81.569L42.6231 90.9795C42.8208 91.2733 42.8955 91.6334 42.831 91.9821C42.7666 92.3308 42.5681 92.64 42.2786 92.8429C41.989 93.0458 41.6317 93.126 41.2837 93.0663C40.9357 93.0066 40.6251 92.8118 40.419 92.5239L34.9852 84.6956L26.6486 96.6124C26.5246 96.7899 26.3599 96.9348 26.1684 97.0348C25.9769 97.1348 25.7642 97.1869 25.5484 97.1868ZM133.017 51.3006H14.8031C14.6266 51.3007 14.4519 51.2659 14.2889 51.1981C14.1258 51.1303 13.9777 51.0308 13.853 50.9055C13.7282 50.7802 13.6292 50.6313 13.5618 50.4675C13.4943 50.3038 13.4596 50.1282 13.4597 49.951V20.2601C13.4596 20.0828 13.4943 19.9073 13.5618 19.7435C13.6292 19.5797 13.7282 19.4309 13.853 19.3055C13.9777 19.1802 14.1258 19.0808 14.2889 19.013C14.4519 18.9452 14.6266 18.9103 14.8031 18.9104H133.017C133.193 18.9103 133.368 18.9451 133.531 19.0129C133.694 19.0807 133.842 19.1801 133.967 19.3054C134.092 19.4308 134.191 19.5796 134.258 19.7434C134.325 19.9072 134.36 20.0828 134.36 20.2601V49.951C134.36 50.1282 134.325 50.3038 134.258 50.4676C134.191 50.6314 134.092 50.7802 133.967 50.9056C133.842 51.0309 133.694 51.1304 133.531 51.1981C133.368 51.2659 133.193 51.3007 133.017 51.3006ZM16.1465 48.6016H131.674V21.6097H16.1465V48.6016Z" fill="black"/>
<path d="M68.5366 97.1867H14.8031C14.6266 97.1868 14.4519 97.152 14.2889 97.0842C14.1258 97.0164 13.9777 96.917 13.853 96.7916C13.7282 96.6663 13.6292 96.5175 13.5618 96.3537C13.4943 96.1899 13.4596 96.0143 13.4597 95.8371V58.0485C13.4596 57.8713 13.4943 57.6958 13.5618 57.532C13.6292 57.3682 13.7282 57.2194 13.853 57.0941C13.9777 56.9688 14.1259 56.8694 14.2889 56.8017C14.4519 56.7339 14.6267 56.6991 14.8031 56.6992H68.5366C68.7131 56.6991 68.8878 56.7339 69.0508 56.8017C69.2138 56.8694 69.362 56.9688 69.4867 57.0941C69.6115 57.2194 69.7105 57.3682 69.778 57.532C69.8454 57.6958 69.8801 57.8713 69.88 58.0485V95.8371C69.8801 96.0143 69.8454 96.1899 69.778 96.3537C69.7105 96.5175 69.6115 96.6663 69.4868 96.7916C69.362 96.917 69.2139 97.0164 69.0508 97.0842C68.8878 97.152 68.7131 97.1868 68.5366 97.1867ZM16.1465 94.4874H67.1932V59.3982H16.1465V94.4874Z" fill="black"/>
<path d="M24.2063 72.894C21.243 72.894 18.833 70.4745 18.833 67.496C18.833 64.5173 21.243 62.0974 24.2063 62.0974C27.17 62.0974 29.5796 64.5173 29.5796 67.496C29.5796 70.4745 27.17 72.894 24.2063 72.894ZM24.2063 64.7967C22.7255 64.7967 21.5198 66.0094 21.5198 67.496C21.5198 68.9824 22.7255 70.195 24.2063 70.195C25.6875 70.195 26.8931 68.9824 26.8931 67.496C26.8931 66.0094 25.6875 64.7967 24.2063 64.7967ZM116.897 62.0974H76.5964C76.42 62.0975 76.2453 62.0627 76.0823 61.995C75.9192 61.9272 75.7711 61.8278 75.6463 61.7025C75.5215 61.5772 75.4226 61.4284 75.3551 61.2646C75.2876 61.1008 75.2529 60.9253 75.253 60.7481C75.2529 60.5708 75.2876 60.3953 75.3551 60.2315C75.4226 60.0677 75.5215 59.9189 75.6463 59.7935C75.7711 59.6682 75.9192 59.5688 76.0822 59.501C76.2453 59.4332 76.42 59.3983 76.5964 59.3984H116.897C117.073 59.3983 117.248 59.4332 117.411 59.501C117.574 59.5688 117.722 59.6682 117.847 59.7935C117.972 59.9189 118.071 60.0677 118.138 60.2315C118.205 60.3953 118.24 60.5708 118.24 60.7481C118.24 60.9253 118.205 61.1008 118.138 61.2645C118.071 61.4283 117.972 61.577 117.847 61.7024C117.722 61.8277 117.574 61.9271 117.411 61.9949C117.248 62.0626 117.074 62.0975 116.897 62.0974ZM114.21 70.195H76.5964C76.42 70.1951 76.2453 70.1603 76.0822 70.0925C75.9192 70.0247 75.7711 69.9253 75.6463 69.7999C75.5215 69.6746 75.4226 69.5258 75.3551 69.362C75.2876 69.1982 75.2529 69.0226 75.253 68.8454C75.2529 68.6681 75.2876 68.4926 75.3551 68.3288C75.4226 68.1651 75.5215 68.0163 75.6463 67.8909C75.7711 67.7656 75.9192 67.6662 76.0823 67.5985C76.2453 67.5307 76.42 67.4959 76.5964 67.496H114.21C114.386 67.4959 114.561 67.5307 114.724 67.5985C114.887 67.6663 115.035 67.7656 115.16 67.891C115.285 68.0163 115.384 68.1651 115.451 68.3288C115.519 68.4926 115.553 68.6681 115.553 68.8454C115.553 69.0226 115.519 69.1982 115.451 69.362C115.384 69.5258 115.285 69.6746 115.16 69.8C115.036 69.9254 114.888 70.0248 114.725 70.0926C114.561 70.1603 114.387 70.1952 114.21 70.195ZM111.524 78.293H76.5964C75.854 78.293 75.253 77.6892 75.253 76.9434C75.253 76.1975 75.854 75.5937 76.5964 75.5937H111.523C112.266 75.5937 112.867 76.1975 112.867 76.9434C112.867 77.6892 112.266 78.293 111.524 78.293ZM111.524 86.3903H76.5964C75.854 86.3903 75.253 85.7865 75.253 85.0406C75.253 84.2948 75.854 83.691 76.5964 83.691H111.523C112.266 83.691 112.867 84.2948 112.867 85.0406C112.867 85.7865 112.266 86.3903 111.524 86.3903ZM114.21 94.4876H76.5964C76.42 94.4877 76.2453 94.4529 76.0823 94.3852C75.9192 94.3174 75.7711 94.218 75.6463 94.0927C75.5215 93.9674 75.4226 93.8186 75.3551 93.6548C75.2876 93.4911 75.2529 93.3155 75.253 93.1383C75.2529 92.961 75.2876 92.7855 75.3551 92.6217C75.4226 92.4579 75.5215 92.3091 75.6463 92.1837C75.7711 92.0584 75.9192 91.959 76.0822 91.8912C76.2453 91.8234 76.42 91.7885 76.5964 91.7886H114.21C114.386 91.7885 114.561 91.8233 114.724 91.8911C114.887 91.9589 115.035 92.0583 115.16 92.1837C115.285 92.309 115.384 92.4579 115.451 92.6217C115.519 92.7855 115.553 92.961 115.553 93.1383C115.553 93.3155 115.519 93.4911 115.451 93.6548C115.384 93.8186 115.285 93.9674 115.16 94.0928C115.036 94.2181 114.887 94.3175 114.724 94.3853C114.561 94.453 114.387 94.4878 114.21 94.4876ZM119.583 32.4068H28.2366C27.4941 32.4068 26.8931 31.8034 26.8931 31.0572C26.8931 30.311 27.4938 29.7075 28.2366 29.7075H119.583C120.326 29.7075 120.927 30.311 120.927 31.0572C120.927 31.8034 120.326 32.4068 119.583 32.4068ZM103.463 40.5041H44.3565C44.1801 40.5042 44.0053 40.4694 43.8423 40.4016C43.6793 40.3338 43.5311 40.2344 43.4064 40.109C43.2816 39.9837 43.1827 39.8349 43.1152 39.6711C43.0477 39.5073 43.013 39.3317 43.0131 39.1545C43.013 38.9772 43.0477 38.8017 43.1152 38.6379C43.1827 38.4741 43.2816 38.3253 43.4064 38.1999C43.5311 38.0746 43.6793 37.9752 43.8423 37.9074C44.0053 37.8396 44.1801 37.8047 44.3565 37.8048H103.463C103.64 37.8047 103.815 37.8396 103.978 37.9074C104.141 37.9752 104.289 38.0746 104.413 38.1999C104.538 38.3253 104.637 38.4741 104.704 38.6379C104.772 38.8017 104.807 38.9772 104.806 39.1545C104.807 39.3317 104.772 39.5073 104.705 39.6711C104.637 39.8349 104.538 39.9838 104.413 40.1091C104.289 40.2345 104.141 40.3339 103.978 40.4017C103.815 40.4695 103.64 40.5043 103.463 40.5041Z" fill="black"/>
</g>
<defs>
<clipPath id="clip0_97_263">
<rect width="172" height="108" fill="white"/>
</clipPath>
</defs>
</svg>
