<svg width="266" height="255" viewBox="0 0 266 255" fill="none" xmlns="http://www.w3.org/2000/svg">
<path d="M258.636 183.287C258.636 183.287 225.673 271.831 112.19 251.218C110.404 250.887 108.691 250.268 106.957 249.746C106.551 249.628 106.142 249.499 105.736 249.383C104.032 248.855 102.346 248.314 100.669 247.731C100.477 247.665 100.294 247.602 100.1 247.533C98.5728 246.999 97.0542 246.431 95.5553 245.857C95.1626 245.705 94.7721 245.557 94.3815 245.398C92.7664 244.762 91.1596 244.098 89.5699 243.404C89.2769 243.275 88.9942 243.146 88.6965 243.015C87.3049 242.399 85.931 241.761 84.5685 241.112C84.2148 240.933 83.8589 240.768 83.5026 240.6C83.3087 240.504 83.0996 240.407 82.901 240.308C82.0213 239.87 81.1624 239.415 80.2958 238.963C79.6272 238.619 78.9478 238.285 78.2834 237.93C77.0562 237.264 75.8462 236.587 74.6424 235.895C74.1958 235.642 73.7451 235.397 73.3027 235.141C71.6678 234.183 70.0501 233.188 68.4563 232.182C68.0056 231.894 67.5595 231.59 67.115 231.292C66.0757 230.622 65.0357 229.952 64.0176 229.252C63.9097 229.178 63.8065 229.101 63.7007 229.026C63.306 228.759 62.931 228.487 62.5384 228.203C61.4642 227.46 60.401 226.699 59.3486 225.926C58.8398 225.543 58.3326 225.159 57.8279 224.774C56.8746 224.05 55.926 223.308 54.9851 222.561C54.5173 222.187 54.0427 221.818 53.5749 221.44C52.4276 220.498 51.284 219.54 50.1647 218.573C49.9531 218.389 49.729 218.208 49.5133 218.015C49.4915 218.006 49.4764 217.989 49.4526 217.97C48.1824 216.861 46.9355 215.724 45.6996 214.564C45.3266 214.225 44.9553 213.862 44.5803 213.505C43.6571 212.622 42.7427 211.732 41.8433 210.83C41.4699 210.465 41.1011 210.096 40.7432 209.726C39.5809 208.535 38.4331 207.343 37.3118 206.125C37.2708 206.069 37.2298 206.037 37.1806 205.983C37.1609 205.962 37.1329 205.934 37.1137 205.91C35.9664 204.651 34.8404 203.364 33.7382 202.073C33.4296 201.71 33.1195 201.338 32.815 200.971C31.9934 199.984 31.1843 199.001 30.3908 198.004C30.0609 197.589 29.731 197.17 29.4053 196.753C28.5148 195.608 27.6346 194.454 26.7825 193.281C26.6227 193.062 26.4526 192.847 26.2991 192.632C26.2664 192.596 26.2389 192.557 26.2171 192.521C25.2296 191.16 24.2763 189.775 23.3401 188.387C23.0491 187.961 22.7753 187.523 22.4947 187.085C21.8173 186.058 21.1529 185.03 20.5103 183.991C20.1742 183.458 19.8547 182.924 19.5311 182.388C18.9465 181.417 18.375 180.446 17.8205 179.466C17.5036 178.912 17.1909 178.371 16.8844 177.801C16.7137 177.501 16.5286 177.191 16.3626 176.875C16.0711 176.351 15.8081 175.803 15.5234 175.268C15.0836 174.428 14.637 173.584 14.2122 172.729C-3.71113 137.033 -6.63585 93.3253 16.8304 59.7291L35.1464 36.5896C14.4814 76.374 23.769 124.819 49.6212 159.941C50.5547 161.22 51.5106 162.481 52.4873 163.742C52.7896 164.122 53.0931 164.505 53.3954 164.87C54.2082 165.901 55.0386 166.919 55.8778 167.927C56.1801 168.282 56.4753 168.629 56.7839 168.995C57.9057 170.314 59.053 171.624 60.2309 172.902C60.2869 172.964 60.3408 173.021 60.3948 173.081C61.5078 174.291 62.6421 175.485 63.7961 176.663C64.154 177.023 64.5186 177.38 64.8832 177.741C65.7893 178.662 66.7146 179.557 67.655 180.446C68.0108 180.798 68.3686 181.138 68.7379 181.488C70.0081 182.665 71.2892 183.836 72.5942 184.979C72.7301 185.098 72.8701 185.207 72.9951 185.316C74.2031 186.362 75.4261 187.381 76.6641 188.395C77.0956 188.746 77.5354 189.095 77.9753 189.444C78.9478 190.223 79.9317 190.982 80.9218 191.736C81.3943 192.097 81.8792 192.464 82.3694 192.825C83.4456 193.62 84.5327 194.402 85.6307 195.176C86.0036 195.427 86.3662 195.7 86.7437 195.953C87.8786 196.735 89.0347 197.496 90.1949 198.239C90.6306 198.528 91.0621 198.828 91.5019 199.108C93.1025 200.117 94.7202 201.11 96.355 202.068C96.7757 202.309 97.1963 202.534 97.6102 202.767C98.8441 203.477 100.08 204.177 101.339 204.848C102.021 205.226 102.722 205.568 103.412 205.931C104.443 206.459 105.474 206.997 106.518 207.504C106.912 207.697 107.296 207.878 107.683 208.06C109.013 208.698 110.348 209.313 111.699 209.922C112.018 210.06 112.328 210.204 112.65 210.341C114.222 211.027 115.812 211.685 117.414 212.313C117.826 212.477 118.238 212.634 118.652 212.798C120.11 213.36 121.579 213.906 123.065 214.428C123.296 214.51 123.527 214.593 123.751 214.675C125.407 215.243 127.074 215.784 128.755 216.295C129.184 216.428 129.613 216.558 130.053 216.686C131.774 217.193 133.484 217.741 135.249 218.139C181.811 228.694 230.95 219.215 258.636 183.287ZM94.3649 126.523C96.91 130.152 99.7268 134.472 103.102 137.389C104.323 138.731 105.604 140.039 106.909 141.326C107.237 141.661 107.576 141.983 107.914 142.312C109.178 143.536 110.472 144.742 111.801 145.912C111.857 145.953 111.907 146.01 111.961 146.048C111.976 146.065 111.989 146.07 112 146.087C113.475 147.371 114.998 148.611 116.542 149.829C116.886 150.092 117.226 150.364 117.573 150.631C119.124 151.815 120.706 152.979 122.327 154.087C122.377 154.121 122.416 154.156 122.465 154.191C123.179 154.684 123.908 155.144 124.631 155.617C124.98 155.841 125.31 156.081 125.659 156.292C126.82 157.033 127.991 157.753 129.184 158.444C129.352 158.548 129.516 158.634 129.682 158.73C130.706 159.319 131.753 159.901 132.797 160.464C133.159 160.666 133.53 160.846 133.901 161.04C134.621 161.414 135.346 161.798 136.079 162.161C136.189 162.213 136.304 162.264 136.41 162.309C137.904 163.042 139.412 163.751 140.954 164.417C141.282 164.563 141.623 164.692 141.957 164.83C143.189 165.349 144.431 165.859 145.68 166.336C146.21 166.535 146.748 166.727 147.274 166.918C148.41 167.339 149.547 167.722 150.695 168.104C151.215 168.269 151.724 168.439 152.243 168.598C153.874 169.101 155.487 169.741 157.189 170.02C244.808 184.481 265.035 117.283 265.035 117.283C246.799 143.442 211.487 155.923 173.804 146.182C172.133 145.743 170.484 145.264 168.846 144.751C168.341 144.6 167.849 144.437 167.351 144.271C166.186 143.895 165.028 143.496 163.879 143.079C163.355 142.888 162.829 142.696 162.313 142.499C161.055 142.017 159.811 141.519 158.579 140.999C158.241 140.853 157.902 140.724 157.572 140.574C156.026 139.902 154.503 139.198 153.002 138.458C152.227 138.082 151.47 137.684 150.706 137.294C150.266 137.068 149.824 136.842 149.384 136.616C148.409 136.089 147.439 135.542 146.483 134.987C146.256 134.857 146.019 134.733 145.789 134.597C144.604 133.905 143.435 133.192 142.277 132.461C141.921 132.235 141.576 131.988 141.22 131.755C140.454 131.262 139.693 130.763 138.942 130.256C137.329 129.147 135.759 127.983 134.208 126.806C133.85 126.525 133.494 126.251 133.14 125.971C116.649 112.998 103.576 95.271 97.3555 75.1703C90.8438 54.3231 92.2483 30.9221 103.535 11.9311L89.6685 31.4279C72.7005 55.7536 73.6216 88.316 86.8578 114.043C89.0808 118.356 91.5761 122.539 94.3649 126.523ZM186.718 96.4282C187.44 96.6969 188.16 96.9351 188.891 97.1815C189.211 97.2791 189.53 97.3887 189.851 97.4832C190.882 97.8066 191.907 98.1817 192.973 98.3811C241.355 107.692 254.475 73.6503 257.97 68.6405C246.473 85.1263 227.159 89.0838 203.453 83.3548C201.583 82.8997 199.525 82.226 197.717 81.59C195.403 80.768 193.128 79.8314 190.91 78.7712C186.698 76.7569 182.691 74.3132 178.968 71.5151C157.76 55.4845 144.586 24.9038 158.424 0L150.935 10.2815C140.932 24.9467 139.951 43.1591 146.889 59.3571C154.21 76.5476 169.21 90.0354 186.718 96.4282Z" fill="#0769AD"/>
</svg>
