<?xml version="1.0" encoding="iso-8859-1"?>
<!-- Uploaded to: SVG Repo, www.svgrepo.com, Generator: SVG Repo Mixer Tools -->
<svg fill="#000000" version="1.1" id="Layer_1" xmlns="http://www.w3.org/2000/svg" xmlns:xlink="http://www.w3.org/1999/xlink" 
	 viewBox="0 0 489.208 489.208" xml:space="preserve">
<g>
	<g>
		<g>
			<path d="M340.788,341.968l-48.184-11.128v-20.12c11.696-10.496,19.928-24.72,22.808-40.824
				c20.784-16.592,33.192-42.024,33.192-68.688v-30.32c0-12.44-8.888-22.832-20.656-25.184
				c-19.688-34.536-58.736-53.48-98.56-47.312c-5.776,0.888-11.368,2.384-16.784,4.312v-66l32-18.288l32,18.288v52.504h16v-43.36
				l4.032,2.304l7.936-13.888L244.604,0l-59.968,34.264l7.936,13.888l4.032-2.304v64.368c-25.584,15.024-44,41.688-47.384,71.968
				c-3.032,27.088,5.544,53.888,23.384,74.208v0.816c0,21.256,9.312,40.328,24,53.512v20.12l-48.184,11.128
				c-32.864,7.576-55.816,36.424-55.816,70.152v77.088h304V412.12C396.604,378.392,373.652,349.544,340.788,341.968z
				 M303.884,349.872l-21.704,32.56l-23.592-14.16l27.992-22.392L303.884,349.872z M244.604,358.952l-32-25.6v-11.744
				c9.656,4.824,20.496,7.6,32,7.6c11.504,0,22.344-2.776,32-7.6v11.744L244.604,358.952z M172.604,197.08v30.696
				c-6.472-13.448-9.184-28.568-7.48-43.808c3.912-35.072,31.96-64.408,66.696-69.768c34.504-5.328,68.2,11.832,83.968,42.648
				l2.24,4.36h4.888c5.344,0,9.688,4.344,9.688,9.68v30.32c0,16.512-5.824,32.448-16.008,45.136l-0.04-49.08l-11.056,4.568
				c-0.176,0.08-18.344,7.376-60.896,7.376s-60.72-7.296-60.848-7.352L172.604,197.08z M188.604,257.208V219.88
				c10.456,2.44,28.616,5.328,56,5.328c27.384,0,45.544-2.888,56-5.328v37.328c0,30.872-25.128,56-56,56
				S188.604,288.08,188.604,257.208z M202.628,345.88l27.992,22.392l-23.592,14.16l-21.704-32.56L202.628,345.88z M213.444,473.208
				h-56.84v-40h-16v40h-32V412.12c0-26.232,17.848-48.672,43.408-54.56l16.648-3.84l33.52,50.272l9.52-5.712l8.632,12.944
				L213.444,473.208z M259.668,473.208h-30.12l7.336-66.016l-11.44-17.16l19.16-11.496l19.168,11.496l-11.44,17.16L259.668,473.208z
				 M380.604,473.208h-32v-40h-16v40h-56.84l-6.888-61.984l8.632-12.944l9.52,5.712l33.52-50.272l16.648,3.84
				c25.56,5.888,43.408,28.328,43.408,54.56V473.208z"/>
			<rect x="92.604" y="345.208" width="16" height="16"/>
			<polygon points="92.604,36.704 92.604,329.208 108.604,329.208 108.604,45.848 112.636,48.152 120.572,34.264 60.604,0 
				0.636,34.264 8.572,48.152 12.604,45.848 12.604,489.208 28.604,489.208 28.604,36.704 60.604,18.416 			"/>
			<rect x="52.604" y="41.208" width="16" height="384"/>
			<rect x="460.604" y="473.208" width="16" height="16"/>
			<rect x="380.604" y="329.208" width="16" height="16"/>
			<polygon points="428.604,88 368.636,122.264 376.572,136.152 380.604,133.848 380.604,313.208 396.604,313.208 396.604,124.704 
				428.604,106.416 460.604,124.704 460.604,457.208 476.604,457.208 476.604,133.848 480.636,136.152 488.572,122.264 			"/>
			<rect x="420.604" y="129.208" width="16" height="296"/>
			<rect x="236.604" y="41.208" width="16" height="40"/>
			<rect x="52.604" y="441.208" width="16" height="16"/>
			<rect x="52.604" y="473.208" width="16" height="16"/>
			<rect x="420.604" y="441.208" width="16" height="48"/>
		</g>
	</g>
</g>
</svg>