<svg width="117" height="117" viewBox="0 0 117 117" fill="none" xmlns="http://www.w3.org/2000/svg">
<path d="M88.6574 109.677H6.40871C6.28868 109.677 6.16983 109.653 6.05893 109.607C5.94803 109.561 5.84726 109.494 5.7624 109.409C5.67753 109.324 5.61022 109.224 5.56431 109.113C5.51841 109.002 5.49481 108.883 5.49487 108.763V8.23683C5.49481 8.11681 5.51841 7.99795 5.56431 7.88705C5.61022 7.77615 5.67753 7.67539 5.7624 7.59052C5.84726 7.50565 5.94803 7.43834 6.05893 7.39244C6.16983 7.34653 6.28868 7.32294 6.40871 7.323H11.8919C12.397 7.323 12.8058 7.73181 12.8058 8.23683C12.8058 8.74185 12.397 9.15089 11.8919 9.15089H7.32277V107.849H87.7436V9.15089H83.1742C82.6692 9.15089 82.2604 8.74208 82.2604 8.23683C82.2604 7.73158 82.6692 7.323 83.1742 7.323H88.6574C88.7775 7.32294 88.8963 7.34653 89.0072 7.39244C89.1181 7.43834 89.2189 7.50565 89.3037 7.59052C89.3886 7.67539 89.4559 7.77615 89.5018 7.88705C89.5477 7.99795 89.5713 8.11681 89.5713 8.23683V108.763C89.5714 108.883 89.5478 109.002 89.5019 109.113C89.456 109.224 89.3887 109.324 89.3038 109.409C89.2189 109.494 89.1182 109.561 89.0072 109.607C88.8963 109.653 88.7775 109.677 88.6574 109.677Z" fill="black"/>
<path d="M75.8631 9.15089H70.3798C69.8746 9.15089 69.466 8.74208 69.466 8.23683C69.466 7.73158 69.8746 7.323 70.3798 7.323H75.8631C76.3681 7.323 76.7769 7.73181 76.7769 8.23683C76.7769 8.74185 76.3681 9.15089 75.8631 9.15089ZM63.0689 9.15089H57.5857C57.0807 9.15089 56.6719 8.74208 56.6719 8.23683C56.6719 7.73158 57.0807 7.323 57.5857 7.323H63.0689C63.5739 7.323 63.9828 7.73181 63.9828 8.23683C63.9828 8.74185 63.5739 9.15089 63.0689 9.15089ZM50.2748 9.15089H44.7916C44.2863 9.15089 43.8777 8.74208 43.8777 8.23683C43.8777 7.73158 44.2863 7.323 44.7916 7.323H50.2748C50.7798 7.323 51.1886 7.73181 51.1886 8.23683C51.1886 8.74185 50.7798 9.15089 50.2748 9.15089ZM37.4807 9.15089H31.9974C31.4922 9.15089 31.0834 8.74208 31.0834 8.23683C31.0834 7.73158 31.4922 7.323 31.9974 7.323H37.4807C37.9857 7.323 38.3945 7.73181 38.3945 8.23683C38.3945 8.74185 37.9857 9.15089 37.4807 9.15089ZM24.6863 9.15089H19.2031C18.6978 9.15089 18.289 8.74208 18.289 8.23683C18.289 7.73158 18.6978 7.323 19.2031 7.323H24.6863C24.9287 7.323 25.1612 7.41929 25.3326 7.59069C25.504 7.76209 25.6003 7.99455 25.6003 8.23695C25.6003 8.47934 25.504 8.71181 25.3326 8.88321C25.1612 9.0546 24.9287 9.15089 24.6863 9.15089ZM87.7436 113.332H6.40871C6.28868 113.332 6.16983 113.309 6.05893 113.263C5.94803 113.217 5.84726 113.15 5.7624 113.065C5.67753 112.98 5.61022 112.879 5.56431 112.768C5.51841 112.657 5.49481 112.539 5.49487 112.418C5.49481 112.298 5.51841 112.18 5.56431 112.069C5.61022 111.958 5.67753 111.857 5.7624 111.772C5.84726 111.687 5.94803 111.62 6.05893 111.574C6.16983 111.528 6.28868 111.505 6.40871 111.505H87.7434C87.8634 111.505 87.9823 111.528 88.0932 111.574C88.2041 111.62 88.3049 111.687 88.3897 111.772C88.4746 111.857 88.5419 111.958 88.5878 112.069C88.6337 112.18 88.6573 112.298 88.6572 112.418C88.6573 112.539 88.6338 112.657 88.5879 112.768C88.542 112.879 88.4747 112.98 88.3899 113.065C88.305 113.15 88.2043 113.217 88.0934 113.263C87.9825 113.309 87.8636 113.332 87.7436 113.332ZM87.7436 116.988H6.40871C6.28866 116.988 6.16979 116.964 6.05887 116.918C5.94796 116.873 5.84719 116.805 5.76231 116.72C5.67744 116.635 5.61014 116.535 5.56425 116.424C5.51836 116.313 5.49478 116.194 5.49487 116.074C5.49481 115.954 5.51841 115.835 5.56431 115.724C5.61022 115.613 5.67753 115.512 5.7624 115.428C5.84726 115.343 5.94803 115.275 6.05893 115.229C6.16983 115.184 6.28868 115.16 6.40871 115.16H87.7434C87.8634 115.16 87.9822 115.184 88.0931 115.229C88.204 115.275 88.3048 115.343 88.3897 115.428C88.4745 115.512 88.5419 115.613 88.5878 115.724C88.6337 115.835 88.6573 115.954 88.6572 116.074C88.6573 116.194 88.6338 116.313 88.588 116.424C88.5421 116.535 88.4748 116.635 88.39 116.72C88.3051 116.805 88.2043 116.873 88.0934 116.918C87.9825 116.964 87.8636 116.988 87.7436 116.988Z" fill="black"/>
<path d="M15.5475 16.4619C14.0357 16.4619 12.8058 15.232 12.8058 13.7202V2.75369C12.8058 1.24183 14.0357 0.0119629 15.5475 0.0119629C17.0594 0.0119629 18.2892 1.24183 18.2892 2.75369V13.7202C18.2892 15.232 17.0594 16.4619 15.5475 16.4619ZM15.5475 1.83986C15.3052 1.84016 15.0729 1.93657 14.9016 2.10793C14.7303 2.27929 14.6339 2.51161 14.6337 2.75392V13.7204C14.6337 14.2247 15.0441 14.6345 15.5475 14.6345C15.7899 14.6344 16.0223 14.5381 16.1937 14.3666C16.3651 14.1952 16.4614 13.9628 16.4614 13.7204V2.75392C16.4614 2.51154 16.3651 2.27908 16.1937 2.10766C16.0223 1.93625 15.7899 1.83992 15.5475 1.83986ZM28.3416 16.4619C26.8298 16.4619 25.6001 15.232 25.6001 13.7202V2.75369C25.6001 1.24183 26.8298 0.0119629 28.3416 0.0119629C29.8535 0.0119629 31.0834 1.24183 31.0834 2.75369V13.7202C31.0834 15.232 29.8537 16.4619 28.3416 16.4619ZM28.3416 1.83986C28.0993 1.84016 27.867 1.93657 27.6957 2.10793C27.5244 2.27929 27.4281 2.51161 27.4278 2.75392V13.7204C27.4278 14.2247 27.8385 14.6345 28.3416 14.6345C28.584 14.6344 28.8165 14.5381 28.9878 14.3666C29.1592 14.1952 29.2555 13.9628 29.2555 13.7204V2.75392C29.2555 2.51154 29.1592 2.27908 28.9878 2.10766C28.8165 1.93625 28.584 1.83992 28.3416 1.83986ZM41.136 16.4619C39.6244 16.4619 38.3945 15.232 38.3945 13.7202V2.75369C38.3945 1.24183 39.6244 0.0119629 41.136 0.0119629C42.6479 0.0119629 43.8777 1.24183 43.8777 2.75369V13.7202C43.8777 15.232 42.6479 16.4619 41.136 16.4619ZM41.136 1.83986C40.8937 1.84016 40.6614 1.93657 40.4901 2.10793C40.3188 2.27929 40.2224 2.51161 40.2222 2.75392V13.7204C40.2222 14.2247 40.6328 14.6345 41.136 14.6345C41.3784 14.6345 41.6109 14.5381 41.7823 14.3667C41.9538 14.1953 42.0501 13.9628 42.0501 13.7204V2.75392C42.0501 2.5115 41.9538 2.279 41.7823 2.10758C41.6109 1.93616 41.3784 1.83986 41.136 1.83986ZM53.9301 16.4619C52.4183 16.4619 51.1884 15.232 51.1884 13.7202V2.75369C51.1884 1.24183 52.4183 0.0119629 53.9301 0.0119629C55.442 0.0119629 56.6719 1.24206 56.6719 2.75392V13.7204C56.6719 15.232 55.442 16.4619 53.9301 16.4619ZM53.9301 1.83986C53.4267 1.83986 53.0161 2.24936 53.0161 2.75392V13.7204C53.0161 14.2247 53.4267 14.6345 53.9301 14.6345C54.1725 14.6344 54.405 14.5381 54.5763 14.3666C54.7477 14.1952 54.844 13.9628 54.844 13.7204V2.75392C54.844 2.51154 54.7477 2.27908 54.5763 2.10766C54.405 1.93625 54.1725 1.83992 53.9301 1.83986ZM66.7245 16.4619C65.2126 16.4619 63.9828 15.232 63.9828 13.7202V2.75369C63.9828 1.24183 65.2126 0.0119629 66.7245 0.0119629C68.2361 0.0119629 69.466 1.24183 69.466 2.75369V13.7202C69.466 15.232 68.2361 16.4619 66.7245 16.4619ZM66.7245 1.83986C66.2211 1.83986 65.8104 2.24936 65.8104 2.75392V13.7204C65.8104 14.2247 66.2211 14.6345 66.7245 14.6345C66.9669 14.6344 67.1993 14.5381 67.3707 14.3666C67.5421 14.1952 67.6383 13.9628 67.6383 13.7204V2.75392C67.6383 2.51154 67.5421 2.27908 67.3707 2.10766C67.1993 1.93625 66.9669 1.83992 66.7245 1.83986ZM79.5186 16.4619C78.0068 16.4619 76.7769 15.232 76.7769 13.7202V2.75369C76.7769 1.24183 78.0068 0.0119629 79.5186 0.0119629C81.0303 0.0119629 82.2601 1.24183 82.2601 2.75369V13.7202C82.2604 15.232 81.0305 16.4619 79.5186 16.4619ZM79.5186 1.83986C79.0152 1.83986 78.6046 2.24936 78.6046 2.75392V13.7204C78.6046 14.2247 79.0152 14.6345 79.5186 14.6345C79.761 14.6344 79.9935 14.5381 80.1648 14.3666C80.3362 14.1952 80.4325 13.9628 80.4325 13.7204V2.75392C80.4325 2.51154 80.3362 2.27908 80.1648 2.10766C79.9935 1.93625 79.761 1.83992 79.5186 1.83986ZM105.109 104.194C104.958 104.194 104.81 104.157 104.677 104.086C104.544 104.015 104.43 103.912 104.347 103.787L100.691 98.3036C100.615 98.1876 100.565 98.0557 100.547 97.9178C100.529 97.7799 100.542 97.6397 100.586 97.5077L102.365 92.1655V90.4856C102.365 90.3656 102.389 90.2467 102.435 90.1358C102.481 90.0249 102.548 89.9241 102.633 89.8392C102.718 89.7544 102.819 89.6871 102.93 89.6412C103.041 89.5953 103.159 89.5717 103.279 89.5718C103.399 89.5717 103.518 89.5954 103.629 89.6413C103.74 89.6872 103.841 89.7545 103.926 89.8393C104.011 89.9242 104.078 90.025 104.124 90.1359C104.17 90.2468 104.193 90.3656 104.193 90.4856V92.3133C104.193 92.4116 104.177 92.5096 104.147 92.6026L102.46 97.6613L105.867 102.773C105.934 102.873 105.981 102.985 106.004 103.103C106.027 103.22 106.027 103.342 106.004 103.459C105.98 103.577 105.934 103.689 105.867 103.789C105.8 103.888 105.714 103.974 105.614 104.041C105.465 104.14 105.289 104.194 105.109 104.194Z" fill="black"/>
<path d="M105.107 104.194C104.942 104.194 104.779 104.149 104.638 104.064C104.496 103.979 104.379 103.857 104.301 103.711C104.223 103.565 104.186 103.401 104.194 103.236C104.202 103.07 104.255 102.91 104.347 102.773L107.754 97.6609L106.069 92.6023C106.037 92.5092 106.021 92.4114 106.021 92.313V90.4853C106.021 90.3653 106.044 90.2464 106.09 90.1355C106.136 90.0246 106.204 89.9239 106.288 89.839C106.373 89.7541 106.474 89.6868 106.585 89.6409C106.696 89.595 106.815 89.5714 106.935 89.5715C107.055 89.5714 107.174 89.595 107.285 89.6409C107.395 89.6868 107.496 89.7541 107.581 89.839C107.666 89.9239 107.733 90.0246 107.779 90.1355C107.825 90.2464 107.849 90.3653 107.849 90.4853V92.1651L109.63 97.5074C109.674 97.6394 109.688 97.7798 109.669 97.9178C109.65 98.0557 109.6 98.1876 109.523 98.3033L105.867 103.787C105.784 103.912 105.671 104.015 105.539 104.086C105.406 104.157 105.258 104.194 105.107 104.194ZM108.762 76.7774H101.452C101.332 76.7774 101.213 76.7538 101.102 76.7079C100.991 76.662 100.89 76.5947 100.805 76.5098C100.72 76.425 100.653 76.3242 100.607 76.2133C100.561 76.1024 100.538 75.9835 100.538 75.8635C100.538 75.3583 100.947 74.9495 101.452 74.9495H108.762C109.268 74.9495 109.677 75.3583 109.677 75.8635C109.677 75.9836 109.653 76.1024 109.607 76.2134C109.561 76.3243 109.494 76.425 109.409 76.5099C109.324 76.5948 109.223 76.6621 109.112 76.708C109.001 76.7539 108.882 76.7774 108.762 76.7774Z" fill="black"/>
<path d="M101.452 76.7773C101.216 76.7769 100.989 76.6853 100.819 76.5216C100.649 76.3579 100.549 76.1349 100.54 75.8991L98.7119 30.2044C98.7068 30.0845 98.7255 29.9647 98.7669 29.852C98.8082 29.7393 98.8714 29.6358 98.9529 29.5476C99.0343 29.4594 99.1323 29.3881 99.2414 29.3379C99.3504 29.2877 99.4683 29.2595 99.5883 29.2549C100.088 29.1916 100.516 29.6272 100.538 30.1313L102.365 75.8278C102.375 76.0697 102.287 76.3055 102.123 76.4834C101.959 76.6613 101.731 76.767 101.489 76.7773H101.452ZM108.764 76.7773H108.727C108.222 76.7558 107.829 76.331 107.85 75.8278L109.678 30.1313C109.698 29.6272 110.121 29.1925 110.628 29.2549C110.87 29.2648 111.098 29.3703 111.262 29.5483C111.427 29.7264 111.514 29.9623 111.504 30.2044L109.677 75.8991C109.667 76.1349 109.567 76.358 109.397 76.5217C109.227 76.6854 109 76.777 108.764 76.7773Z" fill="black"/>
<path d="M110.59 31.0819C110.47 31.082 110.351 31.0584 110.241 31.0125C110.13 30.9667 110.029 30.8993 109.944 30.8145C109.859 30.7296 109.792 30.6288 109.746 30.5179C109.7 30.407 109.676 30.2881 109.677 30.1681C109.677 25.9236 108.14 23.771 105.107 23.771C102.076 23.771 100.538 25.9236 100.538 30.1681C100.538 30.6733 100.129 31.0819 99.6239 31.0819C99.1189 31.0819 98.7101 30.6733 98.7101 30.1681C98.7101 24.941 101.043 21.9434 105.107 21.9434C109.173 21.9434 111.504 24.941 111.504 30.1681C111.504 30.2881 111.481 30.407 111.435 30.5179C111.389 30.6288 111.322 30.7295 111.237 30.8144C111.152 30.8993 111.051 30.9666 110.94 31.0125C110.829 31.0584 110.71 31.082 110.59 31.0819Z" fill="black"/>
<path d="M106.935 23.7708H103.279C102.774 23.7708 102.365 23.362 102.365 22.8569C102.365 22.3519 102.774 21.9431 103.279 21.9431H106.935C107.44 21.9431 107.849 22.3519 107.849 22.8569C107.849 23.362 107.44 23.7708 106.935 23.7708ZM105.107 54.8425C104.987 54.8426 104.868 54.819 104.757 54.7731C104.646 54.7272 104.546 54.6599 104.461 54.5751C104.376 54.4902 104.309 54.3894 104.263 54.2785C104.217 54.1676 104.193 54.0487 104.193 53.9287V26.5125C104.193 26.0075 104.602 25.5987 105.107 25.5987C105.612 25.5987 106.021 26.0075 106.021 26.5125V53.9287C106.021 54.0487 105.997 54.1676 105.952 54.2785C105.906 54.3894 105.838 54.4902 105.754 54.5751C105.669 54.6599 105.568 54.7272 105.457 54.7731C105.346 54.819 105.227 54.8426 105.107 54.8425ZM108.762 80.4328H101.452C101.332 80.4329 101.213 80.4093 101.102 80.3634C100.991 80.3175 100.89 80.2501 100.805 80.1652C100.72 80.0803 100.653 79.9795 100.607 79.8686C100.561 79.7577 100.538 79.6388 100.538 79.5188C100.538 79.3988 100.561 79.2799 100.607 79.169C100.653 79.0581 100.72 78.9573 100.805 78.8725C100.89 78.7876 100.991 78.7203 101.102 78.6744C101.213 78.6285 101.332 78.6049 101.452 78.6049H108.762C109.268 78.6049 109.677 79.0138 109.677 79.5188C109.677 80.024 109.268 80.4328 108.762 80.4328Z" fill="black"/>
<path d="M108.762 80.4329C108.642 80.433 108.524 80.4094 108.413 80.3635C108.302 80.3175 108.201 80.2502 108.116 80.1653C108.031 80.0804 107.964 79.9796 107.918 79.8687C107.872 79.7578 107.849 79.6389 107.849 79.5189V75.8635C107.849 75.3583 108.257 74.9495 108.762 74.9495C109.268 74.9495 109.677 75.3583 109.677 75.8635V79.5189C109.677 80.0241 109.268 80.4329 108.762 80.4329ZM101.452 80.4329C101.332 80.433 101.213 80.4094 101.102 80.3635C100.991 80.3175 100.89 80.2502 100.805 80.1653C100.72 80.0804 100.653 79.9796 100.607 79.8687C100.561 79.7578 100.538 79.6389 100.538 79.5189V75.8635C100.538 75.3583 100.947 74.9495 101.452 74.9495C101.572 74.9494 101.69 74.973 101.801 75.0189C101.912 75.0648 102.013 75.1322 102.098 75.2171C102.183 75.302 102.25 75.4027 102.296 75.5137C102.342 75.6246 102.365 75.7435 102.365 75.8635V79.5189C102.365 80.0241 101.957 80.4329 101.452 80.4329ZM108.762 91.3994H101.452C101.332 91.3994 101.213 91.3759 101.102 91.3299C100.991 91.284 100.89 91.2167 100.805 91.1319C100.72 91.047 100.653 90.9462 100.607 90.8353C100.561 90.7244 100.538 90.6056 100.538 90.4856C100.538 90.3655 100.561 90.2467 100.607 90.1358C100.653 90.0249 100.72 89.9241 100.805 89.8392C100.89 89.7544 100.991 89.6871 101.102 89.6412C101.213 89.5953 101.332 89.5717 101.452 89.5717H108.762C109.268 89.5717 109.677 89.9805 109.677 90.4856C109.677 90.6056 109.653 90.7245 109.607 90.8354C109.561 90.9463 109.494 91.0471 109.409 91.1319C109.324 91.2168 109.223 91.2841 109.112 91.33C109.001 91.3759 108.882 91.3995 108.762 91.3994Z" fill="black"/>
<path d="M108.762 91.3993C108.642 91.3993 108.524 91.3757 108.413 91.3298C108.302 91.2839 108.201 91.2166 108.116 91.1318C108.031 91.0469 107.964 90.9461 107.918 90.8352C107.872 90.7243 107.849 90.6055 107.849 90.4854V79.519C107.849 79.3989 107.872 79.2801 107.918 79.1692C107.964 79.0583 108.031 78.9575 108.116 78.8727C108.201 78.7878 108.302 78.7205 108.413 78.6746C108.524 78.6287 108.642 78.6051 108.762 78.6051C109.268 78.6051 109.677 79.014 109.677 79.519V90.4854C109.677 90.6055 109.653 90.7244 109.607 90.8353C109.561 90.9462 109.494 91.047 109.409 91.1318C109.324 91.2167 109.223 91.284 109.112 91.3299C109.001 91.3758 108.883 91.3994 108.762 91.3993ZM101.452 91.3993C101.332 91.3993 101.213 91.3757 101.102 91.3298C100.991 91.2839 100.89 91.2166 100.805 91.1318C100.72 91.0469 100.653 90.9461 100.607 90.8352C100.561 90.7243 100.538 90.6055 100.538 90.4854V79.519C100.538 79.3989 100.561 79.2801 100.607 79.1692C100.653 79.0583 100.72 78.9575 100.805 78.8727C100.89 78.7878 100.991 78.7205 101.102 78.6746C101.213 78.6287 101.332 78.6051 101.452 78.6051C101.572 78.6051 101.69 78.6287 101.801 78.6746C101.912 78.7205 102.013 78.7878 102.098 78.8727C102.183 78.9575 102.25 79.0583 102.296 79.1692C102.342 79.2801 102.365 79.3989 102.365 79.519V90.4854C102.366 90.6055 102.342 90.7243 102.296 90.8353C102.25 90.9462 102.183 91.0469 102.098 91.1318C102.013 91.2167 101.912 91.284 101.801 91.3299C101.69 91.3758 101.572 91.3994 101.452 91.3993ZM22.8584 42.0502C22.7384 42.0503 22.6196 42.0267 22.5088 41.9808C22.3979 41.9349 22.2972 41.8675 22.2124 41.7826L18.5568 38.127C18.472 38.0422 18.4047 37.9414 18.3588 37.8306C18.3129 37.7197 18.2892 37.6009 18.2892 37.4809C18.2892 37.3609 18.3129 37.2421 18.3588 37.1312C18.4047 37.0204 18.472 36.9196 18.5568 36.8348C18.6417 36.7499 18.7424 36.6826 18.8533 36.6367C18.9642 36.5908 19.083 36.5671 19.203 36.5671C19.323 36.5671 19.4418 36.5908 19.5527 36.6367C19.6635 36.6826 19.7643 36.7499 19.8491 36.8348L23.5047 40.4903C23.6325 40.6181 23.7196 40.7809 23.7549 40.9582C23.7902 41.1355 23.7721 41.3193 23.7029 41.4863C23.6337 41.6533 23.5166 41.796 23.3662 41.8964C23.2159 41.9967 23.0392 42.0503 22.8584 42.0502Z" fill="black"/>
<path d="M22.8584 42.0502C22.6777 42.0503 22.501 41.9967 22.3507 41.8963C22.2004 41.7959 22.0833 41.6532 22.0141 41.4862C21.9449 41.3192 21.9269 41.1355 21.9622 40.9582C21.9975 40.781 22.0845 40.6181 22.2124 40.4904L29.5233 33.1793C29.6947 33.0079 29.9271 32.9116 30.1694 32.9116C30.4118 32.9116 30.6442 33.0079 30.8156 33.1793C30.9869 33.3506 31.0832 33.583 31.0832 33.8254C31.0832 34.0677 30.9869 34.3002 30.8156 34.4715L23.5047 41.7826C23.4198 41.8676 23.3191 41.935 23.2082 41.9809C23.0973 42.0268 22.9784 42.0504 22.8584 42.0502Z" fill="black"/>
<path d="M22.8584 65.8109C22.7384 65.811 22.6196 65.7874 22.5087 65.7415C22.3978 65.6955 22.2971 65.6281 22.2124 65.5431L18.5568 61.8878C18.3855 61.7164 18.2892 61.484 18.2892 61.2416C18.2892 60.9993 18.3855 60.7669 18.5568 60.5955C18.7282 60.4242 18.9606 60.3279 19.203 60.3279C19.4453 60.3279 19.6777 60.4242 19.8491 60.5955L23.5047 64.2508C23.6326 64.3786 23.7198 64.5415 23.7551 64.7188C23.7904 64.8961 23.7724 65.0799 23.7032 65.247C23.634 65.414 23.5168 65.5568 23.3664 65.6572C23.216 65.7575 23.0392 65.8111 22.8584 65.8109Z" fill="black"/>
<path d="M22.8584 65.8109C22.6776 65.8109 22.5009 65.7574 22.3505 65.657C22.2002 65.5566 22.083 65.4138 22.0139 65.2468C21.9447 65.0798 21.9267 64.896 21.962 64.7187C21.9973 64.5414 22.0845 64.3785 22.2124 64.2508L29.5233 56.9417C29.6947 56.7703 29.9271 56.6741 30.1694 56.6741C30.4118 56.6741 30.6442 56.7703 30.8156 56.9417C30.9869 57.1131 31.0832 57.3455 31.0832 57.5878C31.0832 57.8302 30.9869 58.0626 30.8156 58.234L23.5047 65.543C23.4199 65.6281 23.3192 65.6956 23.2083 65.7415C23.0974 65.7875 22.9785 65.8111 22.8584 65.8109Z" fill="black"/>
<path d="M75.8631 32.9116H39.3083C38.8033 32.9116 38.3945 32.5028 38.3945 31.9976C38.3945 31.4923 38.8033 31.0835 39.3083 31.0835H75.8633C76.3683 31.0835 76.7771 31.4923 76.7771 31.9976C76.7771 32.5028 76.3681 32.9116 75.8631 32.9116Z" fill="black"/>
<path d="M75.8631 38.3948H39.3083C38.8033 38.3948 38.3945 37.986 38.3945 37.481C38.3945 36.9759 38.8033 36.5669 39.3083 36.5669H75.8633C76.3683 36.5669 76.7771 36.9757 76.7771 37.481C76.7771 37.9862 76.3681 38.3948 75.8631 38.3948Z" fill="black"/>
<path d="M57.5857 43.8779H39.3083C39.1883 43.878 39.0694 43.8544 38.9585 43.8085C38.8476 43.7626 38.7468 43.6952 38.6619 43.6103C38.5771 43.5254 38.5098 43.4247 38.4639 43.3137C38.418 43.2028 38.3944 43.0839 38.3945 42.9639C38.3944 42.8439 38.418 42.725 38.4639 42.6141C38.5098 42.5032 38.5772 42.4024 38.662 42.3176C38.7469 42.2327 38.8477 42.1654 38.9586 42.1195C39.0695 42.0736 39.1883 42.05 39.3083 42.05H57.5857C57.7057 42.05 57.8246 42.0736 57.9355 42.1195C58.0464 42.1654 58.1471 42.2327 58.232 42.3176C58.3169 42.4024 58.3842 42.5032 58.4301 42.6141C58.476 42.725 58.4996 42.8439 58.4995 42.9639C58.4995 43.4694 58.0907 43.8779 57.5857 43.8779Z" fill="black"/>
<path d="M75.8631 56.6721H39.3083C38.8033 56.6721 38.3945 56.2633 38.3945 55.7583C38.3945 55.2533 38.8033 54.8442 39.3083 54.8442H75.8633C76.3683 54.8442 76.7771 55.2531 76.7771 55.7583C76.7771 56.2635 76.3681 56.6721 75.8631 56.6721Z" fill="black"/>
<path d="M75.8631 62.1553H39.3083C39.1883 62.1554 39.0695 62.1318 38.9586 62.0859C38.8477 62.04 38.7469 61.9727 38.662 61.8878C38.5772 61.8029 38.5098 61.7021 38.4639 61.5913C38.418 61.4804 38.3944 61.3615 38.3945 61.2415C38.3944 61.1215 38.418 61.0026 38.4639 60.8917C38.5098 60.7808 38.5772 60.68 38.662 60.5952C38.7469 60.5103 38.8477 60.443 38.9586 60.3971C39.0695 60.3512 39.1883 60.3276 39.3083 60.3276H75.8633C75.9833 60.3276 76.1022 60.3512 76.2131 60.3971C76.324 60.443 76.4247 60.5103 76.5096 60.5952C76.5945 60.68 76.6618 60.7808 76.7077 60.8917C76.7536 61.0026 76.7772 61.1215 76.7771 61.2415C76.7772 61.3615 76.7535 61.4804 76.7076 61.5913C76.6617 61.7022 76.5943 61.8029 76.5095 61.8878C76.4246 61.9727 76.3238 62.04 76.2129 62.0859C76.102 62.1318 75.9831 62.1554 75.8631 62.1553Z" fill="black"/>
<path d="M57.5857 67.6387H39.3083C39.1883 67.6387 39.0694 67.6151 38.9585 67.5692C38.8476 67.5233 38.7468 67.456 38.6619 67.3711C38.5771 67.2862 38.5098 67.1854 38.4639 67.0745C38.418 66.9636 38.3944 66.8447 38.3945 66.7246C38.3944 66.6046 38.418 66.4857 38.4639 66.3748C38.5098 66.2639 38.5772 66.1632 38.662 66.0783C38.7469 65.9934 38.8477 65.9261 38.9586 65.8802C39.0695 65.8343 39.1883 65.8107 39.3083 65.8108H57.5857C57.7057 65.8107 57.8246 65.8343 57.9355 65.8802C58.0464 65.9261 58.1471 65.9934 58.232 66.0783C58.3169 66.1632 58.3842 66.2639 58.4301 66.3748C58.476 66.4857 58.4996 66.6046 58.4995 66.7246C58.4995 67.2299 58.0907 67.6387 57.5857 67.6387Z" fill="black"/>
<path d="M22.8584 89.5717C22.7384 89.5718 22.6196 89.5482 22.5087 89.5022C22.3978 89.4563 22.2971 89.3888 22.2124 89.3038L18.5568 85.6485C18.472 85.5637 18.4047 85.4629 18.3588 85.3521C18.3129 85.2412 18.2892 85.1224 18.2892 85.0024C18.2892 84.8824 18.3129 84.7636 18.3588 84.6527C18.4047 84.5418 18.472 84.4411 18.5568 84.3563C18.6417 84.2714 18.7424 84.2041 18.8533 84.1582C18.9642 84.1123 19.083 84.0886 19.203 84.0886C19.323 84.0886 19.4418 84.1123 19.5527 84.1582C19.6635 84.2041 19.7643 84.2714 19.8491 84.3563L23.5047 88.0116C23.6326 88.1394 23.7198 88.3022 23.7551 88.4795C23.7904 88.6568 23.7724 88.8407 23.7032 89.0077C23.634 89.1747 23.5168 89.3175 23.3664 89.4179C23.216 89.5183 23.0392 89.5718 22.8584 89.5717Z" fill="black"/>
<path d="M22.8584 89.5717C22.6776 89.5718 22.5009 89.5183 22.3505 89.4178C22.2002 89.3174 22.083 89.1747 22.0139 89.0076C21.9447 88.8406 21.9267 88.6568 21.962 88.4795C21.9973 88.3022 22.0845 88.1394 22.2124 88.0116L29.5233 80.7007C29.6947 80.5294 29.9271 80.4331 30.1694 80.4331C30.4118 80.4331 30.6442 80.5294 30.8156 80.7007C30.9869 80.8721 31.0832 81.1045 31.0832 81.3469C31.0832 81.5892 30.9869 81.8216 30.8156 81.993L23.5047 89.3039C23.4199 89.3889 23.3192 89.4563 23.2083 89.5023C23.0974 89.5483 22.9785 89.5719 22.8584 89.5717Z" fill="black"/>
<path d="M75.8631 80.4329H39.3083C39.1883 80.4329 39.0694 80.4093 38.9585 80.3634C38.8476 80.3175 38.7468 80.2502 38.6619 80.1653C38.5771 80.0804 38.5098 79.9796 38.4639 79.8687C38.418 79.7577 38.3944 79.6389 38.3945 79.5188C38.3944 79.3988 38.418 79.2799 38.4639 79.169C38.5098 79.0581 38.5772 78.9574 38.662 78.8725C38.7469 78.7876 38.8477 78.7203 38.9586 78.6744C39.0695 78.6285 39.1883 78.6049 39.3083 78.605H75.8633C75.9833 78.6049 76.1022 78.6285 76.2131 78.6744C76.324 78.7203 76.4247 78.7876 76.5096 78.8725C76.5945 78.9574 76.6618 79.0581 76.7077 79.169C76.7536 79.2799 76.7772 79.3988 76.7771 79.5188C76.7772 79.6389 76.7535 79.7577 76.7076 79.8687C76.6617 79.9796 76.5944 80.0803 76.5095 80.1652C76.4246 80.2501 76.3238 80.3174 76.2129 80.3634C76.102 80.4093 75.9831 80.4329 75.8631 80.4329Z" fill="black"/>
<path d="M75.8631 85.9161H39.3083C39.1883 85.9161 39.0695 85.8925 38.9586 85.8466C38.8477 85.8007 38.7469 85.7334 38.662 85.6485C38.5772 85.5637 38.5098 85.4629 38.4639 85.352C38.418 85.2411 38.3944 85.1222 38.3945 85.0022C38.3944 84.8822 38.418 84.7633 38.4639 84.6524C38.5098 84.5415 38.5772 84.4408 38.662 84.3559C38.7469 84.271 38.8477 84.2037 38.9586 84.1578C39.0695 84.1119 39.1883 84.0883 39.3083 84.0884H75.8633C75.9833 84.0883 76.1022 84.1119 76.2131 84.1578C76.324 84.2037 76.4247 84.271 76.5096 84.3559C76.5945 84.4408 76.6618 84.5415 76.7077 84.6524C76.7536 84.7633 76.7772 84.8822 76.7771 85.0022C76.7772 85.1223 76.7535 85.2411 76.7076 85.352C76.6617 85.4629 76.5943 85.5637 76.5095 85.6485C76.4246 85.7334 76.3238 85.8007 76.2129 85.8466C76.102 85.8925 75.9831 85.9161 75.8631 85.9161Z" fill="black"/>
<path d="M57.5857 91.3994H39.3083C39.1883 91.3995 39.0695 91.3759 38.9586 91.33C38.8477 91.2841 38.7469 91.2168 38.662 91.1319C38.5772 91.0471 38.5098 90.9463 38.4639 90.8354C38.418 90.7245 38.3944 90.6056 38.3945 90.4856C38.3944 90.3656 38.418 90.2467 38.4639 90.1358C38.5098 90.0249 38.5772 89.9242 38.662 89.8393C38.7469 89.7544 38.8477 89.6871 38.9586 89.6412C39.0695 89.5953 39.1883 89.5717 39.3083 89.5718H57.5857C57.7057 89.5717 57.8246 89.5953 57.9355 89.6412C58.0464 89.6871 58.1471 89.7544 58.232 89.8393C58.3169 89.9242 58.3842 90.0249 58.4301 90.1358C58.476 90.2467 58.4996 90.3656 58.4995 90.4856C58.4996 90.6056 58.476 90.7245 58.4301 90.8354C58.3842 90.9463 58.3169 91.0471 58.232 91.1319C58.1471 91.2168 58.0464 91.2841 57.9355 91.33C57.8246 91.3759 57.7057 91.3995 57.5857 91.3994Z" fill="black"/>
</svg>
