<svg width="266" height="235" viewBox="0 0 266 235" fill="none" xmlns="http://www.w3.org/2000/svg">
<path d="M265.035 117.333C265.035 98.7556 243.44 83.1111 209.083 73.3333C217.918 39.1111 214.973 12.7111 199.267 2.93334C195.341 0.97778 191.414 0 186.506 0C171.782 0 152.15 10.7556 132.518 29.3333C112.885 10.7556 94.2348 0 78.529 0C73.6209 0 69.6945 0.97778 65.768 2.93334C51.0438 12.7111 48.099 39.1111 55.9519 73.3333C22.5771 83.1111 0 99.7333 0 117.333C0 135.911 21.5955 151.556 55.9519 161.333C48.099 195.556 51.0438 222.933 66.7496 231.733C70.6761 233.689 74.6025 234.667 79.5106 234.667C94.2348 234.667 113.867 223.911 133.499 205.333C153.131 223.911 171.782 234.667 187.488 234.667C192.396 234.667 196.322 233.689 200.249 231.733C215.955 222.933 218.9 195.556 211.047 161.333C243.44 151.556 265.035 134.933 265.035 117.333ZM186.506 12.7111C189.451 12.7111 191.414 12.7111 192.396 14.6667C200.249 18.5778 203.194 34.2222 200.249 54.7556C199.267 59.6445 198.286 65.5111 197.304 70.4C186.506 67.4667 175.709 66.4889 162.948 64.5333C156.076 54.7556 149.205 45.9556 141.352 38.1333C159.021 21.5111 175.709 12.7111 186.506 12.7111ZM168.837 137.867C164.911 144.711 160.984 151.556 156.076 157.422C148.223 158.4 140.371 158.4 132.518 158.4C124.665 158.4 116.812 158.4 108.959 157.422C105.033 151.556 101.106 144.711 96.198 137.867C92.2715 131.022 88.3451 124.178 85.4003 117.333C88.3451 110.489 92.2715 103.644 96.198 96.8C100.124 89.9556 105.033 83.1111 108.959 76.2667C116.812 75.2889 124.665 75.2889 132.518 75.2889C140.371 75.2889 148.223 75.2889 156.076 76.2667C160.003 82.1333 164.911 88.9778 168.837 96.8C172.764 103.644 176.69 110.489 179.635 117.333C176.69 124.178 172.764 131.022 168.837 137.867ZM186.506 132C189.451 138.844 191.414 145.689 193.378 151.556C186.506 153.511 179.635 154.489 172.764 155.467C174.727 151.556 177.672 147.644 179.635 143.733C182.58 140.8 184.543 135.911 186.506 132ZM132.518 187.733C127.61 182.844 122.702 176.978 118.775 171.111C123.683 171.111 128.591 171.111 132.518 171.111C137.426 171.111 142.334 171.111 146.26 171.111C142.334 176.978 137.426 182.844 132.518 187.733ZM92.2715 156.444C85.4003 155.467 78.529 154.489 71.6577 152.533C73.6209 145.689 76.5657 138.844 78.529 132.978C80.4922 136.889 82.4554 140.8 85.4003 144.711C88.3451 148.622 90.3083 152.533 92.2715 156.444ZM78.529 102.667C75.5841 95.8222 73.6209 88.9778 70.6761 82.1333C77.5474 80.1778 84.4186 79.2 92.2715 78.2222C89.3267 82.1333 87.3635 86.0444 84.4186 89.9556C83.437 94.8445 81.4738 98.7556 78.529 102.667ZM132.518 46.9333C137.426 51.8222 141.352 57.6889 146.26 62.5778C141.352 62.5778 137.426 62.5778 132.518 62.5778C127.61 62.5778 123.683 62.5778 118.775 62.5778C123.683 57.6889 128.591 51.8222 132.518 46.9333ZM179.635 89.9556C176.69 86.0444 174.727 82.1333 171.782 78.2222C179.635 79.2 186.506 80.1778 193.378 82.1333C191.414 88.9778 188.47 95.8222 185.525 102.667C184.543 98.7556 182.58 94.8445 179.635 89.9556ZM65.768 53.7778C62.8232 33.2444 65.768 18.5778 73.6209 13.6889C75.5841 12.7111 77.5474 11.7333 79.5106 11.7333C90.3083 11.7333 106.014 20.5333 123.683 37.1556C116.812 44.9778 108.959 53.7778 102.088 63.5556C90.3083 64.5333 78.529 66.4889 67.7312 69.4222C66.7496 64.5333 65.768 58.6667 65.768 53.7778ZM44.1725 143.733C25.5219 135.911 12.761 125.156 12.761 117.333C12.761 108.533 24.5403 98.7556 43.1909 90.9333C48.099 88.9778 53.0071 87.0222 58.8967 86.0445C61.8416 96.8 65.768 107.556 71.6577 118.311C66.7496 129.067 62.8232 139.822 59.8783 149.6C53.9887 147.644 49.0806 145.689 44.1725 143.733ZM72.6393 220.978C64.7864 217.067 61.8416 201.422 64.7864 180.889C65.768 176 66.7496 170.133 67.7312 164.267C78.529 166.222 89.3267 168.178 101.106 169.156C107.977 178.933 115.83 187.733 122.702 195.556C105.033 212.178 89.3267 220.978 78.529 220.978C76.5657 221.956 74.6025 220.978 72.6393 220.978ZM200.249 180.889C203.194 201.422 200.249 216.089 192.396 220.978C190.433 221.956 188.47 222.933 186.506 222.933C175.709 222.933 160.003 214.133 142.334 197.511C150.187 189.689 157.058 180.889 163.929 171.111C175.709 170.133 187.488 168.178 197.304 166.222C198.286 170.133 199.267 175.022 200.249 180.889ZM221.844 143.733C216.936 145.689 212.028 147.644 206.139 148.622C203.194 138.844 199.267 128.089 194.359 117.333C199.267 106.578 203.194 95.8222 207.12 85.0667C212.028 87.0222 217.918 88 222.826 89.9556C241.477 97.7778 253.256 107.556 253.256 116.356C252.274 125.156 240.495 135.911 221.844 143.733Z" fill="#BEBE09"/>
<path d="M133.499 141.889C147.242 141.889 158.04 131.133 158.04 117.444C158.04 103.756 147.242 93 133.499 93C119.757 93 108.959 103.756 108.959 117.444C108.959 131.133 119.757 141.889 133.499 141.889Z" fill="#BEBE09"/>
</svg>
