<svg width="117" height="117" viewBox="0 0 117 117" fill="none" xmlns="http://www.w3.org/2000/svg">
<path d="M4.64208 21.0346C4.13706 21.0346 3.71933 20.6258 3.71933 20.1207C3.71933 19.6157 4.119 19.2069 4.62242 19.2069H4.64208C4.88438 19.2071 5.11672 19.3034 5.28805 19.4748C5.45939 19.6461 5.55573 19.8784 5.55591 20.1207C5.55579 20.3631 5.45947 20.5954 5.28812 20.7668C5.11677 20.9381 4.8844 21.0345 4.64208 21.0346ZM8.29741 21.0346C7.79239 21.0346 7.37467 20.6258 7.37467 20.1207C7.37467 19.6157 7.77434 19.2069 8.27776 19.2069H8.29741C8.53972 19.2071 8.77205 19.3034 8.94339 19.4748C9.11473 19.6461 9.21106 19.8784 9.21125 20.1207C9.21106 20.3631 9.11473 20.5954 8.94339 20.7667C8.77205 20.9381 8.53972 21.0344 8.29741 21.0346ZM11.9525 21.0346C11.4475 21.0346 11.0298 20.6258 11.0298 20.1207C11.0298 19.6157 11.4294 19.2069 11.9329 19.2069H11.9525C12.1948 19.2071 12.4272 19.3034 12.5985 19.4748C12.7698 19.6461 12.8662 19.8784 12.8664 20.1207C12.8662 20.3631 12.7698 20.5954 12.5985 20.7667C12.4272 20.9381 12.1948 21.0344 11.9525 21.0346ZM17.3798 94.1372C17.2597 94.1372 17.1409 94.1136 17.03 94.0677C16.9191 94.0218 16.8183 93.9545 16.7335 93.8697C16.6486 93.7848 16.5813 93.684 16.5354 93.5731C16.4895 93.4622 16.4659 93.3434 16.4659 93.2234V14.6382C16.4659 14.5182 16.4895 14.3993 16.5354 14.2884C16.5813 14.1775 16.6486 14.0768 16.7335 13.9919C16.8183 13.907 16.9191 13.8397 17.03 13.7938C17.1409 13.7479 17.2597 13.7243 17.3798 13.7244C17.4998 13.7243 17.6186 13.7479 17.7295 13.7938C17.8404 13.8397 17.9412 13.907 18.0261 13.9919C18.1109 14.0768 18.1783 14.1775 18.2242 14.2884C18.2701 14.3993 18.2937 14.5182 18.2936 14.6382V93.2236C18.2937 93.3436 18.2701 93.4624 18.2242 93.5733C18.1782 93.6842 18.1109 93.785 18.0261 93.8698C17.9412 93.9547 17.8404 94.0219 17.7295 94.0678C17.6186 94.1137 17.4998 94.1373 17.3798 94.1372ZM99.6202 94.1372C99.115 94.1372 98.7062 93.7286 98.7062 93.2234V14.6382C98.7061 14.5182 98.7297 14.3993 98.7756 14.2884C98.8216 14.1775 98.8889 14.0767 98.9738 13.9918C99.0587 13.9069 99.1595 13.8396 99.2704 13.7937C99.3813 13.7478 99.5002 13.7243 99.6202 13.7244C99.7402 13.7243 99.8591 13.748 99.97 13.7939C100.081 13.8398 100.182 13.9071 100.266 13.992C100.351 14.0768 100.419 14.1776 100.464 14.2885C100.51 14.3994 100.534 14.5182 100.534 14.6382V93.2236C100.534 93.3436 100.51 93.4624 100.464 93.5733C100.419 93.6841 100.351 93.7849 100.266 93.8697C100.182 93.9546 100.081 94.0219 99.9699 94.0678C99.8591 94.1137 99.7402 94.1372 99.6202 94.1372Z" fill="black"/>
<path d="M99.6202 94.1374C99.5988 94.1374 99.5773 94.1374 99.556 94.1355C99.5186 94.1319 95.7138 93.8698 88.651 93.8448C88.531 93.8446 88.4123 93.8207 88.3015 93.7746C88.1907 93.7284 88.0901 93.6609 88.0054 93.5759C87.9207 93.4909 87.8536 93.39 87.8079 93.279C87.7622 93.1681 87.7388 93.0492 87.739 92.9292C87.7393 92.8092 87.7631 92.6904 87.8093 92.5796C87.8554 92.4688 87.923 92.3682 88.008 92.2835C88.093 92.1989 88.1939 92.1318 88.3048 92.086C88.4158 92.0403 88.5347 92.0169 88.6547 92.0172H88.6584C95.7901 92.0421 99.6472 92.3099 99.6847 92.3117C99.8077 92.3113 99.9296 92.3357 100.043 92.3835C100.156 92.4313 100.259 92.5014 100.344 92.5898C100.43 92.6782 100.497 92.7829 100.541 92.8977C100.585 93.0125 100.606 93.1351 100.601 93.258C100.597 93.381 100.568 93.5018 100.516 93.6132C100.464 93.7246 100.39 93.8244 100.298 93.9065C100.206 93.9886 100.099 94.0514 99.9826 94.091C99.8662 94.1307 99.7429 94.1465 99.6202 94.1374ZM58.5 97.7925C58.2859 97.7927 58.0786 97.7174 57.9145 97.5799C57.5274 97.2589 57.4756 96.6823 57.7987 96.2932C59.5816 94.1515 65.4748 92.8433 75.8137 92.2973C76.326 92.2599 76.7493 92.6577 76.7742 93.1609C76.7868 93.4028 76.7029 93.6398 76.5409 93.8198C76.3789 93.9999 76.152 94.1083 75.9101 94.1211C63.2369 94.7923 60.003 96.5039 59.2018 97.4639C59.116 97.5667 59.0087 97.6494 58.8874 97.7062C58.7662 97.763 58.6339 97.7924 58.5 97.7925ZM99.6202 15.5522C99.5988 15.5522 99.5773 15.5522 99.556 15.5504C99.5186 15.5467 95.7138 15.2844 88.651 15.2595C88.531 15.2591 88.4123 15.235 88.3016 15.1887C88.1909 15.1423 88.0905 15.0746 88.006 14.9894C87.9214 14.9043 87.8546 14.8032 87.8091 14.6922C87.7637 14.5811 87.7405 14.4622 87.7411 14.3422C87.7429 13.8372 88.223 13.3749 88.6584 13.432C95.7901 13.4569 99.6472 13.7248 99.6847 13.7266C99.8077 13.7262 99.9296 13.7506 100.043 13.7983C100.156 13.8461 100.259 13.9163 100.344 14.0047C100.43 14.093 100.497 14.1977 100.541 14.3126C100.585 14.4274 100.606 14.55 100.601 14.6729C100.597 14.7958 100.568 14.9166 100.516 15.0281C100.464 15.1395 100.39 15.2393 100.298 15.3214C100.206 15.4035 100.099 15.4662 99.9826 15.5059C99.8662 15.5456 99.7429 15.5613 99.6202 15.5522ZM58.5 19.2073C58.2859 19.2075 58.0786 19.1323 57.9145 18.9948C57.5274 18.6737 57.4756 18.0972 57.7987 17.708C59.5816 15.5664 65.4748 14.2581 75.8137 13.712C76.326 13.664 76.7493 14.0726 76.7742 14.5758C76.7867 14.8176 76.7028 15.0546 76.5408 15.2346C76.3788 15.4147 76.152 15.5231 75.9101 15.536C63.2369 16.2071 60.003 17.9187 59.2018 18.8787C59.116 18.9815 59.0087 19.0643 58.8874 19.1211C58.7662 19.1778 58.6339 19.2073 58.5 19.2073Z" fill="black"/>
<path d="M58.5 97.7924C58.3662 97.7924 58.234 97.763 58.1128 97.7062C57.9916 97.6494 57.8844 97.5667 57.7987 97.4638C54.6612 93.6981 31.9362 93.4143 17.4264 94.1355C16.8572 94.2052 16.4929 93.7715 16.468 93.2699C16.4618 93.1501 16.4793 93.0303 16.5195 92.9173C16.5597 92.8043 16.6218 92.7003 16.7022 92.6114C16.7826 92.5224 16.8797 92.4501 16.9881 92.3987C17.0964 92.3473 17.2138 92.3177 17.3336 92.3117C21.1226 92.117 54.4756 90.6232 59.2018 96.2934C59.3128 96.4268 59.3836 96.5892 59.4058 96.7614C59.4279 96.9336 59.4006 97.1085 59.327 97.2658C59.2534 97.423 59.1365 97.5561 58.9901 97.6493C58.8436 97.7426 58.6736 97.7922 58.5 97.7924ZM58.5 19.2073C58.3662 19.2073 58.234 19.1779 58.1128 19.1211C57.9916 19.0644 57.8844 18.9817 57.7987 18.8789C54.6612 15.1132 31.9362 14.8276 17.4264 15.5503C16.8572 15.6235 16.4929 15.1863 16.468 14.6847C16.4619 14.565 16.4794 14.4451 16.5196 14.3322C16.5598 14.2192 16.6218 14.1152 16.7022 14.0262C16.7826 13.9372 16.8798 13.8649 16.9881 13.8134C17.0964 13.762 17.2138 13.7324 17.3336 13.7263C21.1226 13.5319 54.4756 12.0381 59.2018 17.708C59.3129 17.8415 59.3837 18.0038 59.4059 18.1761C59.4281 18.3483 59.4008 18.5233 59.3272 18.6806C59.2536 18.8379 59.1367 18.9709 58.9902 19.0642C58.8437 19.1575 58.6737 19.2071 58.5 19.2073ZM0.931901 99.6201C0.811877 99.6202 0.693019 99.5966 0.58212 99.5507C0.471222 99.5048 0.370458 99.4374 0.285588 99.3526C0.200719 99.2677 0.133409 99.1669 0.0875056 99.056C0.0416025 98.9451 0.0180064 98.8263 0.0180665 98.7063V21.9486C0.0180064 21.8285 0.0416025 21.7097 0.0875056 21.5988C0.133409 21.4879 0.200719 21.3871 0.285588 21.3022C0.370458 21.2174 0.471222 21.1501 0.58212 21.1042C0.693019 21.0583 0.811877 21.0347 0.931901 21.0347C1.05192 21.0347 1.17078 21.0583 1.28168 21.1042C1.39258 21.1501 1.49334 21.2174 1.57821 21.3022C1.66308 21.3871 1.73039 21.4879 1.7763 21.5988C1.8222 21.7097 1.84579 21.8285 1.84573 21.9486V98.7063C1.84576 98.8263 1.82215 98.9451 1.77623 99.056C1.73032 99.1669 1.66301 99.2676 1.57815 99.3525C1.49328 99.4374 1.39253 99.5047 1.28165 99.5506C1.17076 99.5965 1.05192 99.6201 0.931901 99.6201ZM116.069 99.6201H88.6547C88.1499 99.6201 87.7411 99.2113 87.7411 98.7063C87.7411 98.2012 88.1499 97.7924 88.6547 97.7924H116.069C116.573 97.7924 116.982 98.2012 116.982 98.7063C116.982 99.2113 116.573 99.6201 116.069 99.6201Z" fill="black"/>
<path d="M58.5 101.447C55.9228 101.447 52.7247 100.014 51.8948 99.62H0.9319C0.426881 99.62 0.0180664 99.2112 0.0180664 98.7062C0.0180664 98.2012 0.426881 97.7924 0.9319 97.7924H52.1036C52.2446 97.7924 52.3856 97.8262 52.5125 97.8888C52.5463 97.9066 56.0106 99.62 58.5002 99.62C60.997 99.62 64.4542 97.9066 64.488 97.8888C64.6152 97.8259 64.755 97.793 64.8969 97.7924H75.8619C76.3672 97.7924 76.776 98.2012 76.776 98.7062C76.776 99.2112 76.3672 99.62 75.8619 99.62H65.1057C64.2753 100.014 61.077 101.447 58.5 101.447ZM116.069 99.62C115.563 99.62 115.155 99.2112 115.155 98.7062V21.9485C115.154 21.8284 115.178 21.7096 115.224 21.5986C115.27 21.4877 115.337 21.387 115.422 21.3021C115.507 21.2172 115.608 21.1499 115.719 21.104C115.83 21.0581 115.949 21.0346 116.069 21.0346C116.189 21.0346 116.307 21.0582 116.418 21.1041C116.529 21.1501 116.63 21.2174 116.715 21.3022C116.8 21.3871 116.867 21.4879 116.913 21.5987C116.959 21.7096 116.982 21.8285 116.982 21.9485V98.7062C116.982 98.8262 116.959 98.945 116.913 99.0559C116.867 99.1668 116.8 99.2676 116.715 99.3524C116.63 99.4373 116.529 99.5046 116.418 99.5505C116.307 99.5964 116.189 99.6201 116.069 99.62ZM58.5 92.3098C58.38 92.3099 58.2611 92.2863 58.1502 92.2404C58.0393 92.1945 57.9386 92.1272 57.8537 92.0423C57.7688 91.9574 57.7015 91.8567 57.6556 91.7458C57.6097 91.6349 57.5861 91.516 57.5862 91.396V21.9485C57.5861 21.8285 57.6097 21.7096 57.6556 21.5987C57.7015 21.4878 57.7688 21.387 57.8537 21.3022C57.9386 21.2173 58.0393 21.15 58.1502 21.1041C58.2611 21.0582 58.38 21.0346 58.5 21.0346C58.62 21.0346 58.7389 21.0582 58.8498 21.1041C58.9606 21.15 59.0614 21.2173 59.1462 21.3022C59.2311 21.3871 59.2984 21.4878 59.3443 21.5987C59.3901 21.7096 59.4137 21.8285 59.4136 21.9485V91.396C59.4137 91.516 59.3901 91.6348 59.3443 91.7457C59.2984 91.8566 59.2311 91.9574 59.1462 92.0423C59.0614 92.1271 58.9606 92.1945 58.8498 92.2404C58.7389 92.2863 58.62 92.3099 58.5 92.3098ZM84.9998 106.93C84.8194 106.93 84.643 106.877 84.4928 106.777L82.2586 105.287L80.0239 106.777C79.8863 106.869 79.7262 106.922 79.5608 106.93C79.3955 106.938 79.2311 106.9 79.0854 106.821C78.9398 106.743 78.818 106.627 78.7331 106.486C78.6483 106.344 78.6034 106.182 78.6034 106.017V10.9829C78.6034 10.8629 78.627 10.744 78.6729 10.6331C78.7188 10.5222 78.7862 10.4214 78.871 10.3365C78.9559 10.2517 79.0567 10.1844 79.1677 10.1385C79.2786 10.0926 79.3975 10.069 79.5175 10.0691C79.6375 10.0691 79.7563 10.0927 79.8672 10.1386C79.9781 10.1845 80.0788 10.2518 80.1637 10.3367C80.2485 10.4216 80.3158 10.5223 80.3617 10.6332C80.4076 10.7441 80.4312 10.8629 80.4311 10.9829V104.308L81.7517 103.428C81.902 103.329 82.0783 103.276 82.2586 103.276C82.4388 103.276 82.6151 103.329 82.7654 103.428L84.0864 104.308V10.9829C84.0864 10.4779 84.4948 10.0691 85.0001 10.0691C85.5053 10.0691 85.9137 10.4779 85.9137 10.9829V106.016C85.9137 106.182 85.8689 106.344 85.7841 106.485C85.6994 106.627 85.5777 106.743 85.4322 106.821C85.2994 106.893 85.1508 106.931 84.9998 106.93ZM50.276 30.1725H26.5177C26.3976 30.1726 26.2788 30.149 26.1679 30.1031C26.057 30.0572 25.9562 29.9899 25.8713 29.905C25.7865 29.8201 25.7192 29.7194 25.6733 29.6085C25.6274 29.4976 25.6038 29.3787 25.6038 29.2587C25.6038 29.1387 25.6274 29.0198 25.6733 28.9089C25.7192 28.798 25.7865 28.6973 25.8713 28.6124C25.9562 28.5275 26.057 28.4602 26.1679 28.4143C26.2788 28.3684 26.3976 28.3448 26.5177 28.3449H50.276C50.396 28.3448 50.5148 28.3684 50.6257 28.4143C50.7366 28.4602 50.8374 28.5275 50.9223 28.6124C51.0071 28.6973 51.0745 28.798 51.1204 28.9089C51.1663 29.0198 51.1899 29.1387 51.1898 29.2587C51.1899 29.3787 51.1663 29.4976 51.1204 29.6085C51.0745 29.7194 51.0071 29.8201 50.9223 29.905C50.8374 29.9899 50.7366 30.0572 50.6257 30.1031C50.5148 30.149 50.396 30.1726 50.276 30.1725ZM50.276 35.6553H26.5177C26.3976 35.6554 26.2788 35.6318 26.1679 35.5859C26.057 35.54 25.9562 35.4726 25.8713 35.3878C25.7865 35.3029 25.7192 35.2021 25.6733 35.0912C25.6274 34.9803 25.6038 34.8615 25.6038 34.7415C25.6038 34.6214 25.6274 34.5026 25.6733 34.3917C25.7192 34.2808 25.7865 34.18 25.8713 34.0952C25.9562 34.0103 26.057 33.943 26.1679 33.8971C26.2788 33.8512 26.3976 33.8276 26.5177 33.8276H50.276C50.396 33.8276 50.5148 33.8512 50.6257 33.8971C50.7366 33.943 50.8374 34.0103 50.9223 34.0952C51.0071 34.18 51.0745 34.2808 51.1204 34.3917C51.1663 34.5026 51.1899 34.6214 51.1898 34.7415C51.1899 34.8615 51.1663 34.9803 51.1204 35.0912C51.0745 35.2021 51.0071 35.3029 50.9223 35.3878C50.8374 35.4726 50.7366 35.54 50.6257 35.5859C50.5148 35.6318 50.396 35.6554 50.276 35.6553ZM50.276 41.1378H26.5177C26.3976 41.1379 26.2788 41.1143 26.1679 41.0684C26.057 41.0225 25.9562 40.9552 25.8713 40.8703C25.7865 40.7855 25.7192 40.6847 25.6733 40.5738C25.6274 40.4629 25.6038 40.344 25.6038 40.224C25.6038 40.104 25.6274 39.9851 25.6733 39.8742C25.7192 39.7633 25.7865 39.6626 25.8713 39.5777C25.9562 39.4928 26.057 39.4255 26.1679 39.3796C26.2788 39.3337 26.3976 39.3101 26.5177 39.3102H50.276C50.396 39.3101 50.5148 39.3337 50.6257 39.3796C50.7366 39.4255 50.8374 39.4928 50.9223 39.5777C51.0071 39.6626 51.0745 39.7633 51.1204 39.8742C51.1663 39.9851 51.1899 40.104 51.1898 40.224C51.1899 40.344 51.1663 40.4629 51.1204 40.5738C51.0745 40.6847 51.0071 40.7855 50.9223 40.8703C50.8374 40.9552 50.7366 41.0225 50.6257 41.0684C50.5148 41.1143 50.396 41.1379 50.276 41.1378ZM50.276 46.6206H26.5177C26.3976 46.6207 26.2788 46.5971 26.1679 46.5512C26.057 46.5053 25.9562 46.438 25.8713 46.3531C25.7865 46.2682 25.7192 46.1675 25.6733 46.0566C25.6274 45.9457 25.6038 45.8268 25.6038 45.7068C25.6037 45.5868 25.6273 45.4679 25.6732 45.357C25.7191 45.2461 25.7864 45.1453 25.8713 45.0604C25.9561 44.9755 26.0569 44.9082 26.1678 44.8623C26.2787 44.8164 26.3976 44.7929 26.5177 44.793H50.276C50.396 44.7929 50.5148 44.8165 50.6257 44.8624C50.7366 44.9083 50.8374 44.9756 50.9223 45.0605C51.0071 45.1453 51.0745 45.2461 51.1204 45.357C51.1663 45.4679 51.1899 45.5868 51.1898 45.7068C51.1899 45.8268 51.1663 45.9457 51.1204 46.0566C51.0745 46.1675 51.0071 46.2682 50.9223 46.3531C50.8374 46.438 50.7366 46.5053 50.6257 46.5512C50.5148 46.5971 50.396 46.6207 50.276 46.6206ZM50.276 52.1034H26.5177C26.3976 52.1035 26.2788 52.0799 26.1679 52.034C26.057 51.9881 25.9562 51.9207 25.8713 51.8359C25.7865 51.751 25.7192 51.6502 25.6733 51.5393C25.6274 51.4284 25.6038 51.3096 25.6038 51.1896C25.6038 51.0695 25.6274 50.9507 25.6733 50.8398C25.7192 50.7289 25.7865 50.6281 25.8713 50.5433C25.9562 50.4584 26.057 50.3911 26.1679 50.3452C26.2788 50.2993 26.3976 50.2757 26.5177 50.2757H50.276C50.396 50.2757 50.5148 50.2993 50.6257 50.3452C50.7366 50.3911 50.8374 50.4584 50.9223 50.5433C51.0071 50.6281 51.0745 50.7289 51.1204 50.8398C51.1663 50.9507 51.1899 51.0695 51.1898 51.1896C51.1899 51.3096 51.1663 51.4284 51.1204 51.5393C51.0745 51.6502 51.0071 51.751 50.9223 51.8359C50.8374 51.9207 50.7366 51.9881 50.6257 52.034C50.5148 52.0799 50.396 52.1035 50.276 52.1034ZM50.276 57.5859H26.5177C26.0126 57.5859 25.6038 57.1774 25.6038 56.6721C25.6038 56.1669 26.0124 55.7583 26.5177 55.7583H50.276C50.781 55.7583 51.1898 56.1669 51.1898 56.6721C51.1898 57.1774 50.781 57.5859 50.276 57.5859ZM50.276 63.0687H26.5177C26.0126 63.0687 25.6038 62.6599 25.6038 62.1549C25.6038 61.6499 26.0124 61.2411 26.5177 61.2411H50.276C50.781 61.2411 51.1898 61.6499 51.1898 62.1549C51.1898 62.6599 50.781 63.0687 50.276 63.0687ZM50.276 68.5513H26.5177C26.3976 68.5514 26.2788 68.5278 26.1679 68.4819C26.057 68.436 25.9562 68.3687 25.8714 68.2839C25.7865 68.199 25.7192 68.0983 25.6733 67.9874C25.6274 67.8765 25.6038 67.7577 25.6038 67.6377C25.6037 67.5176 25.6273 67.3988 25.6732 67.2878C25.7191 67.1769 25.7864 67.0762 25.8713 66.9913C25.9561 66.9064 26.0569 66.8391 26.1678 66.7932C26.2787 66.7473 26.3976 66.7237 26.5177 66.7238H50.276C50.396 66.7238 50.5148 66.7474 50.6257 66.7933C50.7366 66.8392 50.8374 66.9065 50.9223 66.9913C51.0071 67.0762 51.0745 67.177 51.1204 67.2879C51.1663 67.3988 51.1899 67.5176 51.1898 67.6377C51.1899 67.7577 51.1663 67.8765 51.1204 67.9874C51.0745 68.0983 51.0071 68.199 50.9223 68.2839C50.8374 68.3687 50.7366 68.436 50.6257 68.4819C50.5148 68.5278 50.396 68.5514 50.276 68.5513ZM50.276 74.0343H26.5177C26.0126 74.0343 25.6038 73.6255 25.6038 73.1204C25.6038 72.6154 26.0124 72.2066 26.5177 72.2066H50.276C50.781 72.2066 51.1898 72.6154 51.1898 73.1204C51.1898 73.6255 50.781 74.0343 50.276 74.0343ZM50.276 79.5168H26.5177C26.3976 79.5169 26.2788 79.4933 26.1679 79.4474C26.057 79.4015 25.9562 79.3342 25.8713 79.2493C25.7865 79.1644 25.7192 79.0637 25.6733 78.9528C25.6274 78.8419 25.6038 78.723 25.6038 78.603C25.6038 78.483 25.6274 78.3641 25.6733 78.2532C25.7192 78.1424 25.7865 78.0416 25.8714 77.9568C25.9562 77.8719 26.057 77.8046 26.1679 77.7587C26.2788 77.7129 26.3976 77.6893 26.5177 77.6894H50.276C50.396 77.6893 50.5148 77.7129 50.6257 77.7587C50.7366 77.8046 50.8374 77.8719 50.9223 77.9568C51.0071 78.0416 51.0745 78.1424 51.1204 78.2532C51.1663 78.3641 51.1899 78.483 51.1898 78.603C51.1899 78.723 51.1663 78.8419 51.1204 78.9528C51.0745 79.0637 51.0071 79.1644 50.9223 79.2493C50.8374 79.3342 50.7366 79.4015 50.6257 79.4474C50.5148 79.4933 50.396 79.5169 50.276 79.5168Z" fill="black"/>
<path d="M75.8619 30.1726H66.724C66.604 30.1727 66.4852 30.1491 66.3743 30.1031C66.2635 30.0572 66.1627 29.9899 66.0779 29.905C65.993 29.8202 65.9257 29.7194 65.8799 29.6085C65.834 29.4976 65.8104 29.3788 65.8104 29.2588C65.8104 29.1388 65.834 29.02 65.8799 28.9091C65.9257 28.7982 65.993 28.6974 66.0779 28.6126C66.1627 28.5277 66.2635 28.4604 66.3743 28.4145C66.4852 28.3686 66.604 28.3449 66.724 28.345H75.8619C76.3672 28.345 76.776 28.7538 76.776 29.2588C76.776 29.3788 76.7524 29.4977 76.7065 29.6086C76.6606 29.7196 76.5933 29.8203 76.5084 29.9052C76.4235 29.9901 76.3227 30.0574 76.2118 30.1033C76.1009 30.1492 75.982 30.1727 75.8619 30.1726ZM75.8619 35.6554H66.724C66.604 35.6554 66.4852 35.6318 66.3743 35.5859C66.2635 35.54 66.1627 35.4727 66.0779 35.3878C65.993 35.3029 65.9257 35.2022 65.8799 35.0913C65.834 34.9804 65.8104 34.8616 65.8104 34.7416C65.8104 34.6216 65.834 34.5027 65.8799 34.3919C65.9257 34.281 65.993 34.1802 66.0779 34.0953C66.1627 34.0105 66.2635 33.9432 66.3743 33.8972C66.4852 33.8513 66.604 33.8277 66.724 33.8277H75.8619C76.3672 33.8277 76.776 34.2366 76.776 34.7416C76.776 34.8616 76.7524 34.9805 76.7065 35.0914C76.6606 35.2023 76.5933 35.3031 76.5084 35.388C76.4235 35.4728 76.3227 35.5401 76.2118 35.586C76.1009 35.6319 75.982 35.6555 75.8619 35.6554ZM75.8619 41.138H66.724C66.604 41.138 66.4852 41.1144 66.3743 41.0685C66.2635 41.0225 66.1627 40.9552 66.0779 40.8704C65.993 40.7855 65.9257 40.6847 65.8799 40.5739C65.834 40.463 65.8104 40.3441 65.8104 40.2241C65.8104 40.1041 65.834 39.9853 65.8799 39.8744C65.9257 39.7635 65.993 39.6628 66.0779 39.5779C66.1627 39.493 66.2635 39.4257 66.3743 39.3798C66.4852 39.3339 66.604 39.3103 66.724 39.3103H75.8619C76.3672 39.3103 76.776 39.7191 76.776 40.2241C76.776 40.3442 76.7524 40.463 76.7065 40.574C76.6606 40.6849 76.5933 40.7856 76.5084 40.8705C76.4235 40.9554 76.3227 41.0227 76.2118 41.0686C76.1009 41.1145 75.982 41.1381 75.8619 41.138ZM75.8619 46.6207H66.724C66.604 46.6208 66.4852 46.5972 66.3743 46.5512C66.2635 46.5053 66.1627 46.438 66.0779 46.3531C65.993 46.2683 65.9257 46.1675 65.8799 46.0566C65.834 45.9457 65.8104 45.8269 65.8104 45.7069C65.8104 45.5869 65.8339 45.468 65.8798 45.3571C65.9257 45.2462 65.993 45.1455 66.0778 45.0606C66.1627 44.9757 66.2634 44.9084 66.3743 44.8625C66.4852 44.8166 66.604 44.793 66.724 44.7931H75.8619C76.3672 44.7931 76.776 45.2017 76.776 45.7069C76.776 45.8269 76.7524 45.9458 76.7065 46.0567C76.6606 46.1676 76.5933 46.2684 76.5084 46.3533C76.4235 46.4382 76.3227 46.5055 76.2118 46.5514C76.1009 46.5973 75.982 46.6208 75.8619 46.6207ZM75.8619 52.1035H66.724C66.604 52.1035 66.4852 52.0799 66.3743 52.034C66.2635 51.9881 66.1627 51.9208 66.0779 51.8359C65.993 51.751 65.9257 51.6503 65.8799 51.5394C65.834 51.4285 65.8104 51.3097 65.8104 51.1897C65.8104 51.0697 65.834 50.9508 65.8799 50.84C65.9257 50.7291 65.993 50.6283 66.0779 50.5434C66.1627 50.4586 66.2635 50.3913 66.3743 50.3454C66.4852 50.2994 66.604 50.2758 66.724 50.2758H75.8619C76.3672 50.2758 76.776 50.6847 76.776 51.1897C76.776 51.3097 76.7524 51.4286 76.7065 51.5395C76.6606 51.6504 76.5933 51.7512 76.5084 51.8361C76.4235 51.9209 76.3227 51.9883 76.2118 52.0341C76.1009 52.08 75.982 52.1036 75.8619 52.1035ZM75.8619 57.5861H66.724C66.2193 57.5861 65.8104 57.1775 65.8104 56.6722C65.8104 56.167 66.2193 55.7584 66.724 55.7584H75.8619C76.3672 55.7584 76.776 56.167 76.776 56.6722C76.776 57.1775 76.3672 57.5861 75.8619 57.5861ZM75.8619 63.0688H66.724C66.2193 63.0688 65.8104 62.66 65.8104 62.155C65.8104 61.65 66.2193 61.2412 66.724 61.2412H75.8619C76.3672 61.2412 76.776 61.65 76.776 62.155C76.776 62.66 76.3672 63.0688 75.8619 63.0688ZM75.8619 68.5514H66.724C66.6041 68.5514 66.4852 68.5279 66.3744 68.482C66.2635 68.4361 66.1627 68.3688 66.0779 68.2839C65.993 68.1991 65.9258 68.0983 65.8799 67.9875C65.834 67.8766 65.8104 67.7578 65.8104 67.6378C65.8104 67.5178 65.8339 67.3989 65.8798 67.288C65.9257 67.1771 65.993 67.0764 66.0778 66.9915C66.1627 66.9066 66.2634 66.8393 66.3743 66.7934C66.4852 66.7475 66.604 66.7239 66.724 66.7239H75.8619C76.3672 66.7239 76.776 67.1325 76.776 67.6378C76.776 67.7578 76.7524 67.8767 76.7065 67.9875C76.6605 68.0984 76.5932 68.1992 76.5083 68.284C76.4234 68.3689 76.3226 68.4362 76.2117 68.482C76.1008 68.5279 75.9819 68.5515 75.8619 68.5514ZM75.8619 74.0344H66.724C66.2193 74.0344 65.8104 73.6256 65.8104 73.1206C65.8104 72.6155 66.2193 72.2067 66.724 72.2067H75.8619C76.3672 72.2067 76.776 72.6155 76.776 73.1206C76.776 73.6256 76.3672 74.0344 75.8619 74.0344ZM75.8619 79.5169H66.724C66.604 79.517 66.4852 79.4934 66.3743 79.4475C66.2634 79.4016 66.1627 79.3343 66.0778 79.2494C65.993 79.1645 65.9257 79.0638 65.8798 78.9529C65.8339 78.842 65.8104 78.7231 65.8104 78.6031C65.8104 78.4831 65.834 78.3643 65.8799 78.2534C65.9258 78.1425 65.993 78.0418 66.0779 77.957C66.1627 77.8721 66.2635 77.8048 66.3744 77.7589C66.4852 77.713 66.6041 77.6894 66.724 77.6895H75.8619C76.3672 77.6895 76.776 78.0981 76.776 78.6031C76.776 78.7231 76.7524 78.842 76.7065 78.9529C76.6606 79.0638 76.5933 79.1646 76.5084 79.2495C76.4235 79.3344 76.3227 79.4017 76.2118 79.4476C76.1009 79.4935 75.982 79.517 75.8619 79.5169Z" fill="black"/>
<path d="M90.4824 30.1726H88.6547C88.5347 30.1727 88.4159 30.1491 88.305 30.1031C88.1941 30.0572 88.0934 29.9899 88.0085 29.905C87.9237 29.8202 87.8564 29.7194 87.8105 29.6085C87.7646 29.4976 87.741 29.3788 87.7411 29.2588C87.741 29.1388 87.7646 29.02 87.8105 28.9091C87.8564 28.7982 87.9237 28.6974 88.0085 28.6126C88.0934 28.5277 88.1941 28.4604 88.305 28.4145C88.4159 28.3686 88.5347 28.3449 88.6547 28.345H90.4824C90.6024 28.3449 90.7212 28.3685 90.8321 28.4144C90.943 28.4603 91.0437 28.5276 91.1286 28.6125C91.2134 28.6974 91.2807 28.7981 91.3266 28.909C91.3725 29.0199 91.3961 29.1388 91.396 29.2588C91.3961 29.3788 91.3725 29.4977 91.3267 29.6086C91.2808 29.7195 91.2135 29.8203 91.1287 29.9052C91.0438 29.99 90.943 30.0574 90.8321 30.1033C90.7212 30.1492 90.6024 30.1727 90.4824 30.1726ZM90.4824 35.6554H88.6547C88.5347 35.6554 88.4159 35.6318 88.305 35.5859C88.1941 35.54 88.0934 35.4727 88.0085 35.3878C87.9237 35.3029 87.8564 35.2022 87.8105 35.0913C87.7646 34.9804 87.741 34.8616 87.7411 34.7416C87.741 34.6216 87.7646 34.5027 87.8105 34.3919C87.8564 34.281 87.9237 34.1802 88.0085 34.0953C88.0934 34.0105 88.1941 33.9432 88.305 33.8972C88.4159 33.8513 88.5347 33.8277 88.6547 33.8277H90.4824C90.6024 33.8277 90.7212 33.8513 90.8321 33.8972C90.943 33.9431 91.0437 34.0104 91.1286 34.0953C91.2134 34.1802 91.2807 34.2809 91.3266 34.3918C91.3725 34.5027 91.3961 34.6216 91.396 34.7416C91.3961 34.8616 91.3725 34.9804 91.3266 35.0913C91.2807 35.2022 91.2134 35.303 91.1286 35.3879C91.0437 35.4728 90.943 35.5401 90.8321 35.586C90.7212 35.6319 90.6024 35.6555 90.4824 35.6554ZM90.4824 41.138H88.6547C88.5347 41.138 88.4159 41.1144 88.305 41.0685C88.1941 41.0225 88.0934 40.9552 88.0085 40.8704C87.9237 40.7855 87.8564 40.6847 87.8105 40.5739C87.7646 40.463 87.741 40.3441 87.7411 40.2241C87.741 40.1041 87.7646 39.9853 87.8105 39.8744C87.8564 39.7635 87.9237 39.6628 88.0085 39.5779C88.0934 39.493 88.1941 39.4257 88.305 39.3798C88.4159 39.3339 88.5347 39.3103 88.6547 39.3103H90.4824C90.6024 39.3102 90.7212 39.3338 90.8321 39.3797C90.943 39.4256 91.0437 39.493 91.1286 39.5778C91.2134 39.6627 91.2807 39.7635 91.3266 39.8744C91.3725 39.9853 91.3961 40.1041 91.396 40.2241C91.3961 40.3441 91.3725 40.463 91.3267 40.5739C91.2808 40.6848 91.2135 40.7856 91.1287 40.8705C91.0438 40.9554 90.943 41.0227 90.8321 41.0686C90.7212 41.1145 90.6024 41.1381 90.4824 41.138ZM90.4824 46.6207H88.6547C88.5347 46.6208 88.4159 46.5972 88.305 46.5512C88.1941 46.5053 88.0934 46.438 88.0085 46.3531C87.9237 46.2683 87.8564 46.1675 87.8105 46.0566C87.7646 45.9457 87.741 45.8269 87.7411 45.7069C87.741 45.5869 87.7646 45.468 87.8104 45.3571C87.8563 45.2462 87.9236 45.1455 88.0085 45.0606C88.0933 44.9757 88.1941 44.9084 88.305 44.8625C88.4158 44.8166 88.5347 44.793 88.6547 44.7931H90.4824C90.6024 44.793 90.7212 44.8166 90.8321 44.8624C90.943 44.9083 91.0438 44.9757 91.1287 45.0605C91.2135 45.1454 91.2808 45.2462 91.3267 45.3571C91.3725 45.468 91.3961 45.5869 91.396 45.7069C91.3961 45.8269 91.3725 45.9458 91.3267 46.0567C91.2808 46.1676 91.2135 46.2684 91.1287 46.3533C91.0438 46.4381 90.943 46.5055 90.8321 46.5514C90.7212 46.5972 90.6024 46.6208 90.4824 46.6207ZM90.4824 52.1035H88.6547C88.5347 52.1035 88.4159 52.0799 88.305 52.034C88.1941 51.9881 88.0934 51.9208 88.0085 51.8359C87.9237 51.751 87.8564 51.6503 87.8105 51.5394C87.7646 51.4285 87.741 51.3097 87.7411 51.1897C87.741 51.0697 87.7646 50.9508 87.8105 50.84C87.8564 50.7291 87.9237 50.6283 88.0085 50.5434C88.0934 50.4586 88.1941 50.3913 88.305 50.3454C88.4159 50.2994 88.5347 50.2758 88.6547 50.2758H90.4824C90.6024 50.2758 90.7212 50.2994 90.8321 50.3453C90.943 50.3912 91.0437 50.4585 91.1286 50.5434C91.2134 50.6283 91.2807 50.729 91.3266 50.8399C91.3725 50.9508 91.3961 51.0697 91.396 51.1897C91.3961 51.3097 91.3725 51.4285 91.3266 51.5394C91.2807 51.6503 91.2134 51.7511 91.1286 51.836C91.0437 51.9209 90.943 51.9882 90.8321 52.0341C90.7212 52.08 90.6024 52.1036 90.4824 52.1035ZM90.4824 57.5861H88.6547C88.1499 57.5861 87.7411 57.1775 87.7411 56.6722C87.7411 56.167 88.1499 55.7584 88.6547 55.7584H90.4824C90.9876 55.7584 91.396 56.167 91.396 56.6722C91.396 57.1775 90.9876 57.5861 90.4824 57.5861ZM90.4824 63.0688H88.6547C88.1499 63.0688 87.7411 62.66 87.7411 62.155C87.7411 61.65 88.1499 61.2412 88.6547 61.2412H90.4824C90.9876 61.2412 91.396 61.65 91.396 62.155C91.396 62.66 90.9876 63.0688 90.4824 63.0688ZM90.4824 68.5514H88.6547C88.5347 68.5514 88.4159 68.5279 88.305 68.482C88.1941 68.4361 88.0934 68.3688 88.0085 68.2839C87.9237 68.1991 87.8564 68.0983 87.8105 67.9875C87.7646 67.8766 87.741 67.7578 87.7411 67.6378C87.741 67.5178 87.7646 67.3989 87.8104 67.288C87.8563 67.1771 87.9236 67.0764 88.0085 66.9915C88.0933 66.9066 88.1941 66.8393 88.305 66.7934C88.4158 66.7475 88.5347 66.7239 88.6547 66.7239H90.4824C90.6024 66.7239 90.7212 66.7474 90.8321 66.7933C90.943 66.8392 91.0438 66.9065 91.1287 66.9914C91.2135 67.0763 91.2808 67.1771 91.3267 67.288C91.3725 67.3989 91.3961 67.5178 91.396 67.6378C91.3961 67.7578 91.3725 67.8766 91.3266 67.9875C91.2807 68.0984 91.2134 68.1991 91.1286 68.284C91.0437 68.3688 90.943 68.4361 90.8321 68.482C90.7212 68.5279 90.6024 68.5515 90.4824 68.5514ZM90.4824 74.0344H88.6547C88.1499 74.0344 87.7411 73.6256 87.7411 73.1206C87.7411 72.6155 88.1499 72.2067 88.6547 72.2067H90.4824C90.9876 72.2067 91.396 72.6155 91.396 73.1206C91.396 73.6256 90.9876 74.0344 90.4824 74.0344ZM90.4824 79.5169H88.6547C88.5347 79.517 88.4158 79.4934 88.305 79.4475C88.1941 79.4016 88.0933 79.3343 88.0085 79.2494C87.9236 79.1645 87.8563 79.0638 87.8104 78.9529C87.7646 78.842 87.741 78.7231 87.7411 78.6031C87.741 78.4831 87.7646 78.3643 87.8105 78.2534C87.8564 78.1425 87.9237 78.0418 88.0085 77.957C88.0934 77.8721 88.1941 77.8048 88.305 77.7589C88.4159 77.713 88.5347 77.6894 88.6547 77.6895H90.4824C90.6024 77.6894 90.7212 77.713 90.8321 77.7589C90.943 77.8047 91.0437 77.872 91.1286 77.9569C91.2134 78.0417 91.2807 78.1425 91.3266 78.2534C91.3725 78.3643 91.3961 78.4831 91.396 78.6031C91.3961 78.7231 91.3725 78.842 91.3267 78.9529C91.2808 79.0638 91.2135 79.1646 91.1287 79.2495C91.0438 79.3343 90.943 79.4017 90.8321 79.4476C90.7212 79.4935 90.6024 79.517 90.4824 79.5169Z" fill="black"/>
<path d="M84.9998 11.897H79.5173C79.012 11.897 78.6032 11.4884 78.6032 10.9832C78.6032 10.8631 78.6268 10.7443 78.6727 10.6333C78.7186 10.5224 78.7859 10.4216 78.8708 10.3368C78.9557 10.2519 79.0565 10.1846 79.1674 10.1387C79.2783 10.0928 79.3972 10.0692 79.5173 10.0693H84.9998C85.1198 10.0693 85.2387 10.0929 85.3496 10.1388C85.4605 10.1847 85.5612 10.252 85.646 10.3369C85.7309 10.4217 85.7982 10.5225 85.8441 10.6334C85.8899 10.7443 85.9135 10.8632 85.9134 10.9832C85.9135 11.1032 85.8899 11.222 85.8441 11.3329C85.7982 11.4438 85.7309 11.5446 85.646 11.6295C85.5612 11.7143 85.4605 11.7817 85.3496 11.8276C85.2387 11.8735 85.1198 11.8971 84.9998 11.897Z" fill="black"/>
<path d="M0.931901 22.8624C0.811877 22.8625 0.693019 22.8389 0.58212 22.793C0.471222 22.7471 0.370458 22.6798 0.285588 22.5949C0.200719 22.51 0.133409 22.4093 0.0875056 22.2984C0.0416025 22.1875 0.0180064 22.0686 0.0180665 21.9486V20.1211C0.0180665 18.5844 1.22257 17.3796 2.75934 17.3796H13.7247C13.8447 17.3796 13.9635 17.4032 14.0744 17.4491C14.1853 17.495 14.2861 17.5623 14.371 17.6472C14.4558 17.732 14.5232 17.8328 14.5691 17.9437C14.615 18.0546 14.6386 18.1734 14.6385 18.2935C14.6386 18.4135 14.615 18.5324 14.5691 18.6433C14.5232 18.7542 14.4558 18.8549 14.371 18.9398C14.2861 19.0247 14.1853 19.092 14.0744 19.1379C13.9635 19.1838 13.8447 19.2074 13.7247 19.2073H2.75934C2.23832 19.2073 1.84551 19.5999 1.84551 20.1211V21.9486C1.8456 22.0686 1.82203 22.1874 1.77615 22.2983C1.73027 22.4092 1.66298 22.51 1.57813 22.5949C1.49328 22.6797 1.39253 22.7471 1.28165 22.793C1.17076 22.8389 1.05191 22.8625 0.931901 22.8624Z" fill="black"/>
<path d="M13.7247 22.8623H0.931901C0.811877 22.8624 0.693019 22.8388 0.58212 22.7929C0.471222 22.747 0.370458 22.6797 0.285588 22.5948C0.200719 22.5099 0.133409 22.4092 0.0875056 22.2983C0.0416025 22.1874 0.0180064 22.0685 0.0180665 21.9485C0.0180064 21.8285 0.0416025 21.7096 0.0875056 21.5987C0.133409 21.4878 0.200719 21.3871 0.285588 21.3022C0.370458 21.2173 0.471222 21.15 0.58212 21.1041C0.693019 21.0582 0.811877 21.0346 0.931901 21.0347H13.7247C13.8447 21.0346 13.9635 21.0582 14.0744 21.1041C14.1853 21.15 14.2861 21.2173 14.371 21.3022C14.4558 21.3871 14.5232 21.4878 14.5691 21.5987C14.615 21.7096 14.6386 21.8285 14.6385 21.9485C14.6386 22.0685 14.615 22.1874 14.5691 22.2983C14.5232 22.4092 14.4558 22.5099 14.371 22.5948C14.2861 22.6797 14.1853 22.747 14.0744 22.7929C13.9635 22.8388 13.8447 22.8624 13.7247 22.8623Z" fill="black"/>
<path d="M116.069 22.8624C115.563 22.8624 115.155 22.4536 115.155 21.9486V20.1211C115.155 19.5999 114.762 19.2073 114.241 19.2073H103.275C103.155 19.2074 103.036 19.1838 102.926 19.1379C102.815 19.092 102.714 19.0246 102.629 18.9398C102.544 18.8549 102.477 18.7541 102.431 18.6432C102.385 18.5323 102.362 18.4135 102.362 18.2935C102.362 18.1735 102.385 18.0546 102.431 17.9437C102.477 17.8329 102.544 17.7321 102.629 17.6472C102.714 17.5624 102.815 17.4951 102.926 17.4491C103.037 17.4032 103.155 17.3796 103.275 17.3796H114.241C115.778 17.3796 116.982 18.5844 116.982 20.1211V21.9486C116.982 22.0686 116.959 22.1874 116.913 22.2983C116.867 22.4092 116.8 22.5099 116.715 22.5948C116.63 22.6797 116.529 22.747 116.418 22.7929C116.307 22.8388 116.189 22.8624 116.069 22.8624Z" fill="black"/>
<path d="M116.069 22.8623H103.275C103.155 22.8624 103.037 22.8387 102.926 22.7928C102.815 22.7469 102.714 22.6796 102.629 22.5947C102.544 22.5099 102.477 22.4091 102.431 22.2982C102.385 22.1873 102.362 22.0685 102.362 21.9485C102.362 21.8285 102.385 21.7097 102.431 21.5988C102.477 21.4879 102.544 21.3871 102.629 21.3023C102.714 21.2174 102.815 21.1501 102.926 21.1042C103.037 21.0583 103.155 21.0346 103.275 21.0347H116.069C116.189 21.0346 116.307 21.0583 116.418 21.1042C116.529 21.1501 116.63 21.2174 116.715 21.3023C116.8 21.3871 116.867 21.4879 116.913 21.5988C116.959 21.7097 116.982 21.8285 116.982 21.9485C116.982 22.0685 116.959 22.1873 116.913 22.2982C116.867 22.4091 116.8 22.5099 116.715 22.5947C116.63 22.6796 116.529 22.7469 116.418 22.7928C116.307 22.8387 116.189 22.8624 116.069 22.8623Z" fill="black"/>
</svg>
