<svg width="117" height="117" viewBox="0 0 117 117" fill="none" xmlns="http://www.w3.org/2000/svg">
<path d="M70.3739 110.564H46.6261C46.5061 110.564 46.3873 110.541 46.2765 110.495C46.1657 110.449 46.0651 110.381 45.9803 110.296L42.3266 106.643C42.2417 106.558 42.1744 106.457 42.1285 106.347C42.0826 106.236 42.059 106.117 42.059 105.997V93.2093C42.0588 93.0893 42.0823 92.9704 42.1281 92.8595C42.1739 92.7486 42.2412 92.6478 42.326 92.563C42.4109 92.4781 42.5117 92.4108 42.6226 92.365C42.7335 92.3192 42.8524 92.2957 42.9724 92.2959H74.0274C74.1475 92.2955 74.2664 92.3189 74.3774 92.3646C74.4884 92.4104 74.5892 92.4777 74.6741 92.5626C74.759 92.6474 74.8263 92.7483 74.8721 92.8593C74.9178 92.9703 74.9412 93.0892 74.9408 93.2093V105.997C74.9408 106.117 74.9171 106.236 74.8712 106.347C74.8253 106.457 74.758 106.558 74.6732 106.643L71.0197 110.296C70.9349 110.381 70.8343 110.449 70.7234 110.494C70.6126 110.54 70.4939 110.564 70.3739 110.564ZM47.0043 108.737H69.9957L73.114 105.619V94.1227H43.8857V105.619L47.0043 108.737Z" fill="black"/>
<path d="M41.1456 99.6029C40.9115 99.6029 40.6863 99.513 40.5166 99.3516C40.3469 99.1902 40.2458 98.9698 40.2341 98.736C40.2073 98.233 40.5944 97.8048 41.0974 97.7762L75.808 95.9494C76.3183 95.9138 76.7429 96.3098 76.7678 96.813C76.7927 97.316 76.4076 97.7476 75.9044 97.7725L41.1938 99.5993C41.1776 99.6029 41.1616 99.6029 41.1456 99.6029ZM41.1456 105.084C40.9115 105.084 40.6863 104.994 40.5167 104.832C40.347 104.671 40.2458 104.451 40.2341 104.217C40.2073 103.713 40.5944 103.285 41.0974 103.257L75.808 101.43C76.3183 101.38 76.7429 101.791 76.7678 102.293C76.7927 102.796 76.4076 103.228 75.9044 103.253L41.1938 105.08C41.1776 105.084 41.1616 105.084 41.1456 105.084ZM74.0274 94.1227H42.9724C42.7302 94.1225 42.498 94.0262 42.3267 93.855C42.1555 93.6837 42.0592 93.4515 42.059 93.2093V87.5467C32.8964 81.8199 27.4445 72.0223 27.4445 61.2397C27.4445 44.1143 41.3757 30.1829 58.5005 30.1829C75.6259 30.1829 89.5553 44.1141 89.5553 61.2397C89.5553 72.0259 84.1036 81.8201 74.9408 87.5467V93.2091C74.9409 93.3291 74.9173 93.4479 74.8714 93.5587C74.8256 93.6696 74.7583 93.7704 74.6735 93.8552C74.5886 93.9401 74.4879 94.0074 74.3771 94.0533C74.2662 94.0992 74.1474 94.1227 74.0274 94.1227ZM43.8857 92.2959H73.114V87.0366C73.114 86.719 73.2818 86.4194 73.5564 86.2551C82.4302 80.9031 87.7288 71.5513 87.7288 61.2397C87.7288 45.1223 74.6163 32.0098 58.5007 32.0098C42.3839 32.0098 29.2715 45.1223 29.2715 61.2397C29.2715 71.5513 34.5701 80.9031 43.4438 86.2551C43.5786 86.3363 43.6901 86.4508 43.7677 86.5878C43.8452 86.7247 43.886 86.8793 43.8862 87.0366V92.2959H43.8857ZM58.5005 114.218C51.6212 114.218 49.5481 110.228 49.4627 110.057C49.4091 109.95 49.3772 109.833 49.3687 109.714C49.3603 109.594 49.3755 109.474 49.4134 109.361C49.4514 109.247 49.5113 109.142 49.5899 109.052C49.6684 108.961 49.764 108.887 49.8713 108.834C50.3228 108.609 50.8667 108.787 51.0933 109.233C51.1646 109.372 52.8239 112.391 58.5007 112.391C64.1871 112.391 65.839 109.361 65.9069 109.233C66.1423 108.791 66.6882 108.612 67.1342 108.841C67.5803 109.069 67.7622 109.611 67.5376 110.057C67.4516 110.228 65.3788 114.218 58.5005 114.218ZM19.2255 62.1531H0.955653C0.713448 62.153 0.481197 62.0567 0.309932 61.8855C0.138667 61.7142 0.0423974 61.4819 0.0422763 61.2397C0.0420357 61.1197 0.06549 61.0008 0.111295 60.8898C0.1571 60.7788 0.224355 60.678 0.309206 60.593C0.394057 60.5081 0.494835 60.4407 0.605765 60.3948C0.716695 60.3489 0.835596 60.3253 0.955653 60.3255H19.2255C19.3455 60.3253 19.4645 60.3489 19.5754 60.3948C19.6863 60.4407 19.7871 60.5081 19.872 60.593C19.9569 60.6779 20.0242 60.7788 20.07 60.8898C20.1158 61.0007 20.1393 61.1197 20.1391 61.2397C20.1389 61.482 20.0426 61.7142 19.8713 61.8855C19.7 62.0567 19.4677 62.153 19.2255 62.1531ZM97.7761 62.1531C97.6562 62.1532 97.5373 62.1296 97.4265 62.0838C97.3156 62.0379 97.2149 61.9706 97.1301 61.8858C97.0452 61.801 96.978 61.7002 96.9321 61.5894C96.8862 61.4785 96.8627 61.3597 96.8627 61.2397C96.8632 60.9977 96.9596 60.7656 97.1308 60.5944C97.302 60.4232 97.534 60.3268 97.7761 60.3264L116.044 60.3255C116.287 60.3255 116.519 60.4217 116.691 60.5931C116.862 60.7645 116.958 60.9969 116.958 61.2393C116.958 61.4816 116.862 61.7141 116.691 61.8855C116.519 62.0568 116.287 62.1531 116.044 62.1531H97.7761ZM8.666 90.9255C8.50577 90.9256 8.34836 90.8834 8.20962 90.8033C8.07089 90.7231 7.95574 90.6078 7.87579 90.4689C7.81558 90.3651 7.77645 90.2503 7.76063 90.1313C7.74481 90.0123 7.75262 89.8913 7.78361 89.7753C7.8146 89.6593 7.86816 89.5506 7.94123 89.4553C8.01429 89.36 8.10543 89.2801 8.20942 89.2201L24.0337 80.0859C24.1375 80.0257 24.2522 79.9866 24.3712 79.9708C24.4901 79.9551 24.6111 79.9631 24.7269 79.9943C24.8428 80.0254 24.9514 80.0792 25.0465 80.1525C25.1415 80.2258 25.2211 80.3172 25.2807 80.4213C25.3409 80.5249 25.38 80.6394 25.3958 80.7581C25.4116 80.8769 25.4038 80.9976 25.3728 81.1133C25.3418 81.229 25.2882 81.3375 25.2151 81.4324C25.1421 81.5273 25.051 81.6069 24.9471 81.6665L9.12303 90.8008C8.98472 90.8828 8.8268 90.9259 8.666 90.9255ZM92.5168 42.5159C92.3568 42.5161 92.1995 42.474 92.061 42.3937C91.9225 42.3135 91.8077 42.198 91.7282 42.0591C91.6069 41.8495 91.5737 41.6004 91.6359 41.3664C91.6981 41.1324 91.8507 40.9327 92.06 40.8111L107.877 31.6771C107.981 31.6169 108.096 31.5777 108.215 31.5619C108.334 31.5461 108.455 31.554 108.571 31.5851C108.687 31.6161 108.796 31.6698 108.891 31.743C108.986 31.8162 109.066 31.9075 109.126 32.0117C109.186 32.1156 109.225 32.2303 109.241 32.3494C109.257 32.4684 109.249 32.5894 109.218 32.7054C109.186 32.8213 109.133 32.93 109.059 33.0251C108.986 33.1202 108.895 33.1999 108.791 33.2596L92.9734 42.3936C92.8348 42.4742 92.6772 42.5164 92.5168 42.5159ZM78.1414 28.1386C77.9811 28.1381 77.8237 28.096 77.6846 28.0163C77.4752 27.8948 77.3226 27.695 77.2603 27.461C77.1981 27.227 77.2314 26.9779 77.3528 26.7684L86.4833 10.9496C86.7331 10.5134 87.2932 10.3662 87.7285 10.6151C87.8327 10.6748 87.9241 10.7544 87.9974 10.8496C88.0707 10.9447 88.1245 11.0533 88.1557 11.1693C88.1869 11.2853 88.1948 11.4062 88.1791 11.5253C88.1633 11.6443 88.1242 11.7591 88.064 11.863L78.9334 27.6818C78.8531 27.8207 78.7376 27.9361 78.5986 28.0163C78.4596 28.0965 78.3019 28.1386 78.1414 28.1386ZM58.5041 22.874C58.3841 22.8741 58.2653 22.8506 58.1544 22.8047C58.0436 22.7588 57.9428 22.6915 57.858 22.6067C57.7731 22.5219 57.7058 22.4212 57.6599 22.3103C57.614 22.1994 57.5904 22.0806 57.5905 21.9606V3.69585C57.5904 3.57587 57.614 3.45705 57.6599 3.34619C57.7058 3.23533 57.7731 3.13461 57.858 3.04978C57.9428 2.96495 58.0436 2.89768 58.1544 2.85181C58.2653 2.80594 58.3841 2.78238 58.5041 2.78247C58.6241 2.78241 58.7429 2.806 58.8537 2.85188C58.9646 2.89776 59.0653 2.96503 59.1501 3.04986C59.2349 3.13469 59.3022 3.2354 59.3481 3.34624C59.394 3.45709 59.4176 3.57588 59.4175 3.69585V21.9606C59.4176 22.0806 59.394 22.1994 59.3481 22.3103C59.3022 22.4211 59.2349 22.5218 59.1501 22.6066C59.0653 22.6915 58.9646 22.7587 58.8537 22.8046C58.7429 22.8505 58.6241 22.8741 58.5041 22.874ZM38.8657 28.1349C38.7054 28.1352 38.5479 28.0931 38.4091 28.0129C38.2703 27.9327 38.1552 27.8172 38.0755 27.6781L28.9413 11.8612C28.8811 11.7574 28.842 11.6427 28.8262 11.5238C28.8104 11.4048 28.8182 11.2839 28.8492 11.168C28.8802 11.0521 28.9337 10.9434 29.0068 10.8482C29.0798 10.753 29.1709 10.6732 29.2749 10.6132C29.3787 10.553 29.4933 10.5138 29.6123 10.4981C29.7312 10.4823 29.8521 10.4901 29.968 10.5212C30.0839 10.5523 30.1925 10.606 30.2875 10.6792C30.3826 10.7524 30.4622 10.8437 30.5219 10.9478L39.6561 26.7647C39.7367 26.9035 39.7792 27.061 39.7794 27.2215C39.7796 27.3819 39.7375 27.5395 39.6574 27.6785C39.5772 27.8175 39.4618 27.9329 39.3228 28.013C39.1838 28.0931 39.0261 28.1352 38.8657 28.1349ZM108.337 90.9221C108.177 90.9219 108.019 90.8789 107.881 90.7973L92.0603 81.6631C91.9566 81.6032 91.8658 81.5235 91.7929 81.4285C91.7201 81.3335 91.6668 81.225 91.636 81.1094C91.6051 80.9937 91.5975 80.8731 91.6133 80.7544C91.6292 80.6358 91.6683 80.5214 91.7285 80.4179C91.9785 79.9789 92.5385 79.8327 92.9736 80.0825L108.794 89.2167C108.898 89.2765 108.99 89.3562 109.063 89.4514C109.136 89.5466 109.19 89.6553 109.221 89.7714C109.253 89.8874 109.261 90.0085 109.245 90.1276C109.229 90.2467 109.19 90.3616 109.13 90.4655C109.049 90.6044 108.934 90.7197 108.795 90.7999C108.656 90.88 108.498 90.9222 108.337 90.9221ZM24.49 42.5088C24.3297 42.5088 24.1721 42.4666 24.0332 42.3865L8.21285 33.2559C8.10891 33.196 8.01782 33.1161 7.94478 33.021C7.87174 32.9258 7.81819 32.8171 7.7872 32.7012C7.75621 32.5853 7.74839 32.4644 7.76418 32.3454C7.77997 32.2265 7.81906 32.1118 7.87922 32.008C8.00086 31.799 8.2002 31.6465 8.4338 31.5838C8.6674 31.5212 8.91629 31.5534 9.12623 31.6735L24.9468 40.804C25.0508 40.864 25.1419 40.9438 25.215 41.039C25.288 41.1342 25.3416 41.2429 25.3726 41.3588C25.4036 41.4747 25.4114 41.5956 25.3956 41.7146C25.3798 41.8335 25.3406 41.9482 25.2805 42.052C25.2005 42.1908 25.0853 42.3062 24.9465 42.3864C24.8077 42.4666 24.6503 42.5088 24.49 42.5088Z" fill="black"/>
<path d="M58.5005 71.2872C53.4642 71.2872 49.3662 67.1876 49.3662 62.153C49.3662 57.1158 53.4642 53.0181 58.5005 53.0181C63.5374 53.0181 67.6338 57.1158 67.6338 62.153C67.6338 67.1876 63.5374 71.2872 58.5005 71.2872ZM58.5005 54.845C54.4704 54.845 51.193 58.1231 51.193 62.153C51.193 66.1812 54.4701 69.4604 58.5005 69.4604C62.5315 69.4604 65.8068 66.1812 65.8068 62.153C65.8068 58.1231 62.5315 54.845 58.5005 54.845Z" fill="black"/>
<path d="M58.5005 65.8067C56.4863 65.8067 54.8467 64.1655 54.8467 62.1532C54.8467 60.1384 56.4861 58.4988 58.5005 58.4988C60.5153 58.4988 62.1531 60.1384 62.1531 62.1532C62.1531 64.1655 60.5153 65.8067 58.5005 65.8067ZM58.5005 60.3253C58.0159 60.3255 57.5512 60.5182 57.2086 60.8609C56.866 61.2036 56.6735 61.6684 56.6735 62.153C56.6735 63.1591 57.4923 63.9797 58.5005 63.9797C59.5087 63.9797 60.3263 63.1591 60.3263 62.153C60.3263 61.1434 59.5084 60.3253 58.5005 60.3253Z" fill="black"/>
<path d="M61.2397 83.1617H55.7601C54.2489 83.1617 53.0197 81.9307 53.0197 80.4215V79.765C53.0161 79.3509 51.8637 78.1844 51.2609 77.8919C50.8274 77.8777 50.3134 78.0879 49.9174 78.4842L49.4572 78.9444C48.4261 79.9757 46.6135 79.9757 45.5822 78.9444L41.7073 75.0734C41.4529 74.819 41.2513 74.5169 41.1141 74.1844C40.9769 73.8519 40.9069 73.4955 40.908 73.1358C40.908 72.4009 41.1915 71.7123 41.7073 71.1982L42.1675 70.738C42.46 70.4455 42.4744 68.8077 42.2551 68.1761C42.1927 68.0191 41.6342 67.6338 40.8885 67.6338H40.232C38.7211 67.6338 37.4919 66.4028 37.4919 64.8937L37.49 59.4123C37.49 57.9013 38.7192 56.6721 40.2302 56.6721H40.8885C41.2935 56.6685 42.4763 55.5026 42.7564 54.9167C42.8188 54.7615 42.6922 54.0952 42.1659 53.5698L41.7075 53.1112C40.639 52.0426 40.639 50.305 41.7075 49.2362L45.5825 45.3597C46.6138 44.3284 48.4261 44.3284 49.4574 45.3597L49.9176 45.8199C49.9784 45.8814 50.3459 46.0564 51.1969 46.0564C51.7821 46.0564 52.3065 45.968 52.4761 45.9084C52.6331 45.846 53.0202 45.2884 53.0202 44.5409V43.8844C53.0202 42.3732 54.2494 41.144 55.7606 41.144H61.2401C62.7529 41.144 63.9803 42.3732 63.9803 43.8844V44.5409C63.9839 44.9557 65.1366 46.1216 65.7394 46.4106C66.1603 46.401 66.6847 46.2153 67.0844 45.8192L67.5449 45.359C68.5759 44.3259 70.3885 44.3268 71.4196 45.3581L75.2945 49.233C75.8082 49.7486 76.0937 50.4373 76.0937 51.1706C76.0937 51.9039 75.8082 52.5925 75.2945 53.108L74.8341 53.5684C74.5418 53.8609 74.524 55.4987 74.7449 56.1301C74.8089 56.2862 75.3658 56.6726 76.1112 56.6726H76.7714C78.2808 56.6726 79.5118 57.9018 79.5118 59.4127V64.8941C79.5118 66.4032 78.2808 67.6343 76.7714 67.6343H76.1112C75.6974 67.6379 74.5308 68.7903 74.2415 69.3931C74.1807 69.5465 74.3094 70.2101 74.8338 70.7348L75.2943 71.195C75.5483 71.4496 75.7496 71.7518 75.8868 72.0842C76.0239 72.4167 76.0941 72.7729 76.0934 73.1326C76.0934 73.8677 75.808 74.556 75.2943 75.0702L71.4194 78.9485C70.3883 79.9798 68.5757 79.9798 67.5446 78.9485L67.0808 78.4849C67.0202 78.4241 66.6562 78.2495 65.8034 78.2495C65.2181 78.2495 64.6939 78.3386 64.5228 78.3992C64.3692 78.46 63.9803 79.0164 63.9803 79.7657V80.4222C63.9798 81.9307 62.7525 83.1617 61.2397 83.1617ZM51.1555 76.0541C51.4855 76.0541 51.7871 76.1184 52.0511 76.2468C52.6221 76.5215 54.8467 78.1558 54.8467 79.765V80.4215C54.8472 80.6636 54.9436 80.8957 55.1148 81.0669C55.286 81.238 55.518 81.3344 55.7601 81.3349H61.2397C61.4818 81.3344 61.7138 81.238 61.885 81.0669C62.0562 80.8957 62.1526 80.6636 62.1531 80.4215V79.765C62.1531 78.3555 62.9129 77.0249 63.9193 76.6716C64.3582 76.5217 65.0968 76.4216 65.8031 76.4216C66.9985 76.4216 67.8621 76.6823 68.3721 77.1924L68.836 77.6563C69.1783 77.9988 69.7848 77.9988 70.1276 77.6563L74.0023 73.7777C74.1734 73.6065 74.2662 73.378 74.2662 73.1319C74.2662 72.8858 74.1734 72.6575 74.0023 72.4861L73.5418 72.0259C72.6927 71.1804 72.0718 69.6923 72.593 68.6007C72.8677 68.0298 74.5055 65.8066 76.111 65.8066H76.7712C77.0133 65.8062 77.2453 65.7098 77.4165 65.5387C77.5877 65.3675 77.6841 65.1355 77.6846 64.8934V59.412C77.6843 59.1699 77.5879 58.9377 77.4167 58.7665C77.2455 58.5953 77.0133 58.499 76.7712 58.4987H76.111C74.6981 58.4987 73.3709 57.7377 73.0176 56.7288C72.8142 56.1356 72.4075 53.4114 73.542 52.276L74.0025 51.8155C74.087 51.7307 74.1539 51.6299 74.1992 51.5191C74.2445 51.4082 74.2674 51.2895 74.2664 51.1697C74.2674 51.05 74.2445 50.9312 74.1992 50.8204C74.1539 50.7095 74.087 50.6087 74.0025 50.5239L70.1278 46.649C69.785 46.3092 69.1785 46.3074 68.8362 46.6499L68.3758 47.1101C67.4053 48.0815 65.9032 48.5178 64.9505 48.0566C64.3797 47.7847 62.1533 46.1497 62.1533 44.5405V43.8839C62.153 43.6418 62.0567 43.4096 61.8854 43.2383C61.7142 43.0671 61.4821 42.9707 61.2399 42.9703H55.7601C55.5179 42.9706 55.2857 43.067 55.1145 43.2383C54.9433 43.4096 54.847 43.6418 54.8467 43.8839V44.5405C54.8467 45.9506 54.0867 47.2799 53.0787 47.6332C52.6452 47.7847 51.9066 47.883 51.1966 47.883C50.0031 47.883 49.1379 47.6234 48.6258 47.1113L48.1656 46.651C47.8231 46.3085 47.2166 46.3085 46.874 46.651L42.9991 50.5276C42.9143 50.6124 42.847 50.7131 42.8011 50.8239C42.7552 50.9347 42.7316 51.0534 42.7316 51.1734C42.7316 51.2933 42.7552 51.4121 42.8011 51.5229C42.847 51.6337 42.9143 51.7344 42.9991 51.8192L43.4577 52.2778C44.455 53.2741 44.8617 54.7469 44.4052 55.703C44.1339 56.272 42.5016 58.4984 40.8888 58.4984H40.2304C39.9883 58.4988 39.7562 58.5951 39.5849 58.7664C39.4137 58.9376 39.3174 59.1697 39.317 59.4118L39.3189 64.8932C39.3193 65.1353 39.4157 65.3673 39.5869 65.5385C39.7581 65.7096 39.9902 65.8059 40.2322 65.8064H40.8888C42.2998 65.8064 43.6307 66.5664 43.9822 67.5762C44.1963 68.1934 44.6101 70.8764 43.4596 72.0291L42.9991 72.4893C42.8279 72.6607 42.7352 72.889 42.7352 73.1351C42.7352 73.3812 42.8279 73.6097 42.9991 73.7809L46.874 77.6522C47.2166 77.9947 47.8231 77.9947 48.1656 77.6522L48.6258 77.1917C49.3269 76.4929 50.2974 76.0541 51.1555 76.0541Z" fill="black"/>
<path d="M45.7127 63.0663C45.4705 63.0662 45.2383 62.9699 45.0671 62.7986C44.8958 62.6274 44.7995 62.3951 44.7993 62.153C44.7993 54.5969 50.9453 48.4509 58.5007 48.4509C58.6206 48.4509 58.7394 48.4745 58.8503 48.5203C58.9611 48.5662 59.0618 48.6335 59.1467 48.7183C59.2315 48.8031 59.2988 48.9039 59.3447 49.0147C59.3905 49.1255 59.4141 49.2443 59.4141 49.3643C59.4141 49.4843 59.3905 49.6031 59.3447 49.7139C59.2988 49.8248 59.2315 49.9255 59.1467 50.0103C59.0618 50.0951 58.9611 50.1624 58.8503 50.2083C58.7394 50.2542 58.6206 50.2777 58.5007 50.2777C51.9535 50.2777 46.6263 55.6048 46.6263 62.153C46.6261 62.3952 46.5297 62.6274 46.3585 62.7986C46.1872 62.9699 45.9549 63.0662 45.7127 63.0663ZM58.5005 75.8541C58.2582 75.8539 58.026 75.7577 57.8547 75.5864C57.6834 75.4152 57.587 75.1829 57.5869 74.9407C57.5866 74.8207 57.6101 74.7018 57.656 74.5909C57.7018 74.4799 57.7691 74.3791 57.854 74.2943C57.9389 74.2094 58.0397 74.1422 58.1506 74.0963C58.2615 74.0505 58.3804 74.0271 58.5005 74.0273C65.0467 74.0273 70.3739 68.7002 70.3739 62.153C70.3738 62.033 70.3974 61.9142 70.4433 61.8034C70.4892 61.6925 70.5565 61.5918 70.6413 61.507C70.7261 61.4221 70.8268 61.3549 70.9377 61.309C71.0485 61.2631 71.1673 61.2395 71.2873 61.2396C71.4073 61.2392 71.5263 61.2626 71.6372 61.3084C71.7482 61.3541 71.8491 61.4214 71.9339 61.5063C72.0188 61.5912 72.0861 61.692 72.1319 61.803C72.1776 61.914 72.201 62.0329 72.2007 62.153C72.2007 69.7065 66.0563 75.8541 58.5005 75.8541Z" fill="black"/>
</svg>
