<?xml version="1.0" encoding="iso-8859-1"?>
<!-- Uploaded to: SVG Repo, www.svgrepo.com, Generator: SVG Repo Mixer Tools -->
<!DOCTYPE svg PUBLIC "-//W3C//DTD SVG 1.1//EN" "http://www.w3.org/Graphics/SVG/1.1/DTD/svg11.dtd">
<svg fill="#000000" height="800px" width="800px" version="1.1" id="Capa_1" xmlns="http://www.w3.org/2000/svg" xmlns:xlink="http://www.w3.org/1999/xlink" 
	 viewBox="0 0 490.53 490.53" xml:space="preserve">
<g>
	<path d="M433.156,256.73V119.496h11.479c10.227,0,18.547-8.32,18.547-18.547c0-10.227-8.32-18.547-18.547-18.547H271.647V58.241
		c6.691-6.369,10.49-15.173,10.49-24.46C282.137,15.154,266.983,0,248.356,0c-18.627,0-33.781,15.154-33.781,33.781
		c0,9.287,3.799,18.091,10.489,24.459v24.163H52.077c-10.227,0-18.547,8.32-18.547,18.547c0,10.227,8.32,18.547,18.547,18.547
		h19.754v168.636c-4.728-4.382-11.051-7.067-17.991-7.067c-14.607,0-26.491,11.884-26.491,26.491
		c0,26.872,44.906,50.008,46.817,50.98c0.605,0.308,1.265,0.461,1.926,0.461c0.662,0,1.323-0.154,1.929-0.463
		c1.911-0.974,46.792-24.148,46.792-51.017c0-14.586-11.884-26.453-26.492-26.453c-6.939,0-13.262,2.685-17.99,7.067V119.496h11.662
		v46.684c0,2.347,1.903,4.25,4.25,4.25c2.347,0,4.25-1.903,4.25-4.25v-46.684h44.143v291.936l-10.652,21.312l-24.554,3.694
		c-1.592,0.239-2.912,1.358-3.41,2.889c-0.498,1.531-0.087,3.212,1.06,4.342l17.693,17.42l-4.074,24.493
		c-0.264,1.588,0.392,3.189,1.694,4.136c0.74,0.538,1.617,0.812,2.499,0.812c0.669,0,1.341-0.158,1.959-0.479l22.035-11.443
		l22.035,11.443c1.431,0.742,3.155,0.613,4.457-0.333c1.303-0.946,1.958-2.548,1.694-4.136l-4.074-24.493l17.693-17.42
		c1.147-1.129,1.558-2.811,1.06-4.342c-0.498-1.531-1.817-2.65-3.41-2.889l-24.553-3.694l-10.652-21.312V119.496h84.467v108.933
		c-38.279,2.209-68.746,34.04-68.746,72.863c0,40.25,32.746,72.995,72.996,72.995s72.996-32.746,72.996-72.995
		c0-3.75-0.29-7.531-0.861-11.237c-0.316-2.051-2.067-3.574-4.143-3.602c-2.083-0.046-3.867,1.447-4.239,3.489
		c-3.892,21.395-22.52,36.924-44.292,36.924c-24.832,0-45.035-20.203-45.035-45.035c0-21.772,15.528-40.399,36.923-44.291
		c2.042-0.371,3.517-2.163,3.489-4.238c-0.028-2.075-1.551-3.827-3.602-4.144c-2.306-0.356-4.643-0.589-6.987-0.725V119.496h72.146
		v54.399c0,2.347,1.902,4.25,4.25,4.25c2.348,0,4.25-1.903,4.25-4.25v-54.399h19.503v228.255l-10.652,21.313l-24.553,3.693
		c-1.593,0.239-2.912,1.358-3.41,2.889c-0.497,1.531-0.087,3.212,1.06,4.342l17.692,17.421l-4.074,24.493
		c-0.265,1.588,0.392,3.189,1.694,4.136c0.74,0.538,1.617,0.812,2.498,0.812c0.67,0,1.342-0.158,1.959-0.478l22.036-11.444
		l22.035,11.443c1.428,0.742,3.153,0.613,4.457-0.333c1.303-0.947,1.959-2.548,1.694-4.136l-4.075-24.492l17.692-17.421
		c1.147-1.129,1.558-2.81,1.061-4.342c-0.498-1.531-1.817-2.65-3.41-2.889l-24.553-3.693l-10.651-21.313V119.496h46.778v64.21
		c0,2.347,1.902,4.25,4.25,4.25c2.348,0,4.25-1.903,4.25-4.25v-64.21h14.626V256.73c-15.888,2.089-28.194,15.708-28.194,32.157
		c0,17.89,14.555,32.444,32.444,32.444c17.891,0,32.445-14.555,32.445-32.444C461.351,272.438,449.044,258.819,433.156,256.73z
		 M98.321,289.565c9.921,0,17.992,8.054,17.992,17.953c0,17.077-27.412,35.484-40.224,42.428
		c-12.819-6.923-40.24-25.288-40.24-42.39c0-9.92,8.071-17.991,17.991-17.991s17.991,8.071,17.991,17.991
		c0,2.347,1.903,4.25,4.25,4.25s4.25-1.903,4.25-4.25C80.331,297.636,88.401,289.565,98.321,289.565z M160.34,440.822l18.327,2.757
		l-13.207,13.003c-0.986,0.971-1.438,2.361-1.21,3.726l3.041,18.282l-16.447-8.542c-1.229-0.639-2.689-0.638-3.918,0l-16.447,8.542
		l3.041-18.282c0.227-1.365-0.225-2.755-1.21-3.726l-13.207-13.003l18.328-2.757c1.368-0.205,2.551-1.065,3.17-2.303l8.285-16.577
		l8.285,16.577C157.789,439.757,158.972,440.616,160.34,440.822z M207.778,281.83c0,29.52,24.016,53.535,53.535,53.535
		c18.105,0,34.383-9.037,44.114-23.174c-5.194,30.391-31.726,53.596-63.575,53.596c-35.563,0-64.496-28.933-64.496-64.495
		c0-31.849,23.204-58.38,53.595-63.575C216.814,247.448,207.778,263.725,207.778,281.83z M361.956,377.141l18.327,2.757
		l-13.206,13.003c-0.986,0.971-1.438,2.361-1.211,3.726l3.042,18.281l-16.447-8.542c-1.228-0.638-2.689-0.638-3.918,0l-16.448,8.542
		l3.041-18.282c0.228-1.365-0.225-2.755-1.21-3.726l-13.206-13.003l18.326-2.757c1.369-0.206,2.551-1.065,3.17-2.303l8.286-16.578
		l8.284,16.578C359.404,376.076,360.586,376.935,361.956,377.141z M232.057,53.099c-5.708-4.822-8.982-11.863-8.982-19.318
		c0-13.94,11.341-25.281,25.281-25.281c13.941,0,25.281,11.341,25.281,25.281c0,7.456-3.274,14.497-8.982,19.319
		c-0.956,0.807-1.508,1.995-1.508,3.247v26.056h-29.583V56.345C233.564,55.094,233.013,53.906,232.057,53.099z M42.03,100.949
		c0-5.54,4.507-10.047,10.047-10.047h177.237h38.083h177.237c5.54,0,10.047,4.507,10.047,10.047c0,5.54-4.507,10.047-10.047,10.047
		H52.077C46.537,110.996,42.03,106.489,42.03,100.949z M428.906,312.831c-13.203,0-23.944-10.741-23.944-23.944
		c0-12.808,10.108-23.298,22.767-23.915c0.586-0.026,0.735-0.035,1.146-0.035c0.411,0,0.52-0.016,1.209,0.035
		c12.658,0.616,22.768,11.107,22.768,23.915C452.851,302.09,442.109,312.831,428.906,312.831z"/>
	<path d="M96.243,191.298c-2.347,0-4.25,1.903-4.25,4.25v17.676c0,2.347,1.903,4.25,4.25,4.25c2.347,0,4.25-1.903,4.25-4.25v-17.676
		C100.493,193.201,98.59,191.298,96.243,191.298z"/>
	<path d="M326.749,224.425v-27.678c0-2.347-1.902-4.25-4.25-4.25c-2.348,0-4.25,1.903-4.25,4.25v27.678
		c0,2.347,1.902,4.25,4.25,4.25C324.846,228.675,326.749,226.772,326.749,224.425z"/>
	<path d="M248.356,48.928c8.353,0,15.148-6.795,15.148-15.147c0-8.353-6.795-15.147-15.148-15.147
		c-8.352,0-15.147,6.795-15.147,15.147C233.208,42.133,240.003,48.928,248.356,48.928z M248.356,27.133
		c3.665,0,6.648,2.982,6.648,6.647c0,3.666-2.982,6.647-6.648,6.647c-3.665,0-6.647-2.982-6.647-6.648
		C241.708,30.115,244.69,27.133,248.356,27.133z"/>
</g>
</svg>