<?xml version="1.0" encoding="utf-8"?>
<!-- Uploaded to: SVG Repo, www.svgrepo.com, Generator: SVG Repo Mixer Tools -->
<svg width="800px" height="800px" viewBox="0 0 1024 1024" fill="#000000" class="icon"  version="1.1" xmlns="http://www.w3.org/2000/svg"><path d="M613.83 642.116c-61.94 0-120.172-24.116-163.964-67.922-24.566-24.552-42.9-53.476-54.498-86.002a8.008 8.008 0 0 1 4.85-10.222 8.022 8.022 0 0 1 10.222 4.85c10.792 30.268 27.862 57.202 50.734 80.066 40.778 40.778 94.996 63.236 152.656 63.236 57.678 0 111.886-22.458 152.68-63.236l135.688-135.68c40.78-40.778 63.238-94.996 63.238-152.656 0.016-57.678-22.444-111.894-63.222-152.672-40.792-40.786-95.002-63.252-152.68-63.252-57.66 0-111.872 22.466-152.648 63.252l-135.71 135.688c-18.804 18.81-33.782 40.536-44.504 64.572-1.794 4.03-6.52 5.88-10.556 4.044a7.984 7.984 0 0 1-4.044-10.558c11.518-25.832 27.604-49.172 47.796-69.368l135.712-135.688c43.792-43.808 102.016-67.938 163.956-67.938 61.942 0 120.18 24.13 163.988 67.938 90.412 90.412 90.396 237.524-0.016 327.944l-135.688 135.682c-43.81 43.806-102.048 67.922-163.99 67.922z" fill="" /><path d="M579.908 676.052c-61.94 0-120.172-24.116-163.964-67.922-28.784-28.786-49.546-64.69-60.042-103.844a7.994 7.994 0 1 1 15.446-4.138c9.77 36.436 29.104 69.874 55.904 96.674 40.778 40.778 94.988 63.236 152.656 63.236 57.676 0 111.886-22.458 152.68-63.236l135.704-135.696a7.994 7.994 0 0 1 11.308 0 7.992 7.992 0 0 1 0 11.306l-135.704 135.698c-43.808 43.808-102.046 67.922-163.988 67.922z" fill="" /><path d="M613.83 578.064c-42.996 0-86-16.368-118.734-49.102a169.158 169.158 0 0 1-11.518-12.72 7.994 7.994 0 0 1 1.13-11.252 7.988 7.988 0 0 1 11.254 1.132 155.04 155.04 0 0 0 10.44 11.542c28.698 28.682 66.854 44.47 107.444 44.47 40.576 0 78.73-15.79 107.42-44.47l135.704-135.706c28.69-28.69 44.496-66.844 44.496-107.426 0-40.584-15.792-78.738-44.48-107.428-59.27-59.238-155.662-59.238-214.87 0l-135.712 135.688a154.174 154.174 0 0 0-19.342 23.662c-2.446 3.67-7.412 4.694-11.082 2.242a7.992 7.992 0 0 1-2.24-11.082 169.894 169.894 0 0 1 21.358-26.128l135.71-135.688c65.456-65.478 172-65.462 237.484 0 31.706 31.712 49.166 73.88 49.166 118.736 0 44.862-17.46 87.03-49.182 118.734l-135.704 135.696c-32.734 32.734-75.73 49.1-118.742 49.1z" fill="" /><path d="M828.702 429.546a7.994 7.994 0 0 1-5.654-13.65c59.222-59.246 59.222-155.64 0-214.87-59.238-59.238-155.616-59.222-214.854 0a7.994 7.994 0 0 1-11.308 0 7.994 7.994 0 0 1 0-11.308c65.47-65.462 172-65.462 237.468 0 65.47 65.47 65.47 172 0 237.486a7.968 7.968 0 0 1-5.652 2.342zM308.51 947.444h-0.008c-61.942 0-120.172-24.128-163.964-67.938-43.8-43.792-67.922-102.016-67.922-163.958 0-61.94 24.122-120.164 67.922-163.97l135.704-135.682c90.388-90.442 237.51-90.426 327.954-0.016 28.814 28.846 49.57 64.76 60.02 103.868a7.996 7.996 0 0 1-5.654 9.792c-4.264 1.046-8.652-1.39-9.792-5.654-9.73-36.406-29.064-69.844-55.88-96.698-84.196-84.172-221.164-84.172-305.336 0.016l-135.706 135.68c-40.778 40.778-63.236 95.004-63.236 152.664 0 57.662 22.458 111.872 63.236 152.648 40.78 40.794 94.988 63.254 152.658 63.254 57.668 0 111.884-22.458 152.672-63.238l135.71-135.688a218.8 218.8 0 0 0 29.206-36.248 7.958 7.958 0 0 1 11.042-2.42 8 8 0 0 1 2.42 11.042 233.1 233.1 0 0 1-31.36 38.936l-135.712 135.688c-43.804 43.808-102.034 67.922-163.974 67.922z" fill="" /><path d="M274.58 981.366c-61.942 0-120.172-24.114-163.964-67.922-43.8-43.792-67.93-102.032-67.938-163.972 0-61.94 24.122-120.164 67.922-163.97l135.704-135.682a7.994 7.994 0 0 1 11.308 0 7.994 7.994 0 0 1 0 11.308l-135.706 135.68c-40.778 40.778-63.236 95.004-63.236 152.664 0.008 57.678 22.466 111.886 63.252 152.664 40.78 40.78 94.988 63.238 152.658 63.238 57.668 0 111.876-22.458 152.656-63.238l135.696-135.688a7.994 7.994 0 0 1 11.308 0 7.994 7.994 0 0 1 0 11.308l-135.698 135.688c-43.792 43.808-102.022 67.922-163.962 67.922z" fill="" /><path d="M308.502 883.394c-43.004 0-86-16.368-118.736-49.104-65.476-65.468-65.476-172.014 0-237.484l135.706-135.68c31.704-31.712 73.872-49.18 118.726-49.18h0.008c44.854 0.008 87.024 17.468 118.742 49.18 16.524 16.532 29.206 35.866 37.654 57.466a7.984 7.984 0 0 1-4.544 10.356c-4.108 1.594-8.762-0.422-10.354-4.53-7.638-19.53-19.102-37.022-34.062-51.986-28.698-28.69-66.854-44.494-107.436-44.494-40.592 0-78.738 15.796-107.428 44.494l-135.704 135.682c-28.692 28.69-44.488 66.844-44.496 107.434 0 40.592 15.804 78.746 44.496 107.436 28.69 28.69 66.844 44.496 107.428 44.496 40.582 0 78.736-15.806 107.426-44.496l124.406-124.396a7.992 7.992 0 0 1 11.306 0 7.994 7.994 0 0 1 0 11.308l-124.404 124.394c-32.736 32.738-75.73 49.104-118.734 49.104z" fill="" /><path d="M534.336 520.85a7.956 7.956 0 0 1-6.202-2.952 154.826 154.826 0 0 0-10.424-11.544c-59.24-59.222-155.632-59.222-214.856 0a7.992 7.992 0 0 1-11.306 0 7.992 7.992 0 0 1 0-11.306c65.46-65.478 171.99-65.462 237.476 0a169.404 169.404 0 0 1 11.51 12.76 8 8 0 0 1-6.198 13.042z" fill="" /><path d="M769.806 687.406c-21.912 0-47.806-4.124-76.872-16.07a8.012 8.012 0 0 1-4.358-10.45c1.686-4.092 6.356-6.014 10.448-4.358 83.664 34.484 138.75-2.232 139.282-2.592a7.996 7.996 0 0 1 9.044 13.182c-1.72 1.188-30.38 20.288-77.544 20.288z" fill="" /><path d="M810.038 724.03c-24.176 0-45.37-15.476-52.774-38.514-9.354-29.08 6.702-60.376 35.812-69.748 13.9-4.452 42.824-7.808 67.312-7.808 39.576 0 62.114 7.7 66.97 22.894 11.072 34.39-81.244 84.352-100.33 90.49a55.346 55.346 0 0 1-16.99 2.686z m50.35-100.078c-25.316 0-51.618 3.576-62.424 7.042-20.694 6.668-32.126 28.94-25.472 49.632 6.514 20.29 29.142 32.08 49.632 25.504 30.392-9.792 94.942-55.066 90.006-70.388-1.81-5.686-18.786-11.79-51.742-11.79z" fill="" /><path d="M497.438 1023.784c-3.514 0-7.042-0.438-10.534-1.328-10.996-2.794-20.248-9.698-26.042-19.444-10.02-16.868-4.458-38.732 12.384-48.76a29.788 29.788 0 0 1 22.81-3.294 29.84 29.84 0 0 1 18.414 13.776 7.988 7.988 0 0 1-2.804 10.948 8.016 8.016 0 0 1-10.956-2.794 13.974 13.974 0 0 0-8.606-6.434 13.84 13.84 0 0 0-10.684 1.544c-9.27 5.514-12.33 17.554-6.816 26.832a26.284 26.284 0 0 0 16.234 12.134c6.856 1.718 13.978 0.704 20.044-2.904 16.632-9.886 22.124-31.47 12.23-48.104-7.116-11.962-20.094-20.896-34.72-23.894-10.542-2.124-26.69-2.14-43.588 10.198a7.992 7.992 0 0 1-9.434-12.9c16.86-12.338 36.818-16.898 56.232-12.962 18.958 3.874 35.88 15.62 45.26 31.376 14.384 24.222 6.404 55.646-17.804 70.032a42.234 42.234 0 0 1-21.62 5.978z" fill="" /><path d="M559.45 105.148c-6.108 0-12.228-0.868-18.196-2.624-17.624-5.17-32.672-17.602-40.28-33.258-11.744-24.036-1.708-53.172 22.366-64.932 9.714-4.732 20.694-5.428 30.924-1.866 10.23 3.53 18.476 10.824 23.194 20.546 8.184 16.836 1.154 37.194-15.666 45.392-14.242 6.926-31.516 0.992-38.488-13.252a8 8 0 1 1 14.376-7.028c3.092 6.34 10.746 9.028 17.118 5.894 8.886-4.334 12.604-15.11 8.278-24.012a24.26 24.26 0 0 0-14.01-12.424 24.432 24.432 0 0 0-18.708 1.124c-16.148 7.878-22.88 27.424-15.002 43.558 5.678 11.682 17.046 20.99 30.4 24.91 9.636 2.842 24.676 4.084 41.34-6.098a7.99 7.99 0 0 1 10.996 2.664 7.99 7.99 0 0 1-2.672 10.988c-11.296 6.896-23.648 10.418-35.97 10.418z" fill="" /><path d="M119.626 511.908c-36.836 0-67.282-22.926-70.82-53.32-3.17-27.534 12.862-140.874 58.232-146.182 45.244-5.24 87.03 102.5 90.116 128.988 3.888 33.806-26.2 65.158-67.064 69.906a92.114 92.114 0 0 1-10.464 0.608z m-9.316-183.698c-29.354 3.35-49.118 98.088-45.62 128.536 2.866 24.528 31.172 42.434 63.564 38.67 32.102-3.732 55.888-27.144 53.014-52.18-3.45-29.604-42.674-115.026-70.958-115.026z" fill="" /><path d="M120.362 560.012a7.99 7.99 0 0 1-7.724-10.09c14.352-52.954-1.21-139.562-1.368-140.428a7.984 7.984 0 0 1 6.426-9.3c4.38-0.842 8.52 2.086 9.3 6.428 0.68 3.694 16.368 91.076 1.07 147.488a7.984 7.984 0 0 1-7.704 5.902z" fill="" /></svg>