<svg width="1920" height="146" viewBox="0 0 1920 146" fill="none" xmlns="http://www.w3.org/2000/svg">
<g clip-path="url(#clip0_68_1818)">
<path d="M168 93.1C161.5 105.5 149.2 111.9 145.7 110.1C142.2 108.3 140.4 94.5 146.8 82.1C153.2 69.7 163.3 62.1 169.1 65.1C175 68.1 174.5 80.7 168 93.1ZM329 67.7C323.4 71.3 325.1 83.7 332.6 95.5C340.2 107.3 353 112.6 356.4 110.4C359.8 108.2 360.3 94.4 352.8 82.6C345.2 70.8 334.6 64.1 329 67.7Z" fill="#087C45"/>
<path d="M112.5 105C112.8 119 105.2 130.6 101.2 130.7C97.2002 130.8 89.0002 119.6 88.6002 105.6C88.3002 91.6 93.3002 80.1 99.9002 79.9C106.5 79.7 112.2 91 112.5 105ZM283.6 95.1C277.2 96.8 275.1 109.2 278.7 122.7C282.4 136.2 293.1 145.1 296.9 144.1C300.7 143.1 305.4 130 301.8 116.5C298.1 102.9 290 93.3 283.6 95.1ZM400.1 79.8C393.5 80.2 388.9 92 389.9 106C390.9 120 399.6 130.8 403.6 130.5C407.6 130.2 414.8 118.3 413.8 104.3C412.8 90.3 406.7 79.3 400.1 79.8Z" fill="#FCA838"/>
<path d="M32.4998 97.1C25.9998 109.5 13.6998 115.9 10.1998 114.1C6.69982 112.3 4.89982 98.5 11.2998 86.1C17.6998 73.7 27.7998 66.1 33.5998 69.1C39.4998 72.1 38.9998 84.7 32.4998 97.1ZM215.8 93.2C209.3 91.9 201.9 102 199.2 115.8C196.5 129.6 202.1 142.3 206 143C209.9 143.8 219.9 134.2 222.6 120.4C225.3 106.6 222.3 94.5 215.8 93.2ZM464 69.9C457.7 72 456.3 84.5 460.8 97.8C465.3 111.1 476.4 119.3 480.2 118.1C484 116.8 487.9 103.5 483.4 90.2C478.9 76.9 470.3 67.8 464 69.9Z" fill="#BF1C06"/>
<path d="M106.5 72.9L108 85.4C104 87.4 95.3998 87.8 91.7998 86.1L92.5998 73.9C95.5998 71.9 102.6 70.9 106.5 72.9ZM96.8998 121.6C96.1998 122 96.0998 123.3 96.7998 124.5C97.4998 125.7 98.5998 126.3 99.2998 125.9C99.9998 125.5 100.1 124.2 99.3998 123C98.6998 121.7 97.5998 121.1 96.8998 121.6ZM95.4998 91.2C95.6998 90.7 95.3998 90.1 94.8998 89.9C94.3998 89.7 93.7998 90 93.5998 90.5C92.7998 93 89.3998 107.8 93.5998 117.2C93.7998 117.6 94.0998 117.8 94.4998 117.8C94.5998 117.8 94.7998 117.8 94.8998 117.7C95.3998 117.5 95.5998 116.9 95.3998 116.4C91.8998 108.4 94.2998 94.9 95.4998 91.2ZM30.0998 60.3L23.4998 70.5C25.8998 73.8 33.5998 77.6 37.9998 77.8L42.6998 66.2C40.2998 62.5 33.6998 60 30.0998 60.3ZM10.7998 104C9.9998 104 9.2998 105.1 9.2998 106.5C9.2998 107.8 9.9998 108.9 10.8998 108.9C11.6998 108.9 12.3998 107.8 12.3998 106.4C12.3998 105.1 11.6998 104 10.7998 104ZM22.9998 75.3C20.9998 77.1 10.8998 88.4 10.0998 98.7C10.0998 99.1 10.2998 99.5 10.5998 99.7C10.6998 99.8 10.8998 99.8 10.9998 99.8C11.4998 99.8 11.9998 99.4 12.0998 98.9C12.7998 90.1 21.4998 79.5 24.3998 76.8C24.7998 76.4 24.7998 75.8 24.4998 75.4C24.0998 75 23.3998 75 22.9998 75.3ZM165.6 56.3L159 66.5C161.4 69.8 169.1 73.6 173.5 73.8L178.2 62.2C175.8 58.5 169.2 56 165.6 56.3ZM146.3 100C145.5 100 144.8 101.1 144.8 102.5C144.8 103.8 145.5 104.9 146.4 104.9C147.2 104.9 147.9 103.8 147.9 102.4C147.8 101.1 147.1 100 146.3 100ZM158.5 71.3C156.5 73.1 146.4 84.4 145.6 94.7C145.6 95.1 145.8 95.5 146.1 95.7C146.2 95.8 146.4 95.8 146.5 95.8C147 95.8 147.5 95.4 147.6 94.9C148.3 86.1 157 75.5 159.9 72.8C160.3 72.4 160.3 71.8 160 71.4C159.5 71 158.9 71 158.5 71.3ZM209.9 85.8L206.5 97.5C209.7 100 218.2 101.4 222.5 100.4L223.8 87.9C220.3 85 213.3 84.5 209.9 85.8ZM203.7 133.2C202.9 133.5 202.6 134.7 203 136C203.4 137.3 204.4 138.1 205.2 137.9C206 137.6 206.3 136.4 205.9 135.1C205.5 133.8 204.5 132.9 203.7 133.2ZM208.7 101.9C208.2 101.6 207.6 101.8 207.3 102.2C205.9 104.5 199.4 118.2 201.5 128.3C201.6 128.7 201.9 129 202.3 129.1C202.4 129.1 202.6 129.1 202.7 129.1C203.2 129 203.6 128.5 203.5 127.9C201.7 119.2 207 106.6 209 103.2C209.3 102.8 209.2 102.1 208.7 101.9ZM288.3 86.7C284 85.7 277.4 88.3 275 91L277.1 103C281.1 103.8 289.3 101.3 292.7 98.5L288.3 86.7ZM290.5 136.2C289.9 136.8 290.2 138 291.1 139C292 140 293.3 140.3 293.9 139.7C294.5 139.1 294.2 137.9 293.3 136.9C292.4 135.9 291.2 135.7 290.5 136.2ZM282 107.1C282 106.6 281.6 106.1 281.1 106C280.5 106 280.1 106.4 280 106.9C279.8 109.5 280 124.7 286.4 132.9C286.6 133.2 287.1 133.3 287.4 133.3C287.5 133.3 287.7 133.2 287.8 133.1C288.2 132.8 288.3 132.1 288 131.7C282.6 124.7 281.7 111 282 107.1ZM338.8 68.2L331.1 58.3C326.7 58.7 321.2 63.1 319.7 66.4L325.3 77.2C329.3 76.8 336.4 71.9 338.8 68.2ZM350.9 104.7C349.7 104.1 348.4 104.1 348 104.9C347.6 105.6 348.2 106.8 349.4 107.4C350.6 108 351.9 108 352.3 107.2C352.7 106.5 352 105.4 350.9 104.7ZM331.1 79.6C331 79.1 330.4 78.7 329.9 78.8C329.4 78.9 329 79.5 329.1 80C329.7 82.6 334.5 97 343 102.8C343.3 103 343.8 103 344.1 102.8C344.2 102.7 344.3 102.6 344.4 102.5C344.7 102 344.6 101.4 344.1 101.1C336.9 96.2 332 83.5 331.1 79.6ZM392.5 74.1L392.2 86.3C395.9 87.8 404.5 87 408.4 84.9L406.4 72.5C402.3 70.7 395.4 72 392.5 74.1ZM398.8 121.5C398.1 122 398.1 123.2 398.8 124.4C399.5 125.5 400.7 126.1 401.4 125.6C402.1 125.1 402.1 123.9 401.4 122.7C400.7 121.6 399.5 121.1 398.8 121.5ZM396.2 91.2C396.4 90.7 396 90.1 395.5 90C395 89.8 394.4 90.2 394.3 90.7C393.6 93.3 390.8 108.2 395.5 117.4C395.7 117.8 396.1 118 396.4 117.9C396.5 117.9 396.7 117.9 396.8 117.8C397.3 117.6 397.5 117 397.2 116.5C393.3 108.6 395.1 95 396.2 91.2ZM468.2 61.3C463.8 60.6 457.4 63.6 455.2 66.4L458 78.3C462 78.8 470.1 75.9 473.3 72.9L468.2 61.3ZM476.2 111.1C475.2 110.2 473.9 109.9 473.4 110.6C472.8 111.2 473.2 112.5 474.2 113.4C475.2 114.3 476.5 114.6 477 113.9C477.5 113.3 477.1 112.1 476.2 111.1ZM463.1 82C463.1 81.4 462.7 81 462.1 81C461.5 81 461.1 81.4 461.1 82C461 84.7 462.2 99.8 469 107.5C469.3 107.8 469.7 107.9 470 107.8C470.1 107.8 470.3 107.7 470.4 107.6C470.8 107.2 470.9 106.6 470.5 106.2C464.7 99.5 463 85.9 463.1 82Z" fill="#D4E1F4"/>
<path d="M498 4.79999C496.3 19 479.5 60.8 426.2 67C403.6 69.6 380 64.7 359.9 53.1C350.8 47.9 342.8 41.4 336.9 34.8C339.9 27.3 341 20.4 340.6 15.1C340.1 8.19999 337.3 3.19999 333.2 1.59999C330.8 0.699986 328.3 1.19999 326.5 2.89999C323.2 6.09999 322.7 12.4 325.2 19.9C326.7 24.4 329.9 29.7 334.5 35C330.6 44 324.5 52.6 318.4 58.8C305.7 71.7 282.8 86.5 245.4 84.2C225.8 83 182 75.8 165.4 36.7C170 30.5 173.5 23.2 175.2 14.3C176.3 8.49999 175 3.79999 171.6 1.59999C169.2 -1.39475e-05 166.1 0.099986 163.5 1.79999C158.7 4.99999 157 12.5 158.8 21.8C159.6 26 161 31 163.2 36.3C155.4 46.5 144.6 53.1 135.4 57.3C117.8 65.2 95.1 68.8 74.7 67C39.6 63.8 11 39.8 1.9 5.79999L0 6.29999C5.8 28.1 19.5 45.9 37.9 57C37.7 57.1 37.6 57.3 37.5 57.5L36.3 61.6C36.1 62.1 36.4 62.7 37 62.8C37.1 62.8 37.2 62.8 37.3 62.8C37.7 62.8 38.1 62.5 38.3 62.1L39.5 58C39.5 57.9 39.5 57.9 39.5 57.8C50 63.8 61.9 67.7 74.7 68.8C82.3 69.5 90.2 69.4 98 68.7L98.7 72C98.8 72.5 99.2 72.8 99.7 72.8C99.8 72.8 99.8 72.8 99.9 72.8C100.4 72.7 100.8 72.1 100.7 71.6L100 68.5C112.9 67.1 125.6 63.8 136.4 59C145.6 54.8 156.3 48.3 164.3 38.3C166.5 43.2 169.4 48.2 173.2 53.2C173.1 53.3 173.1 53.4 173.1 53.5L171.9 57.6C171.7 58.1 172 58.7 172.6 58.8C172.7 58.8 172.8 58.8 172.9 58.8C173.3 58.8 173.7 58.5 173.9 58.1L174.8 55C176.7 57.4 178.9 59.7 181.3 61.9C190.7 70.7 202.4 77.1 216.4 81.1V85.1C216.4 85.7 216.8 86.1 217.4 86.1C217.9 86.1 218.4 85.7 218.4 85.1V81.6C226.7 83.9 235.8 85.3 245.6 85.9C248.3 86.1 250.9 86.1 253.5 86.1C262.9 86.1 271.3 85 278.8 83.2C278.8 83.4 278.8 83.6 278.9 83.7L280.8 87.5C281 87.9 281.3 88.1 281.7 88.1C281.8 88.1 282 88.1 282.1 88C282.6 87.8 282.8 87.2 282.6 86.7L280.7 82.9L280.6 82.8C299 77.9 311.9 68.5 320.3 60C320.7 59.6 321.1 59.1 321.5 58.7L324.2 61.5C324.4 61.7 324.7 61.8 324.9 61.8C325.1 61.8 325.4 61.7 325.6 61.5C326 61.1 326 60.5 325.6 60.1L322.8 57.2C328.9 50.4 333.4 43.2 336.4 36.5C348.9 50.1 370.7 64 397.8 68.2L398.8 71.9C398.9 72.3 399.3 72.6 399.8 72.6C399.9 72.6 400 72.6 400.1 72.6C400.6 72.5 400.9 71.9 400.8 71.4L400 68.5C404.6 69.1 409.4 69.5 414.3 69.5C418.4 69.5 422.6 69.3 426.9 68.8C439.5 67.3 450.1 63.9 459 59.3L460.9 62.7C461.1 63 461.4 63.2 461.8 63.2C462 63.2 462.1 63.2 462.3 63.1C462.8 62.8 462.9 62.2 462.7 61.7L460.8 58.4C489.1 43 499.2 15.8 500.5 4.89999L498 4.79999ZM160.8 21.4C158.8 11.4 161.5 5.59999 164.7 3.49999C165.7 2.79999 166.8 2.49999 167.9 2.49999C168.9 2.49999 169.8 2.79999 170.6 3.29999C173.2 4.99999 174.3 8.99999 173.3 14C171.8 22 168.6 28.8 164.6 34.6C163 30.5 161.8 26.1 160.8 21.4ZM335.4 33C331.5 28.3 328.6 23.6 327.1 19.3C324.9 12.6 325.2 6.99999 327.9 4.29999C328.7 3.49999 329.8 3.09999 330.9 3.09999C331.4 3.09999 332 3.19999 332.5 3.39999C335.1 4.39999 338.1 7.99999 338.6 15.2C339.1 20.9 337.8 27 335.4 33ZM104 74.7C102.4 75.1 100.3 75.4 98.1 75.4C95.8 75.4 93.6 75.1 92.3 74.3L92.7 73.7C94.7 75 100.2 75 103.7 74.1C105 73.8 105.9 73.3 106.1 72.9L106.8 73.2C106.6 73.7 105.6 74.3 104 74.7ZM107.8 85.1L108.2 85.7C106.6 86.7 102.6 87.4 98.6 87.4C96.1 87.4 93.5 87.1 91.6 86.4L91.9 85.7C96.6 87.5 105.4 86.6 107.8 85.1ZM42.6 65.9L43 66.5C42.7 66.7 42.3 66.8 41.7 66.8C41.2 66.8 40.5 66.7 39.7 66.5C36.4 65.7 31.1 63 29.8 60.5L30.5 60.2C31.6 62.3 36.5 65 40 65.8C41.2 66.1 42.2 66.1 42.6 65.9ZM38.1 77.4V78.1C38 78.1 38 78.1 37.9 78.1C34.7 78.1 26.6 74.6 23.2 70.7L23.8 70.2C27.1 74.1 35.2 77.5 38.1 77.4ZM178.1 61.9L178.5 62.5C178.2 62.7 177.8 62.8 177.2 62.8C176.7 62.8 176 62.7 175.2 62.5C171.9 61.7 166.6 59 165.3 56.5L166 56.2C167.1 58.3 172 61 175.5 61.8C176.7 62.1 177.7 62.1 178.1 61.9ZM173.5 73.5V74.2C173.4 74.2 173.4 74.2 173.3 74.2C170.1 74.2 162 70.7 158.6 66.8L159.2 66.3C162.6 70.1 170.7 73.6 173.5 73.5ZM223.4 87.6L224 88.1C223.5 88.7 222.5 89 220.9 89C220.7 89 220.5 89 220.3 89C216.9 89 211.5 87.9 209.7 86L210.2 85.5C211.8 87.2 217.3 88.4 220.9 88.2C222.2 88.2 223.2 87.9 223.4 87.6ZM222.3 100L222.5 100.7C221.8 100.9 220.7 101.1 219.4 101.1C215.4 101.1 209.5 100 206.2 97.8L206.6 97.2C210.9 99.9 219.6 100.9 222.3 100ZM286.3 89C283.9 90.3 279.8 91.6 276.9 91.6C276.1 91.6 275.5 91.5 274.9 91.3L275.2 90.6C277.4 91.4 282.8 90 286 88.3C287.2 87.7 287.9 87 288 86.6L288.7 86.8C288.5 87.5 287.7 88.2 286.3 89ZM292.5 98.2L293 98.7C291 100.7 283.8 103.4 278.5 103.4C278 103.4 277.5 103.4 277.1 103.3L277.2 102.6C282.2 103.2 290.5 100.3 292.5 98.2ZM329.8 61.1C327.5 63.5 322.6 66.7 319.8 66.7C319.7 66.7 319.7 66.7 319.6 66.7V66C322 66.1 326.7 63.2 329.2 60.6C330.1 59.6 330.7 58.8 330.6 58.3L331.3 58.2C331.5 59 330.9 59.9 329.8 61.1ZM338.5 68L339.2 68.3C337.8 71 330.6 76.5 325.4 77.5L325.3 76.8C330.1 75.9 337.1 70.6 338.5 68ZM397.1 75.4C395.2 75.4 393.4 75.1 392.3 74.5L392.7 73.9C394.7 75.1 400.3 74.8 403.7 73.8C405 73.4 405.8 72.9 406 72.5L406.7 72.8C406.4 73.5 405.5 74 403.9 74.5C402.1 75 399.5 75.4 397.1 75.4ZM408.2 84.6L408.6 85.2C406.9 86.4 402.2 87.4 397.8 87.4C395.7 87.4 393.7 87.2 392.1 86.7L392.3 86C397.1 87.5 405.8 86.2 408.2 84.6ZM466.3 63.7C463.9 65.2 459.5 66.9 456.5 66.9C456 66.9 455.5 66.8 455 66.7L455.2 66C457.5 66.7 462.8 65 465.8 63.1C466.9 62.4 467.7 61.7 467.7 61.2L468.4 61.3C468.5 62.1 467.7 62.9 466.3 63.7ZM473.1 72.5L473.7 73C471.8 75.2 464 78.6 458.7 78.6C458.5 78.6 458.3 78.6 458.1 78.6V77.9C463 78.1 471.2 74.7 473.1 72.5Z" fill="black"/>
</g>
<g clip-path="url(#clip1_68_1818)">
<path d="M669 93.1C662.5 105.5 650.2 111.9 646.7 110.1C643.2 108.3 641.4 94.5 647.8 82.1C654.2 69.7 664.3 62.1 670.1 65.1C676 68.1 675.5 80.7 669 93.1ZM830 67.7C824.4 71.3 826.1 83.7 833.6 95.5C841.2 107.3 854 112.6 857.4 110.4C860.8 108.2 861.3 94.4 853.8 82.6C846.2 70.8 835.6 64.1 830 67.7Z" fill="#087C45"/>
<path d="M613.5 105C613.8 119 606.2 130.6 602.2 130.7C598.2 130.8 590 119.6 589.6 105.6C589.3 91.6 594.3 80.1 600.9 79.9C607.5 79.7 613.2 91 613.5 105ZM784.6 95.1C778.2 96.8 776.1 109.2 779.7 122.7C783.4 136.2 794.1 145.1 797.9 144.1C801.7 143.1 806.4 130 802.8 116.5C799.1 102.9 791 93.3 784.6 95.1ZM901.1 79.8C894.5 80.2 889.9 92 890.9 106C891.9 120 900.6 130.8 904.6 130.5C908.6 130.2 915.8 118.3 914.8 104.3C913.8 90.3 907.7 79.3 901.1 79.8Z" fill="#FCA838"/>
<path d="M533.5 97.1C527 109.5 514.7 115.9 511.2 114.1C507.7 112.3 505.9 98.5 512.3 86.1C518.7 73.7 528.8 66.1 534.6 69.1C540.5 72.1 540 84.7 533.5 97.1ZM716.8 93.2C710.3 91.9 702.9 102 700.2 115.8C697.5 129.6 703.1 142.3 707 143C710.9 143.8 720.9 134.2 723.6 120.4C726.3 106.6 723.3 94.5 716.8 93.2ZM965 69.9C958.7 72 957.3 84.5 961.8 97.8C966.3 111.1 977.4 119.3 981.2 118.1C985 116.8 988.9 103.5 984.4 90.2C979.9 76.9 971.3 67.8 965 69.9Z" fill="#BF1C06"/>
<path d="M607.5 72.9L609 85.4C605 87.4 596.4 87.8 592.8 86.1L593.6 73.9C596.6 71.9 603.6 70.9 607.5 72.9ZM597.9 121.6C597.2 122 597.1 123.3 597.8 124.5C598.5 125.7 599.6 126.3 600.3 125.9C601 125.5 601.1 124.2 600.4 123C599.7 121.7 598.6 121.1 597.9 121.6ZM596.5 91.2C596.7 90.7 596.4 90.1 595.9 89.9C595.4 89.7 594.8 90 594.6 90.5C593.8 93 590.4 107.8 594.6 117.2C594.8 117.6 595.1 117.8 595.5 117.8C595.6 117.8 595.8 117.8 595.9 117.7C596.4 117.5 596.6 116.9 596.4 116.4C592.9 108.4 595.3 94.9 596.5 91.2ZM531.1 60.3L524.5 70.5C526.9 73.8 534.6 77.6 539 77.8L543.7 66.2C541.3 62.5 534.7 60 531.1 60.3ZM511.8 104C511 104 510.3 105.1 510.3 106.5C510.3 107.8 511 108.9 511.9 108.9C512.7 108.9 513.4 107.8 513.4 106.4C513.4 105.1 512.7 104 511.8 104ZM524 75.3C522 77.1 511.9 88.4 511.1 98.7C511.1 99.1 511.3 99.5 511.6 99.7C511.7 99.8 511.9 99.8 512 99.8C512.5 99.8 513 99.4 513.1 98.9C513.8 90.1 522.5 79.5 525.4 76.8C525.8 76.4 525.8 75.8 525.5 75.4C525.1 75 524.4 75 524 75.3ZM666.6 56.3L660 66.5C662.4 69.8 670.1 73.6 674.5 73.8L679.2 62.2C676.8 58.5 670.2 56 666.6 56.3ZM647.3 100C646.5 100 645.8 101.1 645.8 102.5C645.8 103.8 646.5 104.9 647.4 104.9C648.2 104.9 648.9 103.8 648.9 102.4C648.8 101.1 648.1 100 647.3 100ZM659.5 71.3C657.5 73.1 647.4 84.4 646.6 94.7C646.6 95.1 646.8 95.5 647.1 95.7C647.2 95.8 647.4 95.8 647.5 95.8C648 95.8 648.5 95.4 648.6 94.9C649.3 86.1 658 75.5 660.9 72.8C661.3 72.4 661.3 71.8 661 71.4C660.5 71 659.9 71 659.5 71.3ZM710.9 85.8L707.5 97.5C710.7 100 719.2 101.4 723.5 100.4L724.8 87.9C721.3 85 714.3 84.5 710.9 85.8ZM704.7 133.2C703.9 133.5 703.6 134.7 704 136C704.4 137.3 705.4 138.1 706.2 137.9C707 137.6 707.3 136.4 706.9 135.1C706.5 133.8 705.5 132.9 704.7 133.2ZM709.7 101.9C709.2 101.6 708.6 101.8 708.3 102.2C706.9 104.5 700.4 118.2 702.5 128.3C702.6 128.7 702.9 129 703.3 129.1C703.4 129.1 703.6 129.1 703.7 129.1C704.2 129 704.6 128.5 704.5 127.9C702.7 119.2 708 106.6 710 103.2C710.3 102.8 710.2 102.1 709.7 101.9ZM789.3 86.7C785 85.7 778.4 88.3 776 91L778.1 103C782.1 103.8 790.3 101.3 793.7 98.5L789.3 86.7ZM791.5 136.2C790.9 136.8 791.2 138 792.1 139C793 140 794.3 140.3 794.9 139.7C795.5 139.1 795.2 137.9 794.3 136.9C793.4 135.9 792.2 135.7 791.5 136.2ZM783 107.1C783 106.6 782.6 106.1 782.1 106C781.5 106 781.1 106.4 781 106.9C780.8 109.5 781 124.7 787.4 132.9C787.6 133.2 788.1 133.3 788.4 133.3C788.5 133.3 788.7 133.2 788.8 133.1C789.2 132.8 789.3 132.1 789 131.7C783.6 124.7 782.7 111 783 107.1ZM839.8 68.2L832.1 58.3C827.7 58.7 822.2 63.1 820.7 66.4L826.3 77.2C830.3 76.8 837.4 71.9 839.8 68.2ZM851.9 104.7C850.7 104.1 849.4 104.1 849 104.9C848.6 105.6 849.2 106.8 850.4 107.4C851.6 108 852.9 108 853.3 107.2C853.7 106.5 853 105.4 851.9 104.7ZM832.1 79.6C832 79.1 831.4 78.7 830.9 78.8C830.4 78.9 830 79.5 830.1 80C830.7 82.6 835.5 97 844 102.8C844.3 103 844.8 103 845.1 102.8C845.2 102.7 845.3 102.6 845.4 102.5C845.7 102 845.6 101.4 845.1 101.1C837.9 96.2 833 83.5 832.1 79.6ZM893.5 74.1L893.2 86.3C896.9 87.8 905.5 87 909.4 84.9L907.4 72.5C903.3 70.7 896.4 72 893.5 74.1ZM899.8 121.5C899.1 122 899.1 123.2 899.8 124.4C900.5 125.5 901.7 126.1 902.4 125.6C903.1 125.1 903.1 123.9 902.4 122.7C901.7 121.6 900.5 121.1 899.8 121.5ZM897.2 91.2C897.4 90.7 897 90.1 896.5 90C896 89.8 895.4 90.2 895.3 90.7C894.6 93.3 891.8 108.2 896.5 117.4C896.7 117.8 897.1 118 897.4 117.9C897.5 117.9 897.7 117.9 897.8 117.8C898.3 117.6 898.5 117 898.2 116.5C894.3 108.6 896.1 95 897.2 91.2ZM969.2 61.3C964.8 60.6 958.4 63.6 956.2 66.4L959 78.3C963 78.8 971.1 75.9 974.3 72.9L969.2 61.3ZM977.2 111.1C976.2 110.2 974.9 109.9 974.4 110.6C973.8 111.2 974.2 112.5 975.2 113.4C976.2 114.3 977.5 114.6 978 113.9C978.5 113.3 978.1 112.1 977.2 111.1ZM964.1 82C964.1 81.4 963.7 81 963.1 81C962.5 81 962.1 81.4 962.1 82C962 84.7 963.2 99.8 970 107.5C970.3 107.8 970.7 107.9 971 107.8C971.1 107.8 971.3 107.7 971.4 107.6C971.8 107.2 971.9 106.6 971.5 106.2C965.7 99.5 964 85.9 964.1 82Z" fill="#D4E1F4"/>
<path d="M999 4.79999C997.3 19 980.5 60.8 927.2 67C904.6 69.6 881 64.7 860.9 53.1C851.8 47.9 843.8 41.4 837.9 34.8C840.9 27.3 842 20.4 841.6 15.1C841.1 8.19999 838.3 3.19999 834.2 1.59999C831.8 0.699986 829.3 1.19999 827.5 2.89999C824.2 6.09999 823.7 12.4 826.2 19.9C827.7 24.4 830.9 29.7 835.5 35C831.6 44 825.5 52.6 819.4 58.8C806.7 71.7 783.8 86.5 746.4 84.2C726.8 83 683 75.8 666.4 36.7C671 30.5 674.5 23.2 676.2 14.3C677.3 8.49999 676 3.79999 672.6 1.59999C670.2 -1.39475e-05 667.1 0.099986 664.5 1.79999C659.7 4.99999 658 12.5 659.8 21.8C660.6 26 662 31 664.2 36.3C656.4 46.5 645.6 53.1 636.4 57.3C618.8 65.2 596.1 68.8 575.7 67C540.6 63.8 512 39.8 502.9 5.79999L501 6.29999C506.8 28.1 520.5 45.9 538.9 57C538.7 57.1 538.6 57.3 538.5 57.5L537.3 61.6C537.1 62.1 537.4 62.7 538 62.8C538.1 62.8 538.2 62.8 538.3 62.8C538.7 62.8 539.1 62.5 539.3 62.1L540.5 58C540.5 57.9 540.5 57.9 540.5 57.8C551 63.8 562.9 67.7 575.7 68.8C583.3 69.5 591.2 69.4 599 68.7L599.7 72C599.8 72.5 600.2 72.8 600.7 72.8C600.8 72.8 600.8 72.8 600.9 72.8C601.4 72.7 601.8 72.1 601.7 71.6L601 68.5C613.9 67.1 626.6 63.8 637.4 59C646.6 54.8 657.3 48.3 665.3 38.3C667.5 43.2 670.4 48.2 674.2 53.2C674.1 53.3 674.1 53.4 674.1 53.5L672.9 57.6C672.7 58.1 673 58.7 673.6 58.8C673.7 58.8 673.8 58.8 673.9 58.8C674.3 58.8 674.7 58.5 674.9 58.1L675.8 55C677.7 57.4 679.9 59.7 682.3 61.9C691.7 70.7 703.4 77.1 717.4 81.1V85.1C717.4 85.7 717.8 86.1 718.4 86.1C718.9 86.1 719.4 85.7 719.4 85.1V81.6C727.7 83.9 736.8 85.3 746.6 85.9C749.3 86.1 751.9 86.1 754.5 86.1C763.9 86.1 772.3 85 779.8 83.2C779.8 83.4 779.8 83.6 779.9 83.7L781.8 87.5C782 87.9 782.3 88.1 782.7 88.1C782.8 88.1 783 88.1 783.1 88C783.6 87.8 783.8 87.2 783.6 86.7L781.7 82.9L781.6 82.8C800 77.9 812.9 68.5 821.3 60C821.7 59.6 822.1 59.1 822.5 58.7L825.2 61.5C825.4 61.7 825.7 61.8 825.9 61.8C826.1 61.8 826.4 61.7 826.6 61.5C827 61.1 827 60.5 826.6 60.1L823.8 57.2C829.9 50.4 834.4 43.2 837.4 36.5C849.9 50.1 871.7 64 898.8 68.2L899.8 71.9C899.9 72.3 900.3 72.6 900.8 72.6C900.9 72.6 901 72.6 901.1 72.6C901.6 72.5 901.9 71.9 901.8 71.4L901 68.5C905.6 69.1 910.4 69.5 915.3 69.5C919.4 69.5 923.6 69.3 927.9 68.8C940.5 67.3 951.1 63.9 960 59.3L961.9 62.7C962.1 63 962.4 63.2 962.8 63.2C963 63.2 963.1 63.2 963.3 63.1C963.8 62.8 963.9 62.2 963.7 61.7L961.8 58.4C990.1 43 1000.2 15.8 1001.5 4.89999L999 4.79999ZM661.8 21.4C659.8 11.4 662.5 5.59999 665.7 3.49999C666.7 2.79999 667.8 2.49999 668.9 2.49999C669.9 2.49999 670.8 2.79999 671.6 3.29999C674.2 4.99999 675.3 8.99999 674.3 14C672.8 22 669.6 28.8 665.6 34.6C664 30.5 662.8 26.1 661.8 21.4ZM836.4 33C832.5 28.3 829.6 23.6 828.1 19.3C825.9 12.6 826.2 6.99999 828.9 4.29999C829.7 3.49999 830.8 3.09999 831.9 3.09999C832.4 3.09999 833 3.19999 833.5 3.39999C836.1 4.39999 839.1 7.99999 839.6 15.2C840.1 20.9 838.8 27 836.4 33ZM605 74.7C603.4 75.1 601.3 75.4 599.1 75.4C596.8 75.4 594.6 75.1 593.3 74.3L593.7 73.7C595.7 75 601.2 75 604.7 74.1C606 73.8 606.9 73.3 607.1 72.9L607.8 73.2C607.6 73.7 606.6 74.3 605 74.7ZM608.8 85.1L609.2 85.7C607.6 86.7 603.6 87.4 599.6 87.4C597.1 87.4 594.5 87.1 592.6 86.4L592.9 85.7C597.6 87.5 606.4 86.6 608.8 85.1ZM543.6 65.9L544 66.5C543.7 66.7 543.3 66.8 542.7 66.8C542.2 66.8 541.5 66.7 540.7 66.5C537.4 65.7 532.1 63 530.8 60.5L531.5 60.2C532.6 62.3 537.5 65 541 65.8C542.2 66.1 543.2 66.1 543.6 65.9ZM539.1 77.4V78.1C539 78.1 539 78.1 538.9 78.1C535.7 78.1 527.6 74.6 524.2 70.7L524.8 70.2C528.1 74.1 536.2 77.5 539.1 77.4ZM679.1 61.9L679.5 62.5C679.2 62.7 678.8 62.8 678.2 62.8C677.7 62.8 677 62.7 676.2 62.5C672.9 61.7 667.6 59 666.3 56.5L667 56.2C668.1 58.3 673 61 676.5 61.8C677.7 62.1 678.7 62.1 679.1 61.9ZM674.5 73.5V74.2C674.4 74.2 674.4 74.2 674.3 74.2C671.1 74.2 663 70.7 659.6 66.8L660.2 66.3C663.6 70.1 671.7 73.6 674.5 73.5ZM724.4 87.6L725 88.1C724.5 88.7 723.5 89 721.9 89C721.7 89 721.5 89 721.3 89C717.9 89 712.5 87.9 710.7 86L711.2 85.5C712.8 87.2 718.3 88.4 721.9 88.2C723.2 88.2 724.2 87.9 724.4 87.6ZM723.3 100L723.5 100.7C722.8 100.9 721.7 101.1 720.4 101.1C716.4 101.1 710.5 100 707.2 97.8L707.6 97.2C711.9 99.9 720.6 100.9 723.3 100ZM787.3 89C784.9 90.3 780.8 91.6 777.9 91.6C777.1 91.6 776.5 91.5 775.9 91.3L776.2 90.6C778.4 91.4 783.8 90 787 88.3C788.2 87.7 788.9 87 789 86.6L789.7 86.8C789.5 87.5 788.7 88.2 787.3 89ZM793.5 98.2L794 98.7C792 100.7 784.8 103.4 779.5 103.4C779 103.4 778.5 103.4 778.1 103.3L778.2 102.6C783.2 103.2 791.5 100.3 793.5 98.2ZM830.8 61.1C828.5 63.5 823.6 66.7 820.8 66.7C820.7 66.7 820.7 66.7 820.6 66.7V66C823 66.1 827.7 63.2 830.2 60.6C831.1 59.6 831.7 58.8 831.6 58.3L832.3 58.2C832.5 59 831.9 59.9 830.8 61.1ZM839.5 68L840.2 68.3C838.8 71 831.6 76.5 826.4 77.5L826.3 76.8C831.1 75.9 838.1 70.6 839.5 68ZM898.1 75.4C896.2 75.4 894.4 75.1 893.3 74.5L893.7 73.9C895.7 75.1 901.3 74.8 904.7 73.8C906 73.4 906.8 72.9 907 72.5L907.7 72.8C907.4 73.5 906.5 74 904.9 74.5C903.1 75 900.5 75.4 898.1 75.4ZM909.2 84.6L909.6 85.2C907.9 86.4 903.2 87.4 898.8 87.4C896.7 87.4 894.7 87.2 893.1 86.7L893.3 86C898.1 87.5 906.8 86.2 909.2 84.6ZM967.3 63.7C964.9 65.2 960.5 66.9 957.5 66.9C957 66.9 956.5 66.8 956 66.7L956.2 66C958.5 66.7 963.8 65 966.8 63.1C967.9 62.4 968.7 61.7 968.7 61.2L969.4 61.3C969.5 62.1 968.7 62.9 967.3 63.7ZM974.1 72.5L974.7 73C972.8 75.2 965 78.6 959.7 78.6C959.5 78.6 959.3 78.6 959.1 78.6V77.9C964 78.1 972.2 74.7 974.1 72.5Z" fill="black"/>
</g>
<g clip-path="url(#clip2_68_1818)">
<path d="M1170 93.1C1163.5 105.5 1151.2 111.9 1147.7 110.1C1144.2 108.3 1142.4 94.5 1148.8 82.1C1155.2 69.7 1165.3 62.1 1171.1 65.1C1177 68.1 1176.5 80.7 1170 93.1ZM1331 67.7C1325.4 71.3 1327.1 83.7 1334.6 95.5C1342.2 107.3 1355 112.6 1358.4 110.4C1361.8 108.2 1362.3 94.4 1354.8 82.6C1347.2 70.8 1336.6 64.1 1331 67.7Z" fill="#087C45"/>
<path d="M1114.5 105C1114.8 119 1107.2 130.6 1103.2 130.7C1099.2 130.8 1091 119.6 1090.6 105.6C1090.3 91.6 1095.3 80.1 1101.9 79.9C1108.5 79.7 1114.2 91 1114.5 105ZM1285.6 95.1C1279.2 96.8 1277.1 109.2 1280.7 122.7C1284.4 136.2 1295.1 145.1 1298.9 144.1C1302.7 143.1 1307.4 130 1303.8 116.5C1300.1 102.9 1292 93.3 1285.6 95.1ZM1402.1 79.8C1395.5 80.2 1390.9 92 1391.9 106C1392.9 120 1401.6 130.8 1405.6 130.5C1409.6 130.2 1416.8 118.3 1415.8 104.3C1414.8 90.3 1408.7 79.3 1402.1 79.8Z" fill="#FCA838"/>
<path d="M1034.5 97.1C1028 109.5 1015.7 115.9 1012.2 114.1C1008.7 112.3 1006.9 98.5 1013.3 86.1C1019.7 73.7 1029.8 66.1 1035.6 69.1C1041.5 72.1 1041 84.7 1034.5 97.1ZM1217.8 93.2C1211.3 91.9 1203.9 102 1201.2 115.8C1198.5 129.6 1204.1 142.3 1208 143C1211.9 143.8 1221.9 134.2 1224.6 120.4C1227.3 106.6 1224.3 94.5 1217.8 93.2ZM1466 69.9C1459.7 72 1458.3 84.5 1462.8 97.8C1467.3 111.1 1478.4 119.3 1482.2 118.1C1486 116.8 1489.9 103.5 1485.4 90.2C1480.9 76.9 1472.3 67.8 1466 69.9Z" fill="#BF1C06"/>
<path d="M1108.5 72.9L1110 85.4C1106 87.4 1097.4 87.8 1093.8 86.1L1094.6 73.9C1097.6 71.9 1104.6 70.9 1108.5 72.9ZM1098.9 121.6C1098.2 122 1098.1 123.3 1098.8 124.5C1099.5 125.7 1100.6 126.3 1101.3 125.9C1102 125.5 1102.1 124.2 1101.4 123C1100.7 121.7 1099.6 121.1 1098.9 121.6ZM1097.5 91.2C1097.7 90.7 1097.4 90.1 1096.9 89.9C1096.4 89.7 1095.8 90 1095.6 90.5C1094.8 93 1091.4 107.8 1095.6 117.2C1095.8 117.6 1096.1 117.8 1096.5 117.8C1096.6 117.8 1096.8 117.8 1096.9 117.7C1097.4 117.5 1097.6 116.9 1097.4 116.4C1093.9 108.4 1096.3 94.9 1097.5 91.2ZM1032.1 60.3L1025.5 70.5C1027.9 73.8 1035.6 77.6 1040 77.8L1044.7 66.2C1042.3 62.5 1035.7 60 1032.1 60.3ZM1012.8 104C1012 104 1011.3 105.1 1011.3 106.5C1011.3 107.8 1012 108.9 1012.9 108.9C1013.7 108.9 1014.4 107.8 1014.4 106.4C1014.4 105.1 1013.7 104 1012.8 104ZM1025 75.3C1023 77.1 1012.9 88.4 1012.1 98.7C1012.1 99.1 1012.3 99.5 1012.6 99.7C1012.7 99.8 1012.9 99.8 1013 99.8C1013.5 99.8 1014 99.4 1014.1 98.9C1014.8 90.1 1023.5 79.5 1026.4 76.8C1026.8 76.4 1026.8 75.8 1026.5 75.4C1026.1 75 1025.4 75 1025 75.3ZM1167.6 56.3L1161 66.5C1163.4 69.8 1171.1 73.6 1175.5 73.8L1180.2 62.2C1177.8 58.5 1171.2 56 1167.6 56.3ZM1148.3 100C1147.5 100 1146.8 101.1 1146.8 102.5C1146.8 103.8 1147.5 104.9 1148.4 104.9C1149.2 104.9 1149.9 103.8 1149.9 102.4C1149.8 101.1 1149.1 100 1148.3 100ZM1160.5 71.3C1158.5 73.1 1148.4 84.4 1147.6 94.7C1147.6 95.1 1147.8 95.5 1148.1 95.7C1148.2 95.8 1148.4 95.8 1148.5 95.8C1149 95.8 1149.5 95.4 1149.6 94.9C1150.3 86.1 1159 75.5 1161.9 72.8C1162.3 72.4 1162.3 71.8 1162 71.4C1161.5 71 1160.9 71 1160.5 71.3ZM1211.9 85.8L1208.5 97.5C1211.7 100 1220.2 101.4 1224.5 100.4L1225.8 87.9C1222.3 85 1215.3 84.5 1211.9 85.8ZM1205.7 133.2C1204.9 133.5 1204.6 134.7 1205 136C1205.4 137.3 1206.4 138.1 1207.2 137.9C1208 137.6 1208.3 136.4 1207.9 135.1C1207.5 133.8 1206.5 132.9 1205.7 133.2ZM1210.7 101.9C1210.2 101.6 1209.6 101.8 1209.3 102.2C1207.9 104.5 1201.4 118.2 1203.5 128.3C1203.6 128.7 1203.9 129 1204.3 129.1C1204.4 129.1 1204.6 129.1 1204.7 129.1C1205.2 129 1205.6 128.5 1205.5 127.9C1203.7 119.2 1209 106.6 1211 103.2C1211.3 102.8 1211.2 102.1 1210.7 101.9ZM1290.3 86.7C1286 85.7 1279.4 88.3 1277 91L1279.1 103C1283.1 103.8 1291.3 101.3 1294.7 98.5L1290.3 86.7ZM1292.5 136.2C1291.9 136.8 1292.2 138 1293.1 139C1294 140 1295.3 140.3 1295.9 139.7C1296.5 139.1 1296.2 137.9 1295.3 136.9C1294.4 135.9 1293.2 135.7 1292.5 136.2ZM1284 107.1C1284 106.6 1283.6 106.1 1283.1 106C1282.5 106 1282.1 106.4 1282 106.9C1281.8 109.5 1282 124.7 1288.4 132.9C1288.6 133.2 1289.1 133.3 1289.4 133.3C1289.5 133.3 1289.7 133.2 1289.8 133.1C1290.2 132.8 1290.3 132.1 1290 131.7C1284.6 124.7 1283.7 111 1284 107.1ZM1340.8 68.2L1333.1 58.3C1328.7 58.7 1323.2 63.1 1321.7 66.4L1327.3 77.2C1331.3 76.8 1338.4 71.9 1340.8 68.2ZM1352.9 104.7C1351.7 104.1 1350.4 104.1 1350 104.9C1349.6 105.6 1350.2 106.8 1351.4 107.4C1352.6 108 1353.9 108 1354.3 107.2C1354.7 106.5 1354 105.4 1352.9 104.7ZM1333.1 79.6C1333 79.1 1332.4 78.7 1331.9 78.8C1331.4 78.9 1331 79.5 1331.1 80C1331.7 82.6 1336.5 97 1345 102.8C1345.3 103 1345.8 103 1346.1 102.8C1346.2 102.7 1346.3 102.6 1346.4 102.5C1346.7 102 1346.6 101.4 1346.1 101.1C1338.9 96.2 1334 83.5 1333.1 79.6ZM1394.5 74.1L1394.2 86.3C1397.9 87.8 1406.5 87 1410.4 84.9L1408.4 72.5C1404.3 70.7 1397.4 72 1394.5 74.1ZM1400.8 121.5C1400.1 122 1400.1 123.2 1400.8 124.4C1401.5 125.5 1402.7 126.1 1403.4 125.6C1404.1 125.1 1404.1 123.9 1403.4 122.7C1402.7 121.6 1401.5 121.1 1400.8 121.5ZM1398.2 91.2C1398.4 90.7 1398 90.1 1397.5 90C1397 89.8 1396.4 90.2 1396.3 90.7C1395.6 93.3 1392.8 108.2 1397.5 117.4C1397.7 117.8 1398.1 118 1398.4 117.9C1398.5 117.9 1398.7 117.9 1398.8 117.8C1399.3 117.6 1399.5 117 1399.2 116.5C1395.3 108.6 1397.1 95 1398.2 91.2ZM1470.2 61.3C1465.8 60.6 1459.4 63.6 1457.2 66.4L1460 78.3C1464 78.8 1472.1 75.9 1475.3 72.9L1470.2 61.3ZM1478.2 111.1C1477.2 110.2 1475.9 109.9 1475.4 110.6C1474.8 111.2 1475.2 112.5 1476.2 113.4C1477.2 114.3 1478.5 114.6 1479 113.9C1479.5 113.3 1479.1 112.1 1478.2 111.1ZM1465.1 82C1465.1 81.4 1464.7 81 1464.1 81C1463.5 81 1463.1 81.4 1463.1 82C1463 84.7 1464.2 99.8 1471 107.5C1471.3 107.8 1471.7 107.9 1472 107.8C1472.1 107.8 1472.3 107.7 1472.4 107.6C1472.8 107.2 1472.9 106.6 1472.5 106.2C1466.7 99.5 1465 85.9 1465.1 82Z" fill="#D4E1F4"/>
<path d="M1500 4.79999C1498.3 19 1481.5 60.8 1428.2 67C1405.6 69.6 1382 64.7 1361.9 53.1C1352.8 47.9 1344.8 41.4 1338.9 34.8C1341.9 27.3 1343 20.4 1342.6 15.1C1342.1 8.19999 1339.3 3.19999 1335.2 1.59999C1332.8 0.699986 1330.3 1.19999 1328.5 2.89999C1325.2 6.09999 1324.7 12.4 1327.2 19.9C1328.7 24.4 1331.9 29.7 1336.5 35C1332.6 44 1326.5 52.6 1320.4 58.8C1307.7 71.7 1284.8 86.5 1247.4 84.2C1227.8 83 1184 75.8 1167.4 36.7C1172 30.5 1175.5 23.2 1177.2 14.3C1178.3 8.49999 1177 3.79999 1173.6 1.59999C1171.2 -1.39475e-05 1168.1 0.099986 1165.5 1.79999C1160.7 4.99999 1159 12.5 1160.8 21.8C1161.6 26 1163 31 1165.2 36.3C1157.4 46.5 1146.6 53.1 1137.4 57.3C1119.8 65.2 1097.1 68.8 1076.7 67C1041.6 63.8 1013 39.8 1003.9 5.79999L1002 6.29999C1007.8 28.1 1021.5 45.9 1039.9 57C1039.7 57.1 1039.6 57.3 1039.5 57.5L1038.3 61.6C1038.1 62.1 1038.4 62.7 1039 62.8C1039.1 62.8 1039.2 62.8 1039.3 62.8C1039.7 62.8 1040.1 62.5 1040.3 62.1L1041.5 58C1041.5 57.9 1041.5 57.9 1041.5 57.8C1052 63.8 1063.9 67.7 1076.7 68.8C1084.3 69.5 1092.2 69.4 1100 68.7L1100.7 72C1100.8 72.5 1101.2 72.8 1101.7 72.8C1101.8 72.8 1101.8 72.8 1101.9 72.8C1102.4 72.7 1102.8 72.1 1102.7 71.6L1102 68.5C1114.9 67.1 1127.6 63.8 1138.4 59C1147.6 54.8 1158.3 48.3 1166.3 38.3C1168.5 43.2 1171.4 48.2 1175.2 53.2C1175.1 53.3 1175.1 53.4 1175.1 53.5L1173.9 57.6C1173.7 58.1 1174 58.7 1174.6 58.8C1174.7 58.8 1174.8 58.8 1174.9 58.8C1175.3 58.8 1175.7 58.5 1175.9 58.1L1176.8 55C1178.7 57.4 1180.9 59.7 1183.3 61.9C1192.7 70.7 1204.4 77.1 1218.4 81.1V85.1C1218.4 85.7 1218.8 86.1 1219.4 86.1C1219.9 86.1 1220.4 85.7 1220.4 85.1V81.6C1228.7 83.9 1237.8 85.3 1247.6 85.9C1250.3 86.1 1252.9 86.1 1255.5 86.1C1264.9 86.1 1273.3 85 1280.8 83.2C1280.8 83.4 1280.8 83.6 1280.9 83.7L1282.8 87.5C1283 87.9 1283.3 88.1 1283.7 88.1C1283.8 88.1 1284 88.1 1284.1 88C1284.6 87.8 1284.8 87.2 1284.6 86.7L1282.7 82.9L1282.6 82.8C1301 77.9 1313.9 68.5 1322.3 60C1322.7 59.6 1323.1 59.1 1323.5 58.7L1326.2 61.5C1326.4 61.7 1326.7 61.8 1326.9 61.8C1327.1 61.8 1327.4 61.7 1327.6 61.5C1328 61.1 1328 60.5 1327.6 60.1L1324.8 57.2C1330.9 50.4 1335.4 43.2 1338.4 36.5C1350.9 50.1 1372.7 64 1399.8 68.2L1400.8 71.9C1400.9 72.3 1401.3 72.6 1401.8 72.6C1401.9 72.6 1402 72.6 1402.1 72.6C1402.6 72.5 1402.9 71.9 1402.8 71.4L1402 68.5C1406.6 69.1 1411.4 69.5 1416.3 69.5C1420.4 69.5 1424.6 69.3 1428.9 68.8C1441.5 67.3 1452.1 63.9 1461 59.3L1462.9 62.7C1463.1 63 1463.4 63.2 1463.8 63.2C1464 63.2 1464.1 63.2 1464.3 63.1C1464.8 62.8 1464.9 62.2 1464.7 61.7L1462.8 58.4C1491.1 43 1501.2 15.8 1502.5 4.89999L1500 4.79999ZM1162.8 21.4C1160.8 11.4 1163.5 5.59999 1166.7 3.49999C1167.7 2.79999 1168.8 2.49999 1169.9 2.49999C1170.9 2.49999 1171.8 2.79999 1172.6 3.29999C1175.2 4.99999 1176.3 8.99999 1175.3 14C1173.8 22 1170.6 28.8 1166.6 34.6C1165 30.5 1163.8 26.1 1162.8 21.4ZM1337.4 33C1333.5 28.3 1330.6 23.6 1329.1 19.3C1326.9 12.6 1327.2 6.99999 1329.9 4.29999C1330.7 3.49999 1331.8 3.09999 1332.9 3.09999C1333.4 3.09999 1334 3.19999 1334.5 3.39999C1337.1 4.39999 1340.1 7.99999 1340.6 15.2C1341.1 20.9 1339.8 27 1337.4 33ZM1106 74.7C1104.4 75.1 1102.3 75.4 1100.1 75.4C1097.8 75.4 1095.6 75.1 1094.3 74.3L1094.7 73.7C1096.7 75 1102.2 75 1105.7 74.1C1107 73.8 1107.9 73.3 1108.1 72.9L1108.8 73.2C1108.6 73.7 1107.6 74.3 1106 74.7ZM1109.8 85.1L1110.2 85.7C1108.6 86.7 1104.6 87.4 1100.6 87.4C1098.1 87.4 1095.5 87.1 1093.6 86.4L1093.9 85.7C1098.6 87.5 1107.4 86.6 1109.8 85.1ZM1044.6 65.9L1045 66.5C1044.7 66.7 1044.3 66.8 1043.7 66.8C1043.2 66.8 1042.5 66.7 1041.7 66.5C1038.4 65.7 1033.1 63 1031.8 60.5L1032.5 60.2C1033.6 62.3 1038.5 65 1042 65.8C1043.2 66.1 1044.2 66.1 1044.6 65.9ZM1040.1 77.4V78.1C1040 78.1 1040 78.1 1039.9 78.1C1036.7 78.1 1028.6 74.6 1025.2 70.7L1025.8 70.2C1029.1 74.1 1037.2 77.5 1040.1 77.4ZM1180.1 61.9L1180.5 62.5C1180.2 62.7 1179.8 62.8 1179.2 62.8C1178.7 62.8 1178 62.7 1177.2 62.5C1173.9 61.7 1168.6 59 1167.3 56.5L1168 56.2C1169.1 58.3 1174 61 1177.5 61.8C1178.7 62.1 1179.7 62.1 1180.1 61.9ZM1175.5 73.5V74.2C1175.4 74.2 1175.4 74.2 1175.3 74.2C1172.1 74.2 1164 70.7 1160.6 66.8L1161.2 66.3C1164.6 70.1 1172.7 73.6 1175.5 73.5ZM1225.4 87.6L1226 88.1C1225.5 88.7 1224.5 89 1222.9 89C1222.7 89 1222.5 89 1222.3 89C1218.9 89 1213.5 87.9 1211.7 86L1212.2 85.5C1213.8 87.2 1219.3 88.4 1222.9 88.2C1224.2 88.2 1225.2 87.9 1225.4 87.6ZM1224.3 100L1224.5 100.7C1223.8 100.9 1222.7 101.1 1221.4 101.1C1217.4 101.1 1211.5 100 1208.2 97.8L1208.6 97.2C1212.9 99.9 1221.6 100.9 1224.3 100ZM1288.3 89C1285.9 90.3 1281.8 91.6 1278.9 91.6C1278.1 91.6 1277.5 91.5 1276.9 91.3L1277.2 90.6C1279.4 91.4 1284.8 90 1288 88.3C1289.2 87.7 1289.9 87 1290 86.6L1290.7 86.8C1290.5 87.5 1289.7 88.2 1288.3 89ZM1294.5 98.2L1295 98.7C1293 100.7 1285.8 103.4 1280.5 103.4C1280 103.4 1279.5 103.4 1279.1 103.3L1279.2 102.6C1284.2 103.2 1292.5 100.3 1294.5 98.2ZM1331.8 61.1C1329.5 63.5 1324.6 66.7 1321.8 66.7C1321.7 66.7 1321.7 66.7 1321.6 66.7V66C1324 66.1 1328.7 63.2 1331.2 60.6C1332.1 59.6 1332.7 58.8 1332.6 58.3L1333.3 58.2C1333.5 59 1332.9 59.9 1331.8 61.1ZM1340.5 68L1341.2 68.3C1339.8 71 1332.6 76.5 1327.4 77.5L1327.3 76.8C1332.1 75.9 1339.1 70.6 1340.5 68ZM1399.1 75.4C1397.2 75.4 1395.4 75.1 1394.3 74.5L1394.7 73.9C1396.7 75.1 1402.3 74.8 1405.7 73.8C1407 73.4 1407.8 72.9 1408 72.5L1408.7 72.8C1408.4 73.5 1407.5 74 1405.9 74.5C1404.1 75 1401.5 75.4 1399.1 75.4ZM1410.2 84.6L1410.6 85.2C1408.9 86.4 1404.2 87.4 1399.8 87.4C1397.7 87.4 1395.7 87.2 1394.1 86.7L1394.3 86C1399.1 87.5 1407.8 86.2 1410.2 84.6ZM1468.3 63.7C1465.9 65.2 1461.5 66.9 1458.5 66.9C1458 66.9 1457.5 66.8 1457 66.7L1457.2 66C1459.5 66.7 1464.8 65 1467.8 63.1C1468.9 62.4 1469.7 61.7 1469.7 61.2L1470.4 61.3C1470.5 62.1 1469.7 62.9 1468.3 63.7ZM1475.1 72.5L1475.7 73C1473.8 75.2 1466 78.6 1460.7 78.6C1460.5 78.6 1460.3 78.6 1460.1 78.6V77.9C1465 78.1 1473.2 74.7 1475.1 72.5Z" fill="black"/>
</g>
<g clip-path="url(#clip3_68_1818)">
<path d="M1671 93.1C1664.5 105.5 1652.2 111.9 1648.7 110.1C1645.2 108.3 1643.4 94.5 1649.8 82.1C1656.2 69.7 1666.3 62.1 1672.1 65.1C1678 68.1 1677.5 80.7 1671 93.1ZM1832 67.7C1826.4 71.3 1828.1 83.7 1835.6 95.5C1843.2 107.3 1856 112.6 1859.4 110.4C1862.8 108.2 1863.3 94.4 1855.8 82.6C1848.2 70.8 1837.6 64.1 1832 67.7Z" fill="#087C45"/>
<path d="M1615.5 105C1615.8 119 1608.2 130.6 1604.2 130.7C1600.2 130.8 1592 119.6 1591.6 105.6C1591.3 91.6 1596.3 80.1 1602.9 79.9C1609.5 79.7 1615.2 91 1615.5 105ZM1786.6 95.1C1780.2 96.8 1778.1 109.2 1781.7 122.7C1785.4 136.2 1796.1 145.1 1799.9 144.1C1803.7 143.1 1808.4 130 1804.8 116.5C1801.1 102.9 1793 93.3 1786.6 95.1ZM1903.1 79.8C1896.5 80.2 1891.9 92 1892.9 106C1893.9 120 1902.6 130.8 1906.6 130.5C1910.6 130.2 1917.8 118.3 1916.8 104.3C1915.8 90.3 1909.7 79.3 1903.1 79.8Z" fill="#FCA838"/>
<path d="M1535.5 97.1C1529 109.5 1516.7 115.9 1513.2 114.1C1509.7 112.3 1507.9 98.5 1514.3 86.1C1520.7 73.7 1530.8 66.1 1536.6 69.1C1542.5 72.1 1542 84.7 1535.5 97.1ZM1718.8 93.2C1712.3 91.9 1704.9 102 1702.2 115.8C1699.5 129.6 1705.1 142.3 1709 143C1712.9 143.8 1722.9 134.2 1725.6 120.4C1728.3 106.6 1725.3 94.5 1718.8 93.2ZM1967 69.9C1960.7 72 1959.3 84.5 1963.8 97.8C1968.3 111.1 1979.4 119.3 1983.2 118.1C1987 116.8 1990.9 103.5 1986.4 90.2C1981.9 76.9 1973.3 67.8 1967 69.9Z" fill="#BF1C06"/>
<path d="M1609.5 72.9L1611 85.4C1607 87.4 1598.4 87.8 1594.8 86.1L1595.6 73.9C1598.6 71.9 1605.6 70.9 1609.5 72.9ZM1599.9 121.6C1599.2 122 1599.1 123.3 1599.8 124.5C1600.5 125.7 1601.6 126.3 1602.3 125.9C1603 125.5 1603.1 124.2 1602.4 123C1601.7 121.7 1600.6 121.1 1599.9 121.6ZM1598.5 91.2C1598.7 90.7 1598.4 90.1 1597.9 89.9C1597.4 89.7 1596.8 90 1596.6 90.5C1595.8 93 1592.4 107.8 1596.6 117.2C1596.8 117.6 1597.1 117.8 1597.5 117.8C1597.6 117.8 1597.8 117.8 1597.9 117.7C1598.4 117.5 1598.6 116.9 1598.4 116.4C1594.9 108.4 1597.3 94.9 1598.5 91.2ZM1533.1 60.3L1526.5 70.5C1528.9 73.8 1536.6 77.6 1541 77.8L1545.7 66.2C1543.3 62.5 1536.7 60 1533.1 60.3ZM1513.8 104C1513 104 1512.3 105.1 1512.3 106.5C1512.3 107.8 1513 108.9 1513.9 108.9C1514.7 108.9 1515.4 107.8 1515.4 106.4C1515.4 105.1 1514.7 104 1513.8 104ZM1526 75.3C1524 77.1 1513.9 88.4 1513.1 98.7C1513.1 99.1 1513.3 99.5 1513.6 99.7C1513.7 99.8 1513.9 99.8 1514 99.8C1514.5 99.8 1515 99.4 1515.1 98.9C1515.8 90.1 1524.5 79.5 1527.4 76.8C1527.8 76.4 1527.8 75.8 1527.5 75.4C1527.1 75 1526.4 75 1526 75.3ZM1668.6 56.3L1662 66.5C1664.4 69.8 1672.1 73.6 1676.5 73.8L1681.2 62.2C1678.8 58.5 1672.2 56 1668.6 56.3ZM1649.3 100C1648.5 100 1647.8 101.1 1647.8 102.5C1647.8 103.8 1648.5 104.9 1649.4 104.9C1650.2 104.9 1650.9 103.8 1650.9 102.4C1650.8 101.1 1650.1 100 1649.3 100ZM1661.5 71.3C1659.5 73.1 1649.4 84.4 1648.6 94.7C1648.6 95.1 1648.8 95.5 1649.1 95.7C1649.2 95.8 1649.4 95.8 1649.5 95.8C1650 95.8 1650.5 95.4 1650.6 94.9C1651.3 86.1 1660 75.5 1662.9 72.8C1663.3 72.4 1663.3 71.8 1663 71.4C1662.5 71 1661.9 71 1661.5 71.3ZM1712.9 85.8L1709.5 97.5C1712.7 100 1721.2 101.4 1725.5 100.4L1726.8 87.9C1723.3 85 1716.3 84.5 1712.9 85.8ZM1706.7 133.2C1705.9 133.5 1705.6 134.7 1706 136C1706.4 137.3 1707.4 138.1 1708.2 137.9C1709 137.6 1709.3 136.4 1708.9 135.1C1708.5 133.8 1707.5 132.9 1706.7 133.2ZM1711.7 101.9C1711.2 101.6 1710.6 101.8 1710.3 102.2C1708.9 104.5 1702.4 118.2 1704.5 128.3C1704.6 128.7 1704.9 129 1705.3 129.1C1705.4 129.1 1705.6 129.1 1705.7 129.1C1706.2 129 1706.6 128.5 1706.5 127.9C1704.7 119.2 1710 106.6 1712 103.2C1712.3 102.8 1712.2 102.1 1711.7 101.9ZM1791.3 86.7C1787 85.7 1780.4 88.3 1778 91L1780.1 103C1784.1 103.8 1792.3 101.3 1795.7 98.5L1791.3 86.7ZM1793.5 136.2C1792.9 136.8 1793.2 138 1794.1 139C1795 140 1796.3 140.3 1796.9 139.7C1797.5 139.1 1797.2 137.9 1796.3 136.9C1795.4 135.9 1794.2 135.7 1793.5 136.2ZM1785 107.1C1785 106.6 1784.6 106.1 1784.1 106C1783.5 106 1783.1 106.4 1783 106.9C1782.8 109.5 1783 124.7 1789.4 132.9C1789.6 133.2 1790.1 133.3 1790.4 133.3C1790.5 133.3 1790.7 133.2 1790.8 133.1C1791.2 132.8 1791.3 132.1 1791 131.7C1785.6 124.7 1784.7 111 1785 107.1ZM1841.8 68.2L1834.1 58.3C1829.7 58.7 1824.2 63.1 1822.7 66.4L1828.3 77.2C1832.3 76.8 1839.4 71.9 1841.8 68.2ZM1853.9 104.7C1852.7 104.1 1851.4 104.1 1851 104.9C1850.6 105.6 1851.2 106.8 1852.4 107.4C1853.6 108 1854.9 108 1855.3 107.2C1855.7 106.5 1855 105.4 1853.9 104.7ZM1834.1 79.6C1834 79.1 1833.4 78.7 1832.9 78.8C1832.4 78.9 1832 79.5 1832.1 80C1832.7 82.6 1837.5 97 1846 102.8C1846.3 103 1846.8 103 1847.1 102.8C1847.2 102.7 1847.3 102.6 1847.4 102.5C1847.7 102 1847.6 101.4 1847.1 101.1C1839.9 96.2 1835 83.5 1834.1 79.6ZM1895.5 74.1L1895.2 86.3C1898.9 87.8 1907.5 87 1911.4 84.9L1909.4 72.5C1905.3 70.7 1898.4 72 1895.5 74.1ZM1901.8 121.5C1901.1 122 1901.1 123.2 1901.8 124.4C1902.5 125.5 1903.7 126.1 1904.4 125.6C1905.1 125.1 1905.1 123.9 1904.4 122.7C1903.7 121.6 1902.5 121.1 1901.8 121.5ZM1899.2 91.2C1899.4 90.7 1899 90.1 1898.5 90C1898 89.8 1897.4 90.2 1897.3 90.7C1896.6 93.3 1893.8 108.2 1898.5 117.4C1898.7 117.8 1899.1 118 1899.4 117.9C1899.5 117.9 1899.7 117.9 1899.8 117.8C1900.3 117.6 1900.5 117 1900.2 116.5C1896.3 108.6 1898.1 95 1899.2 91.2ZM1971.2 61.3C1966.8 60.6 1960.4 63.6 1958.2 66.4L1961 78.3C1965 78.8 1973.1 75.9 1976.3 72.9L1971.2 61.3ZM1979.2 111.1C1978.2 110.2 1976.9 109.9 1976.4 110.6C1975.8 111.2 1976.2 112.5 1977.2 113.4C1978.2 114.3 1979.5 114.6 1980 113.9C1980.5 113.3 1980.1 112.1 1979.2 111.1ZM1966.1 82C1966.1 81.4 1965.7 81 1965.1 81C1964.5 81 1964.1 81.4 1964.1 82C1964 84.7 1965.2 99.8 1972 107.5C1972.3 107.8 1972.7 107.9 1973 107.8C1973.1 107.8 1973.3 107.7 1973.4 107.6C1973.8 107.2 1973.9 106.6 1973.5 106.2C1967.7 99.5 1966 85.9 1966.1 82Z" fill="#D4E1F4"/>
<path d="M2001 4.79999C1999.3 19 1982.5 60.8 1929.2 67C1906.6 69.6 1883 64.7 1862.9 53.1C1853.8 47.9 1845.8 41.4 1839.9 34.8C1842.9 27.3 1844 20.4 1843.6 15.1C1843.1 8.19999 1840.3 3.19999 1836.2 1.59999C1833.8 0.699986 1831.3 1.19999 1829.5 2.89999C1826.2 6.09999 1825.7 12.4 1828.2 19.9C1829.7 24.4 1832.9 29.7 1837.5 35C1833.6 44 1827.5 52.6 1821.4 58.8C1808.7 71.7 1785.8 86.5 1748.4 84.2C1728.8 83 1685 75.8 1668.4 36.7C1673 30.5 1676.5 23.2 1678.2 14.3C1679.3 8.49999 1678 3.79999 1674.6 1.59999C1672.2 -1.39475e-05 1669.1 0.099986 1666.5 1.79999C1661.7 4.99999 1660 12.5 1661.8 21.8C1662.6 26 1664 31 1666.2 36.3C1658.4 46.5 1647.6 53.1 1638.4 57.3C1620.8 65.2 1598.1 68.8 1577.7 67C1542.6 63.8 1514 39.8 1504.9 5.79999L1503 6.29999C1508.8 28.1 1522.5 45.9 1540.9 57C1540.7 57.1 1540.6 57.3 1540.5 57.5L1539.3 61.6C1539.1 62.1 1539.4 62.7 1540 62.8C1540.1 62.8 1540.2 62.8 1540.3 62.8C1540.7 62.8 1541.1 62.5 1541.3 62.1L1542.5 58C1542.5 57.9 1542.5 57.9 1542.5 57.8C1553 63.8 1564.9 67.7 1577.7 68.8C1585.3 69.5 1593.2 69.4 1601 68.7L1601.7 72C1601.8 72.5 1602.2 72.8 1602.7 72.8C1602.8 72.8 1602.8 72.8 1602.9 72.8C1603.4 72.7 1603.8 72.1 1603.7 71.6L1603 68.5C1615.9 67.1 1628.6 63.8 1639.4 59C1648.6 54.8 1659.3 48.3 1667.3 38.3C1669.5 43.2 1672.4 48.2 1676.2 53.2C1676.1 53.3 1676.1 53.4 1676.1 53.5L1674.9 57.6C1674.7 58.1 1675 58.7 1675.6 58.8C1675.7 58.8 1675.8 58.8 1675.9 58.8C1676.3 58.8 1676.7 58.5 1676.9 58.1L1677.8 55C1679.7 57.4 1681.9 59.7 1684.3 61.9C1693.7 70.7 1705.4 77.1 1719.4 81.1V85.1C1719.4 85.7 1719.8 86.1 1720.4 86.1C1720.9 86.1 1721.4 85.7 1721.4 85.1V81.6C1729.7 83.9 1738.8 85.3 1748.6 85.9C1751.3 86.1 1753.9 86.1 1756.5 86.1C1765.9 86.1 1774.3 85 1781.8 83.2C1781.8 83.4 1781.8 83.6 1781.9 83.7L1783.8 87.5C1784 87.9 1784.3 88.1 1784.7 88.1C1784.8 88.1 1785 88.1 1785.1 88C1785.6 87.8 1785.8 87.2 1785.6 86.7L1783.7 82.9L1783.6 82.8C1802 77.9 1814.9 68.5 1823.3 60C1823.7 59.6 1824.1 59.1 1824.5 58.7L1827.2 61.5C1827.4 61.7 1827.7 61.8 1827.9 61.8C1828.1 61.8 1828.4 61.7 1828.6 61.5C1829 61.1 1829 60.5 1828.6 60.1L1825.8 57.2C1831.9 50.4 1836.4 43.2 1839.4 36.5C1851.9 50.1 1873.7 64 1900.8 68.2L1901.8 71.9C1901.9 72.3 1902.3 72.6 1902.8 72.6C1902.9 72.6 1903 72.6 1903.1 72.6C1903.6 72.5 1903.9 71.9 1903.8 71.4L1903 68.5C1907.6 69.1 1912.4 69.5 1917.3 69.5C1921.4 69.5 1925.6 69.3 1929.9 68.8C1942.5 67.3 1953.1 63.9 1962 59.3L1963.9 62.7C1964.1 63 1964.4 63.2 1964.8 63.2C1965 63.2 1965.1 63.2 1965.3 63.1C1965.8 62.8 1965.9 62.2 1965.7 61.7L1963.8 58.4C1992.1 43 2002.2 15.8 2003.5 4.89999L2001 4.79999ZM1663.8 21.4C1661.8 11.4 1664.5 5.59999 1667.7 3.49999C1668.7 2.79999 1669.8 2.49999 1670.9 2.49999C1671.9 2.49999 1672.8 2.79999 1673.6 3.29999C1676.2 4.99999 1677.3 8.99999 1676.3 14C1674.8 22 1671.6 28.8 1667.6 34.6C1666 30.5 1664.8 26.1 1663.8 21.4ZM1838.4 33C1834.5 28.3 1831.6 23.6 1830.1 19.3C1827.9 12.6 1828.2 6.99999 1830.9 4.29999C1831.7 3.49999 1832.8 3.09999 1833.9 3.09999C1834.4 3.09999 1835 3.19999 1835.5 3.39999C1838.1 4.39999 1841.1 7.99999 1841.6 15.2C1842.1 20.9 1840.8 27 1838.4 33ZM1607 74.7C1605.4 75.1 1603.3 75.4 1601.1 75.4C1598.8 75.4 1596.6 75.1 1595.3 74.3L1595.7 73.7C1597.7 75 1603.2 75 1606.7 74.1C1608 73.8 1608.9 73.3 1609.1 72.9L1609.8 73.2C1609.6 73.7 1608.6 74.3 1607 74.7ZM1610.8 85.1L1611.2 85.7C1609.6 86.7 1605.6 87.4 1601.6 87.4C1599.1 87.4 1596.5 87.1 1594.6 86.4L1594.9 85.7C1599.6 87.5 1608.4 86.6 1610.8 85.1ZM1545.6 65.9L1546 66.5C1545.7 66.7 1545.3 66.8 1544.7 66.8C1544.2 66.8 1543.5 66.7 1542.7 66.5C1539.4 65.7 1534.1 63 1532.8 60.5L1533.5 60.2C1534.6 62.3 1539.5 65 1543 65.8C1544.2 66.1 1545.2 66.1 1545.6 65.9ZM1541.1 77.4V78.1C1541 78.1 1541 78.1 1540.9 78.1C1537.7 78.1 1529.6 74.6 1526.2 70.7L1526.8 70.2C1530.1 74.1 1538.2 77.5 1541.1 77.4ZM1681.1 61.9L1681.5 62.5C1681.2 62.7 1680.8 62.8 1680.2 62.8C1679.7 62.8 1679 62.7 1678.2 62.5C1674.9 61.7 1669.6 59 1668.3 56.5L1669 56.2C1670.1 58.3 1675 61 1678.5 61.8C1679.7 62.1 1680.7 62.1 1681.1 61.9ZM1676.5 73.5V74.2C1676.4 74.2 1676.4 74.2 1676.3 74.2C1673.1 74.2 1665 70.7 1661.6 66.8L1662.2 66.3C1665.6 70.1 1673.7 73.6 1676.5 73.5ZM1726.4 87.6L1727 88.1C1726.5 88.7 1725.5 89 1723.9 89C1723.7 89 1723.5 89 1723.3 89C1719.9 89 1714.5 87.9 1712.7 86L1713.2 85.5C1714.8 87.2 1720.3 88.4 1723.9 88.2C1725.2 88.2 1726.2 87.9 1726.4 87.6ZM1725.3 100L1725.5 100.7C1724.8 100.9 1723.7 101.1 1722.4 101.1C1718.4 101.1 1712.5 100 1709.2 97.8L1709.6 97.2C1713.9 99.9 1722.6 100.9 1725.3 100ZM1789.3 89C1786.9 90.3 1782.8 91.6 1779.9 91.6C1779.1 91.6 1778.5 91.5 1777.9 91.3L1778.2 90.6C1780.4 91.4 1785.8 90 1789 88.3C1790.2 87.7 1790.9 87 1791 86.6L1791.7 86.8C1791.5 87.5 1790.7 88.2 1789.3 89ZM1795.5 98.2L1796 98.7C1794 100.7 1786.8 103.4 1781.5 103.4C1781 103.4 1780.5 103.4 1780.1 103.3L1780.2 102.6C1785.2 103.2 1793.5 100.3 1795.5 98.2ZM1832.8 61.1C1830.5 63.5 1825.6 66.7 1822.8 66.7C1822.7 66.7 1822.7 66.7 1822.6 66.7V66C1825 66.1 1829.7 63.2 1832.2 60.6C1833.1 59.6 1833.7 58.8 1833.6 58.3L1834.3 58.2C1834.5 59 1833.9 59.9 1832.8 61.1ZM1841.5 68L1842.2 68.3C1840.8 71 1833.6 76.5 1828.4 77.5L1828.3 76.8C1833.1 75.9 1840.1 70.6 1841.5 68ZM1900.1 75.4C1898.2 75.4 1896.4 75.1 1895.3 74.5L1895.7 73.9C1897.7 75.1 1903.3 74.8 1906.7 73.8C1908 73.4 1908.8 72.9 1909 72.5L1909.7 72.8C1909.4 73.5 1908.5 74 1906.9 74.5C1905.1 75 1902.5 75.4 1900.1 75.4ZM1911.2 84.6L1911.6 85.2C1909.9 86.4 1905.2 87.4 1900.8 87.4C1898.7 87.4 1896.7 87.2 1895.1 86.7L1895.3 86C1900.1 87.5 1908.8 86.2 1911.2 84.6ZM1969.3 63.7C1966.9 65.2 1962.5 66.9 1959.5 66.9C1959 66.9 1958.5 66.8 1958 66.7L1958.2 66C1960.5 66.7 1965.8 65 1968.8 63.1C1969.9 62.4 1970.7 61.7 1970.7 61.2L1971.4 61.3C1971.5 62.1 1970.7 62.9 1969.3 63.7ZM1976.1 72.5L1976.7 73C1974.8 75.2 1967 78.6 1961.7 78.6C1961.5 78.6 1961.3 78.6 1961.1 78.6V77.9C1966 78.1 1974.2 74.7 1976.1 72.5Z" fill="black"/>
</g>
<defs>
<clipPath id="clip0_68_1818">
<rect width="500.5" height="145.1" fill="white"/>
</clipPath>
<clipPath id="clip1_68_1818">
<rect width="500.5" height="145.1" fill="white" transform="translate(501)"/>
</clipPath>
<clipPath id="clip2_68_1818">
<rect width="500.5" height="145.1" fill="white" transform="translate(1002)"/>
</clipPath>
<clipPath id="clip3_68_1818">
<rect width="500.5" height="145.1" fill="white" transform="translate(1503)"/>
</clipPath>
</defs>
</svg>
