<svg width="1651" height="193" viewBox="0 0 1651 193" fill="none" xmlns="http://www.w3.org/2000/svg">
<path d="M607.5 75.4164C517.728 99.8616 469.269 104.056 390 75.4164C372.151 63.0073 355.223 52.2356 339 43.0381C217.15 -26.044 135.064 -6.31908 1 75.4164V192.417H1918.5V75.4164C1890.84 53.5732 1869.64 44.7286 1844.5 49.7444C1828.86 52.8655 1811.69 61.3536 1790.5 75.4164C1715.91 101.924 1674.1 101.352 1599.5 75.4164C1579.32 62.8994 1560.33 52.1241 1542.26 43.0381C1438.91 -8.90616 1365.33 -5.63972 1268.33 43.0381C1250.01 52.2327 1230.85 63.0474 1210.5 75.4164C1101.64 117.367 1039.24 116.977 930.5 75.4164C909.472 62.1092 889.985 51.3757 871.524 43.0381C800.534 10.9773 744.722 14.3449 674.896 43.0381C653.954 51.6437 631.751 62.5273 607.5 75.4164Z" fill="#DFDFDF" stroke="black"/>
</svg>
