<?xml version="1.0" encoding="UTF-8"?><svg xmlns="http://www.w3.org/2000/svg" xmlns:xlink="http://www.w3.org/1999/xlink" data-name="Layer 1" height="460.8" preserveAspectRatio="xMidYMid meet" version="1.0" viewBox="0.7 5.7 498.3 460.8" width="498.3" zoomAndPan="magnify"><g id="change1_1"><path d="M426.753,402.675c0,1.56.842,2.823,1.882,2.823s1.882-1.263,1.882-2.823-.843-2.823-1.882-2.823S426.753,401.116,426.753,402.675Z" fill="#fff"/></g><g id="change1_2"><path d="M454.229,465.066c0,.78.421,1.412.941,1.412s.941-.632.941-1.412-.422-1.411-.941-1.411S454.229,464.287,454.229,465.066Z" fill="#fff"/></g><g id="change1_3"><ellipse cx="362.09" cy="401.606" fill="#fff" rx="1.129" ry="1.694"/></g><g id="change1_4"><ellipse cx="336.827" cy="440.001" fill="#fff" rx="1.694" ry="2.541"/></g><g id="change1_5"><path d="M102.323,400.78c0,2.339-1.264,4.235-2.823,4.235s-2.823-1.9-2.823-4.235,1.264-4.235,2.823-4.235S102.323,398.441,102.323,400.78Z" fill="#fff"/></g><g id="change1_6"><path d="M150.5,431.27c0,.779.421,1.411.941,1.411s.941-.632.941-1.411-.421-1.412-.941-1.412S150.5,430.49,150.5,431.27Z" fill="#fff"/></g><g id="change1_7"><path d="M51.135,350.872c0,.936-.506,1.694-1.129,1.694s-1.129-.758-1.129-1.694.5-1.693,1.129-1.693S51.135,349.937,51.135,350.872Z" fill="#fff"/></g><g id="change1_8"><ellipse cx="478.007" cy="372.687" fill="#fff" rx="1.129" ry="1.694"/></g><g id="change1_9"><ellipse cx="484.593" cy="443.548" fill="#fff" rx="1.694" ry="2.541"/></g><g id="change1_10"><ellipse cx="300.595" cy="426.027" fill="#fff" rx="2.235" ry="3.352"/></g><g id="change1_11"><ellipse cx="247.568" cy="405.92" fill="#fff" rx="1.882" ry="2.823"/></g><g id="change1_12"><path d="M224.986,437.821c0,2.339-1.264,4.235-2.823,4.235s-2.823-1.9-2.823-4.235,1.264-4.235,2.823-4.235S224.986,435.482,224.986,437.821Z" fill="#fff"/></g><g id="change1_13"><path d="M186.1,391.238c0,.935-.506,1.694-1.129,1.694s-1.129-.759-1.129-1.694.5-1.694,1.129-1.694S186.1,390.3,186.1,391.238Z" fill="#fff"/></g><g id="change1_14"><path d="M165.589,300.438c0,1.559.843,2.823,1.882,2.823s1.882-1.264,1.882-2.823-.843-2.823-1.882-2.823S165.589,298.879,165.589,300.438Z" fill="#fff"/></g><g id="change1_15"><ellipse cx="390.058" cy="380.863" fill="#fff" rx="1.882" ry="2.823"/></g><g id="change1_16"><ellipse cx="341.407" cy="366.57" fill="#fff" rx="2.823" ry="4.235"/></g><g id="change1_17"><ellipse cx="252.198" cy="372.287" fill="#fff" rx="1.662" ry="2.493"/></g><g id="change1_18"><path d="M193.065,362.829c0,.779.421,1.411.941,1.411s.941-.632.941-1.411-.421-1.412-.941-1.412S193.065,362.049,193.065,362.829Z" fill="#fff"/></g><g id="change1_19"><path d="M151.663,398.118c0-1.248-.674-2.259-1.505-2.259s-1.506,1.011-1.506,2.259.674,2.258,1.506,2.258S151.663,399.365,151.663,398.118Z" fill="#fff"/></g><g id="change1_20"><path d="M93.7,299.309c0,.935-.506,1.693-1.129,1.693s-1.129-.758-1.129-1.693.5-1.694,1.129-1.694S93.7,298.373,93.7,299.309Z" fill="#fff"/></g><g id="change1_21"><path d="M95.771,349.178c0,1.4.758,2.541,1.694,2.541s1.693-1.137,1.693-2.541-.758-2.54-1.693-2.54S95.771,347.775,95.771,349.178Z" fill="#fff"/></g><g id="change1_22"><ellipse cx="388.248" cy="99.807" fill="#fff" rx="1.882" ry="2.823"/></g><g id="change1_23"><path d="M413.842,154.851c0,.78.421,1.412.941,1.412s.941-.632.941-1.412-.421-1.412-.941-1.412S413.842,154.071,413.842,154.851Z" fill="#fff"/></g><g id="change1_24"><ellipse cx="370.935" cy="190.14" fill="#fff" rx="1.506" ry="2.258"/></g><g id="change1_25"><path d="M314.478,91.331c0,.935-.506,1.694-1.129,1.694s-1.129-.759-1.129-1.694.5-1.694,1.129-1.694S314.478,90.4,314.478,91.331Z" fill="#fff"/></g><g id="change1_26"><ellipse cx="296.44" cy="129.785" fill="#fff" rx="1.694" ry="2.541"/></g><g id="change1_27"><path d="M82.637,58.663c0,1.56.842,2.824,1.882,2.824S86.4,60.223,86.4,58.663s-.843-2.823-1.882-2.823S82.637,57.1,82.637,58.663Z" fill="#fff"/></g><g id="change1_28"><path d="M61.936,90.565c0,2.338-1.264,4.234-2.823,4.234s-2.823-1.9-2.823-4.234,1.264-4.235,2.823-4.235S61.936,88.226,61.936,90.565Z" fill="#fff"/></g><g id="change1_29"><path d="M110.113,121.054c0,.78.421,1.412.94,1.412s.941-.632.941-1.412-.421-1.411-.941-1.411S110.113,120.275,110.113,121.054Z" fill="#fff"/></g><g id="change1_30"><path d="M68.711,156.343c0-1.247-.674-2.258-1.506-2.258s-1.5,1.011-1.5,2.258.674,2.259,1.5,2.259S68.711,157.591,68.711,156.343Z" fill="#fff"/></g><g id="change1_31"><ellipse cx="9.619" cy="57.534" fill="#fff" rx="1.129" ry="1.694"/></g><g id="change1_32"><ellipse cx="16.206" cy="128.395" fill="#fff" rx="1.694" ry="2.541"/></g><g id="change1_33"><path d="M489.937,95.5c0,2.339-1.264,4.235-2.823,4.235s-2.823-1.9-2.823-4.235,1.264-4.234,2.823-4.234S489.937,93.164,489.937,95.5Z" fill="#fff"/></g><g id="change1_34"><path d="M461.7,191.76c0,2.339-1.263,4.235-2.822,4.235s-2.823-1.9-2.823-4.235,1.264-4.235,2.823-4.235S461.7,189.421,461.7,191.76Z" fill="#fff"/></g><g id="change1_35"><ellipse cx="495.206" cy="161.281" fill="#fff" rx="1.506" ry="2.258"/></g><g id="change1_36"><path d="M438.749,62.472c0,.935-.5,1.694-1.129,1.694s-1.129-.759-1.129-1.694.506-1.694,1.129-1.694S438.749,61.536,438.749,62.472Z" fill="#fff"/></g><g id="change1_37"><ellipse cx="444.207" cy="133.332" fill="#fff" rx="1.694" ry="2.541"/></g><g id="change1_38"><path d="M270.531,89.176c0,2.338-1.264,4.234-2.823,4.234s-2.823-1.9-2.823-4.234,1.264-4.235,2.823-4.235S270.531,86.837,270.531,89.176Z" fill="#fff"/></g><g id="change1_39"><path d="M25.774,170c0,1.559.842,2.823,1.882,2.823s1.882-1.264,1.882-2.823-.843-2.823-1.882-2.823S25.774,168.441,25.774,170Z" fill="#fff"/></g><g id="change1_40"><ellipse cx="3.541" cy="201.902" fill="#fff" rx="2.823" ry="4.235"/></g><g id="change1_41"><path d="M53.25,232.391c0,.78.421,1.412.941,1.412s.94-.632.94-1.412-.421-1.411-.94-1.411S53.25,231.612,53.25,232.391Z" fill="#fff"/></g><g id="change1_42"><path d="M338.873,205.956c0,1.559.843,2.823,1.882,2.823s1.882-1.264,1.882-2.823-.843-2.823-1.882-2.823S338.873,204.4,338.873,205.956Z" fill="#fff"/></g><g id="change1_43"><path d="M227.591,220.268c0,2.339-1.264,4.235-2.823,4.235s-2.823-1.9-2.823-4.235,1.264-4.235,2.823-4.235S227.591,217.929,227.591,220.268Z" fill="#fff"/></g><g id="change1_44"><path d="M275.263,183.547c0,.935-.5,1.694-1.129,1.694s-1.129-.759-1.129-1.694.5-1.694,1.129-1.694S275.263,182.611,275.263,183.547Z" fill="#fff"/></g><g id="change1_45"><ellipse cx="207.182" cy="95.704" fill="#fff" rx="1.882" ry="2.823"/></g><g id="change1_46"><path d="M184.6,127.606c0,2.338-1.264,4.234-2.823,4.234s-2.823-1.9-2.823-4.234,1.264-4.235,2.823-4.235S184.6,125.267,184.6,127.606Z" fill="#fff"/></g><g id="change1_47"><path d="M232.776,158.1c0,.78.421,1.412.941,1.412s.941-.632.941-1.412-.422-1.411-.941-1.411S232.776,157.316,232.776,158.1Z" fill="#fff"/></g><g id="change1_48"><ellipse cx="189.868" cy="193.384" fill="#fff" rx="1.506" ry="2.259"/></g><g id="change1_49"><path d="M133.411,94.575c0,.936-.5,1.694-1.129,1.694s-1.129-.758-1.129-1.694.506-1.694,1.129-1.694S133.411,93.64,133.411,94.575Z" fill="#fff"/></g><g id="change1_50"><ellipse cx="138.869" cy="165.435" fill="#fff" rx="1.694" ry="2.541"/></g><g id="change1_51"><path d="M347.789,70.648c0,1.559.843,2.823,1.882,2.823s1.882-1.264,1.882-2.823-.842-2.823-1.882-2.823S347.789,69.089,347.789,70.648Z" fill="#fff"/></g><g id="change1_52"><path d="M104.5,22.124c0,2.338-1.264,4.234-2.823,4.234s-2.823-1.9-2.823-4.234,1.264-4.235,2.823-4.235S104.5,19.785,104.5,22.124Z" fill="#fff"/></g><g id="change1_53"><ellipse cx="301.02" cy="56.355" fill="#fff" rx="2.823" ry="4.235"/></g><g id="change1_54"><path d="M214.634,62.072c0,2.339-1.263,4.234-2.822,4.234s-2.823-1.895-2.823-4.234,1.263-4.235,2.823-4.235S214.634,59.733,214.634,62.072Z" fill="#fff"/></g><g id="change1_55"><path d="M152.678,52.613c0,.78.422,1.412.941,1.412s.941-.632.941-1.412-.421-1.411-.941-1.411S152.678,51.834,152.678,52.613Z" fill="#fff"/></g><g id="change1_56"><ellipse cx="109.771" cy="87.902" fill="#fff" rx="1.506" ry="2.259"/></g><g id="change1_57"><ellipse cx="58.772" cy="59.953" fill="#fff" rx="1.694" ry="2.541"/></g><g id="change1_58"><path d="M446.589,275.512c0,1.559.843,2.823,1.882,2.823s1.882-1.264,1.882-2.823-.843-2.823-1.882-2.823S446.589,273.953,446.589,275.512Z" fill="#fff"/></g><g id="change1_59"><path d="M474.065,337.9c0,.779.421,1.411.941,1.411s.941-.632.941-1.411-.422-1.412-.941-1.412S474.065,337.123,474.065,337.9Z" fill="#fff"/></g><g id="change1_60"><ellipse cx="381.926" cy="274.442" fill="#fff" rx="1.129" ry="1.694"/></g><g id="change1_61"><ellipse cx="356.663" cy="312.837" fill="#fff" rx="1.694" ry="2.541"/></g><g id="change1_62"><path d="M122.159,273.616c0,2.339-1.264,4.235-2.823,4.235s-2.823-1.9-2.823-4.235,1.264-4.234,2.823-4.234S122.159,271.278,122.159,273.616Z" fill="#fff"/></g><g id="change1_63"><path d="M21.133,251.355c0,2.338-1.264,4.234-2.823,4.234s-2.823-1.9-2.823-4.234,1.264-4.235,2.823-4.235S21.133,249.016,21.133,251.355Z" fill="#fff"/></g><g id="change1_64"><path d="M147.655,298.529c0,.779.422,1.411.941,1.411s.941-.632.941-1.411-.421-1.412-.941-1.412S147.655,297.749,147.655,298.529Z" fill="#fff"/></g><g id="change1_65"><path d="M70.971,240.586c0,.935-.505,1.694-1.129,1.694s-1.129-.759-1.129-1.694.505-1.694,1.129-1.694S70.971,239.65,70.971,240.586Z" fill="#fff"/></g><g id="change1_66"><ellipse cx="497.843" cy="245.524" fill="#fff" rx="1.129" ry="1.694"/></g><g id="change1_67"><ellipse cx="327.415" cy="275.697" fill="#fff" rx="2.235" ry="3.352"/></g><g id="change1_68"><ellipse cx="267.405" cy="278.756" fill="#fff" rx="1.882" ry="2.823"/></g><g id="change1_69"><ellipse cx="241.999" cy="310.657" fill="#fff" rx="2.823" ry="4.235"/></g><g id="change1_70"><path d="M193.634,277.627c0,.935-.5,1.694-1.129,1.694s-1.129-.759-1.129-1.694.5-1.694,1.129-1.694S193.634,276.691,193.634,277.627Z" fill="#fff"/></g><g id="change1_71"><path d="M185.425,173.274c0,1.559.843,2.823,1.882,2.823s1.882-1.264,1.882-2.823-.842-2.823-1.882-2.823S185.425,171.715,185.425,173.274Z" fill="#fff"/></g><g id="change1_72"><ellipse cx="409.894" cy="253.699" fill="#fff" rx="1.882" ry="2.823"/></g><g id="change1_73"><ellipse cx="361.243" cy="239.406" fill="#fff" rx="2.823" ry="4.235"/></g><g id="change1_74"><ellipse cx="272.034" cy="245.124" fill="#fff" rx="1.662" ry="2.493"/></g><g id="change1_75"><path d="M212.9,235.665c0,.78.421,1.412.941,1.412s.941-.632.941-1.412-.421-1.411-.941-1.411S212.9,234.886,212.9,235.665Z" fill="#fff"/></g><g id="change1_76"><path d="M171.5,270.954c0-1.247-.674-2.258-1.5-2.258s-1.506,1.011-1.506,2.258.674,2.259,1.506,2.259S171.5,272.2,171.5,270.954Z" fill="#fff"/></g><g id="change1_77"><path d="M113.537,172.145c0,.935-.506,1.694-1.129,1.694s-1.129-.759-1.129-1.694.505-1.694,1.129-1.694S113.537,171.209,113.537,172.145Z" fill="#fff"/></g><g id="change1_78"><path d="M117.3,243.005c0,1.4.758,2.541,1.693,2.541s1.694-1.138,1.694-2.541-.758-2.541-1.694-2.541S117.3,241.6,117.3,243.005Z" fill="#fff"/></g><g id="change1_79"><ellipse cx="487.087" cy="13.237" fill="#fff" rx="1.882" ry="2.823"/></g><g id="change1_80"><ellipse cx="469.774" cy="110.917" fill="#fff" rx="1.506" ry="2.259"/></g><g id="change1_81"><ellipse cx="412.188" cy="12.108" fill="#fff" rx="1.129" ry="1.694"/></g><g id="change1_82"><ellipse cx="395.279" cy="50.563" fill="#fff" rx="1.694" ry="2.541"/></g><g id="change1_83"><path d="M160.775,11.342c0,2.339-1.264,4.235-2.823,4.235s-2.822-1.9-2.822-4.235,1.263-4.235,2.822-4.235S160.775,9,160.775,11.342Z" fill="#fff"/></g><g id="change1_84"><path d="M208.952,41.832c0,.779.421,1.411.941,1.411s.941-.632.941-1.411-.422-1.412-.941-1.412S208.952,41.052,208.952,41.832Z" fill="#fff"/></g><g id="change1_85"><path d="M167.55,77.121c0-1.248-.674-2.259-1.505-2.259s-1.506,1.011-1.506,2.259.674,2.258,1.506,2.258S167.55,78.368,167.55,77.121Z" fill="#fff"/></g><g id="change1_86"><ellipse cx="115.045" cy="49.172" fill="#fff" rx="1.694" ry="2.541"/></g><g id="change1_87"><path d="M369.37,9.953c0,2.339-1.264,4.235-2.823,4.235s-2.822-1.9-2.822-4.235,1.263-4.235,2.822-4.235S369.37,7.614,369.37,9.953Z" fill="#fff"/></g><g id="change1_88"><ellipse cx="126.495" cy="90.778" fill="#fff" rx="1.882" ry="2.823"/></g><g id="change1_89"><ellipse cx="101.089" cy="122.679" fill="#fff" rx="2.823" ry="4.235"/></g><g id="change1_90"><path d="M73.792,194.031c0,2.339-1.263,4.235-2.822,4.235s-2.823-1.9-2.823-4.235,1.264-4.234,2.823-4.234S73.792,191.692,73.792,194.031Z" fill="#fff"/></g><g id="change1_91"><path d="M152.089,153.169c0,.779.421,1.411.941,1.411s.941-.632.941-1.411-.422-1.412-.941-1.412S152.089,152.389,152.089,153.169Z" fill="#fff"/></g><g id="change1_92"><path d="M52.725,89.648c0,.936-.506,1.694-1.129,1.694s-1.13-.758-1.13-1.694.506-1.693,1.13-1.693S52.725,88.713,52.725,89.648Z" fill="#fff"/></g><g id="change1_93"><ellipse cx="58.182" cy="160.509" fill="#fff" rx="1.694" ry="2.541"/></g><g id="change1_94"><ellipse cx="421.936" cy="126.734" fill="#fff" rx="1.882" ry="2.823"/></g><g id="change1_95"><path d="M310,215.137c0,2.339-1.264,4.235-2.823,4.235s-2.822-1.9-2.822-4.235,1.263-4.234,2.822-4.234S310,212.8,310,215.137Z" fill="#fff"/></g><g id="change1_96"><path d="M374.1,104.324c0,.936-.5,1.694-1.129,1.694s-1.129-.758-1.129-1.694.506-1.694,1.129-1.694S374.1,103.389,374.1,104.324Z" fill="#fff"/></g><g id="change1_97"><path d="M304.139,16.482c0,1.559.843,2.823,1.882,2.823s1.882-1.264,1.882-2.823-.843-2.823-1.882-2.823S304.139,14.923,304.139,16.482Z" fill="#fff"/></g><g id="change1_98"><path d="M264.548,154.857c0,2.339-1.264,4.235-2.823,4.235s-2.822-1.9-2.822-4.235,1.263-4.234,2.822-4.234S264.548,152.519,264.548,154.857Z" fill="#fff"/></g><g id="change1_99"><path d="M331.615,78.873c0,.779.421,1.411.941,1.411s.941-.632.941-1.411-.422-1.412-.941-1.412S331.615,78.093,331.615,78.873Z" fill="#fff"/></g><g id="change1_100"><ellipse cx="288.708" cy="114.162" fill="#fff" rx="1.506" ry="2.258"/></g><g id="change1_101"><path d="M232.251,15.352c0,.936-.506,1.694-1.129,1.694s-1.129-.758-1.129-1.694.5-1.693,1.129-1.693S232.251,14.417,232.251,15.352Z" fill="#fff"/></g><g id="change1_102"><ellipse cx="237.708" cy="86.213" fill="#fff" rx="1.694" ry="2.541"/></g><g id="change1_103"><ellipse cx="208.61" cy="8.68" fill="#fff" rx="1.506" ry="2.259"/></g><path d="M499.951 500L499.951 329.372" fill="none"/><path d="M499.951 329.372L499.951 0 0 0 0 500 499.951 500" fill="none"/></svg>