<svg width="580" height="73" viewBox="0 0 580 73" fill="none" xmlns="http://www.w3.org/2000/svg">
<path d="M8.01209 64.054L11.7795 69.9537L11.1189 70.2645L7.69597 64.9041L3.68735 66.7898L7.11028 72.1502L6.44972 72.4609L2.68235 66.5612L8.01209 64.054Z" fill="black"/>
<path d="M18.1661 67.1294C17.7042 67.3376 17.2288 67.4286 16.7397 67.4024C16.2472 67.3705 15.7884 67.229 15.3634 66.978C14.9385 66.727 14.592 66.3826 14.3241 65.9448C14.0561 65.5069 13.9224 65.0666 13.9229 64.6238C13.9233 64.1811 14.0498 63.7794 14.3022 63.419C14.5546 63.0585 14.9118 62.7742 15.3737 62.566C15.8356 62.3577 16.3111 62.2667 16.8001 62.293C17.2892 62.3192 17.7432 62.4591 18.1621 62.7129C18.587 62.9639 18.9335 63.3083 19.2014 63.7461C19.4694 64.184 19.6031 64.6243 19.6026 65.0671C19.6083 65.5071 19.4866 65.9102 19.2376 66.2764C18.9852 66.6368 18.628 66.9212 18.1661 67.1294ZM17.8373 66.592C18.1777 66.4386 18.4381 66.2305 18.6185 65.9678C18.8015 65.6967 18.8872 65.3932 18.8756 65.0575C18.864 64.7217 18.7538 64.3832 18.545 64.042C18.3363 63.7008 18.0741 63.4309 17.7586 63.2321C17.4432 63.0333 17.1052 62.9245 16.7447 62.9056C16.3868 62.8783 16.0377 62.9414 15.6973 63.0948C15.357 63.2482 15.0953 63.4605 14.9123 63.7316C14.7318 63.9943 14.6444 64.2949 14.6499 64.6334C14.6615 64.9692 14.7717 65.3077 14.9805 65.6489C15.1893 65.9901 15.4514 66.26 15.7669 66.4588C16.0884 66.6549 16.4282 66.7665 16.7861 66.7938C17.1465 66.8127 17.497 66.7454 17.8373 66.592Z" fill="black"/>
<path d="M24.4319 58.7695C24.8785 58.5762 25.3319 58.4988 25.7921 58.5375C26.255 58.5678 26.684 58.7101 27.0791 58.9644C27.4708 59.213 27.7933 59.5528 28.0467 59.9839C28.3068 60.4264 28.4342 60.8652 28.4288 61.3001C28.4263 61.7266 28.2972 62.1142 28.0416 62.4628C27.786 62.8114 27.4196 63.089 26.9424 63.2956C26.141 63.6426 25.3646 63.6471 24.6133 63.309C23.8621 62.971 23.2128 62.3364 22.6656 61.4053C22.0947 60.434 21.853 59.6049 21.9405 58.9181C22.0341 58.2287 22.446 57.6106 23.176 57.0638L25.0681 55.6605L25.5076 56.1732L23.7288 57.495C23.1219 57.938 22.7645 58.4136 22.6564 58.9218C22.545 59.4243 22.6834 60.0385 23.0717 60.7644C23.0614 60.3291 23.1732 59.9382 23.4071 59.5918C23.6375 59.2396 23.9791 58.9656 24.4319 58.7695ZM26.6618 62.779C26.9983 62.6333 27.2558 62.4317 27.4344 62.1741C27.6158 61.9081 27.7022 61.6111 27.6936 61.2832C27.6912 60.9525 27.592 60.6206 27.3961 60.2872C27.2001 59.9539 26.9544 59.6925 26.659 59.5032C26.3635 59.3139 26.0407 59.2086 25.6904 59.1872C25.3429 59.1574 24.9978 59.2167 24.6552 59.365C24.3126 59.5133 24.049 59.7176 23.8642 59.9779C23.6822 60.2297 23.5891 60.5152 23.5848 60.8343C23.5866 61.1507 23.6854 61.4757 23.8814 61.809C24.0773 62.1424 24.3264 62.4094 24.6286 62.6102C24.9369 62.8084 25.2696 62.9239 25.6266 62.9568C25.9803 62.9839 26.3253 62.9247 26.6618 62.779Z" fill="black"/>
<path d="M35.1226 54.137L37.7066 58.7186L37.0786 58.9795L36.5677 58.0736C36.5443 58.4632 36.4153 58.8071 36.1807 59.1052C35.9523 59.4008 35.6349 59.633 35.2286 59.8019C34.773 59.9911 34.3048 60.0638 33.8241 60.0198C33.3433 59.9759 32.8984 59.8203 32.4893 59.553C32.0802 59.2858 31.748 58.9257 31.4925 58.4728C31.2371 58.0198 31.1141 57.5728 31.1237 57.1316C31.1332 56.6904 31.2687 56.2973 31.53 55.9522C31.788 55.6013 32.1448 55.3312 32.6004 55.1419C32.9944 54.9782 33.3926 54.9095 33.795 54.9358C34.2003 54.9538 34.588 55.0687 34.9582 55.2804L34.467 54.4094L35.1226 54.137ZM34.9745 59.2301C35.3131 59.0894 35.5769 58.8902 35.7659 58.6325C35.9578 58.3664 36.0537 58.065 36.0537 57.7281C36.0599 57.3887 35.9647 57.0447 35.7682 56.6963C35.5717 56.3479 35.3164 56.0705 35.0025 55.8641C34.6946 55.6551 34.3612 55.5356 34.0023 55.5055C33.6463 55.4671 33.299 55.5182 32.9604 55.6589C32.6156 55.8021 32.3473 56.0068 32.1554 56.2729C31.9664 56.5306 31.8688 56.8292 31.8627 57.1686C31.8627 57.5055 31.9609 57.8481 32.1574 58.1965C32.3539 58.5449 32.6061 58.8236 32.9139 59.0326C33.2279 59.239 33.5629 59.3614 33.919 59.3999C34.2779 59.4299 34.6297 59.3733 34.9745 59.2301Z" fill="black"/>
<path d="M45.1298 53.2619L44.0702 53.6824L45.1799 55.7425L44.52 56.0044L43.4103 53.9443L42.3507 54.3647L41.9639 57.0187L41.1738 57.3322L41.6454 54.2492L38.8188 52.646L39.5345 52.362L42.0614 53.8277L43.121 53.4072L42.0255 51.3735L42.6854 51.1116L43.7809 53.1454L44.8406 52.7249L45.1858 50.1195L45.9015 49.8355L45.4982 52.7311L48.5354 54.411L47.7453 54.7245L45.1298 53.2619Z" fill="black"/>
<path d="M54.2247 46.6844L56.6284 51.3631L55.9924 51.6038L55.5172 50.6787C55.4791 51.0685 55.3375 51.409 55.0924 51.7001C54.8534 51.9888 54.5282 52.2111 54.1167 52.3668C53.6553 52.5414 53.1858 52.5987 52.7081 52.5387C52.2304 52.4786 51.7926 52.3079 51.3948 52.0264C50.997 51.7449 50.6793 51.3729 50.4416 50.9104C50.204 50.4478 50.0983 49.9956 50.1244 49.5536C50.1506 49.1117 50.3005 48.7221 50.574 48.3848C50.8446 48.0416 51.2105 47.7827 51.6719 47.6081C52.071 47.457 52.4706 47.4014 52.8708 47.4412C53.2743 47.4726 53.6566 47.6007 54.0177 47.8252L53.5607 46.9357L54.2247 46.6844ZM53.8849 51.7852C54.2279 51.6554 54.4984 51.4645 54.6966 51.2124C54.898 50.952 55.005 50.653 55.0177 50.3153C55.0366 49.9752 54.9547 49.6273 54.7719 49.2715C54.5891 48.9157 54.3451 48.6292 54.0398 48.4118C53.7407 48.1921 53.4128 48.0612 53.0561 48.0191C52.7025 47.9688 52.3543 48.0085 52.0114 48.1383C51.6622 48.2705 51.3869 48.4667 51.1856 48.7271C50.9874 48.9791 50.8788 49.2752 50.8599 49.6153C50.8472 49.953 50.9322 50.2997 51.115 50.6555C51.2978 51.0113 51.5387 51.2991 51.8378 51.5188C52.1431 51.7361 52.4725 51.87 52.8261 51.9203C53.1828 51.9624 53.5358 51.9173 53.8849 51.7852Z" fill="black"/>
<path d="M58.6476 45.0678L59.3152 44.8262L60.3423 46.9177L63.4549 45.7916L62.4278 43.7002L63.0955 43.4586L65.4141 48.18L64.7465 48.4216L63.7238 46.3391L60.6112 47.4652L61.6339 49.5476L60.9662 49.7892L58.6476 45.0678Z" fill="black"/>
<path d="M71.8878 46.0527C71.2074 46.2881 70.6048 46.3072 70.08 46.11C69.5553 45.9128 69.1554 45.5215 68.8805 44.9362L67.4691 41.9311L68.1401 41.699L69.0711 43.6812C69.147 43.4375 69.3013 43.2122 69.5338 43.0055C69.7726 42.7966 70.0684 42.6312 70.4212 42.5091C71.0386 42.2955 71.5883 42.2806 72.0702 42.4646C72.5584 42.6465 72.9215 42.9908 73.1596 43.4977C73.4175 44.0468 73.4354 44.5527 73.2133 45.0154C72.9911 45.478 72.5493 45.8238 71.8878 46.0527ZM71.6634 45.5516C72.1107 45.3969 72.4037 45.1552 72.5424 44.8266C72.6873 44.4959 72.6691 44.1374 72.4877 43.7512C72.3176 43.3892 72.0556 43.1431 71.7016 43.0131C71.3475 42.883 70.9405 42.8976 70.4806 43.0567C70.1404 43.1744 69.8723 43.3444 69.6764 43.5665C69.4867 43.7864 69.3842 44.0359 69.3687 44.3148L69.5727 44.7493C69.7655 45.1596 70.0462 45.4377 70.4151 45.5837C70.7874 45.7214 71.2035 45.7108 71.6634 45.5516Z" fill="black"/>
<path d="M85.3439 38.6335C85.734 38.5991 86.0668 38.6492 86.3424 38.7838C86.6243 38.9164 86.8264 39.1233 86.9487 39.4045C87.071 39.6857 87.0784 39.9689 86.9709 40.2541C86.8698 40.5372 86.6745 40.7949 86.3848 41.027C86.0925 41.253 85.74 41.4321 85.3273 41.5643C84.9654 41.6802 84.5886 41.7452 84.1969 41.7592C83.8025 41.7672 83.4326 41.715 83.0872 41.6028L83.1044 41.0435C83.4048 41.1354 83.7273 41.1783 84.0719 41.1724C84.4165 41.1665 84.7444 41.1137 85.0555 41.014C85.5189 40.8656 85.8608 40.662 86.0811 40.4034C86.305 40.1366 86.3545 39.8595 86.2295 39.5722C86.1179 39.3154 85.9108 39.1554 85.6084 39.0921C85.3034 39.0226 84.9413 39.055 84.5223 39.1893L83.6652 39.4638L83.4578 38.987L84.2768 38.7246C84.6514 38.6046 84.9237 38.4407 85.0938 38.233C85.2612 38.0192 85.2944 37.7961 85.1934 37.5638C85.0817 37.307 84.8638 37.147 84.5397 37.0836C84.222 37.0183 83.8567 37.0517 83.4441 37.1839C82.9044 37.3568 82.4283 37.6591 82.0156 38.0908L81.6058 37.6474C82.0724 37.1567 82.6262 36.8086 83.2675 36.6032C83.6484 36.4811 84.0152 36.4263 84.3678 36.4387C84.724 36.443 85.0304 36.5155 85.2869 36.6562C85.5498 36.7949 85.737 36.9926 85.8487 37.2494C85.955 37.4939 85.9605 37.7394 85.8652 37.9859C85.7762 38.2303 85.6024 38.4462 85.3439 38.6335Z" fill="black"/>
<path d="M94.8165 33.0854L96.8291 37.9451L96.1787 38.1436L95.7808 37.1827C95.712 37.5714 95.5443 37.9035 95.2777 38.1791C95.0176 38.4527 94.6771 38.6537 94.2562 38.7821C93.7844 38.9261 93.3138 38.9517 92.8445 38.859C92.3751 38.7663 91.9543 38.5652 91.5819 38.2556C91.2095 37.9461 90.9238 37.5511 90.7248 37.0706C90.5258 36.5902 90.457 36.1291 90.5182 35.6872C90.5794 35.2453 90.7592 34.8644 91.0576 34.5444C91.3534 34.2183 91.7373 33.9832 92.2092 33.8393C92.6172 33.7148 93.0183 33.6861 93.4124 33.7531C93.8103 33.8121 94.1795 33.9666 94.52 34.2165L94.1374 33.2926L94.8165 33.0854ZM94.0726 38.1826C94.4233 38.0756 94.707 37.9023 94.9238 37.6627C95.1444 37.415 95.2745 37.1221 95.314 36.784C95.3599 36.4439 95.3063 36.0891 95.1533 35.7195C95.0002 35.35 94.7809 35.0458 94.4952 34.8068C94.2159 34.566 93.9009 34.4123 93.5502 34.3459C93.2033 34.2714 92.8545 34.2876 92.5038 34.3946C92.1467 34.5035 91.8578 34.6818 91.6372 34.9295C91.4204 35.1691 91.2891 35.4589 91.2432 35.799C91.2037 36.1371 91.2604 36.491 91.4135 36.8605C91.5665 37.2301 91.7827 37.5353 92.062 37.7761C92.3477 38.0151 92.664 38.1718 93.0109 38.2463C93.3616 38.3128 93.7155 38.2915 94.0726 38.1826Z" fill="black"/>
<path d="M112.449 32.8554L113.136 34.6697L112.49 34.8497L112.023 33.6152L107.39 34.9075L105.527 29.9883L106.211 29.7976L107.854 34.1369L110.946 33.2745L109.303 28.9351L109.987 28.7444L111.63 33.0838L112.449 32.8554Z" fill="black"/>
<path d="M118.496 31.304C118.811 31.2208 119.082 31.091 119.309 30.9146C119.539 30.7303 119.709 30.5068 119.82 30.2441L120.362 30.5754C120.23 30.8984 120.022 31.1732 119.736 31.3996C119.45 31.626 119.104 31.7927 118.698 31.8997C118.176 32.0373 117.674 32.0529 117.191 31.9464C116.706 31.8337 116.283 31.6156 115.92 31.2922C115.558 30.9687 115.29 30.5653 115.117 30.0819C114.944 29.5986 114.896 29.1374 114.971 28.6984C115.054 28.2578 115.247 27.8806 115.551 27.567C115.855 27.2534 116.249 27.0329 116.732 26.9055C117.183 26.7866 117.625 26.78 118.058 26.8858C118.498 26.9899 118.888 27.1928 119.228 27.4946C119.575 27.7946 119.837 28.1721 120.014 28.6269L116.12 30.5184C116.392 30.8862 116.738 31.1421 117.156 31.286C117.578 31.422 118.025 31.428 118.496 31.304ZM116.938 27.4799C116.583 27.5733 116.293 27.7389 116.068 27.9769C115.847 28.2069 115.707 28.4874 115.649 28.8187C115.596 29.1419 115.635 29.4887 115.767 29.8591C115.801 29.9532 115.829 30.0214 115.851 30.0637L119.196 28.4406C118.971 28.0467 118.653 27.7595 118.243 27.579C117.83 27.3923 117.395 27.3593 116.938 27.4799Z" fill="black"/>
<path d="M128.539 23.9573L130.218 28.9422L129.558 29.1059L129.251 28.1962C129.172 28.5444 129.003 28.8431 128.743 29.0924C128.482 29.3353 128.147 29.5073 127.739 29.6085C127.066 29.7755 126.475 29.727 125.966 29.4633C125.461 29.1915 125.09 28.705 124.854 28.0037L123.88 25.1133L124.569 24.9423L125.52 27.7664C125.697 28.2908 125.964 28.6559 126.321 28.8618C126.677 29.0676 127.105 29.1087 127.603 28.9851C128.14 28.8518 128.511 28.5887 128.715 28.1958C128.917 27.7965 128.922 27.3126 128.731 26.7439L127.85 24.1283L128.539 23.9573ZM125.97 23.8246C125.53 23.9337 125.144 23.913 124.813 23.7624C124.482 23.6118 124.247 23.3415 124.109 22.9514L124.604 22.8286C124.693 23.0734 124.851 23.2499 125.077 23.3582C125.3 23.4602 125.551 23.4766 125.83 23.4076C126.108 23.3385 126.31 23.2097 126.436 23.021C126.566 22.8244 126.592 22.6022 126.516 22.3542L127.011 22.2313C127.136 22.6246 127.103 22.9616 126.91 23.2423C126.723 23.5213 126.41 23.7154 125.97 23.8246Z" fill="black"/>
<path d="M141.963 20.8097C142.464 20.698 142.943 20.7072 143.399 20.8371C143.855 20.967 144.249 21.2027 144.581 21.544C144.92 21.884 145.165 22.3028 145.316 22.8005C145.467 23.2982 145.493 23.7656 145.396 24.2027C145.298 24.6334 145.089 25.0001 144.771 25.3026C144.459 25.6037 144.059 25.8086 143.571 25.9174C143.142 26.0131 142.733 26.0157 142.344 25.9253C141.96 25.8269 141.616 25.6415 141.311 25.3688L142.157 28.1637L141.464 28.3182L140.146 23.9632C139.993 23.4591 139.965 22.9885 140.062 22.5514C140.166 22.1128 140.38 21.7416 140.705 21.4376C141.036 21.1322 141.455 20.9229 141.963 20.8097ZM143.313 25.3414C143.678 25.2601 143.981 25.1039 144.224 24.8728C144.466 24.6416 144.624 24.3579 144.696 24.0217C144.768 23.6856 144.747 23.3293 144.633 22.9528C144.519 22.5763 144.335 22.2563 144.082 21.9926C143.828 21.729 143.53 21.5468 143.187 21.4462C142.842 21.3392 142.487 21.3263 142.123 21.4075C141.759 21.4887 141.455 21.6449 141.213 21.8761C140.976 22.1058 140.822 22.3888 140.75 22.7249C140.683 23.0533 140.707 23.4089 140.823 23.7917C140.939 24.1746 141.12 24.4986 141.367 24.7637C141.621 25.0273 141.916 25.2102 142.252 25.3123C142.595 25.4129 142.949 25.4226 143.313 25.3414Z" fill="black"/>
<path d="M149.004 19.3331L149.699 19.1869L151.144 24.2446L150.449 24.3908L149.004 19.3331ZM149.041 18.1532C148.897 18.1834 148.763 18.1607 148.637 18.0852C148.512 18.0096 148.43 17.9045 148.392 17.7699C148.355 17.6417 148.372 17.5192 148.442 17.4025C148.513 17.2857 148.62 17.2123 148.763 17.1821C148.907 17.1519 149.041 17.1745 149.166 17.2501C149.29 17.3193 149.37 17.4179 149.407 17.5461C149.447 17.6872 149.432 17.816 149.361 17.9328C149.291 18.0495 149.184 18.123 149.041 18.1532Z" fill="black"/>
<path d="M157.925 20.4901L156.748 20.7239L157.357 22.9832L156.661 23.1216L155.291 18.043L155.988 17.9046L156.589 20.135L157.776 19.8992L158.989 17.3084L159.744 17.1583L158.378 20.0237L161.261 22.2077L160.437 22.3714L157.925 20.4901Z" fill="black"/>
<path d="M170.28 15.2171L170.98 15.0949L171.517 17.362L174.778 16.7923L174.24 14.5252L174.94 14.403L176.153 19.521L175.454 19.6432L174.919 17.3858L171.658 17.9555L172.193 20.2129L171.494 20.3351L170.28 15.2171Z" fill="black"/>
<path d="M184.508 12.8491L185.625 17.9891L184.954 18.0966L184.733 17.0803C184.597 17.4593 184.375 17.768 184.066 18.0062C183.763 18.2434 183.394 18.3968 182.96 18.4664C182.473 18.5444 182.008 18.5043 181.565 18.346C181.121 18.1877 180.745 17.9278 180.435 17.5663C180.124 17.2047 179.914 16.7699 179.804 16.2617C179.693 15.7536 179.707 15.2829 179.844 14.8497C179.982 14.4165 180.224 14.0608 180.573 13.7825C180.92 13.4978 181.337 13.3164 181.824 13.2384C182.245 13.171 182.643 13.1983 183.017 13.3205C183.396 13.435 183.73 13.6411 184.019 13.9385L183.807 12.9613L184.508 12.8491ZM182.885 17.8413C183.247 17.7833 183.556 17.6497 183.81 17.4405C184.069 17.2237 184.248 16.949 184.346 16.6164C184.451 16.2829 184.46 15.9206 184.375 15.5298C184.29 15.1389 184.129 14.8041 183.891 14.5253C183.66 14.2454 183.379 14.0478 183.047 13.9324C182.721 13.8094 182.377 13.7768 182.015 13.8348C181.646 13.8938 181.332 14.0318 181.073 14.2486C180.818 14.4578 180.639 14.7292 180.534 15.0628C180.436 15.3953 180.43 15.757 180.515 16.1479C180.6 16.5388 180.758 16.8741 180.989 17.154C181.226 17.4328 181.509 17.6337 181.835 17.7567C182.167 17.8721 182.517 17.9003 182.885 17.8413Z" fill="black"/>
<path d="M191.783 14.7147L190.595 14.8883L191.051 17.1836L190.348 17.2863L189.324 12.1269L190.027 12.0242L190.477 14.29L191.674 14.115L193.055 11.5815L193.817 11.4702L192.265 14.2708L194.989 16.6078L194.158 16.7293L191.783 14.7147Z" fill="black"/>
<path d="M201.183 15.8298C200.68 15.8963 200.208 15.8446 199.764 15.6749C199.32 15.4986 198.946 15.2256 198.643 14.856C198.34 14.4863 198.143 14.0489 198.052 13.5437C197.961 13.0384 197.995 12.5704 198.155 12.1395C198.314 11.7086 198.575 11.3549 198.939 11.0785C199.302 10.802 199.734 10.6306 200.237 10.5641C200.739 10.4976 201.212 10.5492 201.655 10.719C202.098 10.8887 202.468 11.1588 202.765 11.5293C203.068 11.899 203.265 12.3364 203.356 12.8417C203.446 13.3469 203.412 13.815 203.253 14.2458C203.1 14.6758 202.843 15.0324 202.481 15.3154C202.118 15.5918 201.685 15.7633 201.183 15.8298ZM201.071 15.2097C201.441 15.1607 201.757 15.035 202.018 14.8324C202.285 14.6225 202.473 14.3523 202.583 14.0221C202.693 13.6918 202.713 13.3298 202.642 12.9361C202.571 12.5424 202.425 12.2023 202.205 11.9158C201.984 11.6293 201.71 11.4237 201.384 11.299C201.062 11.1669 200.716 11.1253 200.346 11.1743C199.976 11.2233 199.658 11.3528 199.391 11.5627C199.13 11.7653 198.941 12.0321 198.824 12.3632C198.714 12.6935 198.695 13.0555 198.766 13.4492C198.836 13.8429 198.982 14.183 199.203 14.4695C199.43 14.7552 199.704 14.9641 200.026 15.0962C200.353 15.2208 200.701 15.2587 201.071 15.2097Z" fill="black"/>
<path d="M212.366 9.11341L213.198 14.3072L212.493 14.3904L211.76 9.81868L208.483 10.2054L209.215 14.7771L208.51 14.8603L207.678 9.66648L212.366 9.11341Z" fill="black"/>
<path d="M221.893 8.10198L222.626 13.3106L221.949 13.3808L221.816 12.4301C221.674 12.7663 221.454 13.0403 221.154 13.2522C220.853 13.4576 220.494 13.5819 220.076 13.6252C219.387 13.6967 218.817 13.5649 218.366 13.2299C217.921 12.8876 217.646 12.35 217.543 11.6172L217.118 8.59701L217.824 8.52379L218.24 11.4747C218.317 12.0226 218.511 12.4244 218.823 12.6801C219.135 12.9358 219.546 13.0372 220.057 12.9842C220.607 12.9272 221.018 12.7171 221.29 12.354C221.561 11.9843 221.655 11.5024 221.571 10.9083L221.186 8.17521L221.893 8.10198Z" fill="black"/>
<path d="M231.199 7.24431L231.833 12.466L231.126 12.5292L230.568 7.93297L228.058 8.15745L228.145 9.45421C228.223 10.5443 228.198 11.3895 228.07 11.9897C227.941 12.5899 227.622 12.9129 227.11 12.9586C226.971 12.9711 226.798 12.9597 226.593 12.9246L226.569 12.3146C226.692 12.3304 226.776 12.3362 226.823 12.332C227.095 12.3077 227.286 12.1635 227.394 11.8996C227.503 11.6356 227.559 11.3163 227.56 10.9415C227.562 10.5667 227.542 10.0734 227.501 9.46158L227.364 7.58727L231.199 7.24431Z" fill="black"/>
<path d="M239.264 11.9301C238.759 11.9681 238.292 11.8896 237.864 11.6946C237.434 11.493 237.083 11.1987 236.809 10.8116C236.535 10.4245 236.372 9.97567 236.32 9.46499C236.267 8.95431 236.337 8.48794 236.528 8.06587C236.72 7.64381 237.007 7.30477 237.389 7.04877C237.772 6.79277 238.216 6.64576 238.721 6.60775C239.226 6.56974 239.693 6.64822 240.122 6.84321C240.55 7.03819 240.898 7.32947 241.165 7.71702C241.439 8.10408 241.602 8.55295 241.655 9.06362C241.707 9.5743 241.637 10.0407 241.446 10.4627C241.261 10.8843 240.978 11.2264 240.596 11.489C240.213 11.745 239.77 11.8921 239.264 11.9301ZM239.2 11.3033C239.573 11.2753 239.897 11.1674 240.172 10.9796C240.454 10.7847 240.662 10.5251 240.796 10.2009C240.93 9.87664 240.977 9.51557 240.937 9.11764C240.896 8.71971 240.777 8.37114 240.579 8.07193C240.381 7.77272 240.123 7.55147 239.807 7.40817C239.497 7.25774 239.156 7.19653 238.784 7.22454C238.412 7.25255 238.085 7.36402 237.803 7.55897C237.527 7.74678 237.319 8.00304 237.178 8.32776C237.044 8.65197 236.997 9.01305 237.038 9.41098C237.078 9.80891 237.198 10.1575 237.396 10.4567C237.6 10.7554 237.858 10.98 238.168 11.1304C238.484 11.2737 238.828 11.3313 239.2 11.3033Z" fill="black"/>
<path d="M248.859 11.2857C248.34 11.3177 247.864 11.2335 247.433 11.0331C247.008 10.8322 246.662 10.5364 246.396 10.1455C246.128 9.74793 245.973 9.29339 245.93 8.78185C245.887 8.27031 245.965 7.80473 246.164 7.38512C246.363 6.96551 246.656 6.63025 247.043 6.37934C247.437 6.12803 247.893 5.98637 248.412 5.95436C248.865 5.92646 249.275 5.99132 249.643 6.14895C250.016 6.29952 250.321 6.53786 250.555 6.86395L250.056 7.25532C249.862 7.00689 249.626 6.82777 249.349 6.71796C249.072 6.6015 248.777 6.55292 248.464 6.5722C248.085 6.59559 247.749 6.70308 247.458 6.89469C247.172 7.07924 246.956 7.33297 246.809 7.65588C246.669 7.97838 246.615 8.33893 246.649 8.73754C246.683 9.14278 246.796 9.4964 246.988 9.79839C247.187 10.0933 247.443 10.3179 247.757 10.4722C248.077 10.6194 248.427 10.6813 248.806 10.6579C249.119 10.6386 249.403 10.5577 249.659 10.415C249.914 10.2724 250.118 10.0662 250.269 9.79643L250.828 10.1226C250.65 10.4741 250.389 10.7506 250.045 10.9522C249.7 11.147 249.304 11.2582 248.859 11.2857Z" fill="black"/>
<path d="M259.12 5.42872L259.463 10.6775L258.813 10.7088L258.7 8.97247L257.052 9.05179L256.852 9.0614L255.747 10.8563L254.978 10.8934L256.166 8.9943C255.753 8.90075 255.427 8.72289 255.19 8.46072C254.952 8.19854 254.82 7.8579 254.792 7.43879C254.754 6.85337 254.925 6.39804 255.304 6.0728C255.684 5.74756 256.22 5.56827 256.912 5.53495L259.12 5.42872ZM255.513 7.42414C255.564 8.20248 256.085 8.56778 257.077 8.52003L258.665 8.4436L258.512 6.08862L256.973 6.16265C255.948 6.212 255.461 6.63249 255.513 7.42414Z" fill="black"/>
<path d="M273.774 5.0626C274.261 5.05062 274.698 5.14988 275.085 5.3604C275.479 5.5641 275.789 5.85988 276.015 6.24774C276.241 6.62893 276.363 7.06939 276.38 7.56911C276.397 8.08216 276.299 8.54136 276.085 8.94672C275.879 9.34525 275.579 9.65938 275.186 9.88911C274.794 10.1188 274.338 10.2401 273.818 10.2529C272.945 10.2744 272.258 9.98457 271.758 9.3834C271.257 8.78223 270.989 7.94194 270.953 6.86255C270.915 5.73651 271.1 4.8684 271.506 4.25823C271.919 3.6479 272.579 3.22488 273.485 2.98918L275.826 2.39137L275.968 3.03805L273.766 3.60243C273.018 3.78755 272.475 4.09768 272.136 4.5328C271.797 4.96127 271.624 5.58902 271.618 6.41604C271.818 6.00435 272.104 5.68055 272.476 5.44466C272.849 5.2021 273.281 5.07475 273.774 5.0626ZM273.818 9.66274C274.185 9.65371 274.508 9.56238 274.789 9.38875C275.077 9.20829 275.296 8.96284 275.445 8.65241C275.602 8.34181 275.673 7.99328 275.66 7.60683C275.647 7.22038 275.556 6.88254 275.386 6.59331C275.217 6.30408 274.982 6.08312 274.684 5.93043C274.392 5.77092 274.059 5.69576 273.686 5.70495C273.313 5.71414 272.982 5.80564 272.694 5.97943C272.413 6.1464 272.194 6.37852 272.037 6.6758C271.887 6.97291 271.819 7.31469 271.832 7.70114C271.844 8.08759 271.936 8.43209 272.106 8.73465C272.283 9.03704 272.521 9.27124 272.82 9.43725C273.119 9.59661 273.452 9.67177 273.818 9.66274Z" fill="black"/>
<path d="M285.691 4.74969L285.766 10.0091L285.086 10.0163L285.071 8.97643C284.863 9.33198 284.583 9.60494 284.233 9.79532C283.889 9.98562 283.497 10.0831 283.057 10.0877C282.563 10.0929 282.115 9.98434 281.712 9.76192C281.309 9.53949 280.991 9.22617 280.758 8.82193C280.526 8.4177 280.406 7.95561 280.399 7.43566C280.391 6.91572 280.498 6.45123 280.719 6.04222C280.939 5.6332 281.248 5.31659 281.645 5.09239C282.042 4.86153 282.487 4.74349 282.98 4.73829C283.407 4.73379 283.791 4.81973 284.134 4.99613C284.483 5.16578 284.77 5.41943 284.995 5.75708L284.981 4.75718L285.691 4.74969ZM283.108 9.45717C283.474 9.4533 283.803 9.36649 284.094 9.19675C284.392 9.02027 284.621 8.7745 284.784 8.45944C284.952 8.14431 285.034 7.78676 285.028 7.3868C285.023 6.98684 284.931 6.63113 284.753 6.31966C284.582 6.00811 284.345 5.7706 284.043 5.60712C283.747 5.4369 283.416 5.35372 283.049 5.35759C282.676 5.36153 282.34 5.45174 282.043 5.62822C281.752 5.79797 281.522 6.04041 281.353 6.35554C281.191 6.6706 281.113 7.02811 281.119 7.42806C281.124 7.82802 281.213 8.18377 281.384 8.49532C281.562 8.80679 281.798 9.04764 282.094 9.21786C282.397 9.38134 282.734 9.46111 283.108 9.45717Z" fill="black"/>
<path d="M294.318 5.38106L291.308 5.37401L291.294 10.004L290.584 10.0023L290.6 4.74234L294.32 4.75107L294.318 5.38106Z" fill="black"/>
<path d="M303.459 4.86786L303.35 10.1267L302.67 10.1164L302.692 9.07659C302.471 9.4266 302.182 9.69222 301.825 9.87346C301.474 10.0548 301.079 10.1421 300.639 10.1354C300.146 10.1279 299.702 10.0078 299.306 9.77506C298.911 9.54235 298.604 9.22097 298.386 8.81094C298.168 8.4009 298.064 7.93594 298.075 7.41605C298.086 6.89616 298.209 6.43466 298.444 6.03153C298.679 5.62841 298.999 5.31992 299.403 5.10606C299.808 4.88554 300.257 4.77904 300.75 4.78656C301.177 4.79306 301.558 4.88889 301.894 5.07403C302.237 5.25261 302.515 5.51354 302.728 5.85682L302.749 4.85704L303.459 4.86786ZM300.712 9.50646C301.079 9.51205 301.411 9.43377 301.707 9.27161C302.011 9.10289 302.249 8.86316 302.422 8.55243C302.602 8.24181 302.696 7.88654 302.705 7.48663C302.713 7.08671 302.634 6.7288 302.467 6.41289C302.307 6.09709 302.078 5.85358 301.782 5.68238C301.492 5.50461 301.164 5.41293 300.797 5.40734C300.424 5.40165 300.085 5.48317 299.782 5.65189C299.485 5.81405 299.247 6.05044 299.067 6.36107C298.894 6.67179 298.803 7.02711 298.795 7.42703C298.787 7.82694 298.863 8.1848 299.023 8.50061C299.19 8.81652 299.418 9.06336 299.708 9.24112C300.004 9.41233 300.339 9.50077 300.712 9.50646Z" fill="black"/>
<path d="M314.931 5.14617C315.59 5.16706 316.099 5.37324 316.455 5.76471C316.819 6.15639 316.985 6.72188 316.953 7.4612L316.822 10.5084L316.112 10.4859L316.24 7.50866C316.264 6.9625 316.148 6.542 315.894 6.24715C315.647 5.95252 315.283 5.7976 314.803 5.78241C314.257 5.7651 313.82 5.92133 313.492 6.2511C313.165 6.57421 312.988 7.03215 312.963 7.62494L312.844 10.3824L312.134 10.3599L312.262 7.38267C312.286 6.8365 312.17 6.416 311.916 6.12116C311.669 5.82652 311.302 5.6715 310.815 5.6561C310.276 5.639 309.838 5.79523 309.504 6.12479C309.177 6.4479 309 6.90584 308.975 7.49863L308.856 10.2561L308.146 10.2336L308.372 4.97846L309.052 4.99999L309.011 5.9591C309.211 5.6453 309.482 5.4071 309.822 5.24448C310.163 5.08185 310.55 5.0074 310.983 5.02112C311.422 5.03505 311.798 5.14033 312.11 5.33695C312.429 5.53379 312.66 5.8179 312.804 6.18929C313.012 5.84907 313.3 5.58808 313.668 5.40632C314.044 5.21811 314.464 5.13139 314.931 5.14617Z" fill="black"/>
<path d="M323.102 10.852C322.596 10.8276 322.147 10.6926 321.756 10.4468C321.365 10.1945 321.066 9.85975 320.86 9.44273C320.653 9.02572 320.567 8.56109 320.6 8.04884C320.634 7.5366 320.78 7.08319 321.04 6.6886C321.299 6.29402 321.639 5.99341 322.06 5.78677C322.481 5.58013 322.945 5.48899 323.451 5.51335C323.957 5.5377 324.406 5.67275 324.797 5.91848C325.189 6.16421 325.484 6.49543 325.684 6.91212C325.891 7.32914 325.977 7.79377 325.944 8.30601C325.91 8.81825 325.764 9.27167 325.504 9.66625C325.251 10.0612 324.914 10.3653 324.493 10.5785C324.072 10.7852 323.608 10.8763 323.102 10.852ZM323.143 10.2233C323.516 10.2413 323.855 10.1741 324.158 10.0219C324.469 9.86336 324.718 9.63176 324.905 9.32711C325.092 9.02245 325.199 8.67055 325.225 8.2714C325.251 7.87225 325.191 7.51234 325.045 7.19166C324.899 6.87098 324.681 6.62028 324.392 6.43954C324.111 6.25248 323.783 6.14997 323.411 6.13203C323.038 6.11408 322.696 6.18438 322.385 6.34293C322.081 6.49514 321.832 6.72341 321.639 7.02775C321.452 7.3324 321.345 7.6843 321.319 8.08345C321.293 8.4826 321.353 8.84252 321.499 9.1632C321.652 9.48419 321.869 9.73823 322.151 9.92529C322.44 10.106 322.77 10.2054 323.143 10.2233Z" fill="black"/>
<path d="M330.669 10.1677C330.822 10.1769 330.944 10.2376 331.035 10.3499C331.127 10.4555 331.167 10.5848 331.154 10.7376C331.148 10.8173 331.128 10.9029 331.093 10.9944C331.066 11.0862 331.024 11.1905 330.968 11.3073L330.437 12.6577L329.957 12.629L330.414 11.2041C330.311 11.1645 330.229 11.0995 330.169 11.0091C330.11 10.9121 330.086 10.8005 330.096 10.6742C330.109 10.5214 330.169 10.3981 330.277 10.3044C330.385 10.2041 330.516 10.1585 330.669 10.1677Z" fill="black"/>
<path d="M347.793 7.16166L347.222 12.3905L346.514 12.3335L346.752 10.1565C346.118 10.3728 345.509 10.4575 344.924 10.4104C344.293 10.3595 343.817 10.1774 343.496 9.86407C343.175 9.54411 343.047 9.09584 343.11 8.51928L343.298 6.79953L344.006 6.85654L343.822 8.53653C343.779 8.92753 343.873 9.23592 344.103 9.46171C344.334 9.68086 344.672 9.80837 345.117 9.84424C345.609 9.88385 346.174 9.79905 346.814 9.58983L347.086 7.10465L347.793 7.16166Z" fill="black"/>
<path d="M357.438 8.03913L356.771 13.2567L356.094 13.1929L356.226 12.1613C355.968 12.4918 355.652 12.733 355.277 12.8851C354.908 13.0377 354.504 13.0934 354.066 13.0522C353.575 13.0059 353.145 12.8516 352.775 12.5893C352.406 12.3269 352.134 11.9834 351.96 11.5588C351.786 11.1342 351.732 10.6639 351.798 10.1481C351.864 9.63234 352.035 9.18337 352.313 8.80124C352.59 8.41911 352.941 8.13769 353.368 7.95697C353.795 7.76964 354.254 7.6991 354.745 7.74536C355.17 7.78536 355.54 7.91058 355.856 8.121C356.179 8.32544 356.428 8.6066 356.604 8.96449L356.731 7.97256L357.438 8.03913ZM354.206 12.4329C354.571 12.4673 354.91 12.4155 355.223 12.2777C355.544 12.1339 355.807 11.9144 356.013 11.6192C356.225 11.3247 356.357 10.979 356.407 10.5823C356.458 10.1855 356.417 9.82358 356.284 9.49653C356.158 9.17009 355.956 8.91015 355.679 8.7167C355.409 8.51727 355.091 8.40036 354.726 8.36598C354.354 8.33097 354.008 8.38537 353.687 8.52918C353.374 8.667 353.112 8.88318 352.899 9.17773C352.694 9.47291 352.565 9.81888 352.515 10.2157C352.464 10.6124 352.502 10.974 352.628 11.3005C352.761 11.6275 352.962 11.8908 353.232 12.0902C353.51 12.2836 353.834 12.3979 354.206 12.4329Z" fill="black"/>
<path d="M363.726 14.0285C363.209 13.9727 362.761 13.8105 362.383 13.5419C362.012 13.2741 361.739 12.9264 361.566 12.499C361.394 12.065 361.345 11.5941 361.42 11.0862C361.494 10.5782 361.677 10.1356 361.968 9.75824C362.259 9.38089 362.623 9.10187 363.06 8.9212C363.504 8.74125 363.984 8.67915 364.501 8.73491C364.952 8.78352 365.34 8.91582 365.665 9.1318C365.998 9.34191 366.242 9.62625 366.398 9.98483L365.819 10.2842C365.685 10.0084 365.494 9.79347 365.247 9.63955C365.001 9.47903 364.723 9.38197 364.411 9.34837C364.033 9.30762 363.679 9.35656 363.349 9.49518C363.027 9.62792 362.757 9.84001 362.539 10.1315C362.328 10.4236 362.194 10.7676 362.136 11.1634C362.077 11.5657 362.107 11.9309 362.228 12.2588C362.356 12.5808 362.556 12.8436 362.829 13.0473C363.11 13.2451 363.439 13.3644 363.817 13.4051C364.129 13.4387 364.426 13.4072 364.71 13.3104C364.993 13.2137 365.24 13.046 365.45 12.8073L365.925 13.2203C365.67 13.5346 365.351 13.7615 364.967 13.901C364.584 14.0339 364.17 14.0764 363.726 14.0285Z" fill="black"/>
<path d="M377.641 10.2853C378.296 10.3665 378.777 10.6174 379.084 11.0381C379.398 11.4596 379.494 12.0352 379.371 12.7649L378.865 15.7726L378.161 15.6853L378.655 12.7466C378.746 12.2075 378.683 11.7802 378.466 11.4647C378.255 11.15 377.912 10.9632 377.435 10.9041C376.893 10.8369 376.438 10.9516 376.07 11.2483C375.704 11.5385 375.472 11.9761 375.373 12.5612L374.915 15.283L374.211 15.1956L374.705 12.2569C374.796 11.7179 374.733 11.2906 374.516 10.9751C374.305 10.6604 373.959 10.4731 373.476 10.4132C372.94 10.3468 372.485 10.4615 372.111 10.7575C371.745 11.0476 371.512 11.4853 371.414 12.0704L370.956 14.7921L370.251 14.7047L371.124 9.51768L371.799 9.60134L371.639 10.548C371.878 10.2554 372.177 10.0442 372.536 9.91425C372.896 9.78433 373.291 9.74602 373.721 9.79933C374.157 9.85346 374.519 9.99225 374.806 10.2157C375.099 10.44 375.294 10.7427 375.392 11.124C375.642 10.8059 375.961 10.5737 376.35 10.4273C376.748 10.2752 377.178 10.2279 377.641 10.2853Z" fill="black"/>
<path d="M385.247 14.2954L384.059 14.1288L383.621 16.4276L382.918 16.329L383.901 11.1617L384.604 11.2603L384.173 13.5296L385.371 13.6975L387.635 11.685L388.397 11.7919L385.871 14.0096L387.563 16.98L386.731 16.8634L385.247 14.2954Z" fill="black"/>
<path d="M397.329 13.1431L396.383 17.6653C396.2 18.5397 395.864 19.1548 395.375 19.5105C394.884 19.8727 394.234 19.9914 393.423 19.8666C392.969 19.7965 392.552 19.6583 392.174 19.4518C391.8 19.2528 391.514 19.0101 391.316 18.7235L391.782 18.2498C391.96 18.5062 392.2 18.7217 392.504 18.8965C392.807 19.0712 393.147 19.1875 393.523 19.2453C394.122 19.3377 394.596 19.2524 394.943 18.9893C395.289 18.7328 395.529 18.2848 395.663 17.6453L395.788 17.0482C395.54 17.3199 395.238 17.5125 394.881 17.6259C394.531 17.7403 394.155 17.7666 393.753 17.7047C393.074 17.6001 392.576 17.3314 392.259 16.8986C391.949 16.4602 391.87 15.8788 392.021 15.1545L392.595 12.4138L393.296 12.5219L392.737 15.1941C392.624 15.7357 392.673 16.1676 392.885 16.4898C393.096 16.8121 393.452 17.0117 393.953 17.0889C394.5 17.1731 394.966 17.0765 395.35 16.7989C395.736 16.5148 395.99 16.0792 396.113 15.4919L396.627 13.035L397.329 13.1431Z" fill="black"/>
<path d="M410.464 17.9092C410.811 18.0588 411.058 18.2548 411.205 18.4972C411.359 18.7407 411.399 19.0115 411.328 19.3097C411.256 19.6078 411.086 19.8548 410.82 20.0508C410.56 20.2479 410.238 20.3798 409.852 20.4464C409.468 20.5065 409.062 20.4986 408.636 20.4228C408.262 20.3563 407.906 20.2391 407.571 20.0712C407.236 19.8969 406.959 19.6821 406.74 19.4269L407.101 18.9537C407.295 19.1706 407.538 19.3557 407.829 19.509C408.121 19.6622 408.428 19.7674 408.749 19.8245C409.228 19.9097 409.64 19.8917 409.984 19.7704C410.336 19.6438 410.549 19.4281 410.623 19.1236C410.689 18.8514 410.615 18.6186 410.401 18.4252C410.189 18.2253 409.867 18.0869 409.434 18.0099L408.547 17.8523L408.669 17.3468L409.516 17.4974C409.903 17.5662 410.232 17.5503 410.503 17.4498C410.775 17.3427 410.941 17.1661 411.001 16.9198C411.066 16.6476 410.983 16.4098 410.752 16.2065C410.527 16.0043 410.201 15.8652 409.774 15.7894C409.216 15.6902 408.631 15.7315 408.019 15.9133L407.952 15.3437C408.645 15.1358 409.323 15.0908 409.986 15.2087C410.38 15.2787 410.721 15.4 411.007 15.5727C411.302 15.74 411.514 15.9431 411.641 16.182C411.775 16.4221 411.809 16.6782 411.743 16.9504C411.68 17.2096 411.533 17.4233 411.301 17.5915C411.075 17.7609 410.796 17.8668 410.464 17.9092Z" fill="black"/>
<path d="M423.535 17.8101L424.231 17.9505L423.615 20.1977L426.86 20.8523L427.475 18.6051L428.171 18.7455L426.782 23.8187L426.086 23.6783L426.699 21.4407L423.454 20.7861L422.841 23.0237L422.145 22.8832L423.535 17.8101Z" fill="black"/>
<path d="M437.486 20.7301L436.002 25.7763L435.337 25.6323L435.608 24.7113C435.336 24.9788 435.014 25.1643 434.644 25.2678C434.276 25.3649 433.887 25.369 433.476 25.2801C432.799 25.1333 432.318 24.8353 432.034 24.386C431.759 23.9317 431.726 23.3497 431.934 22.6397L432.795 19.7137L433.489 19.864L432.648 22.7229C432.492 23.2538 432.507 23.6856 432.693 24.0185C432.88 24.3514 433.224 24.5722 433.725 24.6809C434.266 24.7981 434.74 24.7307 435.147 24.4786C435.555 24.2202 435.844 23.8032 436.014 23.2276L436.792 20.5797L437.486 20.7301Z" fill="black"/>
<path d="M443.98 27.5818L443.011 25.1067L440.716 26.8276L439.937 26.6475L442.771 24.5396L441.608 21.6511L442.388 21.8313L443.311 24.1525L445.467 22.5427L446.226 22.7183L443.531 24.7152L444.769 27.7642L443.98 27.5818Z" fill="black"/>
<path d="M449.653 27.86C449.802 27.8962 449.909 27.9768 449.972 28.1017C450.038 28.2203 450.047 28.3524 449.999 28.498C449.974 28.574 449.934 28.6531 449.879 28.7354C449.83 28.8194 449.764 28.9128 449.681 29.0157L448.841 30.227L448.374 30.1137L449.159 28.817C449.066 28.7601 449 28.6827 448.963 28.5846C448.927 28.4803 448.929 28.3679 448.969 28.2476C449.017 28.102 449.105 27.9935 449.234 27.9222C449.364 27.8445 449.504 27.8238 449.653 27.86Z" fill="black"/>
<path d="M465.698 30.2128C466.331 30.553 466.529 31.0491 466.294 31.7012C466.138 32.1339 465.853 32.4225 465.441 32.5671C465.029 32.7117 464.497 32.6975 463.846 32.5244L461.537 31.91L463.323 26.9626L465.565 27.559C466.145 27.7133 466.56 27.9438 466.809 28.2507C467.058 28.5576 467.109 28.9148 466.962 29.3224C466.865 29.592 466.704 29.8034 466.479 29.9567C466.263 30.1054 466.002 30.1908 465.698 30.2128ZM463.195 29.3409L464.722 29.7471C465.115 29.8516 465.441 29.8592 465.699 29.7698C465.964 29.6822 466.146 29.5004 466.245 29.2245C466.345 28.9486 466.314 28.7134 466.151 28.5189C465.994 28.3261 465.72 28.1774 465.327 28.0729L463.8 27.6667L463.195 29.3409ZM464.008 31.9899C464.446 32.1065 464.799 32.1249 465.068 32.0452C465.337 31.9656 465.525 31.7784 465.631 31.4837C465.737 31.1889 465.716 30.9461 465.566 30.755C465.418 30.5576 465.128 30.4015 464.697 30.2867L463.015 29.8394L462.394 31.5606L464.008 31.9899Z" fill="black"/>
<path d="M477.028 30.7143L475.15 35.6277L474.496 35.4435L474.838 34.5467C474.544 34.795 474.208 34.959 473.829 35.0386C473.453 35.112 473.063 35.0918 472.659 34.978C471.991 34.7901 471.533 34.4645 471.283 34.0011C471.043 33.5334 471.055 32.9539 471.319 32.2626L472.408 29.4136L473.091 29.606L472.027 32.3896C471.83 32.9065 471.811 33.3359 471.972 33.6777C472.133 34.0196 472.46 34.26 472.954 34.3991C473.487 34.5491 473.967 34.5117 474.394 34.2871C474.823 34.0562 475.145 33.6605 475.359 33.1L476.345 30.5219L477.028 30.7143Z" fill="black"/>
<path d="M486.295 33.4309L484.328 38.3089L483.647 38.1066L485.379 33.8128L482.216 32.8728L480.484 37.1665L479.803 36.9643L481.771 32.0863L486.295 33.4309Z" fill="black"/>
<path d="M495.338 36.2249L493.281 41.0659L492.632 40.8628L493.008 39.9793C492.704 40.218 492.362 40.3714 491.979 40.4395C491.6 40.5014 491.21 40.4697 490.809 40.3442C490.147 40.1371 489.7 39.7989 489.467 39.3296C489.243 38.8563 489.275 38.2791 489.565 37.598L490.757 34.7909L491.435 35.003L490.27 37.7457C490.053 38.2549 490.019 38.6823 490.168 39.0278C490.317 39.3733 490.636 39.6227 491.126 39.7761C491.654 39.9414 492.136 39.9184 492.572 39.7072C493.01 39.4899 493.347 39.1052 493.581 38.5529L494.661 36.0128L495.338 36.2249Z" fill="black"/>
<path d="M506.913 40.0033L504.756 44.801L497.864 42.5191L500.021 37.7214L500.695 37.9445L498.792 42.1767L501.242 42.9877L503.144 38.7555L503.818 38.9786L501.916 43.2108L504.336 44.0123L506.239 39.7801L506.913 40.0033Z" fill="black"/>
<path d="M511.403 46.473C511.711 46.5808 512.018 46.6286 512.325 46.6163C512.641 46.6003 512.939 46.5217 513.218 46.3807L513.399 46.9282C513.058 47.1043 512.693 47.2014 512.303 47.2195C511.913 47.2377 511.52 47.1775 511.123 47.039C510.613 46.8608 510.209 46.6001 509.909 46.2568C509.613 45.9074 509.442 45.5105 509.396 45.0661C509.35 44.6217 509.437 44.1676 509.657 43.7038C509.877 43.24 510.178 42.8607 510.56 42.5658C510.948 42.2732 511.376 42.0893 511.845 42.0143C512.313 41.9392 512.783 41.9841 513.255 42.1491C513.696 42.303 514.047 42.5379 514.308 42.8538C514.575 43.1719 514.731 43.5389 514.776 43.9548C514.827 44.3729 514.755 44.804 514.559 45.2481L510.121 44.5821C510.064 45.0116 510.146 45.3949 510.367 45.7322C510.598 46.0656 510.943 46.3125 511.403 46.473ZM512.994 42.7002C512.648 42.5793 512.299 42.5487 511.948 42.6086C511.606 42.6646 511.291 42.8037 511.002 43.0258C510.722 43.244 510.498 43.5309 510.33 43.8863C510.287 43.9766 510.258 44.044 510.245 44.0883L514.056 44.6616C514.169 44.2376 514.131 43.8453 513.943 43.4846C513.757 43.1178 513.441 42.8563 512.994 42.7002Z" fill="black"/>
<path d="M525.792 46.7012L523.448 51.4102L522.838 51.1865L524.691 47.4622L521.123 49.8804L520.823 49.7702L520.396 45.8768L518.538 49.61L517.927 49.3863L520.271 44.6772L520.947 44.925L521.352 49.0857L525.172 46.474L525.792 46.7012Z" fill="black"/>
<path d="M529.484 53.7398C529.011 53.5582 528.638 53.2939 528.363 52.9471C528.091 52.5944 527.94 52.1959 527.91 51.7517C527.881 51.3074 527.984 50.8577 528.222 50.4025C528.459 49.9473 528.781 49.5813 529.186 49.3043C529.592 49.0274 530.037 48.8613 530.522 48.8061C531.006 48.751 531.485 48.8142 531.958 48.9959C532.431 49.1775 532.805 49.4418 533.08 49.7886C533.354 50.1354 533.504 50.5297 533.527 50.9716C533.557 51.4158 533.453 51.8655 533.216 52.3207C532.979 52.7759 532.657 53.142 532.251 53.4189C531.852 53.6982 531.408 53.8684 530.921 53.9295C530.436 53.9847 529.957 53.9215 529.484 53.7398ZM529.776 53.1812C530.124 53.315 530.474 53.3607 530.825 53.318C531.185 53.2719 531.515 53.1398 531.816 52.9217C532.116 52.7036 532.359 52.4173 532.544 52.0626C532.729 51.7079 532.816 51.3617 532.805 51.0241C532.794 50.6865 532.688 50.3901 532.485 50.1347C532.291 49.8759 532.02 49.6795 531.671 49.5456C531.323 49.4118 530.968 49.3679 530.608 49.4141C530.257 49.4567 529.928 49.5858 529.622 49.8015C529.321 50.0196 529.079 50.306 528.894 50.6607C528.709 51.0154 528.622 51.3615 528.632 51.6991C528.649 52.0391 528.755 52.3385 528.948 52.5974C529.151 52.8527 529.427 53.0473 529.776 53.1812Z" fill="black"/>
<path d="M550.686 56.5153C551.295 56.7686 551.679 57.1323 551.837 57.6065C552.001 58.0833 551.902 58.644 551.538 59.2885L550.04 61.9452L549.384 61.6727L550.848 59.0771C551.117 58.6009 551.198 58.1869 551.093 57.8349C550.994 57.4854 550.722 57.2186 550.279 57.0344C549.774 56.8247 549.294 56.8078 548.837 56.9837C548.384 57.1538 548.012 57.4973 547.72 58.0141L546.364 60.4181L545.709 60.1457L547.173 57.5501C547.441 57.0739 547.523 56.6598 547.417 56.3078C547.318 55.9584 547.044 55.6903 546.594 55.5036C546.096 55.2964 545.615 55.2795 545.153 55.4529C544.699 55.623 544.327 55.9664 544.036 56.4832L542.68 58.8873L542.024 58.6149L544.608 54.0333L545.236 54.2942L544.764 55.1304C545.094 54.9233 545.455 54.8082 545.848 54.7851C546.241 54.762 546.638 54.8336 547.038 54.9998C547.444 55.1687 547.749 55.3957 547.953 55.6811C548.163 55.969 548.252 56.3034 548.22 56.6841C548.568 56.4564 548.957 56.3273 549.384 56.2971C549.821 56.2635 550.255 56.3363 550.686 56.5153Z" fill="black"/>
<path d="M560.542 60.7996L558.189 64.7756C557.734 65.5444 557.212 66.0312 556.621 66.2359C556.028 66.4463 555.355 66.3877 554.604 66.06C554.182 65.8762 553.819 65.6386 553.515 65.3472C553.213 65.0642 553.011 64.7631 552.908 64.4438L553.513 64.1229C553.605 64.4086 553.772 64.6725 554.013 64.9147C554.254 65.1569 554.549 65.354 554.897 65.5058C555.453 65.7483 555.942 65.7919 556.365 65.6368C556.784 65.4874 557.16 65.1316 557.492 64.5694L557.803 64.0444C557.476 64.2337 557.12 64.3348 556.736 64.3477C556.357 64.3633 555.982 64.2898 555.609 64.1273C554.98 63.8529 554.578 63.4723 554.405 62.9854C554.241 62.4955 554.348 61.9321 554.725 61.2952L556.151 58.8855L556.802 59.1692L555.411 61.5187C555.13 61.9949 555.041 62.411 555.146 62.7669C555.25 63.1228 555.535 63.402 555.999 63.6045C556.506 63.8256 556.992 63.8567 557.455 63.6977C557.921 63.5329 558.307 63.1924 558.613 62.676L559.891 60.5159L560.542 60.7996Z" fill="black"/>
<path d="M570.841 65.3984C571.441 65.6726 571.811 66.0487 571.95 66.5268C572.095 67.0076 571.973 67.5625 571.583 68.1914L569.976 70.7836L569.33 70.4886L570.9 67.9559C571.189 67.4913 571.287 67.0818 571.195 66.7274C571.11 66.3757 570.849 66.1002 570.412 65.9007C569.915 65.6736 569.434 65.6394 568.97 65.7982C568.509 65.9513 568.123 66.28 567.81 66.7842L566.356 69.1299L565.71 68.8349L567.28 66.3023C567.568 65.8377 567.667 65.4282 567.575 65.0737C567.49 64.7221 567.226 64.4451 566.783 64.2429C566.292 64.0186 565.811 63.9844 565.341 64.1404C564.88 64.2935 564.494 64.6222 564.181 65.1265L562.726 67.4721L562.081 67.1771L564.852 62.7068L565.471 62.9893L564.965 63.8052C565.304 63.6108 565.67 63.5092 566.065 63.5003C566.459 63.4915 566.853 63.5771 567.248 63.7572C567.648 63.94 567.944 64.1772 568.137 64.4688C568.336 64.7632 568.411 65.0994 568.364 65.4775C568.722 65.2632 569.116 65.1487 569.545 65.134C569.984 65.1163 570.416 65.2045 570.841 65.3984Z" fill="black"/>
<path d="M573.396 72.4502C573.264 72.3873 573.178 72.2881 573.14 72.1527C573.107 72.0202 573.132 71.8895 573.215 71.7606C573.298 71.6317 573.412 71.5467 573.557 71.5056C573.711 71.4617 573.854 71.4712 573.987 71.5342C574.119 71.5971 574.205 71.6963 574.243 71.8317C574.285 71.9615 574.265 72.0908 574.182 72.2197C574.099 72.3486 573.98 72.4349 573.826 72.4788C573.672 72.5227 573.529 72.5132 573.396 72.4502Z" fill="black"/>
</svg>
