<svg width="892" height="163" viewBox="0 0 892 163" fill="none" xmlns="http://www.w3.org/2000/svg">
<path d="M10.6202 144.751L16.8333 153.216L15.9505 153.864L10.3055 146.173L4.94868 150.105L10.5937 157.796L9.71101 158.444L3.4979 149.979L10.6202 144.751Z" fill="black"/>
<path d="M26.7628 146.244C26.1401 146.68 25.4815 146.933 24.7867 147.004C24.0863 147.067 23.4178 146.949 22.7813 146.65C22.1448 146.351 21.6057 145.886 21.1642 145.255C20.7227 144.625 20.4704 143.959 20.4074 143.258C20.3444 142.558 20.4652 141.894 20.77 141.265C21.0748 140.637 21.5386 140.105 22.1612 139.669C22.7839 139.233 23.4425 138.98 24.1372 138.909C24.832 138.837 25.4935 138.954 26.1218 139.259C26.7583 139.558 27.2974 140.023 27.7389 140.654C28.1804 141.285 28.4327 141.95 28.4957 142.651C28.5669 143.345 28.453 144.011 28.1539 144.648C27.8492 145.276 27.3854 145.808 26.7628 146.244ZM26.2209 145.47C26.6797 145.148 27.0177 144.759 27.2348 144.302C27.4544 143.831 27.5318 143.331 27.4672 142.803C27.4025 142.275 27.1981 141.765 26.8541 141.273C26.51 140.782 26.1008 140.415 25.6265 140.173C25.1522 139.931 24.659 139.837 24.147 139.89C23.6374 139.93 23.1533 140.11 22.6945 140.431C22.2357 140.752 21.8965 141.148 21.6769 141.619C21.4598 142.076 21.3795 142.572 21.4359 143.106C21.5006 143.635 21.705 144.145 22.049 144.636C22.3931 145.128 22.8023 145.494 23.2766 145.736C23.7591 145.972 24.2551 146.07 24.7647 146.031C25.2767 145.978 25.7621 145.791 26.2209 145.47Z" fill="black"/>
<path d="M35.2609 131.009C35.8674 130.603 36.4993 130.379 37.1565 130.336C37.8165 130.279 38.4436 130.406 39.0378 130.718C39.6264 131.022 40.1294 131.486 40.5468 132.109C40.9753 132.749 41.2152 133.412 41.2667 134.1C41.3208 134.774 41.1905 135.415 40.8756 136.023C40.5607 136.631 40.0793 137.152 39.4312 137.586C38.3428 138.315 37.2435 138.498 36.1333 138.134C35.0231 137.77 34.0172 136.916 33.1157 135.57C32.1752 134.165 31.7204 132.911 31.7513 131.808C31.7905 130.698 32.2902 129.629 33.2504 128.601L35.7409 125.958L36.433 126.668L34.092 129.157C33.2923 129.993 32.8503 130.825 32.7661 131.651C32.6764 132.47 32.9557 133.408 33.6042 134.466C33.5307 133.781 33.636 133.139 33.9204 132.539C34.1992 131.931 34.6461 131.421 35.2609 131.009ZM38.9636 136.834C39.4206 136.528 39.7581 136.152 39.9763 135.705C40.1972 135.244 40.2793 134.755 40.2227 134.24C40.1745 133.718 39.9889 133.217 39.6662 132.735C39.3434 132.253 38.9599 131.896 38.5156 131.664C38.0714 131.432 37.5997 131.339 37.1005 131.384C36.6041 131.416 36.1233 131.587 35.658 131.899C35.1928 132.211 34.8469 132.593 34.6204 133.045C34.3967 133.484 34.3035 133.956 34.3406 134.46C34.3861 134.959 34.5702 135.45 34.8929 135.932C35.2157 136.414 35.6048 136.779 36.0602 137.028C36.5239 137.271 37.0109 137.378 37.5211 137.349C38.0258 137.312 38.5067 137.14 38.9636 136.834Z" fill="black"/>
<path d="M50.6369 120.757L54.8879 127.404L54.0286 127.953L53.1881 126.639C53.2041 127.258 53.0642 127.828 52.7686 128.349C52.4814 128.866 52.0598 129.301 51.5038 129.657C50.8803 130.056 50.2243 130.273 49.5357 130.31C48.847 130.347 48.1951 130.2 47.5801 129.869C46.965 129.539 46.4473 129.045 46.027 128.388C45.6068 127.731 45.3756 127.054 45.3333 126.356C45.2911 125.659 45.4338 125.01 45.7615 124.409C46.0838 123.799 46.5566 123.295 47.18 122.896C47.7192 122.552 48.2764 122.355 48.8515 122.308C49.4296 122.247 49.9951 122.342 50.5479 122.594L49.7397 121.331L50.6369 120.757ZM51.0704 128.812C51.5338 128.516 51.8834 128.144 52.1194 127.696C52.3584 127.235 52.4566 126.739 52.414 126.208C52.3798 125.672 52.2011 125.151 51.8778 124.646C51.5546 124.14 51.1568 123.76 50.6845 123.504C50.2207 123.243 49.7319 123.128 49.2181 123.16C48.7073 123.178 48.2203 123.335 47.7569 123.631C47.2852 123.933 46.9298 124.315 46.6907 124.776C46.4548 125.224 46.3539 125.716 46.3881 126.252C46.4307 126.782 46.6136 127.3 46.9369 127.806C47.2602 128.311 47.6537 128.695 48.1176 128.956C48.5898 129.212 49.0813 129.331 49.5921 129.313C50.1059 129.281 50.5987 129.114 51.0704 128.812Z" fill="black"/>
<path d="M66.4317 116.143L64.9701 117.03L66.792 120.03L65.8818 120.583L64.0598 117.583L62.5982 118.471L62.356 122.724L61.2662 123.386L61.5793 118.44L57.3631 116.526L58.3503 115.926L62.1233 117.689L63.5849 116.801L61.7863 113.839L62.6966 113.287L64.4952 116.248L65.9567 115.361L66.1454 111.192L67.1326 110.593L66.895 115.23L71.4204 117.22L70.3306 117.881L66.4317 116.143Z" fill="black"/>
<path d="M80.0295 103.08L83.9673 109.917L83.0834 110.426L82.3048 109.074C82.2921 109.693 82.1259 110.256 81.8064 110.763C81.4955 111.266 81.0541 111.681 80.4822 112.011C79.8409 112.38 79.1755 112.567 78.4859 112.572C77.7963 112.577 77.1519 112.4 76.5528 112.041C75.9538 111.682 75.4596 111.164 75.0703 110.489C74.681 109.813 74.4815 109.126 74.4717 108.427C74.4618 107.729 74.6346 107.087 74.9898 106.502C75.34 105.908 75.8358 105.426 76.477 105.057C77.0316 104.737 77.5973 104.567 78.174 104.547C78.7543 104.512 79.3148 104.634 79.8553 104.911L79.1066 103.611L80.0295 103.08ZM80.0885 111.147C80.5651 110.872 80.9317 110.517 81.1882 110.081C81.4484 109.631 81.5695 109.14 81.5516 108.608C81.5423 108.071 81.388 107.542 81.0885 107.022C80.7891 106.503 80.4094 106.104 79.9495 105.826C79.4983 105.544 79.0154 105.406 78.5006 105.414C77.9896 105.409 77.4958 105.543 77.0192 105.818C76.5339 106.097 76.1612 106.462 75.901 106.912C75.6445 107.348 75.5209 107.835 75.5301 108.372C75.548 108.904 75.7067 109.43 76.0062 109.95C76.3056 110.47 76.681 110.871 77.1322 111.153C77.592 111.431 78.0775 111.572 78.5886 111.578C79.1033 111.57 79.6033 111.426 80.0885 111.147Z" fill="black"/>
<path d="M87.8489 98.6797L88.7832 98.1684L90.4609 101.234L94.8164 98.8511L93.1388 95.7851L94.073 95.2739L97.8604 102.195L96.9262 102.707L95.2557 99.6538L90.9001 102.037L92.5706 105.09L91.6363 105.601L87.8489 98.6797Z" fill="black"/>
<path d="M108.587 96.693C107.63 97.1919 106.764 97.3382 105.992 97.1318C105.219 96.9254 104.608 96.3921 104.16 95.5318L101.86 91.115L102.804 90.623L104.322 93.5365C104.409 93.1414 104.611 92.7602 104.927 92.3926C105.252 92.0205 105.662 91.7051 106.159 91.4464C107.028 90.9937 107.818 90.8643 108.528 91.0583C109.247 91.2477 109.8 91.7149 110.188 92.4599C110.608 93.267 110.679 94.053 110.401 94.818C110.123 95.583 109.519 96.208 108.587 96.693ZM108.22 95.9544C108.849 95.6264 109.249 95.1926 109.419 94.6531C109.598 94.1089 109.54 93.553 109.244 92.9854C108.967 92.4533 108.568 92.12 108.047 91.9854C107.526 91.8509 106.941 91.9523 106.294 92.2895C105.815 92.539 105.444 92.856 105.182 93.2405C104.929 93.6204 104.804 94.0295 104.807 94.4677L105.14 95.1063C105.454 95.7094 105.883 96.0892 106.426 96.2457C106.974 96.3887 107.572 96.2916 108.22 95.9544Z" fill="black"/>
<path d="M127.848 82.2799C128.409 82.1541 128.894 82.1702 129.303 82.3284C129.721 82.4822 130.03 82.7663 130.23 83.1808C130.429 83.5952 130.463 84.0341 130.331 84.4972C130.208 84.9561 129.946 85.3928 129.547 85.8072C129.142 86.2127 128.648 86.5564 128.062 86.8385C127.548 87.0858 127.009 87.2566 126.444 87.3511C125.875 87.4366 125.336 87.4241 124.828 87.3136L124.807 86.4412C125.249 86.5282 125.718 86.5352 126.216 86.4621C126.713 86.389 127.183 86.2462 127.624 86.0336C128.282 85.7169 128.76 85.3371 129.057 84.8942C129.359 84.4381 129.408 83.9982 129.204 83.5748C129.022 83.1964 128.71 82.986 128.268 82.9436C127.821 82.8922 127.3 83.0097 126.706 83.2961L125.489 83.8818L125.151 83.179L126.313 82.6193C126.845 82.3634 127.225 82.0582 127.454 81.7038C127.679 81.3404 127.708 80.9875 127.544 80.6451C127.361 80.2667 127.034 80.0583 126.56 80.0199C126.095 79.9773 125.57 80.0969 124.985 80.3789C124.219 80.7477 123.555 81.3059 122.994 82.0534L122.366 81.4402C123 80.5909 123.772 79.9472 124.682 79.509C125.223 79.2487 125.749 79.0955 126.259 79.0494C126.774 78.99 127.223 79.0458 127.605 79.217C127.996 79.3838 128.283 79.6565 128.465 80.0349C128.639 80.3953 128.667 80.7759 128.549 81.1766C128.44 81.5731 128.206 81.9408 127.848 82.2799Z" fill="black"/>
<path d="M142.036 71.4969L145.313 78.6743L144.385 79.0979L143.737 77.6788C143.666 78.2938 143.447 78.8387 143.082 79.3136C142.725 79.7842 142.246 80.1566 141.646 80.4307C140.973 80.738 140.293 80.8617 139.606 80.8015C138.919 80.7414 138.294 80.5045 137.731 80.0908C137.168 79.6771 136.725 79.1155 136.401 78.4059C136.077 77.6964 135.943 76.9936 135.999 76.2975C136.055 75.6013 136.288 74.9786 136.696 74.4292C137.101 73.8707 137.64 73.4378 138.313 73.1305C138.895 72.8647 139.474 72.7487 140.05 72.7825C140.631 72.8031 141.178 72.9768 141.69 73.3037L141.067 71.9392L142.036 71.4969ZM141.335 79.5337C141.836 79.3053 142.234 78.986 142.53 78.5758C142.832 78.1524 142.999 77.675 143.031 77.1437C143.072 76.6081 142.968 76.0675 142.719 75.5216C142.47 74.9758 142.129 74.5431 141.698 74.2236C141.275 73.8999 140.807 73.7177 140.294 73.6772C139.786 73.6234 139.281 73.7107 138.781 73.9391C138.272 74.1717 137.866 74.4997 137.565 74.9231C137.268 75.3333 137.1 75.8061 137.058 76.3416C137.026 76.873 137.135 77.4116 137.384 77.9574C137.633 78.5032 137.969 78.938 138.391 79.2617C138.823 79.5813 139.293 79.768 139.801 79.8217C140.314 79.8623 140.826 79.7663 141.335 79.5337Z" fill="black"/>
<path d="M168.84 67.5389L169.957 70.2258L169.029 70.6118L168.269 68.7836L161.607 71.5541L158.577 64.269L159.56 63.8601L162.233 70.2865L166.679 68.4375L164.006 62.0111L164.99 61.6021L167.662 68.0285L168.84 67.5389Z" fill="black"/>
<path d="M179.185 63.4757C179.641 63.2972 180.029 63.0541 180.349 62.7464C180.675 62.4257 180.911 62.0542 181.057 61.632L181.867 62.0559C181.694 62.5746 181.406 63.0311 181.002 63.4254C180.597 63.8198 180.102 64.1317 179.515 64.3612C178.761 64.6564 178.029 64.7604 177.318 64.6733C176.604 64.5769 175.973 64.3085 175.424 63.8679C174.876 63.4274 174.462 62.8486 174.181 62.1315C173.901 61.4145 173.803 60.7118 173.888 60.0235C173.982 59.3315 174.242 58.7197 174.668 58.1881C175.093 57.6565 175.655 57.2541 176.354 56.9808C177.006 56.7258 177.651 56.6452 178.289 56.7392C178.936 56.8295 179.517 57.0799 180.032 57.4905C180.557 57.8974 180.961 58.4372 181.246 59.1097L175.67 62.6442C176.09 63.1673 176.609 63.5064 177.228 63.6615C177.853 63.8037 178.505 63.7417 179.185 63.4757ZM176.687 57.8329C176.175 58.0333 175.761 58.3348 175.446 58.7372C175.137 59.1267 174.95 59.5812 174.885 60.1006C174.825 60.6072 174.903 61.1351 175.118 61.6846C175.172 61.8243 175.217 61.9249 175.252 61.9864L180.041 58.953C179.689 58.3821 179.208 57.9903 178.599 57.7777C177.986 57.5558 177.348 57.5742 176.687 57.8329Z" fill="black"/>
<path d="M194.154 50.3237L196.877 57.7287L195.92 58.0808L195.423 56.7293C195.326 57.2765 195.094 57.7613 194.727 58.1839C194.357 58.597 193.876 58.9124 193.285 59.1299C192.309 59.4889 191.441 59.5045 190.681 59.1766C189.927 58.8359 189.359 58.1447 188.976 57.103L187.396 52.8092L188.396 52.4416L189.939 56.6368C190.225 57.4157 190.635 57.9363 191.168 58.1983C191.702 58.4603 192.33 58.4584 193.052 58.1926C193.831 57.9061 194.36 57.4454 194.638 56.8104C194.912 56.166 194.894 55.4215 194.583 54.5769L193.154 50.6914L194.154 50.3237ZM190.387 50.5106C189.748 50.7454 189.183 50.7722 188.69 50.5912C188.197 50.4102 187.839 50.0305 187.616 49.452L188.334 49.1879C188.478 49.5505 188.718 49.7978 189.054 49.9299C189.387 50.0525 189.755 50.0396 190.159 49.8912C190.562 49.7427 190.851 49.514 191.025 49.2049C191.205 48.883 191.232 48.5373 191.107 48.1679L191.825 47.9038C192.03 48.4891 191.998 49.0121 191.731 49.4727C191.473 49.9299 191.025 50.2759 190.387 50.5106Z" fill="black"/>
<path d="M213.882 43.4312C214.613 43.1892 215.317 43.1354 215.993 43.2696C216.67 43.4038 217.261 43.7086 217.766 44.184C218.28 44.6563 218.66 45.2626 218.905 46.0031C219.15 46.7436 219.212 47.4552 219.09 48.138C218.966 48.8113 218.677 49.4021 218.223 49.9103C217.78 50.4153 217.202 50.7857 216.49 51.0214C215.863 51.2288 215.262 51.2908 214.687 51.2074C214.118 51.1113 213.603 50.8762 213.142 50.5021L214.518 54.6602L213.507 54.9949L211.362 48.5157C211.114 47.7657 211.051 47.0493 211.172 46.3665C211.303 45.6806 211.6 45.0819 212.063 44.5706C212.535 44.0561 213.142 43.6763 213.882 43.4312ZM216.083 50.1762C216.615 50.0002 217.054 49.7181 217.399 49.3299C217.745 48.9416 217.962 48.4851 218.052 47.9604C218.141 47.4356 218.094 46.8932 217.908 46.3331C217.723 45.773 217.438 45.3091 217.052 44.9415C216.667 44.5738 216.22 44.3373 215.712 44.2319C215.2 44.117 214.678 44.1475 214.146 44.3235C213.614 44.4995 213.176 44.7816 212.83 45.1699C212.494 45.555 212.282 46.0099 212.192 46.5347C212.109 47.0468 212.161 47.5876 212.35 48.1572C212.538 48.7268 212.82 49.197 213.196 49.5678C213.581 49.9354 214.023 50.1735 214.523 50.2821C215.032 50.3875 215.552 50.3522 216.083 50.1762Z" fill="black"/>
<path d="M224.828 39.9666L225.845 39.6493L228.196 47.1808L227.18 47.4982L224.828 39.9666ZM224.83 38.1591C224.62 38.2246 224.421 38.2082 224.233 38.1097C224.045 38.0112 223.92 37.8617 223.857 37.6613C223.798 37.4704 223.817 37.281 223.916 37.0931C224.014 36.9052 224.168 36.7785 224.378 36.7129C224.588 36.6474 224.787 36.6638 224.975 36.7623C225.16 36.8512 225.282 36.9912 225.342 37.1821C225.408 37.3921 225.391 37.591 225.293 37.7789C225.194 37.9668 225.04 38.0935 224.83 38.1591Z" fill="black"/>
<path d="M238.476 40.396L236.749 40.9041L237.74 44.2714L236.718 44.572L234.491 37.003L235.512 36.7023L236.491 40.0264L238.232 39.514L239.916 35.4065L241.024 35.0804L239.125 39.6264L243.467 42.586L242.258 42.9417L238.476 40.396Z" fill="black"/>
<path d="M256.832 30.7058L257.863 30.4388L258.74 33.8222L263.546 32.5774L262.67 29.194L263.701 28.927L265.679 36.565L264.648 36.832L263.775 33.4632L258.969 34.708L259.842 38.0768L258.811 38.3438L256.832 30.7058Z" fill="black"/>
<path d="M279.459 25.0999L281.27 32.7793L280.277 33.0134L279.919 31.495C279.729 32.0843 279.408 32.576 278.957 32.9702C278.515 33.3621 277.973 33.6337 277.33 33.7852C276.61 33.955 275.919 33.9433 275.257 33.7501C274.595 33.5569 274.028 33.2024 273.558 32.6867C273.087 32.171 272.762 31.5336 272.583 30.7744C272.404 30.0152 272.41 29.2998 272.601 28.628C272.791 27.9563 273.141 27.3909 273.649 26.9321C274.155 26.4634 274.768 26.1442 275.489 25.9744C276.112 25.8275 276.702 25.8269 277.261 25.9727C277.826 26.1064 278.328 26.3836 278.767 26.8043L278.422 25.3443L279.459 25.0999ZM277.201 32.8448C277.736 32.7185 278.189 32.4833 278.56 32.139C278.939 31.7826 279.196 31.3471 279.331 30.8322C279.476 30.3151 279.48 29.7646 279.342 29.1806C279.205 28.5966 278.955 28.1057 278.594 27.7079C278.243 27.3078 277.82 27.0378 277.325 26.8977C276.837 26.7456 276.325 26.7327 275.79 26.8589C275.245 26.9874 274.783 27.2298 274.405 27.5862C274.034 27.9305 273.776 28.3612 273.63 28.8783C273.495 29.3932 273.496 29.9426 273.634 30.5265C273.772 31.1105 274.016 31.6026 274.367 32.0027C274.728 32.4004 275.153 32.6754 275.64 32.8275C276.136 32.9675 276.656 32.9733 277.201 32.8448Z" fill="black"/>
<path d="M291.923 26.817L290.163 27.1941L290.898 30.6262L289.857 30.8493L288.204 23.1344L289.245 22.9113L289.971 26.2994L291.746 25.9192L293.733 21.9497L294.863 21.7077L292.628 26.0983L296.736 29.3755L295.504 29.6395L291.923 26.817Z" fill="black"/>
<path d="M306.744 27.4497C305.998 27.5942 305.293 27.5575 304.63 27.3396C303.964 27.112 303.402 26.732 302.942 26.1996C302.483 25.6673 302.18 25.0231 302.033 24.2672C301.887 23.5112 301.928 22.8005 302.155 22.1351C302.383 21.4697 302.764 20.9121 303.298 20.4624C303.832 20.0126 304.473 19.7155 305.219 19.571C305.965 19.4266 306.67 19.4632 307.333 19.6811C307.997 19.8989 308.553 20.275 309.003 20.8092C309.463 21.3416 309.766 21.9857 309.912 22.7417C310.058 23.4976 310.018 24.2083 309.79 24.8737C309.572 25.5372 309.197 26.0988 308.665 26.5584C308.131 27.0081 307.49 27.3052 306.744 27.4497ZM306.565 26.5219C307.114 26.4155 307.582 26.1977 307.966 25.8686C308.358 25.5278 308.633 25.103 308.789 24.594C308.945 24.085 308.966 23.536 308.852 22.947C308.738 22.3579 308.513 21.8564 308.179 21.4425C307.844 21.0286 307.432 20.7417 306.942 20.5818C306.461 20.4102 305.945 20.3776 305.396 20.4841C304.846 20.5905 304.375 20.8141 303.982 21.1549C303.598 21.484 303.323 21.904 303.157 22.4149C303.001 22.9238 302.98 23.4728 303.094 24.0619C303.208 24.6509 303.432 25.1524 303.767 25.5663C304.112 25.9783 304.525 26.2701 305.006 26.4418C305.495 26.6017 306.015 26.6284 306.565 26.5219Z" fill="black"/>
<path d="M323.889 16.2526L325.224 24.0287L324.175 24.209L322.999 17.3642L318.121 18.2021L319.296 25.0468L318.247 25.2271L316.911 17.451L323.889 16.2526Z" fill="black"/>
<path d="M339.7 13.7797L340.87 21.5824L339.861 21.7337L339.648 20.3097C339.442 20.8259 339.117 21.2539 338.672 21.5936C338.226 21.9234 337.692 22.135 337.069 22.2285C336.04 22.3828 335.187 22.2226 334.509 21.7479C333.84 21.2619 333.423 20.47 333.258 19.3723L332.579 14.8479L333.632 14.6899L334.296 19.1104C334.419 19.9312 334.715 20.5239 335.184 20.8883C335.653 21.2527 336.269 21.3778 337.03 21.2635C337.851 21.1404 338.462 20.796 338.862 20.2303C339.261 19.6547 339.394 18.9219 339.261 18.0319L338.646 13.9377L339.7 13.7797Z" fill="black"/>
<path d="M354.205 11.8217L355.216 19.6467L354.16 19.7831L353.27 12.8953L349.521 13.3793L349.667 15.3267C349.797 16.9635 349.77 18.2374 349.586 19.1486C349.401 20.0598 348.927 20.5647 348.163 20.6633C347.955 20.6902 347.697 20.6831 347.389 20.6422L347.346 19.7252C347.53 19.7418 347.656 19.7456 347.726 19.7366C348.132 19.6841 348.415 19.456 348.575 19.0522C348.735 18.6485 348.813 18.1644 348.811 17.6001C348.809 17.0357 348.773 16.2941 348.705 15.3753L348.478 12.5612L354.205 11.8217Z" fill="black"/>
<path d="M366.921 18.3608C366.166 18.4426 365.467 18.3474 364.823 18.0751C364.179 17.7928 363.65 17.3673 363.237 16.7986C362.823 16.2298 362.575 15.5627 362.492 14.7972C362.409 14.0317 362.509 13.3268 362.791 12.6827C363.073 12.0385 363.499 11.5146 364.069 11.1109C364.639 10.7071 365.301 10.4643 366.057 10.3825C366.813 10.3006 367.512 10.3958 368.155 10.6682C368.798 10.9405 369.321 11.3615 369.725 11.9314C370.139 12.5001 370.387 13.1673 370.47 13.9328C370.553 14.6983 370.453 15.4031 370.171 16.0473C369.899 16.6904 369.478 17.2187 368.91 17.6324C368.34 18.0361 367.677 18.2789 366.921 18.3608ZM366.82 17.4213C367.376 17.361 367.86 17.1828 368.271 16.8869C368.69 16.5799 368.999 16.1794 369.196 15.6852C369.394 15.191 369.461 14.6456 369.396 14.0491C369.332 13.4526 369.15 12.9342 368.851 12.4938C368.552 12.0535 368.165 11.7333 367.69 11.5332C367.225 11.3221 366.714 11.2467 366.157 11.3071C365.6 11.3674 365.112 11.551 364.693 11.858C364.282 12.1539 363.973 12.5495 363.765 13.0448C363.568 13.539 363.501 14.0843 363.566 14.6809C363.63 15.2774 363.812 15.7958 364.111 16.2361C364.42 16.6754 364.808 17.0006 365.273 17.2117C365.747 17.4117 366.263 17.4816 366.82 17.4213Z" fill="black"/>
<path d="M381.865 16.8921C381.088 16.9607 380.376 16.853 379.728 16.5689C379.091 16.2839 378.571 15.8529 378.168 15.2761C377.765 14.6893 377.53 14.0124 377.462 13.2454C377.394 12.4784 377.508 11.7757 377.803 11.1372C378.098 10.4988 378.534 9.9834 379.112 9.59104C379.7 9.1978 380.382 8.96685 381.159 8.89821C381.836 8.83837 382.451 8.91961 383.002 9.14192C383.563 9.35339 384.02 9.6995 384.374 10.1802L383.63 10.7881C383.336 10.4225 382.982 10.1627 382.567 10.0086C382.151 9.84458 381.709 9.78325 381.241 9.82461C380.673 9.87477 380.171 10.0496 379.736 10.3491C379.31 10.6377 378.988 11.0275 378.77 11.5186C378.562 12.0088 378.485 12.5527 378.538 13.1504C378.592 13.758 378.764 14.2849 379.054 14.7311C379.353 15.1664 379.739 15.4938 380.21 15.7132C380.69 15.9217 381.214 16.0009 381.782 15.9507C382.25 15.9094 382.675 15.7765 383.057 15.552C383.438 15.3275 383.742 15.0096 383.966 14.5983L384.806 15.0662C384.542 15.6015 384.153 16.0274 383.639 16.3439C383.124 16.6504 382.532 16.8331 381.865 16.8921Z" fill="black"/>
<path d="M398.003 7.66711L398.541 15.5387L397.568 15.6053L397.39 13.0013L394.921 13.1703L394.622 13.1908L392.974 15.9196L391.822 15.9984L393.594 13.1107C392.974 12.9827 392.485 12.7255 392.128 12.339C391.771 11.9525 391.571 11.4449 391.528 10.8164C391.467 9.93846 391.721 9.24955 392.288 8.74967C392.855 8.24979 393.658 7.96436 394.695 7.89337L398.003 7.66711ZM392.607 10.7726C392.687 11.9399 393.47 12.4727 394.957 12.371L397.336 12.2082L397.094 8.67646L394.79 8.83412C393.253 8.93923 392.526 9.5854 392.607 10.7726Z" fill="black"/>
<path d="M419.96 6.76935C420.689 6.74343 421.345 6.88524 421.926 7.19479C422.517 7.49399 422.983 7.93272 423.324 8.51099C423.664 9.07926 423.848 9.73816 423.874 10.4877C423.902 11.2572 423.756 11.9478 423.438 12.5595C423.129 13.1608 422.681 13.6371 422.093 13.9882C421.505 14.3393 420.821 14.5287 420.042 14.5564C418.732 14.6029 417.702 14.1792 416.949 13.2854C416.197 12.3915 415.792 11.1351 415.735 9.51612C415.675 7.82719 415.949 6.52164 416.556 5.59948C417.174 4.67697 418.162 4.03149 419.519 3.66304L423.028 2.72784L423.243 3.69583L419.942 4.5786C418.822 4.86857 418.008 5.34276 417.501 6.00118C416.994 6.64961 416.737 7.59431 416.731 8.83531C417.029 8.21433 417.457 7.72383 418.015 7.3638C418.572 6.99378 419.22 6.79563 419.96 6.76935ZM420.04 13.6709C420.59 13.6513 421.075 13.509 421.496 13.2439C421.926 12.9684 422.253 12.5966 422.477 12.1284C422.71 11.6598 422.817 11.1357 422.796 10.556C422.776 9.97638 422.638 9.47097 422.382 9.03977C422.127 8.60857 421.775 8.28086 421.327 8.05663C420.888 7.82206 420.389 7.71472 419.829 7.7346C419.269 7.75449 418.774 7.89717 418.343 8.16263C417.922 8.41775 417.594 8.76961 417.36 9.21821C417.136 9.66646 417.034 10.1804 417.055 10.76C417.075 11.3397 417.214 11.8551 417.47 12.3063C417.736 12.7571 418.094 13.1046 418.543 13.3488C418.991 13.583 419.49 13.6904 420.04 13.6709Z" fill="black"/>
<path d="M438.43 6.15106L438.543 14.0402L437.523 14.0549L437.501 12.495C437.188 13.0296 436.769 13.4406 436.243 13.7282C435.727 14.0156 435.14 14.1641 434.48 14.1735C433.74 14.1842 433.067 14.0238 432.463 13.6924C431.858 13.3611 431.381 12.8929 431.032 12.2878C430.683 11.6827 430.504 10.9902 430.492 10.2103C430.481 9.43041 430.641 8.73304 430.972 8.11823C431.304 7.50341 431.767 7.02672 432.362 6.68815C432.957 6.33958 433.625 6.15998 434.365 6.14937C435.004 6.14019 435.581 6.26693 436.095 6.52958C436.619 6.7821 437.049 7.16096 437.387 7.66618L437.365 6.16633L438.43 6.15106ZM434.556 13.2273C435.106 13.2195 435.599 13.0874 436.036 12.8311C436.482 12.5647 436.826 12.1947 437.07 11.7211C437.323 11.2475 437.445 10.7106 437.437 10.1107C437.428 9.51077 437.29 8.97769 437.024 8.51147C436.767 8.0451 436.412 7.69016 435.958 7.44664C435.515 7.19298 435.018 7.07009 434.468 7.07798C433.908 7.08601 433.405 7.22324 432.959 7.48967C432.522 7.74596 432.177 8.11094 431.924 8.58462C431.681 9.05816 431.564 9.5949 431.572 10.1948C431.581 10.7948 431.714 11.3279 431.97 11.7943C432.237 12.2605 432.592 12.6205 433.036 12.8741C433.489 13.1176 433.996 13.2354 434.556 13.2273Z" fill="black"/>
<path d="M452.964 7.09366L448.449 7.06899L448.411 14.0139L447.346 14.0081L447.389 6.11819L452.969 6.14868L452.964 7.09366Z" fill="black"/>
<path d="M467.684 6.43702L467.485 14.3245L466.465 14.2987L466.504 12.7392C466.171 13.261 465.736 13.6551 465.199 13.9216C464.672 14.1884 464.079 14.3134 463.419 14.2968C462.679 14.2781 462.014 14.0912 461.423 13.7361C460.831 13.3811 460.374 12.8943 460.049 12.2759C459.725 11.6575 459.572 10.9585 459.592 10.1787C459.612 9.39897 459.799 8.70849 460.154 8.10728C460.51 7.50606 460.991 7.04809 461.6 6.73336C462.208 6.40863 462.882 6.25561 463.622 6.27431C464.262 6.29049 464.833 6.43997 465.336 6.72278C465.849 6.99583 466.265 7.39145 466.582 7.90963L466.619 6.41011L467.684 6.43702ZM463.533 13.3543C464.083 13.3682 464.581 13.2558 465.027 13.017C465.483 12.7684 465.842 12.4124 466.104 11.9489C466.376 11.4856 466.52 10.954 466.535 10.3542C466.55 9.75442 466.433 9.2163 466.185 8.73988C465.947 8.26372 465.607 7.89499 465.163 7.63369C464.73 7.36266 464.238 7.22019 463.688 7.20629C463.129 7.19214 462.62 7.30934 462.164 7.55788C461.718 7.79668 461.359 8.14772 461.087 8.611C460.825 9.07454 460.687 9.60621 460.672 10.206C460.656 10.8058 460.768 11.3438 461.006 11.82C461.254 12.2964 461.595 12.6701 462.028 12.9412C462.471 13.2025 462.973 13.3402 463.533 13.3543Z" fill="black"/>
<path d="M486.504 7.17348C487.492 7.2235 488.252 7.54729 488.782 8.14486C489.323 8.74293 489.565 9.59626 489.509 10.7048L489.278 15.274L488.214 15.2202L488.44 10.7559C488.481 9.93694 488.313 9.30263 487.936 8.85297C487.568 8.40382 487.024 8.16105 486.305 8.12467C485.486 8.08324 484.829 8.30533 484.334 8.79093C483.839 9.26655 483.57 9.94878 483.525 10.8376L483.315 14.9724L482.252 14.9186L482.478 10.4543C482.519 9.63531 482.351 9.001 481.973 8.55134C481.605 8.10218 481.057 7.85917 480.328 7.82228C479.519 7.78136 478.862 8.00344 478.357 8.48854C477.862 8.96415 477.592 9.64639 477.547 10.5353L477.338 14.67L476.274 14.6162L476.673 6.73624L477.692 6.78777L477.619 8.22593C477.923 7.76069 478.331 7.41087 478.844 7.17647C479.356 6.94206 479.937 6.84128 480.586 6.87412C481.245 6.90746 481.807 7.07609 482.273 7.37998C482.748 7.68438 483.092 8.11729 483.303 8.67871C483.619 8.17403 484.054 7.79052 484.608 7.52817C485.173 7.25634 485.804 7.13811 486.504 7.17348Z" fill="black"/>
<path d="M500.446 16.1296C499.688 16.0725 499.018 15.8516 498.435 15.4667C497.853 15.0719 497.411 14.5573 497.107 13.9227C496.804 13.2882 496.681 12.587 496.739 11.8191C496.797 11.0513 497.023 10.3764 497.418 9.79439C497.813 9.21238 498.327 8.77475 498.961 8.4815C499.595 8.18825 500.291 8.07015 501.048 8.1272C501.806 8.18425 502.477 8.40519 503.059 8.79002C503.642 9.17485 504.08 9.68417 504.373 10.318C504.677 10.9525 504.799 11.6537 504.742 12.4215C504.684 13.1894 504.457 13.8643 504.063 14.4463C503.678 15.029 503.168 15.472 502.534 15.7753C501.9 16.0685 501.204 16.1866 500.446 16.1296ZM500.517 15.1872C501.075 15.2293 501.583 15.1421 502.041 14.9259C502.509 14.7004 502.886 14.3627 503.17 13.9128C503.455 13.4629 503.62 12.9388 503.665 12.3405C503.71 11.7422 503.625 11.1993 503.411 10.7118C503.197 10.2244 502.875 9.83915 502.445 9.55607C502.026 9.26378 501.537 9.09661 500.979 9.05458C500.42 9.01254 499.907 9.10426 499.439 9.32975C498.981 9.54602 498.605 9.87873 498.311 10.3279C498.026 10.7778 497.861 11.3019 497.816 11.9002C497.771 12.4985 497.856 13.0414 498.07 13.5288C498.294 14.017 498.615 14.4073 499.034 14.6996C499.464 14.9826 499.959 15.1452 500.517 15.1872Z" fill="black"/>
<path d="M512.366 15.4795C512.595 15.5005 512.776 15.5975 512.911 15.7705C513.047 15.9336 513.104 16.1297 513.083 16.3587C513.072 16.4782 513.04 16.6059 512.988 16.7416C512.945 16.8783 512.881 17.033 512.795 17.2059L511.978 19.2096L511.261 19.1438L511.968 17.0246C511.813 16.9601 511.692 16.8586 511.604 16.72C511.517 16.5715 511.482 16.4026 511.5 16.2134C511.521 15.9844 511.613 15.802 511.776 15.6663C511.94 15.5207 512.136 15.4584 512.366 15.4795Z" fill="black"/>
<path d="M536.852 11.7447L535.911 19.5784L534.854 19.4514L535.246 16.1898C534.294 16.4784 533.382 16.5703 532.508 16.4653C531.565 16.3521 530.856 16.0503 530.381 15.5602C529.907 15.0601 529.722 14.3782 529.826 13.5144L530.135 10.9379L531.193 11.0649L530.891 13.5819C530.82 14.1677 530.955 14.6371 531.295 14.9902C531.637 15.3334 532.14 15.5449 532.806 15.6248C533.54 15.7131 534.388 15.6184 535.348 15.3409L535.795 11.6177L536.852 11.7447Z" fill="black"/>
<path d="M552.063 13.7935L550.961 21.6063L549.951 21.4639L550.169 19.9192C549.778 20.3993 549.301 20.741 548.737 20.9443C548.183 21.149 547.579 21.2053 546.926 21.1132C546.193 21.0099 545.553 20.748 545.007 20.3276C544.46 19.9072 544.061 19.3713 543.809 18.7198C543.558 18.0683 543.486 17.3564 543.595 16.584C543.704 15.8116 543.97 15.1472 544.391 14.5906C544.813 14.034 545.344 13.6342 545.984 13.3912C546.626 13.1383 547.313 13.0634 548.046 13.1667C548.68 13.2561 549.23 13.47 549.697 13.8085C550.176 14.1386 550.543 14.5791 550.799 15.1302L551.008 13.6448L552.063 13.7935ZM547.147 20.19C547.691 20.2668 548.199 20.2121 548.67 20.0259C549.151 19.8313 549.549 19.5187 549.862 19.0882C550.185 18.6591 550.389 18.1475 550.472 17.5533C550.556 16.9592 550.502 16.4113 550.31 15.9096C550.128 15.4093 549.832 15.004 549.421 14.6936C549.022 14.3748 548.55 14.1769 548.005 14.1002C547.451 14.022 546.932 14.0803 546.451 14.2749C545.98 14.4611 545.583 14.7687 545.26 15.1978C544.947 15.6283 544.748 16.1406 544.665 16.7348C544.581 17.3289 544.63 17.8761 544.812 18.3764C545.004 18.8781 545.3 19.2883 545.699 19.6072C546.11 19.9176 546.592 20.1118 547.147 20.19Z" fill="black"/>
<path d="M562.909 23.5274C562.139 23.4027 561.475 23.123 560.917 22.6883C560.369 22.2552 559.972 21.7096 559.724 21.0515C559.477 20.3835 559.415 19.6695 559.539 18.9094C559.662 18.1493 559.945 17.4961 560.388 16.9499C560.831 16.4037 561.38 16.0115 562.037 15.7734C562.703 15.5368 563.421 15.4809 564.191 15.6056C564.863 15.7143 565.438 15.9442 565.918 16.2955C566.41 16.6384 566.768 17.0864 566.992 17.6394L566.121 18.0454C565.927 17.6189 565.648 17.2798 565.283 17.0283C564.92 16.767 564.507 16.5987 564.043 16.5236C563.48 16.4325 562.951 16.4785 562.455 16.6617C561.971 16.8365 561.563 17.1352 561.231 17.5576C560.909 17.9816 560.701 18.4897 560.605 19.082C560.507 19.6842 560.544 20.2372 560.716 20.7411C560.899 21.2368 561.192 21.6489 561.595 21.9774C562.009 22.2978 562.497 22.5035 563.06 22.5946C563.524 22.6697 563.968 22.6454 564.394 22.5218C564.819 22.3982 565.191 22.1647 565.51 21.8212L566.208 22.4813C565.821 22.9352 565.339 23.2523 564.763 23.4325C564.188 23.6029 563.57 23.6345 562.909 23.5274Z" fill="black"/>
<path d="M584.573 19.2006C585.547 19.3822 586.256 19.8044 586.702 20.4675C587.158 21.1323 587.284 22.0104 587.081 23.1015L586.242 27.5989L585.195 27.4036L586.014 23.0094C586.165 22.2034 586.083 21.5523 585.768 21.0562C585.464 20.562 584.958 20.2489 584.25 20.1168C583.444 19.9664 582.763 20.0988 582.208 20.514C581.654 20.9193 581.295 21.5595 581.132 22.4344L580.373 26.5042L579.326 26.3089L580.146 21.9147C580.296 21.1086 580.214 20.4575 579.9 19.9614C579.595 19.4672 579.084 19.1531 578.366 19.0193C577.57 18.8707 576.889 19.0031 576.324 19.4165C575.77 19.8218 575.412 20.4619 575.249 21.3368L574.489 25.4066L573.442 25.2113L574.889 17.4551L575.892 17.6422L575.628 19.0577C575.991 18.6372 576.442 18.345 576.982 18.1811C577.521 18.0172 578.11 17.9949 578.749 18.1141C579.398 18.2351 579.932 18.4773 580.353 18.8405C580.783 19.2056 581.066 19.6805 581.201 20.2652C581.582 19.8072 582.064 19.4852 582.648 19.2991C583.243 19.1051 583.885 19.0722 584.573 19.2006Z" fill="black"/>
<path d="M597.556 26.3496L595.795 25.9773L595.069 29.4114L594.027 29.1912L595.659 21.4718L596.701 21.692L595.984 25.0821L597.76 25.4575L601.192 22.6414L602.322 22.8803L598.493 25.9804L600.91 30.6462L599.677 30.3856L597.556 26.3496Z" fill="black"/>
<path d="M616.367 26.0726L614.795 32.822C614.491 34.127 613.969 35.022 613.23 35.507C612.489 36.0017 611.519 36.1095 610.321 35.8305C609.649 35.674 609.036 35.4183 608.482 35.0634C607.935 34.7205 607.52 34.3209 607.236 33.8646L607.946 33.1982C608.2 33.6065 608.549 33.9598 608.993 34.2583C609.437 34.5568 609.936 34.7707 610.491 34.8999C611.378 35.1064 612.083 35.0295 612.609 34.6693C613.132 34.3188 613.505 33.6663 613.727 32.7119L613.935 31.8207C613.558 32.2052 613.102 32.4636 612.568 32.596C612.044 32.7306 611.485 32.7287 610.891 32.5903C609.888 32.3567 609.158 31.8942 608.703 31.203C608.26 30.5043 608.165 29.6144 608.416 28.5333L609.369 24.4428L610.406 24.6844L609.477 28.6726C609.289 29.481 609.346 30.1411 609.648 30.6529C609.95 31.1647 610.47 31.5068 611.211 31.6792C612.019 31.8674 612.714 31.7725 613.295 31.3944C613.878 31.0066 614.271 30.3744 614.476 29.4979L615.33 25.831L616.367 26.0726Z" fill="black"/>
<path d="M636.688 35.1209C637.195 35.3913 637.553 35.7198 637.76 36.1065C637.976 36.4958 638.025 36.9127 637.906 37.357C637.787 37.8013 637.527 38.156 637.124 38.421C636.732 38.6886 636.249 38.8491 635.676 38.9027C635.105 38.9465 634.505 38.8844 633.878 38.7163C633.327 38.5689 632.807 38.3468 632.317 38.0499C631.829 37.7435 631.429 37.3827 631.116 36.9675L631.669 36.2927C631.947 36.6466 632.299 36.9581 632.723 37.2271C633.148 37.4962 633.597 37.6941 634.071 37.8208C634.776 38.0096 635.386 38.0331 635.9 37.8912C636.426 37.7423 636.75 37.4409 636.872 36.9869C636.98 36.5811 636.881 36.2181 636.573 35.8976C636.268 35.5675 635.797 35.3171 635.159 35.1464L633.855 34.7972L634.057 34.0438L635.303 34.3774C635.873 34.53 636.36 34.5466 636.765 34.4272C637.172 34.2981 637.425 34.0501 637.523 33.683C637.632 33.2773 637.519 32.9055 637.185 32.5676C636.861 32.2323 636.385 31.9806 635.757 31.8125C634.936 31.5927 634.069 31.5831 633.156 31.7838L633.08 30.9093C634.114 30.6791 635.12 30.6946 636.095 30.9558C636.675 31.111 637.173 31.3376 637.59 31.6356C638.02 31.9265 638.323 32.2615 638.501 32.6404C638.689 33.022 638.729 33.4156 638.62 33.8213C638.517 34.2077 638.289 34.5144 637.939 34.7414C637.598 34.9711 637.181 35.0975 636.688 35.1209Z" fill="black"/>
<path d="M656.308 36.7367L657.327 37.0457L656.313 40.3903L661.064 41.831L662.078 38.4864L663.098 38.7954L660.808 46.3459L659.789 46.0369L660.799 42.7066L656.047 41.266L655.038 44.5963L654.018 44.2872L656.308 36.7367Z" fill="black"/>
<path d="M678.327 43.6623L675.878 51.1627L674.908 50.8461L675.355 49.4773C674.94 49.8466 674.458 50.0836 673.908 50.1882C673.362 50.2833 672.789 50.2331 672.19 50.0376C671.201 49.7148 670.51 49.1894 670.117 48.4613C669.736 47.7268 669.718 46.832 670.062 45.7768L671.482 41.4277L672.495 41.7583L671.107 46.0075C670.85 46.7965 670.849 47.4591 671.105 47.9951C671.362 48.5311 671.856 48.9186 672.588 49.1576C673.377 49.4152 674.077 49.3808 674.688 49.0545C675.303 48.7186 675.75 48.1229 676.029 47.2674L677.314 43.3318L678.327 43.6623Z" fill="black"/>
<path d="M688.144 55.3572L686.862 51.4175L683.398 53.7066L682.264 53.3124L686.541 50.512L684.998 45.9095L686.131 46.3037L687.354 50.0007L690.608 47.8607L691.713 48.245L687.646 50.8964L689.291 55.7563L688.144 55.3572Z" fill="black"/>
<path d="M696.335 56.6357C696.551 56.7145 696.702 56.8548 696.788 57.0565C696.878 57.2488 696.883 57.453 696.805 57.6691C696.763 57.7818 696.7 57.8971 696.615 58.0149C696.538 58.1362 696.437 58.2693 696.309 58.4145L695.008 60.1433L694.332 59.8966L695.556 58.028C695.423 57.9262 695.332 57.7971 695.282 57.6407C695.236 57.4749 695.246 57.3028 695.311 57.1243C695.39 56.9082 695.525 56.7554 695.718 56.6659C695.913 56.567 696.119 56.5569 696.335 56.6357Z" fill="black"/>
<path d="M718.696 62.4774C719.598 63.105 719.856 63.902 719.472 64.8684C719.217 65.5096 718.784 65.9079 718.174 66.0633C717.563 66.2187 716.789 66.1099 715.85 65.7367L712.519 64.4123L715.434 57.0805L718.667 58.3661C719.504 58.6986 720.094 59.1217 720.439 59.6354C720.784 60.149 720.836 60.7079 720.596 61.3119C720.437 61.7115 720.189 62.011 719.851 62.2104C719.526 62.4042 719.141 62.4932 718.696 62.4774ZM715.099 60.7245L717.301 61.6001C717.868 61.8255 718.342 61.8904 718.725 61.7949C719.116 61.7031 719.394 61.4527 719.556 61.0439C719.719 60.635 719.687 60.2674 719.462 59.941C719.246 59.6184 718.854 59.3444 718.287 59.119L716.085 58.2434L715.099 60.7245ZM716.119 64.9395C716.751 65.1908 717.265 65.277 717.662 65.1981C718.06 65.1193 718.345 64.8615 718.519 64.4248C718.692 63.988 718.676 63.6102 718.469 63.2912C718.266 62.9629 717.853 62.6751 717.23 62.4275L714.805 61.4633L713.791 64.0141L716.119 64.9395Z" fill="black"/>
<path d="M735.864 65.4464L732.799 72.7169L731.86 72.3207L732.419 70.9938C731.974 71.3274 731.474 71.5234 730.918 71.5819C730.365 71.6311 729.798 71.5334 729.218 71.2887C728.26 70.8848 727.615 70.3036 727.283 69.5453C726.965 68.7817 727.021 67.8885 727.452 66.8656L729.229 62.6498L730.211 63.0635L728.474 67.1825C728.152 67.9474 728.096 68.6075 728.307 69.163C728.518 69.7185 728.978 70.1458 729.688 70.4449C730.452 70.7672 731.153 70.7913 731.79 70.517C732.43 70.2335 732.925 69.677 733.275 68.8477L734.883 65.0327L735.864 65.4464Z" fill="black"/>
<path d="M749.846 71.5906L746.628 78.7946L745.656 78.3602L748.488 72.0191L743.969 70.0003L741.136 76.3415L740.164 75.9071L743.382 68.7031L749.846 71.5906Z" fill="black"/>
<path d="M764.358 78.3342L760.988 85.4685L760.066 85.0329L760.681 83.7308C760.222 84.0452 759.714 84.2199 759.156 84.2548C758.602 84.2806 758.04 84.159 757.47 83.8899C756.53 83.4458 755.91 82.8379 755.611 82.0662C755.325 81.2898 755.419 80.3998 755.893 79.3961L757.847 75.2593L758.81 75.7141L756.901 79.756C756.547 80.5065 756.463 81.1637 756.65 81.7276C756.837 82.2915 757.279 82.7379 757.975 83.0667C758.726 83.4212 759.425 83.4749 760.072 83.2278C760.724 82.9716 761.242 82.4366 761.627 81.6229L763.395 77.8794L764.358 78.3342Z" fill="black"/>
<path d="M781.484 86.7818L777.949 93.8359L768.213 88.9576L771.747 81.9035L772.7 82.3806L769.582 88.6032L773.042 90.3368L776.16 84.1142L777.112 84.5913L773.994 90.8139L777.414 92.5273L780.531 86.3047L781.484 86.7818Z" fill="black"/>
<path d="M788.481 98.3567C788.913 98.5863 789.351 98.7221 789.793 98.764C790.248 98.8018 790.683 98.7385 791.099 98.574L791.306 99.4647C790.8 99.6718 790.265 99.7506 789.703 99.7013C789.14 99.652 788.581 99.4797 788.024 99.1845C787.309 98.8049 786.752 98.3173 786.355 97.7218C785.963 97.1173 785.755 96.4637 785.731 95.7608C785.708 95.0579 785.877 94.3664 786.238 93.6861C786.598 93.0059 787.068 92.4737 787.645 92.0894C788.231 91.7099 788.864 91.5081 789.545 91.4843C790.226 91.4604 790.897 91.6242 791.56 91.9756C792.178 92.3036 792.66 92.7402 793.004 93.2853C793.358 93.8351 793.547 94.4391 793.571 95.0973C793.605 95.7601 793.459 96.4187 793.135 97.073L786.82 95.1495C786.697 95.8086 786.778 96.4235 787.064 96.994C787.363 97.5604 787.836 98.0146 788.481 98.3567ZM791.131 92.7839C790.645 92.5262 790.147 92.4091 789.636 92.4326C789.139 92.4519 788.673 92.6062 788.236 92.8955C787.813 93.1805 787.464 93.5837 787.187 94.1049C787.117 94.2374 787.07 94.3369 787.046 94.4034L792.468 96.0571C792.671 95.4178 792.655 94.7979 792.419 94.1972C792.187 93.5877 791.758 93.1166 791.131 92.7839Z" fill="black"/>
<path d="M809.854 102.055L806.005 108.942L805.154 108.467L808.198 103.019L802.833 106.07L802.414 105.836L802.208 99.6552L799.157 105.116L798.306 104.64L802.155 97.7523L803.097 98.2792L803.244 104.874L808.99 101.572L809.854 102.055Z" fill="black"/>
<path d="M815.84 114.717C815.185 114.332 814.68 113.839 814.327 113.236C813.978 112.625 813.808 111.968 813.815 111.265C813.822 110.562 814.021 109.878 814.411 109.215C814.802 108.551 815.302 108.045 815.913 107.696C816.524 107.348 817.178 107.181 817.877 107.197C818.575 107.213 819.251 107.414 819.907 107.799C820.562 108.184 821.066 108.678 821.42 109.28C821.773 109.882 821.942 110.533 821.926 111.231C821.919 111.934 821.72 112.618 821.33 113.281C820.94 113.945 820.439 114.451 819.828 114.8C819.226 115.153 818.573 115.327 817.87 115.319C817.172 115.303 816.495 115.103 815.84 114.717ZM816.319 113.903C816.802 114.186 817.296 114.332 817.802 114.34C818.322 114.343 818.808 114.206 819.262 113.928C819.716 113.649 820.095 113.251 820.399 112.734C820.703 112.217 820.866 111.692 820.889 111.16C820.911 110.629 820.792 110.141 820.531 109.697C820.283 109.25 819.918 108.885 819.435 108.601C818.953 108.317 818.451 108.173 817.932 108.169C817.426 108.162 816.941 108.295 816.479 108.568C816.025 108.847 815.647 109.245 815.343 109.762C815.038 110.279 814.875 110.804 814.852 111.336C814.838 111.873 814.955 112.365 815.203 112.812C815.464 113.255 815.836 113.619 816.319 113.903Z" fill="black"/>
<path d="M846.157 123.956C846.991 124.489 847.491 125.146 847.656 125.928C847.83 126.715 847.618 127.577 847.02 128.512L844.558 132.368L843.661 131.795L846.066 128.027C846.508 127.336 846.676 126.702 846.57 126.124C846.473 125.552 846.121 125.072 845.514 124.685C844.823 124.243 844.142 124.111 843.471 124.288C842.806 124.456 842.234 124.916 841.755 125.666L839.527 129.155L838.629 128.582L841.035 124.814C841.476 124.123 841.644 123.489 841.538 122.911C841.441 122.339 841.085 121.856 840.469 121.463C839.787 121.027 839.106 120.895 838.427 121.067C837.762 121.235 837.19 121.694 836.711 122.445L834.482 125.934L833.585 125.361L837.831 118.711L838.691 119.26L837.916 120.473C838.41 120.22 838.938 120.118 839.499 120.168C840.061 120.218 840.615 120.417 841.163 120.767C841.719 121.123 842.124 121.547 842.378 122.042C842.641 122.541 842.725 123.088 842.631 123.68C843.155 123.398 843.723 123.28 844.334 123.326C844.959 123.369 845.567 123.579 846.157 123.956Z" fill="black"/>
<path d="M861.464 134.175L857.588 139.92C856.838 141.03 856.032 141.68 855.168 141.87C854.299 142.067 853.355 141.822 852.335 141.134C851.763 140.748 851.282 140.291 850.891 139.762C850.503 139.246 850.257 138.725 850.155 138.197L851.055 137.828C851.147 138.3 851.347 138.755 851.655 139.192C851.963 139.629 852.354 140.007 852.826 140.326C853.581 140.835 854.267 141.015 854.887 140.866C855.501 140.725 856.081 140.248 856.63 139.436L857.141 138.677C856.652 138.902 856.134 138.981 855.588 138.914C855.051 138.853 854.529 138.652 854.023 138.31C853.169 137.734 852.653 137.042 852.475 136.234C852.31 135.423 852.538 134.558 853.159 133.638L855.508 130.156L856.391 130.752L854.1 134.146C853.636 134.834 853.454 135.471 853.553 136.057C853.653 136.643 854.017 137.148 854.647 137.573C855.335 138.038 856.018 138.197 856.696 138.051C857.379 137.897 857.972 137.446 858.475 136.7L860.581 133.579L861.464 134.175Z" fill="black"/>
<path d="M877.004 144.975C877.811 145.549 878.277 146.231 878.402 147.02C878.536 147.815 878.281 148.665 877.637 149.569L874.983 153.295L874.115 152.678L876.708 149.037C877.184 148.369 877.384 147.743 877.307 147.161C877.239 146.585 876.912 146.088 876.325 145.67C875.657 145.194 874.984 145.028 874.305 145.171C873.632 145.305 873.038 145.735 872.521 146.46L870.12 149.832L869.252 149.214L871.845 145.573C872.321 144.905 872.521 144.28 872.444 143.698C872.376 143.122 872.045 142.622 871.45 142.198C870.79 141.728 870.117 141.562 869.43 141.699C868.757 141.833 868.163 142.263 867.646 142.988L865.245 146.36L864.377 145.742L868.954 139.316L869.785 139.907L868.95 141.08C869.456 140.852 869.989 140.777 870.547 140.855C871.105 140.933 871.649 141.161 872.178 141.538C872.716 141.921 873.099 142.365 873.327 142.872C873.564 143.384 873.621 143.934 873.497 144.521C874.035 144.266 874.608 144.177 875.216 144.254C875.838 144.329 876.434 144.569 877.004 144.975Z" fill="black"/>
<path d="M881.391 158.129C881.214 157.998 881.109 157.82 881.076 157.596C881.051 157.378 881.108 157.177 881.245 156.993C881.382 156.808 881.556 156.7 881.765 156.67C881.989 156.637 882.19 156.686 882.366 156.817C882.543 156.948 882.647 157.126 882.68 157.35C882.719 157.566 882.67 157.766 882.533 157.95C882.396 158.135 882.215 158.244 881.991 158.277C881.767 158.31 881.567 158.26 881.391 158.129Z" fill="black"/>
</svg>
