<svg width="1505" height="269" viewBox="0 0 1505 269" fill="none" xmlns="http://www.w3.org/2000/svg">
<path d="M22.2158 223.646L33.8456 241.131L31.3976 242.76L21.2132 227.447L11.0716 234.192L21.256 249.505L18.783 251.15L7.15317 233.664L22.2158 223.646Z" fill="black"/>
<path d="M49.2294 231.454C47.8956 232.301 46.5092 232.767 45.0703 232.851C43.6314 232.936 42.2811 232.656 41.0193 232.012C39.7636 231.34 38.7177 230.346 37.8814 229.029C37.0451 227.712 36.5955 226.351 36.5324 224.946C36.4755 223.514 36.7966 222.172 37.4957 220.923C38.1841 219.657 39.1953 218.6 40.5291 217.753C41.8628 216.906 43.2408 216.446 44.6628 216.372C46.091 216.27 47.4329 216.555 48.6885 217.227C49.9503 217.871 50.9994 218.851 51.8356 220.168C52.6719 221.485 53.1185 222.86 53.1754 224.293C53.2385 225.698 52.9258 227.034 52.2374 228.3C51.5659 229.556 50.5632 230.607 49.2294 231.454ZM47.8785 229.327C48.7396 228.78 49.3845 228.098 49.8132 227.281C50.2481 226.436 50.4346 225.536 50.3726 224.58C50.2999 223.607 49.9688 222.657 49.3791 221.728C48.7894 220.8 48.0753 220.104 47.2367 219.641C46.3873 219.162 45.4932 218.948 44.5544 218.999C43.6325 219.04 42.741 219.333 41.8799 219.88C41.0189 220.427 40.3655 221.114 39.9199 221.942C39.4911 222.759 39.3047 223.66 39.3605 224.643C39.4225 225.599 39.7483 226.541 40.338 227.469C40.9276 228.398 41.6471 229.102 42.4965 229.581C43.352 230.033 44.246 230.247 45.1787 230.224C46.1175 230.172 47.0174 229.873 47.8785 229.327Z" fill="black"/>
<path d="M63.4294 204.336C64.6938 203.567 65.9931 203.163 67.3271 203.124C68.6611 203.085 69.9082 203.403 71.0682 204.078C72.235 204.726 73.2082 205.691 73.9878 206.973C74.7882 208.288 75.2012 209.641 75.2268 211.03C75.2592 212.391 74.9086 213.681 74.1752 214.9C73.4588 216.108 72.4172 217.128 71.0503 217.96C68.7436 219.363 66.4799 219.663 64.2592 218.861C62.0452 218.03 60.065 216.18 58.3187 213.309C56.6244 210.524 55.8714 207.998 56.0599 205.729C56.238 203.444 57.3501 201.327 59.3962 199.38L64.7567 194.223L66.4876 196.26L61.5206 200.967C59.9826 202.441 59.0638 203.913 58.7641 205.383C58.4644 206.853 58.7901 208.504 59.7411 210.337C59.7919 209.112 60.1332 207.98 60.7648 206.94C61.3964 205.901 62.2846 205.032 63.4294 204.336ZM69.8542 215.878C70.7256 215.348 71.375 214.684 71.8023 213.885C72.2466 213.077 72.4489 212.216 72.409 211.304C72.3587 210.375 72.0633 209.466 71.5228 208.577C70.7016 207.228 69.6315 206.392 68.3124 206.071C66.9933 205.75 65.6674 205.994 64.3346 206.805C63.0019 207.616 62.1663 208.686 61.828 210.016C61.5068 211.335 61.7568 212.669 62.578 214.019C63.1185 214.908 63.7898 215.588 64.5919 216.06C65.4007 216.504 66.2663 216.715 67.1889 216.692C68.1114 216.669 68.9999 216.398 69.8542 215.878Z" fill="black"/>
<path d="M90.7672 187.534L98.763 201.278L96.3773 202.666L95.1101 200.487C94.9994 201.57 94.6362 202.556 94.0205 203.447C93.4047 204.337 92.5869 205.079 91.567 205.673C90.2358 206.447 88.872 206.847 87.4756 206.873C86.0791 206.899 84.7716 206.56 83.553 205.858C82.3417 205.128 81.3337 204.071 80.5291 202.688C79.7245 201.305 79.3094 199.916 79.2836 198.519C79.2751 197.113 79.6272 195.809 80.3398 194.608C81.0523 193.406 82.0742 192.418 83.4053 191.644C84.3906 191.071 85.4089 190.733 86.4599 190.63C87.5009 190.511 88.5092 190.653 89.4848 191.057L88.2779 188.983L90.7672 187.534ZM90.5072 203.374C91.3715 202.871 92.0424 202.214 92.5199 201.404C92.9873 200.577 93.2085 199.685 93.1837 198.727C93.1489 197.753 92.8549 196.79 92.3017 195.839C91.7485 194.888 91.0619 194.166 90.2419 193.671C89.4118 193.159 88.5267 192.91 87.5866 192.925C86.6466 192.94 85.7443 193.199 84.88 193.702C83.9983 194.214 83.3188 194.876 82.8413 195.686C82.3812 196.486 82.1599 197.378 82.1774 198.363C82.2023 199.32 82.4912 200.274 83.0444 201.225C83.5976 202.176 84.2892 202.907 85.1193 203.419C85.9566 203.904 86.8417 204.153 87.7745 204.165C88.7146 204.15 89.6255 203.887 90.5072 203.374Z" fill="black"/>
<path d="M117.712 182.949L115.008 184.444L118.259 190.325L115.739 191.718L112.488 185.837L109.783 187.332L109.201 195.332L106.208 196.987L107.01 187.152L98.8832 182.869L101.561 181.388L108.567 185.194L111.297 183.684L108.046 177.803L110.567 176.41L113.818 182.291L116.549 180.781L117.052 172.825L119.756 171.33L119.075 180.516L127.816 185.042L124.823 186.696L117.712 182.949Z" fill="black"/>
<path d="M141.293 159.965L148.679 174.046L146.234 175.328L145.064 173.096C144.906 174.173 144.5 175.143 143.846 176.005C143.191 176.868 142.342 177.573 141.297 178.121C139.933 178.837 138.553 179.177 137.157 179.141C135.761 179.106 134.469 178.71 133.283 177.955C132.104 177.173 131.144 176.073 130.401 174.656C129.657 173.239 129.303 171.833 129.339 170.436C129.392 169.031 129.801 167.744 130.566 166.575C131.33 165.406 132.394 164.464 133.758 163.748C134.768 163.219 135.8 162.926 136.854 162.87C137.899 162.796 138.9 162.982 139.857 163.429L138.743 161.303L141.293 159.965ZM140.339 175.778C141.224 175.314 141.924 174.687 142.436 173.899C142.939 173.093 143.199 172.211 143.217 171.254C143.224 170.278 142.973 169.304 142.462 168.33C141.951 167.355 141.297 166.603 140.499 166.073C139.692 165.525 138.819 165.238 137.879 165.212C136.939 165.185 136.027 165.404 135.141 165.869C134.238 166.342 133.53 166.973 133.017 167.762C132.523 168.541 132.262 169.422 132.237 170.407C132.22 171.365 132.467 172.33 132.978 173.304C133.488 174.279 134.147 175.04 134.954 175.588C135.769 176.108 136.643 176.396 137.574 176.449C138.514 176.476 139.436 176.252 140.339 175.778Z" fill="black"/>
<path d="M151.364 154.805L153.941 153.519L156.956 159.558L165.062 155.511L162.047 149.472L164.623 148.185L171.726 162.411L169.149 163.697L166.174 157.738L158.068 161.786L161.043 167.744L158.467 169.031L151.364 154.805Z" fill="black"/>
<path d="M187.868 155.02C185.827 155.991 184.02 156.242 182.445 155.773C180.889 155.296 179.677 154.145 178.809 152.321L174.541 143.355L177.142 142.117L179.785 147.67C180.031 146.977 180.491 146.315 181.165 145.684C181.849 145.027 182.66 144.474 183.599 144.027C185.387 143.176 186.992 142.966 188.415 143.396C189.838 143.826 190.928 144.836 191.685 146.425C192.501 148.141 192.577 149.766 191.912 151.301C191.238 152.817 189.89 154.057 187.868 155.02ZM186.954 153.029C188.127 152.471 188.898 151.716 189.265 150.766C189.633 149.816 189.563 148.808 189.056 147.743C188.574 146.732 187.871 146.092 186.946 145.823C186.021 145.555 184.971 145.7 183.797 146.259C182.931 146.671 182.245 147.208 181.74 147.869C181.235 148.53 180.957 149.25 180.906 150.027L181.512 151.3C182.037 152.402 182.783 153.109 183.752 153.423C184.713 153.719 185.78 153.588 186.954 153.029Z" fill="black"/>
<path d="M219.733 130.944C220.816 130.772 221.748 130.852 222.529 131.184C223.31 131.517 223.887 132.104 224.258 132.946C224.638 133.805 224.685 134.703 224.399 135.639C224.105 136.556 223.521 137.437 222.648 138.282C221.786 139.101 220.714 139.793 219.433 140.359C218.354 140.836 217.233 141.168 216.069 141.354C214.915 141.514 213.818 141.507 212.779 141.332L212.689 138.977C213.578 139.109 214.528 139.105 215.537 138.965C216.539 138.806 217.497 138.525 218.412 138.121C219.655 137.571 220.55 136.924 221.096 136.18C221.652 135.41 221.768 134.658 221.445 133.927C221.146 133.25 220.614 132.862 219.848 132.763C219.101 132.656 218.188 132.841 217.109 133.318L214.447 134.494L213.61 132.601L216.08 131.509C217.068 131.073 217.768 130.555 218.182 129.957C218.595 129.359 218.669 128.758 218.402 128.154C218.111 127.496 217.546 127.133 216.707 127.066C215.887 126.992 214.91 127.205 213.776 127.706C212.331 128.345 210.969 129.395 209.691 130.856L208.08 129.141C209.458 127.46 211.117 126.192 213.056 125.335C214.226 124.817 215.351 124.517 216.429 124.434C217.508 124.351 218.446 124.494 219.243 124.863C220.04 125.232 220.609 125.801 220.948 126.569C221.264 127.283 221.309 128.028 221.084 128.806C220.859 129.583 220.409 130.296 219.733 130.944Z" fill="black"/>
<path d="M242.923 112.755L249.081 127.414L246.536 128.483L245.56 126.159C245.311 127.218 244.824 128.15 244.098 128.954C243.373 129.757 242.466 130.387 241.378 130.844C239.958 131.441 238.555 131.662 237.166 131.507C235.778 131.353 234.525 130.849 233.407 129.995C232.3 129.115 231.437 127.938 230.817 126.463C230.197 124.988 229.965 123.556 230.119 122.168C230.292 120.772 230.809 119.524 231.671 118.425C232.532 117.325 233.673 116.478 235.093 115.881C236.144 115.44 237.197 115.236 238.252 115.27C239.3 115.285 240.282 115.556 241.197 116.083L240.268 113.87L242.923 112.755ZM240.624 128.428C241.546 128.041 242.295 127.476 242.873 126.735C243.443 125.975 243.778 125.118 243.877 124.166C243.968 123.195 243.8 122.202 243.374 121.188C242.948 120.174 242.36 119.369 241.611 118.772C240.854 118.157 240.008 117.797 239.074 117.69C238.14 117.584 237.212 117.724 236.29 118.111C235.349 118.507 234.59 119.075 234.012 119.817C233.453 120.551 233.119 121.407 233.009 122.386C232.91 123.338 233.074 124.322 233.5 125.336C233.926 126.35 234.518 127.164 235.275 127.779C236.043 128.368 236.888 128.728 237.812 128.861C238.746 128.967 239.683 128.823 240.624 128.428Z" fill="black"/>
<path d="M287.187 109.65L289.457 115.558L286.909 116.538L285.542 112.981L272.241 118.093L266.537 103.252L269.225 102.218L274.025 114.708L282.146 111.587L277.346 99.0974L280.034 98.0642L284.834 110.554L287.187 109.65Z" fill="black"/>
<path d="M302.381 104.268C304.167 103.621 305.388 102.498 306.042 100.899L308.143 102.116C307.771 103.145 307.152 104.05 306.287 104.831C305.44 105.606 304.396 106.218 303.155 106.668C301.576 107.241 300.059 107.429 298.605 107.232C297.144 107.017 295.864 106.449 294.765 105.529C293.684 104.601 292.878 103.405 292.347 101.938C291.822 100.49 291.668 99.0673 291.885 97.6698C292.12 96.2655 292.686 95.0393 293.583 93.9911C294.491 92.9173 295.66 92.1214 297.089 91.6035C298.443 91.1129 299.787 90.9768 301.121 91.1952C302.449 91.3949 303.643 91.9301 304.703 92.801C305.763 93.6719 306.565 94.8279 307.108 96.2689L296.072 102.885C296.823 103.783 297.743 104.354 298.831 104.598C299.938 104.835 301.121 104.725 302.381 104.268ZM297.917 93.8881C296.977 94.2289 296.209 94.7518 295.614 95.4568C295.037 96.1551 294.685 96.974 294.558 97.9137C294.424 98.8345 294.544 99.812 294.919 100.846L295.021 101.128L303.928 95.8579C303.288 94.8559 302.423 94.1698 301.331 93.7995C300.24 93.4293 299.102 93.4588 297.917 93.8881Z" fill="black"/>
<path d="M327.619 81.0955L332.748 96.1455L330.135 97.0358L329.381 94.8209C329.09 95.7653 328.57 96.5973 327.822 97.317C327.075 98.0367 326.171 98.5772 325.111 98.9385C323.104 99.6224 321.336 99.6121 319.807 98.9077C318.272 98.1843 317.136 96.7436 316.401 94.5855L313.449 85.9246L316.175 84.9956L319.02 93.3441C319.517 94.8017 320.245 95.7898 321.203 96.3083C322.155 96.8079 323.284 96.8351 324.591 96.39C326.029 95.8996 327.017 95.0771 327.553 93.9224C328.089 92.7677 328.086 91.3953 327.544 89.8051L324.893 82.0246L327.619 81.0955ZM319.852 81.5556C318.451 82.033 317.25 82.0727 316.248 81.6746C315.239 81.2576 314.509 80.4182 314.058 79.1563L315.904 78.5272C316.162 79.2212 316.592 79.7085 317.195 79.9891C317.81 80.2443 318.505 80.2396 319.282 79.9751C320.058 79.7105 320.611 79.2894 320.943 78.7116C321.268 78.1149 321.32 77.4631 321.1 76.7562L323.003 76.1078C323.416 77.3826 323.342 78.4963 322.779 79.4488C322.209 80.3823 321.234 81.0846 319.852 81.5556Z" fill="black"/>
<path d="M359.438 70.7444C360.967 70.2745 362.415 70.1854 363.781 70.4771C365.166 70.763 366.356 71.4016 367.351 72.3931C368.359 73.3596 369.099 74.6076 369.568 76.137C370.032 77.6474 370.131 79.0921 369.864 80.4712C369.592 81.8313 368.991 83.0096 368.063 84.0061C367.135 85.0027 365.944 85.7242 364.491 86.1706C363.344 86.523 362.25 86.6394 361.209 86.5199C360.162 86.3812 359.212 86.0139 358.36 85.4181L360.756 93.2182L357.975 94.0728L353.948 80.9674C353.478 79.438 353.386 77.9807 353.672 76.5957C353.977 75.2048 354.622 74.0023 355.608 72.9881C356.613 71.968 357.889 71.2201 359.438 70.7444ZM363.378 83.8762C364.353 83.5767 365.165 83.0866 365.814 82.4061C366.457 81.7064 366.865 80.8905 367.039 79.9583C367.226 79.0012 367.161 78.0064 366.844 76.974C366.527 75.9416 366.025 75.0915 365.339 74.4237C364.666 73.7308 363.867 73.2754 362.942 73.0574C362.036 72.8335 361.086 72.8742 360.092 73.1797C358.582 73.6437 357.511 74.5167 356.88 75.7986C356.242 77.0614 356.167 78.4863 356.655 80.0731C356.978 81.1246 357.476 81.9967 358.149 82.6896C358.836 83.3574 359.632 83.8033 360.537 84.0272C361.437 84.232 362.384 84.1817 363.378 83.8762Z" fill="black"/>
<path d="M376.372 65.8263L379.137 65.0219L383.579 80.2891L380.813 81.0935L376.372 65.8263ZM376.9 62.4859C376.362 62.6423 375.861 62.6008 375.395 62.3612C374.949 62.1161 374.653 61.7439 374.508 61.2446C374.363 60.7453 374.413 60.2725 374.658 59.8263C374.917 59.3553 375.315 59.0416 375.853 58.8852C376.39 58.7287 376.882 58.7731 377.329 59.0182C377.788 59.2385 378.091 59.5984 378.236 60.0977C378.387 60.6162 378.333 61.1109 378.074 61.5819C377.829 62.0282 377.438 62.3295 376.9 62.4859Z" fill="black"/>
<path d="M398.398 69.1166L395.217 69.9931L397.002 76.4717L394.225 77.2367L390.002 61.9079L392.778 61.1429L394.563 67.6215L397.803 66.729L400.992 58.8798L403.971 58.0591L400.19 67.0359L408.6 73.2763L405.331 74.1768L398.398 69.1166Z" fill="black"/>
<path d="M426.129 52.3147L428.927 51.6323L430.526 58.19L439.328 56.0432L437.729 49.4855L440.527 48.803L444.294 64.2502L441.496 64.9326L439.918 58.4623L431.116 60.6091L432.694 67.0795L429.896 67.7619L426.129 52.3147Z" fill="black"/>
<path d="M466.244 42.9495L469.702 58.4689L467.008 59.0691L466.46 56.6095C466.027 57.6076 465.382 58.4377 464.526 59.0998C463.669 59.7619 462.665 60.2213 461.513 60.4779C460.01 60.8129 458.589 60.7811 457.251 60.3827C455.912 59.9843 454.768 59.2658 453.82 58.2273C452.886 57.1648 452.246 55.8528 451.898 54.2911C451.55 52.7294 451.575 51.2792 451.973 49.9405C452.391 48.5974 453.122 47.4614 454.165 46.5324C455.207 45.6033 456.48 44.9713 457.984 44.6364C459.096 44.3885 460.169 44.3749 461.202 44.5956C462.23 44.7967 463.148 45.2377 463.955 45.9184L463.433 43.5758L466.244 42.9495ZM461.199 57.9661C462.176 57.7486 463.014 57.3262 463.714 56.6989C464.41 56.052 464.891 55.2686 465.158 54.3487C465.419 53.4092 465.431 52.4027 465.192 51.329C464.952 50.2553 464.517 49.3586 463.885 48.6387C463.249 47.8993 462.481 47.3943 461.581 47.1237C460.68 46.853 459.742 46.8264 458.766 47.0439C457.77 47.2657 456.922 47.6903 456.222 48.3176C455.541 48.9406 455.06 49.724 454.779 50.6678C454.512 51.5877 454.499 52.5845 454.738 53.6582C454.977 54.7319 455.415 55.6384 456.051 56.3778C456.702 57.0933 457.47 57.5983 458.355 57.8928C459.256 58.1635 460.204 58.1879 461.199 57.9661Z" fill="black"/>
<path d="M485.184 48.3714L481.95 49.0282L483.287 55.6138L480.465 56.187L477.3 40.6052L480.123 40.0319L481.46 46.6174L484.753 45.9486L488.472 38.336L491.5 37.721L487.114 46.4182L495.077 53.2192L491.754 53.894L485.184 48.3714Z" fill="black"/>
<path d="M509.696 50.6514C508.143 50.9373 506.683 50.85 505.317 50.3895C503.951 49.929 502.804 49.164 501.875 48.0944C500.962 47.0015 500.364 45.6879 500.082 44.1536C499.8 42.6194 499.893 41.189 500.36 39.8625C500.844 38.5127 501.644 37.3894 502.76 36.4927C503.873 35.5763 505.206 34.9751 506.76 34.6893C508.314 34.4034 509.764 34.4925 511.11 34.9566C512.472 35.3975 513.61 36.1643 514.523 37.2572C515.452 38.3268 516.057 39.6287 516.339 41.163C516.622 42.6973 516.521 44.1393 516.037 45.4891C515.569 46.8156 514.779 47.9371 513.667 48.8535C512.574 49.7663 511.25 50.3656 509.696 50.6514ZM509.241 48.173C510.244 47.9885 511.097 47.5976 511.801 47.0005C512.52 46.3801 513.03 45.6152 513.331 44.7058C513.628 43.7768 513.676 42.7713 513.477 41.6895C513.278 40.6076 512.877 39.6953 512.272 38.9523C511.664 38.1898 510.915 37.6564 510.026 37.3524C509.156 37.0447 508.219 36.9831 507.216 37.1677C506.213 37.3522 505.35 37.7449 504.626 38.3456C503.923 38.9428 503.413 39.7077 503.096 40.6403C502.796 41.5497 502.745 42.5453 502.944 43.6271C503.143 44.709 503.547 45.6312 504.155 46.3938C504.779 47.1331 505.528 47.6664 506.401 47.9938C507.291 48.2978 508.237 48.3576 509.241 48.173Z" fill="black"/>
<path d="M539.478 29.2198L542.048 44.9109L539.206 45.3763L537.043 32.1721L528.191 33.6216L530.354 46.8258L527.511 47.2912L524.942 31.6001L539.478 29.2198Z" fill="black"/>
<path d="M565.214 25.409L567.469 41.1483L564.737 41.5397L564.405 39.2234C563.944 40.0975 563.28 40.8191 562.412 41.3879C561.544 41.9568 560.555 42.3207 559.447 42.4795C557.348 42.7802 555.613 42.4429 554.24 41.4677C552.865 40.4726 552.016 38.8466 551.693 36.5897L550.395 27.5322L553.246 27.1237L554.497 35.8545C554.715 37.379 555.248 38.4847 556.093 39.1716C556.937 39.8388 558.041 40.0745 559.407 39.8788C560.912 39.6632 562.035 39.0377 562.775 38.0022C563.516 36.9667 563.767 35.6174 563.529 33.9544L562.363 25.8175L565.214 25.409Z" fill="black"/>
<path d="M590.419 22.1806L592.365 37.961L589.506 38.3135L587.869 25.0341L581.08 25.8712L581.335 29.4066C581.497 31.5428 581.528 33.3426 581.426 34.806C581.322 36.2496 581.005 37.4373 580.475 38.3692C579.945 39.301 579.115 39.8367 577.983 39.9763C577.467 40.0399 576.87 40.0228 576.193 39.9249L576.075 37.4911C576.34 37.5189 576.582 37.5193 576.8 37.4924C577.594 37.3944 578.147 36.9736 578.458 36.23C578.77 35.4863 578.926 34.6307 578.928 33.6632C578.929 32.6957 578.871 31.3226 578.752 29.5437L578.3 23.6749L590.419 22.1806Z" fill="black"/>
<path d="M610.375 36.1554C608.803 36.3186 607.355 36.1171 606.029 35.551C604.704 34.9849 603.62 34.1323 602.778 32.9931C601.953 31.8321 601.461 30.4757 601.299 28.924C601.138 27.3724 601.343 25.9537 601.913 24.6679C602.501 23.3602 603.387 22.3031 604.57 21.4966C605.751 20.6702 607.127 20.1754 608.699 20.0122C610.27 19.849 611.709 20.0515 613.014 20.6197C614.338 21.166 615.412 22.0196 616.236 23.1807C617.078 24.3198 617.58 25.6652 617.741 27.2169C617.902 28.7685 617.689 30.1982 617.101 31.5059C616.53 32.7917 615.655 33.8478 614.474 34.6742C613.313 35.4985 611.946 35.9923 610.375 36.1554ZM610.115 33.6489C611.129 33.5436 612.01 33.2208 612.759 32.6806C613.525 32.1185 614.093 31.396 614.464 30.5129C614.833 29.61 614.96 28.6115 614.847 27.5174C614.733 26.4233 614.404 25.4822 613.86 24.6942C613.313 23.8863 612.609 23.296 611.746 22.9231C610.902 22.5482 609.973 22.4134 608.959 22.5187C607.944 22.6241 607.053 22.9479 606.285 23.4901C605.537 24.0303 604.968 24.7528 604.58 25.6578C604.209 26.5408 604.08 27.5294 604.194 28.6235C604.307 29.7176 604.637 30.6686 605.184 31.4765C605.748 32.2625 606.453 32.8528 607.298 33.2476C608.161 33.6205 609.1 33.7542 610.115 33.6489Z" fill="black"/>
<path d="M635.323 33.8005C633.709 33.938 632.234 33.7124 630.899 33.1236C629.585 32.5331 628.517 31.6606 627.696 30.5061C626.873 29.3317 626.395 27.9673 626.263 26.413C626.131 24.8586 626.371 23.443 626.985 22.1663C627.597 20.8697 628.502 19.8291 629.7 19.0446C630.916 18.2384 632.331 17.7666 633.945 17.6291C635.38 17.5068 636.68 17.6871 637.845 18.1699C639.03 18.651 639.978 19.4133 640.689 20.4567L638.627 22.0475C638.064 21.3327 637.398 20.8174 636.629 20.5016C635.859 20.1858 635.026 20.0661 634.129 20.1425C633.093 20.2308 632.176 20.5398 631.378 21.0694C630.6 21.5974 630.008 22.3102 629.603 23.2078C629.216 24.0839 629.069 25.0699 629.162 26.1659C629.258 27.2819 629.571 28.2488 630.102 29.0666C630.652 29.8628 631.355 30.4553 632.211 30.844C633.087 31.231 634.043 31.3804 635.079 31.2921C635.976 31.2157 636.777 30.9568 637.482 30.5153C638.187 30.0739 638.756 29.4533 639.19 28.6536L641.489 29.8427C640.965 30.9913 640.16 31.913 639.075 32.6076C638.008 33.2806 636.758 33.6782 635.323 33.8005Z" fill="black"/>
<path d="M662.929 15.6349L663.992 31.4993L661.418 31.6718L661.081 26.6431L656.471 26.952L656.142 26.9741L653.007 32.2355L649.924 32.4422L653.422 26.7655C652.201 26.4866 651.243 25.9594 650.55 25.1841C649.855 24.3887 649.466 23.3725 649.383 22.1352C649.262 20.3193 649.788 18.901 650.962 17.8801C652.135 16.8394 653.81 16.2461 655.985 16.1003L662.929 15.6349ZM652.323 22.0284C652.394 23.0861 652.776 23.8522 653.469 24.3269C654.181 24.7803 655.206 24.9622 656.543 24.8726L660.943 24.5777L660.523 18.3218L656.243 18.6086C653.489 18.7932 652.182 19.9331 652.323 22.0284Z" fill="black"/>
<path d="M696.637 14.52C698.116 14.4648 699.448 14.7453 700.631 15.3616C701.815 15.9779 702.749 16.8636 703.433 18.019C704.135 19.1535 704.515 20.4703 704.571 21.9693C704.628 23.5082 704.329 24.8903 703.675 26.1156C703.039 27.3201 702.104 28.2756 700.87 28.9822C699.655 29.688 698.248 30.0707 696.65 30.1304C693.951 30.2311 691.829 29.3897 690.281 27.6062C688.753 25.8019 687.926 23.221 687.8 19.8633C687.679 16.6056 688.253 14.0324 689.524 12.1437C690.793 10.235 692.796 8.92936 695.532 8.22683L702.726 6.33717L703.244 8.95966L696.613 10.6482C694.551 11.1855 693.032 12.0227 692.053 13.16C691.075 14.2973 690.554 15.8978 690.491 17.9616C691.133 16.917 691.983 16.0947 693.041 15.4948C694.099 14.8949 695.298 14.57 696.637 14.52ZM696.62 27.7298C697.639 27.6918 698.53 27.4284 699.292 26.9396C700.075 26.4501 700.671 25.7974 701.081 24.9815C701.49 24.1457 701.675 23.2081 701.636 22.1688C701.577 20.5899 701.05 19.3387 700.055 18.4152C699.06 17.4917 697.783 17.059 696.224 17.1172C694.665 17.1754 693.414 17.7024 692.47 18.6983C691.547 19.6934 691.114 20.9805 691.173 22.5594C691.212 23.5986 691.467 24.5198 691.937 25.3228C692.426 26.1051 693.08 26.7112 693.896 27.141C694.713 27.5708 695.621 27.7671 696.62 27.7298Z" fill="black"/>
<path d="M728.698 13.1776L728.979 29.0751L726.219 29.1239L726.175 26.6043C725.551 27.4955 724.753 28.1797 723.781 28.657C722.809 29.1343 721.733 29.3833 720.554 29.4042C719.014 29.4315 717.628 29.1159 716.396 28.4576C715.164 27.7993 714.188 26.8664 713.466 25.659C712.764 24.4312 712.399 23.0175 712.371 21.4177C712.343 19.818 712.658 18.4022 713.316 17.1703C713.994 15.9381 714.937 14.9713 716.145 14.2698C717.353 13.5684 718.727 13.204 720.266 13.1768C721.406 13.1566 722.46 13.358 723.428 13.7809C724.395 14.1839 725.206 14.7996 725.861 15.6282L725.818 13.2285L728.698 13.1776ZM720.749 26.8804C721.749 26.8627 722.655 26.6166 723.466 26.1422C724.278 25.6477 724.906 24.9765 725.351 24.1285C725.796 23.2605 726.008 22.2766 725.989 21.1768C725.969 20.0769 725.722 19.1112 725.247 18.2794C724.772 17.4277 724.121 16.7791 723.293 16.3337C722.465 15.8883 721.551 15.6744 720.551 15.6921C719.531 15.7102 718.615 15.9564 717.804 16.4308C717.012 16.9049 716.384 17.5761 715.919 18.4445C715.474 19.2925 715.261 20.2664 715.281 21.3662C715.3 22.4661 715.547 23.4418 716.022 24.2936C716.517 25.125 717.169 25.7735 717.977 26.2393C718.805 26.6847 719.729 26.8984 720.749 26.8804Z" fill="black"/>
<path d="M751.684 15.62L742.864 15.62L742.864 29L739.984 29L739.984 13.1L751.684 13.1V15.62Z" fill="black"/>
<path d="M775.148 13.4335L774.867 29.331L772.107 29.2822L772.152 26.7625C771.496 27.6311 770.674 28.2867 769.686 28.7292C768.698 29.1718 767.614 29.3827 766.435 29.3618C764.895 29.3346 763.521 28.9702 762.313 28.2687C761.106 27.5673 760.163 26.6004 759.484 25.3682C758.826 24.1164 758.511 22.6906 758.54 21.0908C758.568 19.4911 758.933 18.0873 759.634 16.8796C760.356 15.6721 761.333 14.7393 762.564 14.081C763.796 13.4226 765.182 13.1071 766.722 13.1344C767.862 13.1545 768.908 13.3931 769.86 13.85C770.812 14.2869 771.601 14.931 772.226 15.7821L772.268 13.3825L775.148 13.4335ZM766.719 26.8465C767.719 26.8641 768.633 26.6503 769.461 26.2049C770.289 25.7394 770.941 25.0909 771.416 24.2591C771.891 23.4074 772.138 22.4316 772.158 21.3318C772.177 20.232 771.964 19.2581 771.519 18.4101C771.074 17.542 770.446 16.8708 769.635 16.3964C768.823 15.922 767.917 15.6759 766.917 15.6582C765.897 15.6402 764.973 15.8538 764.145 16.2993C763.337 16.745 762.686 17.3936 762.191 18.245C761.716 19.0767 761.469 20.0425 761.449 21.1423C761.43 22.2422 761.642 23.2261 762.087 24.0941C762.552 24.9424 763.18 25.6137 763.972 26.1077C764.784 26.5822 765.699 26.8284 766.719 26.8465Z" fill="black"/>
<path d="M806.395 14.3837C808.393 14.4675 809.947 15.1132 811.058 16.3208C812.188 17.5292 812.705 19.2724 812.61 21.5504L812.226 30.6924L809.349 30.5717L809.718 21.7594C809.783 20.2208 809.472 19.0467 808.785 18.2372C808.119 17.4286 807.126 16.9966 805.807 16.9413C804.348 16.8801 803.17 17.2911 802.272 18.1742C801.375 19.0374 800.891 20.3182 800.82 22.0167L800.477 30.1995L797.599 30.0788L797.969 21.2666C798.033 19.7279 797.722 18.5539 797.036 17.7444C796.369 16.9357 795.376 16.5037 794.057 16.4484C792.599 16.3872 791.42 16.7982 790.523 17.6813C789.626 18.5445 789.141 19.8254 789.07 21.5239L788.727 29.7067L785.849 29.586L786.516 13.6999L789.273 13.8156L789.174 16.1835C789.788 15.3885 790.573 14.8009 791.53 14.4207C792.488 14.0205 793.566 13.8455 794.765 13.8958C796.004 13.9478 797.092 14.2437 798.031 14.7835C798.969 15.3233 799.678 16.0836 800.157 17.0646C800.795 16.1705 801.654 15.486 802.735 15.0108C803.836 14.5366 805.056 14.3275 806.395 14.3837Z" fill="black"/>
<path d="M829.517 31.9572C827.941 31.8534 826.547 31.4108 825.336 30.6295C824.124 29.8482 823.2 28.8252 822.561 27.5605C821.944 26.2772 821.687 24.8572 821.79 23.3006C821.892 21.744 822.333 20.38 823.111 19.2086C823.911 18.0186 824.962 17.1258 826.264 16.53C827.568 15.9144 829.008 15.6584 830.584 15.7623C832.161 15.8661 833.545 16.308 834.736 17.088C835.949 17.8494 836.863 18.8717 837.48 20.155C838.119 21.4197 838.386 22.8303 838.284 24.387C838.181 25.9436 837.73 27.3169 836.93 28.5069C836.152 29.6783 835.111 30.5718 833.807 31.1875C832.524 31.8045 831.094 32.061 829.517 31.9572ZM829.683 29.4426C830.701 29.5097 831.624 29.34 832.453 28.9336C833.302 28.5085 833.984 27.892 834.498 27.084C835.014 26.2561 835.308 25.2933 835.38 24.1957C835.453 23.0981 835.287 22.1151 834.883 21.2467C834.48 20.3583 833.885 19.6577 833.097 19.1448C832.329 18.6332 831.436 18.3439 830.418 18.2768C829.401 18.2098 828.468 18.3788 827.619 18.7839C826.791 19.1904 826.109 19.8069 825.573 20.6335C825.059 21.4414 824.766 22.3942 824.693 23.4918C824.621 24.5895 824.786 25.5825 825.189 26.4708C825.612 27.3406 826.208 28.0412 826.974 28.5727C827.762 29.0856 828.665 29.3756 829.683 29.4426Z" fill="black"/>
<path d="M848.6 29.2265C849.158 29.2712 849.6 29.5073 849.927 29.9348C850.276 30.344 850.427 30.8376 850.38 31.4158C850.356 31.7148 850.293 32.0007 850.191 32.2734C850.109 32.5477 849.945 32.9659 849.699 33.5281L847.961 37.5721L846.077 37.4211L847.54 33.0541C847.173 32.8841 846.882 32.6301 846.668 32.2919C846.476 31.9354 846.398 31.5379 846.433 31.0993C846.481 30.5012 846.709 30.028 847.119 29.6796C847.528 29.3311 848.021 29.1801 848.6 29.2265Z" fill="black"/>
<path d="M887.73 20.9018L886.07 36.7149L883.205 36.4142L883.876 30.0293C882.082 30.6453 880.339 30.8645 878.649 30.687C876.679 30.4802 875.206 29.863 874.228 28.8352C873.25 27.8075 872.857 26.3786 873.049 24.5487L873.588 19.4169L876.452 19.7177L875.932 24.6704C875.817 25.7644 876.069 26.6254 876.686 27.2533C877.324 27.8834 878.26 28.2631 879.493 28.3926C880.885 28.5388 882.423 28.3484 884.108 27.8214L884.866 20.6011L887.73 20.9018Z" fill="black"/>
<path d="M914.038 24.0481L912.074 39.8263L909.335 39.4854L909.647 36.9847C908.903 37.7789 908.016 38.3437 906.987 38.6791C905.958 39.0145 904.858 39.1094 903.687 38.9636C902.158 38.7734 900.831 38.2655 899.704 37.44C898.578 36.6145 897.742 35.5532 897.198 34.2561C896.677 32.9416 896.515 31.4904 896.713 29.9027C896.91 28.315 897.422 26.9578 898.247 25.8311C899.093 24.7069 900.163 23.8828 901.457 23.3587C902.752 22.8346 904.163 22.6677 905.692 22.8579C906.823 22.9987 907.838 23.3468 908.736 23.902C909.637 24.4374 910.353 25.1614 910.884 26.074L911.181 23.6924L914.038 24.0481ZM904.236 36.4926C905.228 36.6161 906.16 36.5003 907.03 36.1451C907.903 35.7701 908.62 35.1942 909.18 34.4174C909.743 33.6208 910.092 32.6767 910.228 31.5852C910.364 30.4936 910.256 29.5026 909.903 28.6122C909.553 27.702 908.999 26.968 908.242 26.4102C907.485 25.8524 906.611 25.5118 905.618 25.3883C904.606 25.2623 903.665 25.3769 902.794 25.732C901.944 26.0897 901.227 26.6656 900.644 27.4597C900.084 28.2364 899.736 29.1706 899.6 30.2622C899.464 31.3537 899.572 32.3547 899.922 33.2649C900.294 34.1577 900.848 34.8918 901.583 35.4669C902.339 36.0247 903.224 36.3666 904.236 36.4926Z" fill="black"/>
<path d="M929.811 42.4614C928.208 42.231 926.822 41.6784 925.655 40.8034C924.507 39.9314 923.664 38.8403 923.125 37.5304C922.588 36.2006 922.431 34.7636 922.653 33.2195C922.875 31.6753 923.429 30.3506 924.315 29.2454C925.204 28.1204 926.32 27.311 927.664 26.8171C929.031 26.3062 930.516 26.166 932.119 26.3963C933.545 26.6011 934.771 27.0702 935.797 27.8036C936.843 28.5398 937.594 29.4964 938.052 30.6734L935.683 31.7576C935.296 30.9342 934.764 30.2819 934.085 29.8005C933.407 29.3191 932.622 29.0144 931.731 28.8865C930.702 28.7386 929.739 28.8325 928.842 29.1684C927.965 29.5071 927.228 30.068 926.63 30.851C926.055 31.617 925.69 32.5445 925.533 33.6333C925.374 34.7419 925.461 35.7545 925.794 36.6712C926.15 37.5709 926.701 38.3068 927.447 38.8787C928.213 39.4535 929.111 39.8148 930.14 39.9627C931.031 40.0907 931.87 40.0193 932.656 39.7484C933.443 39.4775 934.137 39.0014 934.74 38.3202L936.712 39.9977C935.942 40.9983 934.95 41.7145 933.736 42.1463C932.545 42.5611 931.237 42.6662 929.811 42.4614Z" fill="black"/>
<path d="M967.933 32.0506C969.906 32.3806 971.369 33.2134 972.321 34.5489C973.294 35.8877 973.592 37.6815 973.216 39.9302L971.706 48.9548L968.865 48.4795L970.321 39.7805C970.575 38.2616 970.411 37.0581 969.83 36.1699C969.268 35.2851 968.336 34.7338 967.034 34.516C965.594 34.2751 964.374 34.5374 963.374 35.3028C962.377 36.0486 961.739 37.2598 961.458 38.9365L960.107 47.0142L957.266 46.539L958.722 37.8399C958.976 36.321 958.812 35.1175 958.231 34.2294C957.669 33.3446 956.737 32.7933 955.435 32.5755C953.995 32.3346 952.775 32.5968 951.775 33.3623C950.779 34.1081 950.14 35.3193 949.86 36.996L948.508 45.0737L945.668 44.5985L948.291 28.9164L951.013 29.3719L950.622 31.7094C951.33 30.9963 952.182 30.5102 953.178 30.2511C954.178 29.9723 955.269 29.9318 956.453 30.1298C957.676 30.3345 958.72 30.7625 959.584 31.4141C960.448 32.0657 961.058 32.9078 961.412 33.9404C962.156 33.132 963.093 32.5589 964.224 32.2209C965.375 31.8862 966.612 31.8295 967.933 32.0506Z" fill="black"/>
<path d="M989.387 45.4507L986.146 44.8312L984.884 51.4318L982.056 50.8911L985.04 35.2738L987.869 35.8144L986.608 42.415L989.908 43.0457L996.238 37.4139L999.273 37.9939L991.914 44.3759L996.701 53.6901L993.371 53.0537L989.387 45.4507Z" fill="black"/>
<path d="M1022.29 42.7667L1019.46 56.2114C1018.89 58.9316 1017.83 60.8036 1016.29 61.8271C1014.74 62.8703 1012.69 63.1238 1010.15 62.5876C1008.76 62.2948 1007.47 61.8089 1006.28 61.1299C1005.11 60.4745 1004.21 59.6905 1003.56 58.7777L1005.4 56.8962C1005.95 57.6668 1006.67 58.3292 1007.55 58.8836C1008.46 59.4421 1009.45 59.8347 1010.53 60.0615C1012.23 60.4203 1013.57 60.2537 1014.56 59.5617C1015.54 58.8893 1016.21 57.6724 1016.58 55.9111L1016.82 54.7662C1016.1 55.3903 1015.24 55.813 1014.26 56.0342C1013.27 56.2359 1012.25 56.2254 1011.2 56.0027C1009.12 55.5656 1007.61 54.6537 1006.65 53.267C1005.7 51.8804 1005.46 50.0716 1005.93 47.8406L1007.65 39.6798L1010.46 40.2737L1008.81 48.1115C1008.5 49.5989 1008.62 50.8102 1009.18 51.7456C1009.74 52.6615 1010.7 53.2617 1012.05 53.5462C1013.54 53.8596 1014.81 53.657 1015.86 52.9382C1016.91 52.2194 1017.61 51.0381 1017.95 49.3942L1019.48 42.1728L1022.29 42.7667Z" fill="black"/>
<path d="M1053.86 57.8612C1054.82 58.3822 1055.51 59.0121 1055.93 59.7509C1056.35 60.4897 1056.45 61.3063 1056.23 62.2006C1056.01 63.1143 1055.5 63.8557 1054.71 64.4248C1053.92 64.9745 1052.92 65.3197 1051.71 65.4604C1050.53 65.5863 1049.26 65.485 1047.9 65.1564C1046.75 64.8795 1045.66 64.4614 1044.62 63.9022C1043.61 63.3283 1042.74 62.6561 1042.02 61.8858L1043.38 59.9611C1044.01 60.6061 1044.76 61.1797 1045.65 61.6819C1046.54 62.1647 1047.47 62.5234 1048.44 62.7581C1049.77 63.0773 1050.87 63.1072 1051.76 62.8478C1052.67 62.5737 1053.21 62.0478 1053.4 61.2702C1053.58 60.5508 1053.39 59.9193 1052.84 59.3756C1052.31 58.8365 1051.48 58.4285 1050.33 58.1516L1047.5 57.4686L1047.99 55.4564L1050.61 56.0901C1051.66 56.3436 1052.53 56.3584 1053.22 56.1346C1053.91 55.9107 1054.34 55.478 1054.49 54.8364C1054.66 54.1365 1054.43 53.5053 1053.81 52.9428C1053.2 52.385 1052.3 51.9606 1051.09 51.6695C1049.56 51.2987 1047.84 51.3053 1045.93 51.6892L1045.7 49.3482C1047.81 48.8509 1049.9 48.8511 1051.96 49.3487C1053.2 49.6491 1054.28 50.094 1055.19 50.6833C1056.09 51.2727 1056.75 51.9562 1057.16 52.7339C1057.57 53.5116 1057.68 54.3087 1057.48 55.1252C1057.3 55.8835 1056.88 56.5029 1056.23 56.9835C1055.58 57.4641 1054.79 57.7567 1053.86 57.8612Z" fill="black"/>
<path d="M1082.55 57.2963L1085.33 58.0538L1083.55 64.5661L1092.3 66.9491L1094.07 60.4368L1096.85 61.1943L1092.67 76.5344L1089.89 75.7769L1091.64 69.3514L1082.9 66.9684L1081.15 73.3939L1078.37 72.6364L1082.55 57.2963Z" fill="black"/>
<path d="M1121.76 68.3966L1117.27 83.6501L1114.62 82.871L1115.28 80.6262C1114.5 81.2299 1113.59 81.6102 1112.57 81.767C1111.54 81.9238 1110.49 81.8441 1109.42 81.5279C1107.38 80.9295 1105.94 79.9017 1105.1 78.4446C1104.26 76.9682 1104.17 75.1363 1104.81 72.9491L1107.39 64.1711L1110.16 64.984L1107.67 73.4454C1107.23 74.9228 1107.26 76.1496 1107.74 77.126C1108.23 78.0831 1109.14 78.7565 1110.46 79.146C1111.92 79.575 1113.2 79.4725 1114.3 78.8383C1115.41 78.2041 1116.2 77.0811 1116.67 75.4694L1118.99 67.5837L1121.76 68.3966Z" fill="black"/>
<path d="M1137.69 89.9719L1135.14 82.7856L1128.88 87.2006L1125.82 86.2378L1134.24 80.3627L1130.87 71.1598L1133.93 72.1226L1136.39 78.9025L1142.26 74.7409L1145.27 75.6857L1137.21 81.2984L1140.81 90.9527L1137.69 89.9719Z" fill="black"/>
<path d="M1150.99 90.1495C1151.53 90.3244 1151.9 90.6581 1152.12 91.1506C1152.36 91.6302 1152.39 92.1456 1152.21 92.6966C1152.11 92.9815 1151.99 93.2445 1151.82 93.4855C1151.68 93.7328 1151.42 94.1007 1151.05 94.5892L1148.41 98.11L1146.61 97.5196L1149.06 93.6201C1148.75 93.3684 1148.52 93.053 1148.39 92.6741C1148.29 92.2824 1148.31 91.8775 1148.45 91.4596C1148.63 90.8896 1148.97 90.4834 1149.45 90.2412C1149.93 89.9989 1150.44 89.9683 1150.99 90.1495Z" fill="black"/>
<path d="M1186.66 97.8544C1188.43 99.0357 1188.97 100.597 1188.28 102.537C1187.81 103.856 1186.94 104.695 1185.69 105.055C1184.46 105.422 1182.86 105.257 1180.9 104.558L1173.69 101.991L1179.03 87.013L1185.98 89.4902C1187.75 90.1213 1189.02 90.9538 1189.77 91.9878C1190.54 93.003 1190.7 94.1229 1190.26 95.3475C1189.98 96.1387 1189.52 96.7492 1188.88 97.1788C1188.26 97.5963 1187.52 97.8215 1186.66 97.8544ZM1179.39 94.4028L1183.46 95.8528C1184.5 96.2221 1185.34 96.3123 1186.01 96.1234C1186.69 95.9413 1187.16 95.4923 1187.41 94.7764C1187.92 93.3446 1187.12 92.2527 1185.01 91.5009L1180.94 90.0508L1179.39 94.4028ZM1181.45 102.397C1182.58 102.799 1183.49 102.923 1184.18 102.766C1184.87 102.609 1185.35 102.154 1185.62 101.401C1185.9 100.628 1185.84 99.9598 1185.45 99.395C1185.07 98.837 1184.33 98.3599 1183.22 97.9638L1178.7 96.3527L1177.09 100.846L1181.45 102.397Z" fill="black"/>
<path d="M1215.39 100.366L1209.77 115.238L1207.19 114.262L1208.01 112.073C1207.19 112.616 1206.26 112.927 1205.22 113.006C1204.19 113.085 1203.15 112.927 1202.1 112.531C1200.12 111.781 1198.76 110.648 1198.03 109.131C1197.3 107.596 1197.35 105.762 1198.15 103.629L1201.39 95.0707L1204.08 96.0894L1200.96 104.339C1200.42 105.78 1200.35 107.005 1200.76 108.015C1201.18 109.006 1202.03 109.746 1203.32 110.234C1204.74 110.772 1206.03 110.766 1207.18 110.217C1208.32 109.667 1209.2 108.607 1209.79 107.036L1212.7 99.3471L1215.39 100.366Z" fill="black"/>
<path d="M1240.03 110.114L1234.11 124.87L1231.44 123.798L1236.42 111.38L1228.09 108.04L1223.11 120.458L1220.44 119.386L1226.36 104.629L1240.03 110.114Z" fill="black"/>
<path d="M1264.02 120.169L1257.81 134.804L1255.27 133.726L1256.18 131.572C1255.34 132.081 1254.39 132.355 1253.36 132.393C1252.32 132.43 1251.29 132.23 1250.25 131.792C1248.3 130.964 1246.99 129.777 1246.32 128.233C1245.66 126.67 1245.78 124.839 1246.67 122.74L1250.24 114.318L1252.89 115.444L1249.45 123.562C1248.85 124.98 1248.73 126.201 1249.1 127.227C1249.47 128.234 1250.3 129.007 1251.57 129.547C1252.97 130.141 1254.25 130.186 1255.42 129.683C1256.59 129.181 1257.5 128.156 1258.16 126.61L1261.37 119.043L1264.02 120.169Z" fill="black"/>
<path d="M1295.5 134.187L1288.95 148.675L1268.31 139.344L1274.86 124.856L1277.48 126.043L1271.97 138.234L1278.37 141.126L1283.88 128.935L1286.5 130.121L1280.99 142.313L1287.36 145.193L1292.87 133.001L1295.5 134.187Z" fill="black"/>
<path d="M1306.58 154.443C1308.29 155.264 1309.95 155.348 1311.55 154.695L1312.15 157.047C1311.15 157.501 1310.08 157.694 1308.91 157.624C1307.77 157.563 1306.6 157.247 1305.41 156.676C1303.89 155.95 1302.69 155 1301.82 153.825C1300.95 152.631 1300.45 151.32 1300.34 149.891C1300.25 148.47 1300.54 147.056 1301.21 145.649C1301.88 144.261 1302.78 143.154 1303.93 142.33C1305.1 141.514 1306.37 141.059 1307.75 140.965C1309.15 140.861 1310.54 141.137 1311.91 141.794C1313.21 142.416 1314.24 143.28 1315.02 144.385C1315.81 145.472 1316.26 146.699 1316.39 148.066C1316.51 149.433 1316.24 150.815 1315.6 152.212L1303.14 148.972C1303.03 150.137 1303.27 151.193 1303.85 152.14C1304.46 153.096 1305.37 153.863 1306.58 154.443ZM1310.86 143.985C1309.95 143.553 1309.04 143.372 1308.12 143.441C1307.22 143.518 1306.39 143.841 1305.63 144.408C1304.88 144.957 1304.27 145.728 1303.79 146.72L1303.66 146.991L1313.66 149.655C1313.93 148.496 1313.81 147.398 1313.31 146.36C1312.81 145.321 1311.99 144.53 1310.86 143.985Z" fill="black"/>
<path d="M1344.23 157.961L1337.07 172.156L1334.74 170.981L1339.97 160.615L1330.25 166.698L1329.12 166.13L1328.31 154.696L1323.06 165.088L1320.7 163.899L1327.87 149.704L1330.52 151.042L1331.25 163.441L1341.82 156.745L1344.23 157.961Z" fill="black"/>
<path d="M1352.41 180.402C1351.01 179.661 1349.92 178.686 1349.14 177.477C1348.35 176.268 1347.93 174.956 1347.87 173.541C1347.83 172.117 1348.18 170.717 1348.91 169.339C1349.64 167.961 1350.6 166.897 1351.79 166.148C1353.01 165.391 1354.33 165.007 1355.76 164.997C1357.21 164.97 1358.62 165.327 1360.02 166.067C1361.42 166.808 1362.5 167.779 1363.26 168.978C1364.06 170.17 1364.47 171.477 1364.51 172.901C1364.57 174.316 1364.24 175.712 1363.51 177.09C1362.78 178.468 1361.8 179.536 1360.58 180.293C1359.39 181.043 1358.08 181.431 1356.64 181.459C1355.21 181.495 1353.8 181.143 1352.41 180.402ZM1353.59 178.177C1354.49 178.655 1355.4 178.878 1356.33 178.847C1357.27 178.808 1358.15 178.525 1358.95 177.999C1359.76 177.455 1360.42 176.697 1360.94 175.726C1361.45 174.754 1361.71 173.79 1361.69 172.832C1361.69 171.857 1361.43 170.974 1360.93 170.183C1360.43 169.401 1359.74 168.771 1358.84 168.293C1357.94 167.815 1357.02 167.587 1356.08 167.608C1355.15 167.64 1354.28 167.922 1353.45 168.457C1352.65 168.983 1351.99 169.732 1351.48 170.703C1350.96 171.675 1350.71 172.648 1350.71 173.624C1350.74 174.591 1351 175.474 1351.48 176.273C1351.99 177.064 1352.69 177.698 1353.59 178.177Z" fill="black"/>
<path d="M1405.93 191.592C1407.66 192.591 1408.74 193.882 1409.16 195.466C1409.61 197.06 1409.26 198.845 1408.12 200.821L1403.55 208.749L1401.06 207.311L1405.46 199.669C1406.23 198.335 1406.5 197.15 1406.26 196.114C1406.05 195.089 1405.37 194.247 1404.22 193.588C1402.96 192.859 1401.72 192.679 1400.52 193.047C1399.32 193.397 1398.3 194.309 1397.45 195.782L1393.36 202.878L1390.87 201.441L1395.27 193.798C1396.04 192.464 1396.31 191.279 1396.07 190.244C1395.86 189.218 1395.18 188.376 1394.03 187.717C1392.77 186.988 1391.53 186.808 1390.33 187.176C1389.13 187.526 1388.11 188.438 1387.26 189.911L1383.17 197.007L1380.68 195.57L1388.62 181.793L1391.01 183.171L1389.83 185.224C1390.74 184.803 1391.71 184.645 1392.73 184.751C1393.76 184.839 1394.8 185.182 1395.84 185.781C1396.91 186.4 1397.74 187.166 1398.33 188.079C1398.91 188.991 1399.18 189.993 1399.16 191.084C1400.13 190.587 1401.21 190.377 1402.39 190.456C1403.59 190.544 1404.77 190.923 1405.93 191.592Z" fill="black"/>
<path d="M1433.45 208.266L1426.31 220.002C1424.86 222.376 1423.24 223.789 1421.44 224.241C1419.64 224.709 1417.62 224.267 1415.4 222.915C1414.19 222.177 1413.14 221.29 1412.24 220.255C1411.36 219.248 1410.76 218.206 1410.46 217.131L1412.82 215.968C1413.08 216.879 1413.54 217.743 1414.19 218.56C1414.86 219.387 1415.66 220.087 1416.6 220.659C1418.09 221.564 1419.41 221.854 1420.57 221.529C1421.71 221.221 1422.75 220.298 1423.69 218.76L1424.3 217.761C1423.41 218.109 1422.46 218.222 1421.46 218.103C1420.46 217.966 1419.51 217.617 1418.58 217.055C1416.77 215.953 1415.65 214.589 1415.21 212.963C1414.77 211.338 1415.14 209.552 1416.33 207.604L1420.67 200.481L1423.13 201.979L1418.96 208.82C1418.17 210.119 1417.88 211.302 1418.1 212.37C1418.33 213.421 1419.03 214.305 1420.21 215.023C1421.5 215.814 1422.77 216.045 1424 215.717C1425.23 215.388 1426.28 214.507 1427.15 213.072L1430.99 206.768L1433.45 208.266Z" fill="black"/>
<path d="M1460.1 224.956C1461.78 226.037 1462.8 227.379 1463.15 228.982C1463.51 230.596 1463.08 232.362 1461.84 234.28L1456.9 241.977L1454.48 240.42L1459.24 233C1460.08 231.705 1460.4 230.534 1460.22 229.489C1460.05 228.454 1459.41 227.58 1458.3 226.867C1457.07 226.077 1455.85 225.837 1454.63 226.146C1453.42 226.438 1452.35 227.3 1451.43 228.73L1447.01 235.62L1444.58 234.063L1449.35 226.643C1450.18 225.347 1450.51 224.177 1450.32 223.131C1450.16 222.097 1449.52 221.223 1448.41 220.509C1447.18 219.72 1445.95 219.48 1444.73 219.789C1443.52 220.081 1442.46 220.942 1441.54 222.372L1437.11 229.262L1434.69 227.706L1443.28 214.329L1445.61 215.821L1444.33 217.815C1445.26 217.439 1446.23 217.328 1447.25 217.483C1448.28 217.621 1449.3 218.014 1450.31 218.663C1451.35 219.333 1452.14 220.138 1452.68 221.078C1453.21 222.018 1453.44 223.032 1453.36 224.12C1454.36 223.671 1455.45 223.514 1456.62 223.649C1457.81 223.796 1458.97 224.231 1460.1 224.956Z" fill="black"/>
<path d="M1466.07 248.358C1465.61 248.047 1465.31 247.622 1465.19 247.083C1465.08 246.528 1465.19 246.002 1465.53 245.503C1465.85 245.021 1466.28 244.734 1466.83 244.64C1467.38 244.531 1467.89 244.631 1468.36 244.943C1468.82 245.255 1469.11 245.674 1469.21 246.201C1469.32 246.728 1469.2 247.241 1468.87 247.74C1468.54 248.238 1468.09 248.542 1467.54 248.652C1467.01 248.757 1466.52 248.659 1466.07 248.358Z" fill="black"/>
</svg>
