<svg width="1685" height="2497" viewBox="0 0 1685 2497" fill="none" xmlns="http://www.w3.org/2000/svg">
<g clip-path="url(#clip0_56_2)">
<path d="M933.004 2009.54V2496.83H751.531V2009.54H933.004Z" fill="#43291F"/>
<path d="M1685.05 2261.11C1685.05 2261.11 1031.98 2301.47 842.552 2137.83C620.452 2302.89 0 2261.11 0 2261.11C0 2261.11 270.117 1854.59 297.253 1777.51H295.702C274.562 1796.27 201.476 1855.16 116.193 1855.16L170.516 1777.51H169.844C169.844 1777.51 439.961 1370.99 467.096 1293.92H465.701C447.507 1310.4 372.354 1373.32 284.279 1373.32L339.791 1293.92H339.739C339.739 1293.92 609.856 887.393 636.992 810.317C636.992 810.317 552.742 893.645 451.332 893.645L509.635 810.317L841.57 310.974V308.189L842.5 309.61L843.43 308.189V310.974L1175.37 810.317L1233.67 893.645C1132.31 893.645 1048.01 810.317 1048.01 810.317C1075.14 887.393 1345.26 1293.92 1345.26 1293.92H1345.21L1400.72 1373.32C1312.59 1373.32 1237.44 1310.4 1219.3 1293.92H1217.9C1245.04 1370.99 1515.16 1777.51 1515.16 1777.51H1514.48L1568.81 1855.16C1483.58 1855.16 1410.44 1796.27 1389.3 1777.51H1387.75C1414.93 1854.59 1685.05 2261.11 1685.05 2261.11Z" fill="#226F54"/>
<path d="M983.451 103.336L906.902 188.483L940.395 295.343L842.241 244.869L744.088 295.343L777.581 188.483L701.032 103.336H802.081L842.241 0L882.402 103.336H983.451ZM1016.48 192.916C1004.54 192.916 994.874 203.546 994.874 216.676C994.874 229.806 1004.54 240.435 1016.48 240.435C1028.42 240.435 1038.08 229.806 1038.08 216.676C1038.08 203.602 1028.42 192.916 1016.48 192.916ZM946.184 47.5186C958.124 47.5186 967.79 36.8894 967.79 23.7593C967.79 10.6292 958.124 0 946.184 0C934.245 0 924.579 10.6292 924.579 23.7593C924.579 36.8894 934.296 47.5186 946.184 47.5186ZM738.35 47.5186C750.29 47.5186 759.956 36.8894 759.956 23.7593C759.956 10.6292 750.238 0 738.35 0C726.462 0 716.745 10.6292 716.745 23.7593C716.745 36.8894 726.411 47.5186 738.35 47.5186ZM689.661 216.676C689.661 203.546 679.996 192.916 668.056 192.916C656.116 192.916 646.451 203.546 646.451 216.676C646.451 229.806 656.116 240.435 668.056 240.435C679.996 240.435 689.661 229.806 689.661 216.676Z" fill="#F9C932"/>
<path d="M1063.86 1260.35C1058.48 1260.81 1053.1 1261.15 1047.73 1261.38C1051.4 1265.7 1055.02 1270.13 1058.48 1274.62C1064.53 1282.47 1070.37 1290.59 1075.43 1299.52C1067.32 1293.95 1059.93 1287.52 1052.79 1280.87C1048.71 1277.01 1044.68 1273.09 1040.75 1269.05C1040.54 1274.96 1040.29 1280.87 1039.87 1286.79C1039.1 1297.07 1038.01 1307.31 1035.84 1317.59C1033.67 1307.31 1032.58 1297.07 1031.81 1286.79C1031.4 1280.87 1031.09 1274.96 1030.93 1269.05C1027 1273.09 1023.02 1277.01 1018.89 1280.87C1011.75 1287.52 1004.36 1293.95 996.249 1299.52C1001.31 1290.59 1007.15 1282.47 1013.2 1274.62C1016.72 1270.13 1020.28 1265.7 1023.95 1261.38C1018.58 1261.15 1013.2 1260.87 1007.83 1260.41C998.471 1259.56 989.168 1258.37 979.812 1255.98C989.168 1253.59 998.471 1252.4 1007.83 1251.54C1013.2 1251.09 1018.58 1250.75 1023.95 1250.58C1020.28 1246.26 1016.72 1241.88 1013.2 1237.33C1007.15 1229.49 1001.31 1221.36 996.249 1212.44C1004.36 1218.01 1011.75 1224.43 1018.89 1231.08C1022.97 1234.95 1027 1238.87 1030.93 1242.9C1031.14 1236.99 1031.4 1231.08 1031.81 1225.17C1032.58 1214.88 1033.67 1204.65 1035.84 1194.36C1037.96 1204.65 1039.1 1214.88 1039.87 1225.17C1040.29 1231.08 1040.6 1236.99 1040.8 1242.9C1044.73 1238.87 1048.76 1234.89 1052.85 1231.08C1059.98 1224.43 1067.37 1218.01 1075.48 1212.44C1070.42 1221.36 1064.58 1229.49 1058.53 1237.33C1055.02 1241.82 1051.45 1246.26 1047.78 1250.58C1053.16 1250.81 1058.53 1251.09 1063.91 1251.6C1073.26 1252.45 1082.57 1253.65 1091.92 1256.04C1082.57 1258.31 1073.21 1259.56 1063.86 1260.35ZM906.21 647.672C896.854 645.341 887.551 644.091 878.195 643.238C872.82 642.784 867.444 642.443 862.069 642.215C865.739 637.895 869.357 633.462 872.82 628.971C878.867 621.127 884.708 612.999 889.773 604.075C881.658 609.646 874.267 616.069 867.134 622.719C863.051 626.584 859.019 630.506 855.091 634.542C854.884 628.63 854.626 622.719 854.161 616.808C853.385 606.519 852.3 596.288 850.129 586C848.01 596.288 846.873 606.519 846.098 616.808C845.684 622.719 845.374 628.63 845.219 634.542C841.291 630.506 837.311 626.527 833.176 622.719C826.043 616.069 818.652 609.646 810.537 604.075C815.602 612.999 821.443 621.127 827.49 628.971C831.005 633.462 834.571 637.895 838.241 642.215C832.866 642.443 827.49 642.727 822.115 643.182C812.759 644.034 803.456 645.228 794.1 647.615C803.456 650.002 812.759 651.196 822.115 652.049C827.49 652.503 832.866 652.844 838.241 653.015C834.571 657.335 831.005 661.711 827.49 666.259C821.443 674.103 815.602 682.231 810.537 691.155C818.652 685.584 826.043 679.161 833.176 672.511C837.259 668.646 841.291 664.724 845.219 660.688C845.426 666.6 845.684 672.511 846.098 678.423C846.873 688.711 847.958 698.942 850.129 709.23C852.3 698.942 853.385 688.711 854.161 678.423C854.574 672.511 854.884 666.6 855.039 660.688C858.968 664.724 862.948 668.703 867.083 672.511C874.215 679.161 881.607 685.584 889.721 691.155C884.656 682.231 878.815 674.103 872.768 666.259C869.253 661.768 865.687 657.335 862.017 653.015C867.393 652.788 872.768 652.503 878.144 651.992C887.551 651.31 896.906 650.059 906.21 647.672ZM1265.69 1960.17C1271.07 1959.95 1276.44 1959.66 1281.82 1959.15C1291.18 1958.3 1300.48 1957.1 1309.83 1954.72C1300.48 1952.39 1291.18 1951.14 1281.82 1950.28C1276.44 1949.83 1271.07 1949.49 1265.69 1949.26C1269.36 1944.94 1272.98 1940.51 1276.44 1936.02C1282.49 1928.17 1288.33 1920.04 1293.4 1911.12C1285.28 1916.69 1277.89 1923.11 1270.76 1929.76C1266.68 1933.63 1262.64 1937.55 1258.72 1941.59C1258.51 1935.68 1258.25 1929.76 1257.79 1923.85C1257.01 1913.57 1255.92 1903.33 1253.75 1893.05C1251.63 1903.33 1250.5 1913.57 1249.72 1923.85C1249.31 1929.76 1249 1935.68 1248.84 1941.59C1244.92 1937.55 1240.94 1933.57 1236.8 1929.76C1229.67 1923.11 1222.28 1916.69 1214.16 1911.12C1219.23 1920.04 1225.07 1928.17 1231.11 1936.02C1234.63 1940.51 1238.2 1944.94 1241.87 1949.26C1236.49 1949.49 1231.11 1949.77 1225.74 1950.23C1216.38 1951.08 1207.08 1952.27 1197.73 1954.66C1207.08 1957.05 1216.38 1958.24 1225.74 1959.09C1231.11 1959.55 1236.49 1959.89 1241.87 1960.06C1238.2 1964.38 1234.63 1968.76 1231.11 1973.3C1225.07 1981.15 1219.23 1989.28 1214.16 1998.2C1222.28 1992.63 1229.67 1986.21 1236.8 1979.56C1240.88 1975.69 1244.92 1971.77 1248.84 1967.73C1249.05 1973.65 1249.31 1979.56 1249.72 1985.47C1250.5 1995.76 1251.58 2005.99 1253.75 2016.28C1255.92 2005.99 1257.01 1995.76 1257.79 1985.47C1258.2 1979.56 1258.51 1973.65 1258.66 1967.73C1262.59 1971.77 1266.57 1975.75 1270.71 1979.56C1277.84 1986.21 1285.23 1992.63 1293.35 1998.2C1288.28 1989.28 1282.44 1981.15 1276.39 1973.3C1272.93 1968.87 1269.36 1964.49 1265.69 1960.17ZM661.109 1544.73C651.754 1542.4 642.45 1541.15 633.095 1540.29C627.72 1539.84 622.344 1539.5 616.969 1539.27C620.638 1534.95 624.256 1530.52 627.719 1526.03C633.767 1518.18 639.608 1510.05 644.673 1501.13C636.558 1506.7 629.167 1513.12 622.034 1519.77C617.951 1523.64 613.919 1527.56 609.991 1531.6C609.784 1525.69 609.526 1519.77 609.06 1513.86C608.285 1503.57 607.2 1493.34 605.029 1483.06C602.91 1493.34 601.773 1503.57 600.997 1513.86C600.584 1519.77 600.274 1525.69 600.119 1531.6C596.19 1527.56 592.21 1523.58 588.075 1519.77C580.943 1513.12 573.551 1506.7 565.437 1501.13C570.502 1510.05 576.343 1518.18 582.39 1526.03C585.905 1530.52 589.471 1534.95 593.141 1539.27C587.765 1539.5 582.39 1539.78 577.014 1540.24C567.659 1541.09 558.355 1542.28 549 1544.67C558.355 1547.06 567.659 1548.25 577.014 1549.1C582.39 1549.56 587.765 1549.9 593.141 1550.07C589.471 1554.39 585.905 1558.77 582.39 1563.31C576.343 1571.16 570.502 1579.29 565.437 1588.21C573.551 1582.64 580.943 1576.22 588.075 1569.57C592.159 1565.7 596.19 1561.78 600.119 1557.74C600.325 1563.66 600.584 1569.57 600.997 1575.48C601.773 1585.77 602.858 1596 605.029 1606.29C607.2 1596 608.285 1585.77 609.06 1575.48C609.474 1569.57 609.784 1563.66 609.939 1557.74C613.867 1561.78 617.847 1565.76 621.982 1569.57C629.115 1576.22 636.506 1582.64 644.621 1588.21C639.556 1579.29 633.715 1571.16 627.668 1563.31C624.153 1558.82 620.587 1554.39 616.917 1550.07C622.292 1549.84 627.668 1549.56 633.043 1549.05C642.399 1548.31 651.754 1547.06 661.109 1544.73Z" fill="white"/>
</g>
<defs>
<clipPath id="clip0_56_2">
<rect width="1685" height="2497" fill="white"/>
</clipPath>
</defs>
</svg>
