<svg width="250" height="386" viewBox="0 0 250 386" fill="none" xmlns="http://www.w3.org/2000/svg">
<path fill-rule="evenodd" clip-rule="evenodd" d="M181.636 154.873C186.633 135.076 186.765 113.783 181.047 92.6773C163.079 26.349 94.1526 -13.0132 27.0954 4.75945C-10.9383 14.8398 -40.2018 41.1351 -55.1299 74.1111C-81.0508 58.4622 -113.155 52.9362 -144.803 61.3243C-186.715 72.4323 -216.983 105.066 -226.707 143.978C-235.946 144.13 -245.315 145.394 -254.645 147.866C-315.981 164.122 -352.38 226.483 -335.945 287.152C-319.51 347.821 -256.464 383.825 -195.128 367.569C-174.771 362.173 -157.16 351.699 -143.316 337.893C-115.217 365.81 -73.2156 378.496 -31.9863 367.569C-8.87976 361.445 10.6879 348.778 25.225 332.123C53.8235 373.589 106.759 394.733 158.555 381.006C224.102 363.633 263.001 296.991 245.437 232.156C235.963 197.182 211.994 169.878 181.636 154.873Z" fill="white"/>
</svg>
