<svg width="370" height="375" viewBox="0 0 370 375" fill="none" xmlns="http://www.w3.org/2000/svg">
<path fill-rule="evenodd" clip-rule="evenodd" d="M327.874 0C382.246 0 430.386 28.1639 459.918 71.4258C464.047 71.0503 468.226 70.8586 472.448 70.8586C524.558 70.8586 570.205 100.066 595.502 143.818C602.301 142.437 609.323 141.714 616.504 141.714C677.529 141.714 727 193.936 727 258.356C727 322.776 677.529 374.998 616.504 374.998L616.505 375H139.411L139.411 375C62.4163 375 0 309.112 0 227.834C0 146.557 62.4163 80.6693 139.411 80.6693C155.516 80.6693 170.984 83.5523 185.376 88.856C213.07 35.8818 266.502 0 327.874 0Z" fill="white"/>
</svg>
