<svg width="448" height="290" viewBox="0 0 448 290" fill="none" xmlns="http://www.w3.org/2000/svg">
<path fill-rule="evenodd" clip-rule="evenodd" d="M193.899 0.419922C232.354 0.419922 265.864 21.3623 283.408 52.3457C295.08 47.7763 307.803 45.2652 321.119 45.2652C370.736 45.2652 412.12 80.13 421.599 126.443C437.882 142.074 448 163.953 448 188.17C448 235.673 409.069 274.181 361.044 274.181C345.553 274.181 331.008 270.174 318.411 263.151C300.195 279.567 275.973 289.576 249.389 289.576C216.656 289.576 187.506 274.402 168.736 250.778C150.971 265.392 128.134 274.181 103.222 274.181C46.6015 274.181 0.701782 228.78 0.701782 172.775C0.701782 119.17 42.7523 75.2801 96.0052 71.6172C109.002 30.3657 147.915 0.419922 193.899 0.419922Z" fill="#CCCCCC"/>
</svg>
