<svg width="20" height="20" viewBox="0 0 20 20" fill="none" xmlns="http://www.w3.org/2000/svg">
<g clip-path="url(#clip0_97_35)">
<path d="M20 0H0V20H20V0Z" stroke="white" stroke-width="0.00064"/>
<path d="M19 14.5V5.5C19 4.67 18.33 4 17.5 4H3.49001C2.66001 4 1.99001 4.67 1.99001 5.5V14.5C1.99001 15.33 2.66001 16 3.49001 16H17.5C18.33 16 19 15.33 19 14.5ZM17.69 5.39C18.02 5.72 17.84 6.06 17.66 6.23L13.6 9.95L17.5 14.01C17.62 14.15 17.7 14.37 17.56 14.52C17.43 14.68 17.13 14.67 17 14.57L12.63 10.84L10.49 12.79L8.36001 10.84L3.99001 14.57C3.86001 14.67 3.56001 14.68 3.43001 14.52C3.29001 14.37 3.37001 14.15 3.49001 14.01L7.39001 9.95L3.33001 6.23C3.15001 6.06 2.97001 5.72 3.30001 5.39C3.63001 5.06 3.97001 5.22 4.25001 5.46L10.49 10.5L16.74 5.46C17.02 5.22 17.36 5.06 17.69 5.39V5.39Z" fill="white" stroke="white" stroke-width="0.00064"/>
</g>
<defs>
<clipPath id="clip0_97_35">
<rect width="20" height="20" fill="white"/>
</clipPath>
</defs>
</svg>
