<svg width="30" height="30" viewBox="0 0 30 30" fill="none" xmlns="http://www.w3.org/2000/svg">
<g clip-path="url(#clip0_97_51)">
<path d="M19.05 15C19.05 12.75 17.25 10.95 15 10.95C12.75 10.95 10.95 12.75 10.95 15C10.95 17.25 12.75 19.05 15 19.05C17.25 19.05 19.05 17.25 19.05 15ZM21.15 15C21.15 18.45 18.45 21.15 15 21.15C11.55 21.15 8.85 18.45 8.85 15C8.85 11.55 11.55 8.85 15 8.85C18.45 8.85 21.15 11.55 21.15 15ZM22.8 8.55C22.8 9.45 22.2 10.05 21.3 10.05C20.4 10.05 19.8 9.45 19.8 8.55C19.8 7.65 20.4 7.05 21.3 7.05C22.2 7.05 22.8 7.8 22.8 8.55ZM15 5.1C13.2 5.1 9.45 4.95 7.95 5.55C6.9 6 6 6.9 5.7 7.95C5.1 9.45 5.25 13.2 5.25 15C5.25 16.8 5.1 20.55 5.7 22.05C6 23.1 6.9 24 7.95 24.3C9.45 24.9 13.35 24.75 15 24.75C16.65 24.75 20.55 24.9 22.05 24.3C23.1 23.85 23.85 23.1 24.3 22.05C24.9 20.4 24.75 16.65 24.75 15C24.75 13.35 24.9 9.45 24.3 7.95C24 6.9 23.1 6 22.05 5.7C20.55 4.95 16.8 5.1 15 5.1ZM27 15V19.95C27 21.75 26.4 23.55 25.05 25.05C23.7 26.4 21.9 27 19.95 27H10.05C8.25 27 6.45 26.4 4.95 25.05C3.75 23.7 3 21.9 3 19.95V15V10.05C3 8.1 3.75 6.3 4.95 4.95C6.45 3.75 8.25 3 10.05 3H19.95C21.75 3 23.55 3.6 25.05 4.95C26.25 6.3 27 8.1 27 10.05V15Z" fill="white"/>
</g>
<defs>
<clipPath id="clip0_97_51">
<rect width="30" height="30" fill="white"/>
</clipPath>
</defs>
</svg>
