<svg width="20" height="20" viewBox="0 0 20 20" fill="none" xmlns="http://www.w3.org/2000/svg">
<g clip-path="url(#clip0_97_10)">
<path d="M10 20L9.41667 19.5C9.16667 19.25 2.5 13.75 2.5 7.5C2.5 3.33333 5.83333 0 10 0C14.1667 0 17.5 3.33333 17.5 7.5C17.5 13.75 10.8333 19.25 10.5833 19.5L10 20ZM10 1.66667C6.75 1.66667 4.16667 4.25 4.16667 7.5C4.16667 12 8.41667 16.25 10 17.75C11.5833 16.25 15.8333 12 15.8333 7.5C15.8333 4.25 13.1667 1.66667 10 1.66667ZM10 10.8333C8.16667 10.8333 6.66667 9.33333 6.66667 7.5C6.66667 5.66667 8.16667 4.16667 10 4.16667C11.8333 4.16667 13.3333 5.66667 13.3333 7.5C13.3333 9.33333 11.8333 10.8333 10 10.8333ZM10 5.83333C9.08333 5.83333 8.33333 6.58333 8.33333 7.5C8.33333 8.41667 9.08333 9.16667 10 9.16667C10.9167 9.16667 11.6667 8.41667 11.6667 7.5C11.6667 6.58333 10.9167 5.83333 10 5.83333Z" fill="white"/>
</g>
<defs>
<clipPath id="clip0_97_10">
<rect width="20" height="20" fill="white"/>
</clipPath>
</defs>
</svg>
