<svg width="20" height="20" viewBox="0 0 20 20" fill="none" xmlns="http://www.w3.org/2000/svg">
<path d="M3.47187 2.62493C3.36239 2.62849 3.25475 2.65397 3.1553 2.69988C3.05585 2.74578 2.96663 2.81117 2.89291 2.89218C2.81919 2.97318 2.76247 3.06816 2.72611 3.17148C2.68975 3.2748 2.6745 3.38436 2.68124 3.49368C2.79062 5.36868 3.30624 9.94368 5.77499 12.7968C8.73124 16.2343 12.5812 17.4187 16.5312 17.2437C16.743 17.231 16.942 17.1385 17.0882 16.9848C17.2343 16.8311 17.3167 16.6277 17.3187 16.4156V13.4124C17.3163 13.1322 17.2197 12.861 17.0446 12.6422C16.8695 12.4235 16.626 12.2699 16.3531 12.2062L14.375 11.7687C14.1303 11.7165 13.8757 11.739 13.6439 11.8331C13.4121 11.9273 13.214 12.0888 13.075 12.2968L12.6375 12.9593C12.5973 13.0199 12.5373 13.0646 12.4677 13.0858C12.3981 13.1069 12.3233 13.103 12.2562 13.0749C11.25 12.6406 7.24062 10.7656 6.79999 7.60306C6.79136 7.54198 6.801 7.47972 6.82769 7.4241C6.85438 7.36849 6.89694 7.32203 6.94999 7.29056L7.74374 6.80618C7.96146 6.67126 8.13246 6.47271 8.23363 6.2374C8.3348 6.00209 8.36123 5.74139 8.30937 5.49056L7.87499 3.47806C7.81149 3.19608 7.65223 2.94483 7.42432 2.76706C7.19642 2.58929 6.91395 2.496 6.62499 2.50306L3.47187 2.62493Z" stroke="white" stroke-width="1.92"/>
</svg>
