<svg width="228" height="228" viewBox="0 0 228 228" fill="none" xmlns="http://www.w3.org/2000/svg">
<path fill-rule="evenodd" clip-rule="evenodd" d="M212.6 128.359C211.164 137.967 208.537 146.97 204.751 155.16C197.116 171.956 184.989 185.945 170.228 196.124C159.758 203.315 147.657 208.553 135.065 211.369C123.579 213.923 111.33 214.442 99.0061 212.6C97.3352 212.35 95.4553 212.069 93.8155 211.61C91.3403 211.027 88.6561 210.412 86.1809 209.829C67.3391 204.45 51.1889 193.922 38.9737 179.925C34.4074 174.758 30.3525 169.027 26.7778 162.941C24.2378 158.504 21.9691 153.681 19.9405 148.68C19.47 147.542 18.9995 146.404 18.769 145.088C18.769 145.088 18.769 145.088 18.8002 144.879C18.3609 143.532 17.8904 142.394 17.6599 141.079C16.5508 137.069 15.6818 132.882 15.0217 128.726C14.6232 125.677 14.2248 122.628 14.0352 119.61C13.9296 117.459 13.824 115.308 13.9585 112.979C14.0187 108.29 14.2877 103.632 15.0057 98.8284C15.4115 96.113 16.0262 93.4289 16.6408 90.7447C17.0994 89.105 17.5581 87.4652 18.0167 85.8254C20.7371 76.1957 24.8259 67.411 30.0744 59.4403C32.5786 55.5438 35.5005 51.7097 38.6001 48.1157C43.7453 42.265 49.4546 36.9256 55.8746 32.5466C76.2198 17.8635 102.25 10.8633 128.986 14.859C130.03 15.0151 131.075 15.1712 132.119 15.3272C133.163 15.4833 134.416 15.6706 135.43 16.0356C141.007 17.2962 146.522 18.9745 151.556 21.0082C154.564 22.3119 157.572 23.6156 160.341 25.097C162.336 26.0358 164.091 27.1522 166.055 28.2999C167.423 29.145 168.792 29.9902 170.16 30.8353C170.338 31.0754 170.546 31.1066 170.933 31.3779C179.854 37.4091 187.691 44.9864 194.086 53.6296C194.975 54.8301 195.863 56.0305 196.751 57.231C197.253 58.1601 197.995 58.9116 198.496 59.8407C199.562 61.2813 200.388 62.8995 201.245 64.3088C204.465 69.9149 206.995 75.845 209.076 81.9216C211.42 89.105 213.074 96.6125 213.861 104.204C213.99 111.911 213.848 120.004 212.6 128.359Z" fill="url(#paint0_radial_66_1535)"/>
<path d="M142.916 91.6798C143.041 90.8443 145.753 91.7479 147.093 92.3041L153.359 93.2406C155.866 93.6152 152.003 95.173 149.758 95.9051C148.662 96.0972 146.051 96.4188 144.38 96.1691C142.291 95.8569 142.76 92.7241 142.916 91.6798Z" fill="url(#paint1_linear_66_1535)"/>
<path fill-rule="evenodd" clip-rule="evenodd" d="M170.337 31.0752C169.92 31.0127 169.711 30.9815 169.262 31.128C168.186 31.1808 167.173 30.8158 166.16 30.4508C165.356 30.1171 165 29.6369 163.956 29.4808C162.734 29.0847 161.752 28.5108 160.53 28.1147C159.308 27.7185 158.326 27.1447 157.135 26.5396C156.153 25.9658 155.704 26.1122 154.838 26.1962C153.971 26.2803 153.407 25.7689 152.603 25.4351C151.829 24.8925 150.785 24.7364 149.981 24.4027C147.537 23.6103 145.155 22.4003 142.742 21.399C141.343 20.7628 139.881 20.5442 138.21 20.2945C136.956 20.1072 135.85 20.3689 134.596 20.1816C133.761 20.0568 133.165 19.7542 132.33 19.6293C131.526 19.2956 130.659 19.3796 129.823 19.2548C128.601 18.8586 128.006 18.5561 126.69 18.7865C125.615 18.8393 124.988 18.7456 123.913 18.7984C122.868 18.6424 121.552 18.8728 120.477 18.9256C118.535 19.0624 116.383 19.168 114.504 18.887C113.25 18.6997 111.642 18.0322 110.535 18.2939C109.877 18.4091 109.335 19.1822 108.645 19.5063C107.445 20.3946 106.276 21.074 105.284 21.9935C104.293 22.913 103.27 24.0414 103.051 25.5035C102.864 26.7567 103.272 28.3125 103.743 29.4505C104.182 30.7974 104.235 31.873 102.857 32.5212C101.239 33.3471 99.2338 33.9016 97.4691 34.2785C96.1535 34.5089 95.0779 34.5617 94.3673 33.6014C93.9807 33.3301 93.8655 32.6722 93.5102 32.1921C93.1237 31.9207 92.4658 32.036 92.0169 32.1824C90.7012 32.4129 89.3855 32.6433 88.1011 32.6649C87.2344 32.7489 86.5453 33.073 85.7098 32.9481C84.8431 33.0321 84.3101 32.3118 83.2345 32.3646C81.9501 32.3862 80.3943 32.7943 79.1411 32.607C78.0967 32.4509 76.9059 31.8459 76.1329 31.3033C75.7463 31.032 75.5999 30.583 74.942 30.6983C74.5243 30.6358 73.804 31.1688 73.5327 31.5553C73.0526 31.9107 72.9589 32.5372 72.4787 32.8926C71.9673 33.4567 71.696 33.8433 71.1846 34.4075C70.4019 35.3582 69.6192 36.3089 68.8365 37.2597C68.3251 37.8238 67.7513 38.8057 67.031 39.3387C66.7597 39.7252 66.1019 39.8405 65.6529 39.9869C64.5149 40.4575 63.3457 41.1369 62.2077 41.6074C60.1093 42.7886 57.9797 44.1786 55.8813 45.3598C54.2631 46.1856 52.0807 46.5001 50.2849 47.0859C49.1781 47.3475 48.0713 47.6092 46.9645 47.8709C46.5155 48.0173 45.8889 47.9236 45.6176 48.3102C45.1374 48.6655 44.8661 49.052 44.5636 49.6474C43.572 50.5669 42.3404 51.6641 41.5265 52.8237C40.9838 53.5967 40.6813 54.1921 40.1387 54.9652C39.5649 55.9471 38.7822 56.8979 38.386 58.1199C37.2071 60.2926 36.8325 62.7991 35.4448 64.9406C34.8397 66.1314 33.8169 67.2598 33.003 68.4194C31.6465 70.352 31.063 72.8273 30.5108 75.0937C30.1146 76.3158 30.0738 78.018 30.0953 79.3024C30.0857 80.7957 29.8671 82.2579 29.6486 83.72C29.4301 85.1821 28.136 86.697 27.1445 87.6165C26.1529 88.536 24.6283 88.7352 23.4279 89.6235C22.4675 90.3341 21.2983 91.0135 20.6933 92.2043C20.422 92.5909 20.5372 93.2487 20.4435 93.8754C20.0474 95.0974 19.4735 96.0793 19.2862 97.3325C18.8588 98.7634 18.6403 100.226 18.3906 101.897C18.2657 102.732 18.1721 103.359 18.0472 104.194C17.9223 105.03 18.0376 105.687 18.1528 106.345C18.0904 106.763 17.9967 107.39 17.9343 107.807C17.8407 108.434 18.1647 109.123 18.1023 109.541C18.3015 111.065 18.3231 112.35 18.3135 113.843C18.335 115.128 18.7744 116.475 18.7959 117.759C19.1728 119.524 19.132 121.226 19.2688 123.168C19.2904 124.453 19.0718 125.915 19.0934 127.199C19.1462 128.275 19.199 129.35 19.0429 130.395C18.7932 132.066 18.1569 133.465 17.9072 135.136C17.5014 137.852 18.1399 140.723 18.3607 143.532C18.4448 144.399 18.56 145.057 18.644 145.923C13.749 131.525 12.2681 115.716 14.6717 99.6325C17.6061 79.9984 25.9615 62.6692 38.0573 48.8886C43.2025 43.0378 48.9118 37.6985 55.3318 33.3195C75.677 18.6364 101.707 11.6361 128.443 15.6318C130.532 15.944 132.829 16.2874 134.887 16.8084C147.868 18.5349 159.901 23.7499 170.337 31.0752Z" fill="url(#paint2_linear_66_1535)"/>
<path d="M135.245 100.142C140.133 101.727 146.613 105.044 149.242 106.505L155.508 107.441C157.597 107.753 167.836 117.825 169.144 123.359C170.453 128.893 177.499 124.608 182.721 125.388C187.943 126.169 172.757 142.05 167.955 145.603C163.153 149.156 169.215 158.604 169.948 160.849C170.68 163.093 166.034 165.602 163.741 173.801C161.448 182 156.598 193.02 153.417 200.018C150.872 205.617 142.056 209.353 137.967 210.521C136.471 211.01 132.829 210.608 130.236 205.095C126.995 198.205 126.467 187.449 126.047 183.115C125.627 178.782 138.304 158.255 119.818 153.357C101.332 148.459 109.122 167.774 87.7552 146.43C66.3882 125.085 98.6924 94.6794 101.249 91.8584C103.806 89.0375 108.56 92.951 118.427 91.2226C126.322 89.8399 133.553 92.4154 136.182 93.876C133.833 95.3044 130.357 98.5575 135.245 100.142Z" fill="url(#paint3_linear_66_1535)"/>
<path d="M23.2045 143.23C24.1912 141.308 21.9414 134.131 20.6931 130.783C22.4126 129.028 26.46 126.127 28.8942 128.56C31.9369 131.601 43.0818 127.231 46.3766 128.586C49.6714 129.941 57.2422 131.934 57.7193 134.592C58.1964 137.25 57.314 143.154 58.6463 145.94C59.7121 148.169 57.5119 153.53 56.2786 155.933C55.8674 156.734 54.5069 158.427 52.3535 158.795C49.6618 159.255 55.6483 160.15 60.5275 162.603C65.4067 165.057 60.7254 172.98 61.8055 177.452C62.8857 181.925 71.1586 190.922 72.617 192.864C74.0753 194.806 71.9867 197.081 70.4024 195.982C68.818 194.883 52.2722 176.89 43.9722 173.925C37.3322 171.553 26.7722 156.409 22.3222 149.134C22.2052 147.966 22.2179 145.152 23.2045 143.23Z" fill="url(#paint4_linear_66_1535)"/>
<path d="M58.4189 64.1036L59.0432 59.9262L59.8236 54.7043C60.1358 52.6157 58.0471 52.3034 56.4266 48.8582C54.8061 45.4129 56.7387 46.7694 60.0279 46.1933C63.3171 45.6172 61.8045 48.5942 61.6484 49.6386C61.4923 50.6829 65.3576 53.396 66.402 53.5521C67.4464 53.7082 71.6238 54.3325 70.2673 56.2652C68.9108 58.1978 68.7547 59.2422 64.9973 62.9514C61.9913 65.9188 59.3592 64.956 58.4189 64.1036Z" fill="url(#paint5_linear_66_1535)"/>
<path d="M57.4219 56.4807C58.3822 55.7701 54.8611 52.1831 52.9805 50.4785C52.3722 52.1671 50.6755 55.8995 48.7548 57.3208C46.3539 59.0974 51.5757 59.8778 53.5084 61.2343C55.441 62.5908 56.2214 57.369 57.4219 56.4807Z" fill="url(#paint6_linear_66_1535)"/>
<path d="M177.102 162.985C179.609 163.36 182.252 159.484 183.26 157.499C184.441 155.54 186.706 155.879 187.594 157.079C188.482 158.28 185.721 169.612 181.808 174.365C177.894 179.119 174.917 177.606 172.828 177.294C170.74 176.982 173.453 173.117 175.853 171.34C178.254 169.564 173.969 162.517 177.102 162.985Z" fill="url(#paint7_linear_66_1535)"/>
<path fill-rule="evenodd" clip-rule="evenodd" d="M156.912 98.041C156.413 101.383 154.095 102.603 152.999 102.795L158.797 106.865C158.605 105.768 159.265 103.731 163.443 104.355C166.054 104.746 167.779 109.274 169.505 113.803C171.23 118.332 172.956 122.861 175.567 123.251C180.788 124.031 194.413 118.594 198.015 115.929C200.896 113.797 197.959 109.159 196.13 107.106C195.122 109.091 191.506 110.899 185.111 102.255C177.116 91.4503 180.561 89.8312 186.203 94.9447C190.717 99.0355 194.142 98.9785 195.29 98.4386C196.787 97.9503 201.117 98.0279 206.466 102.244C211.815 106.461 208.43 129.586 206.069 140.622C209.406 132.58 215.62 113.863 213.777 103.337C208.016 70.4445 197.2 57.084 187.273 44.9234C179.331 35.195 157.395 23.3753 147.419 18.6816C144.426 19.6578 137.866 22.5923 135.571 26.52C132.875 31.1345 131.79 31.2737 125.34 32.1012C124.928 32.1541 124.493 32.2099 124.035 32.2698C118.772 32.9578 118.71 32.8959 117.269 31.4527C116.623 30.8053 115.699 29.88 113.904 28.6199C109.6 25.5987 102.794 27.4997 96.8817 29.1511C94.8301 29.7241 92.8861 30.2671 91.1915 30.564C84.6136 31.7163 78.4548 37.202 78.1426 39.2907C78.0321 40.0307 77.4168 40.5612 76.8401 41.0584C75.7889 41.9648 74.8659 42.7606 77.3622 44.5126C79.9014 46.2947 82.2588 46.207 84.7617 46.1139C86.0693 46.0653 87.4166 46.0152 88.8503 46.2295C93.0282 46.8539 90.4703 49.6747 88.0699 51.4513C85.6694 53.2279 81.335 53.6479 75.9575 53.9119C73.083 54.053 72.417 55.7446 71.4793 58.1265C70.6628 60.2006 69.6402 62.7981 66.774 65.3513C63.232 68.5065 62.0135 69.6542 61.7569 69.9401C60.0106 69.6886 57.1833 69.7026 59.4148 71.7257L59.4198 71.7303C62.239 74.2862 65.0547 76.8389 60.8792 76.2149C59.0532 75.942 57.6171 77.1551 56.2693 78.2937C54.5333 79.7602 52.9436 81.103 50.8555 78.9881C48.0736 76.1704 45.6767 78.8146 42.5606 82.2524C41.5218 83.3984 40.4032 84.6325 39.1637 85.7818C35.9864 88.7283 36.4328 90.9009 36.9579 93.4559C37.2521 94.8876 37.571 96.4394 37.2907 98.3147C36.8867 101.018 38.0204 101.09 39.7009 101.196C41.2668 101.295 43.3075 101.425 45.0213 103.741C48.3069 108.181 56.4991 104.225 60.4383 102.323C60.7591 102.168 61.0517 102.027 61.3111 101.905C64.7564 100.284 72.3195 85.3985 71.7433 82.1098C71.2547 79.3213 78.4991 76.1526 82.8143 74.265C83.5884 73.9265 84.2682 73.6291 84.7922 73.3826C87.2752 72.2144 89.2717 74.3015 92.3052 77.4726C93.4808 78.7016 94.8122 80.0935 96.3881 81.5218C99.8473 84.6569 99.7325 84.8503 99.1868 85.7701C98.8424 86.3505 98.3265 87.2201 98.4286 89.3006C98.5607 91.9893 99.2389 91.0231 100.426 89.3321C101.613 87.6412 103.309 85.2257 105.475 85.0157C109.809 84.5956 108.344 80.106 102.234 78.1252C96.1242 76.1443 90.7946 68.9412 93.9277 69.4094L107.504 71.4385C112.726 72.2189 115.391 75.8206 112.99 77.5967C110.589 79.3728 120.408 85.1116 123.541 85.5798C125.829 85.9217 124.718 82.3401 123.443 78.2281C122.972 76.7086 122.478 75.1167 122.125 73.6235C121.213 69.765 124.619 71.7424 127.473 73.3992C128.712 74.1186 129.847 74.7776 130.48 74.8721C132.568 75.1842 133.301 77.4291 129.699 80.094C126.098 82.7588 137.118 87.6088 140.251 88.0771L152.783 89.95C158.005 90.7305 157.537 93.8635 156.912 98.041ZM135.858 74.6087C138.242 75.321 143.461 76.5992 145.257 76.0134C147.053 75.4276 151.959 78.7946 154.188 80.5512C155.528 81.1075 158.063 81.771 157.477 79.9751C156.745 77.7303 151.571 69.4833 147.238 69.9033C142.904 70.3233 134.969 73.4077 135.858 74.6087Z" fill="url(#paint8_linear_66_1535)"/>
<defs>
<radialGradient id="paint0_radial_66_1535" cx="0" cy="0" r="1" gradientUnits="userSpaceOnUse" gradientTransform="translate(59.3327 58.0264) rotate(8.5) scale(160.721 160.721)">
<stop offset="0.00558659" stop-color="#0CB9C4"/>
<stop offset="0.2058" stop-color="#0C96C1"/>
<stop offset="0.3613" stop-color="#0B79B7"/>
<stop offset="0.5018" stop-color="#096EA7"/>
<stop offset="0.6334" stop-color="#075E8F"/>
<stop offset="0.7576" stop-color="#044A72"/>
<stop offset="0.8715" stop-color="#003C74"/>
</radialGradient>
<linearGradient id="paint1_linear_66_1535" x1="148.638" y1="92.0633" x2="147.944" y2="96.7017" gradientUnits="userSpaceOnUse">
<stop stop-color="#43991F"/>
<stop offset="1" stop-color="#4BFF00" stop-opacity="0"/>
</linearGradient>
<linearGradient id="paint2_linear_66_1535" x1="18.8008" y1="71.5326" x2="161.148" y2="92.8065" gradientUnits="userSpaceOnUse">
<stop stop-color="#2CB3FF"/>
<stop offset="0.0885417" stop-color="#2CA6FF"/>
<stop offset="0.2325" stop-color="#2DCAFC"/>
<stop offset="0.3947" stop-color="#32AEF3"/>
<stop offset="0.5382" stop-color="#3A7EE3"/>
<stop offset="0.6707" stop-color="#446ACD"/>
<stop offset="0.7958" stop-color="#4268B1"/>
<stop offset="0.9136" stop-color="#1F598E"/>
<stop offset="1" stop-color="#005D72"/>
</linearGradient>
<linearGradient id="paint3_linear_66_1535" x1="137.306" y1="92.6292" x2="120.033" y2="208.202" gradientUnits="userSpaceOnUse">
<stop stop-color="#43991F"/>
<stop offset="1" stop-color="#4BFF00" stop-opacity="0"/>
</linearGradient>
<linearGradient id="paint4_linear_66_1535" x1="51.8745" y1="129.323" x2="42.5096" y2="191.985" gradientUnits="userSpaceOnUse">
<stop stop-color="#43991F"/>
<stop offset="1" stop-color="#4BFF00" stop-opacity="0"/>
</linearGradient>
<linearGradient id="paint5_linear_66_1535" x1="63.8995" y1="46.557" x2="61.1358" y2="65.0496" gradientUnits="userSpaceOnUse">
<stop stop-color="#43991F"/>
<stop offset="1" stop-color="#4BFF00" stop-opacity="0"/>
</linearGradient>
<linearGradient id="paint6_linear_66_1535" x1="53.8398" y1="50.6069" x2="52.2584" y2="61.1879" gradientUnits="userSpaceOnUse">
<stop stop-color="#43991F"/>
<stop offset="1" stop-color="#4BFF00" stop-opacity="0"/>
</linearGradient>
<linearGradient id="paint7_linear_66_1535" x1="181.716" y1="155.5" x2="178.323" y2="178.203" gradientUnits="userSpaceOnUse">
<stop stop-color="#43991F"/>
<stop offset="1" stop-color="#4BFF00" stop-opacity="0"/>
</linearGradient>
<linearGradient id="paint8_linear_66_1535" x1="137.801" y1="17.2441" x2="121.256" y2="127.947" gradientUnits="userSpaceOnUse">
<stop stop-color="#43991F"/>
<stop offset="1" stop-color="#4BFF00" stop-opacity="0"/>
</linearGradient>
</defs>
</svg>
