<svg width="1920" height="694" viewBox="0 0 1920 694" fill="none" xmlns="http://www.w3.org/2000/svg">
<ellipse cx="116.927" cy="0.328598" rx="1.09277" ry="0.328598" fill="white"/>
<ellipse cx="280.843" cy="0.328598" rx="1.09277" ry="0.328598" fill="white"/>
<ellipse cx="444.758" cy="0.328598" rx="1.09277" ry="0.328598" fill="white"/>
<ellipse cx="608.674" cy="0.328598" rx="1.09276" ry="0.328598" fill="white"/>
<ellipse cx="772.59" cy="0.328598" rx="1.09277" ry="0.328598" fill="white"/>
<ellipse cx="936.506" cy="0.328598" rx="1.09277" ry="0.328598" fill="white"/>
<ellipse cx="1100.42" cy="0.328598" rx="1.09277" ry="0.328598" fill="white"/>
<ellipse cx="1264.34" cy="0.328598" rx="1.09277" ry="0.328598" fill="white"/>
<ellipse cx="1428.25" cy="0.328598" rx="1.09277" ry="0.328598" fill="white"/>
<ellipse cx="1592.17" cy="0.328598" rx="1.09277" ry="0.328598" fill="white"/>
<ellipse cx="171.565" cy="33.1884" rx="1.09277" ry="0.328598" fill="white"/>
<ellipse cx="335.481" cy="33.1884" rx="1.09277" ry="0.328598" fill="white"/>
<ellipse cx="499.397" cy="33.1884" rx="1.09277" ry="0.328598" fill="white"/>
<ellipse cx="663.313" cy="33.1884" rx="1.09276" ry="0.328598" fill="white"/>
<ellipse cx="827.229" cy="33.1884" rx="1.09277" ry="0.328598" fill="white"/>
<ellipse cx="991.144" cy="33.1884" rx="1.09277" ry="0.328598" fill="white"/>
<ellipse cx="1155.06" cy="33.1884" rx="1.09277" ry="0.328598" fill="white"/>
<ellipse cx="1318.98" cy="33.1884" rx="1.09277" ry="0.328598" fill="white"/>
<ellipse cx="1482.89" cy="33.1884" rx="1.09277" ry="0.328598" fill="white"/>
<ellipse cx="1646.81" cy="33.1884" rx="1.09277" ry="0.328598" fill="white"/>
<ellipse cx="73.216" cy="66.0483" rx="1.09277" ry="0.328598" fill="white"/>
<ellipse cx="237.132" cy="66.0483" rx="1.09277" ry="0.328598" fill="white"/>
<ellipse cx="401.048" cy="66.0483" rx="1.09277" ry="0.328598" fill="white"/>
<ellipse cx="564.963" cy="66.0483" rx="1.09277" ry="0.328598" fill="white"/>
<ellipse cx="728.879" cy="66.0483" rx="1.09277" ry="0.328598" fill="white"/>
<ellipse cx="892.795" cy="66.0483" rx="1.09277" ry="0.328598" fill="white"/>
<ellipse cx="1056.71" cy="66.0483" rx="1.09281" ry="0.328598" fill="white"/>
<ellipse cx="1220.63" cy="66.0483" rx="1.09281" ry="0.328598" fill="white"/>
<ellipse cx="1384.54" cy="66.0483" rx="1.09277" ry="0.328598" fill="white"/>
<ellipse cx="1548.46" cy="66.0483" rx="1.09277" ry="0.328598" fill="white"/>
<ellipse cx="62.2882" cy="98.9082" rx="1.09277" ry="0.328598" fill="white"/>
<ellipse cx="226.204" cy="98.9082" rx="1.09277" ry="0.328598" fill="white"/>
<ellipse cx="390.12" cy="98.9082" rx="1.09277" ry="0.328598" fill="white"/>
<ellipse cx="554.036" cy="98.9082" rx="1.09277" ry="0.328598" fill="white"/>
<ellipse cx="717.951" cy="98.9082" rx="1.09272" ry="0.328598" fill="white"/>
<ellipse cx="881.867" cy="98.9082" rx="1.09277" ry="0.328598" fill="white"/>
<ellipse cx="1045.78" cy="98.9082" rx="1.09277" ry="0.328598" fill="white"/>
<ellipse cx="1209.7" cy="98.9082" rx="1.09277" ry="0.328598" fill="white"/>
<ellipse cx="1373.61" cy="98.9082" rx="1.09277" ry="0.328598" fill="white"/>
<ellipse cx="1537.53" cy="98.9082" rx="1.09277" ry="0.328598" fill="white"/>
<ellipse cx="138.782" cy="131.768" rx="1.09277" ry="0.328598" fill="white"/>
<ellipse cx="302.698" cy="131.768" rx="1.09278" ry="0.328598" fill="white"/>
<ellipse cx="466.614" cy="131.768" rx="1.09277" ry="0.328598" fill="white"/>
<ellipse cx="630.53" cy="131.768" rx="1.09277" ry="0.328598" fill="white"/>
<ellipse cx="794.445" cy="131.768" rx="1.09277" ry="0.328598" fill="white"/>
<ellipse cx="958.361" cy="131.768" rx="1.09277" ry="0.328598" fill="white"/>
<ellipse cx="1122.28" cy="131.768" rx="1.09274" ry="0.328598" fill="white"/>
<ellipse cx="1286.19" cy="131.768" rx="1.09274" ry="0.328598" fill="white"/>
<ellipse cx="1450.11" cy="131.768" rx="1.09277" ry="0.328598" fill="white"/>
<ellipse cx="1614.02" cy="131.768" rx="1.09277" ry="0.328598" fill="white"/>
<ellipse cx="105.999" cy="164.628" rx="1.09277" ry="0.328598" fill="white"/>
<ellipse cx="269.915" cy="164.628" rx="1.09277" ry="0.328598" fill="white"/>
<ellipse cx="433.831" cy="164.628" rx="1.09279" ry="0.328598" fill="white"/>
<ellipse cx="597.746" cy="164.628" rx="1.09277" ry="0.328598" fill="white"/>
<ellipse cx="761.662" cy="164.628" rx="1.09277" ry="0.328598" fill="white"/>
<ellipse cx="925.578" cy="164.628" rx="1.09277" ry="0.328598" fill="white"/>
<ellipse cx="1089.49" cy="164.628" rx="1.09284" ry="0.328598" fill="white"/>
<ellipse cx="1253.41" cy="164.628" rx="1.09277" ry="0.328598" fill="white"/>
<ellipse cx="1417.33" cy="164.628" rx="1.09277" ry="0.328598" fill="white"/>
<ellipse cx="1581.24" cy="164.628" rx="1.09277" ry="0.328598" fill="white"/>
<ellipse cx="138.782" cy="197.488" rx="1.09277" ry="0.328598" fill="white"/>
<ellipse cx="302.698" cy="197.488" rx="1.09278" ry="0.328598" fill="white"/>
<ellipse cx="466.614" cy="197.488" rx="1.09277" ry="0.328598" fill="white"/>
<ellipse cx="630.53" cy="197.488" rx="1.09277" ry="0.328598" fill="white"/>
<ellipse cx="794.445" cy="197.488" rx="1.09277" ry="0.328598" fill="white"/>
<ellipse cx="958.361" cy="197.488" rx="1.09277" ry="0.328598" fill="white"/>
<ellipse cx="1122.28" cy="197.488" rx="1.09274" ry="0.328598" fill="white"/>
<ellipse cx="1286.19" cy="197.488" rx="1.09274" ry="0.328598" fill="white"/>
<ellipse cx="1450.11" cy="197.488" rx="1.09277" ry="0.328598" fill="white"/>
<ellipse cx="1614.02" cy="197.488" rx="1.09277" ry="0.328598" fill="white"/>
<ellipse cx="84.1437" cy="231.005" rx="1.09277" ry="0.328598" fill="white"/>
<ellipse cx="248.06" cy="231.005" rx="1.09277" ry="0.328598" fill="white"/>
<ellipse cx="411.975" cy="231.005" rx="1.09277" ry="0.328598" fill="white"/>
<ellipse cx="575.891" cy="231.005" rx="1.09277" ry="0.328598" fill="white"/>
<ellipse cx="739.807" cy="231.005" rx="1.09277" ry="0.328598" fill="white"/>
<ellipse cx="903.723" cy="231.005" rx="1.09277" ry="0.328598" fill="white"/>
<ellipse cx="1067.64" cy="231.005" rx="1.09274" ry="0.328598" fill="white"/>
<ellipse cx="1231.55" cy="231.005" rx="1.09274" ry="0.328598" fill="white"/>
<ellipse cx="1395.47" cy="231.005" rx="1.09277" ry="0.328598" fill="white"/>
<ellipse cx="1559.39" cy="231.005" rx="1.09277" ry="0.328598" fill="white"/>
<ellipse cx="149.71" cy="263.864" rx="1.09277" ry="0.328598" fill="white"/>
<ellipse cx="313.626" cy="263.864" rx="1.09277" ry="0.328598" fill="white"/>
<ellipse cx="477.542" cy="263.864" rx="1.09277" ry="0.328598" fill="white"/>
<ellipse cx="641.457" cy="263.864" rx="1.09277" ry="0.328598" fill="white"/>
<ellipse cx="805.373" cy="263.864" rx="1.09277" ry="0.328598" fill="white"/>
<ellipse cx="969.289" cy="263.864" rx="1.09277" ry="0.328598" fill="white"/>
<ellipse cx="1133.2" cy="263.864" rx="1.09274" ry="0.328598" fill="white"/>
<ellipse cx="1297.12" cy="263.864" rx="1.09277" ry="0.328598" fill="white"/>
<ellipse cx="1461.04" cy="263.864" rx="1.09277" ry="0.328598" fill="white"/>
<ellipse cx="127.854" cy="296.724" rx="1.09277" ry="0.328598" fill="white"/>
<ellipse cx="291.77" cy="296.724" rx="1.09277" ry="0.328598" fill="white"/>
<ellipse cx="455.686" cy="296.724" rx="1.09277" ry="0.328598" fill="white"/>
<ellipse cx="619.602" cy="296.724" rx="1.09279" ry="0.328598" fill="white"/>
<ellipse cx="783.518" cy="296.724" rx="1.09277" ry="0.328598" fill="white"/>
<ellipse cx="947.434" cy="296.724" rx="1.09277" ry="0.328598" fill="white"/>
<ellipse cx="1111.35" cy="296.724" rx="1.09281" ry="0.328598" fill="white"/>
<ellipse cx="1275.27" cy="296.724" rx="1.09287" ry="0.328598" fill="white"/>
<ellipse cx="1439.18" cy="296.724" rx="1.09277" ry="0.328598" fill="white"/>
<ellipse cx="1603.1" cy="296.724" rx="1.09277" ry="0.328598" fill="white"/>
<ellipse cx="193.421" cy="329.584" rx="1.09277" ry="0.328583" fill="white"/>
<ellipse cx="357.337" cy="329.584" rx="1.09277" ry="0.328583" fill="white"/>
<ellipse cx="521.253" cy="329.584" rx="1.09277" ry="0.328583" fill="white"/>
<ellipse cx="685.168" cy="329.584" rx="1.09277" ry="0.328583" fill="white"/>
<ellipse cx="849.084" cy="329.584" rx="1.09277" ry="0.328583" fill="white"/>
<ellipse cx="1013" cy="329.584" rx="1.09277" ry="0.328583" fill="white"/>
<ellipse cx="1176.92" cy="329.584" rx="1.09274" ry="0.328583" fill="white"/>
<ellipse cx="1340.83" cy="329.584" rx="1.09277" ry="0.328583" fill="white"/>
<ellipse cx="1504.75" cy="329.584" rx="1.09277" ry="0.328583" fill="white"/>
<ellipse cx="1668.66" cy="329.584" rx="1.09277" ry="0.328583" fill="white"/>
<ellipse cx="105.999" cy="362.444" rx="1.09277" ry="0.328598" fill="white"/>
<ellipse cx="269.915" cy="362.444" rx="1.09277" ry="0.328598" fill="white"/>
<ellipse cx="433.831" cy="362.444" rx="1.09279" ry="0.328598" fill="white"/>
<ellipse cx="597.746" cy="362.444" rx="1.09277" ry="0.328598" fill="white"/>
<ellipse cx="761.662" cy="362.444" rx="1.09277" ry="0.328598" fill="white"/>
<ellipse cx="925.578" cy="362.444" rx="1.09277" ry="0.328598" fill="white"/>
<ellipse cx="1089.49" cy="362.444" rx="1.09284" ry="0.328598" fill="white"/>
<ellipse cx="1253.41" cy="362.444" rx="1.09277" ry="0.328598" fill="white"/>
<ellipse cx="1417.33" cy="362.444" rx="1.09277" ry="0.328598" fill="white"/>
<ellipse cx="1581.24" cy="362.444" rx="1.09277" ry="0.328598" fill="white"/>
<ellipse cx="138.782" cy="395.304" rx="1.09277" ry="0.328598" fill="white"/>
<ellipse cx="302.698" cy="395.304" rx="1.09278" ry="0.328598" fill="white"/>
<ellipse cx="466.614" cy="395.304" rx="1.09277" ry="0.328598" fill="white"/>
<ellipse cx="630.53" cy="395.304" rx="1.09277" ry="0.328598" fill="white"/>
<ellipse cx="794.445" cy="395.304" rx="1.09277" ry="0.328598" fill="white"/>
<ellipse cx="958.361" cy="395.304" rx="1.09277" ry="0.328598" fill="white"/>
<ellipse cx="1122.28" cy="395.304" rx="1.09274" ry="0.328598" fill="white"/>
<ellipse cx="1286.19" cy="395.304" rx="1.09274" ry="0.328598" fill="white"/>
<ellipse cx="1450.11" cy="395.304" rx="1.09277" ry="0.328598" fill="white"/>
<ellipse cx="1614.02" cy="395.304" rx="1.09277" ry="0.328598" fill="white"/>
<ellipse cx="215.276" cy="431.45" rx="1.09277" ry="0.328598" fill="white"/>
<ellipse cx="379.192" cy="431.45" rx="1.09277" ry="0.328598" fill="white"/>
<ellipse cx="543.108" cy="431.45" rx="1.09277" ry="0.328598" fill="white"/>
<ellipse cx="707.024" cy="431.45" rx="1.09277" ry="0.328598" fill="white"/>
<ellipse cx="870.94" cy="431.45" rx="1.09277" ry="0.328598" fill="white"/>
<ellipse cx="1034.86" cy="431.45" rx="1.09277" ry="0.328598" fill="white"/>
<ellipse cx="1198.77" cy="431.45" rx="1.09284" ry="0.328598" fill="white"/>
<ellipse cx="1362.69" cy="431.45" rx="1.09277" ry="0.328598" fill="white"/>
<ellipse cx="1526.6" cy="431.45" rx="1.09277" ry="0.328598" fill="white"/>
<ellipse cx="1690.52" cy="431.45" rx="1.09277" ry="0.328598" fill="white"/>
<ellipse cx="149.71" cy="467.595" rx="1.09277" ry="0.328598" fill="white"/>
<ellipse cx="313.626" cy="467.595" rx="1.09277" ry="0.328598" fill="white"/>
<ellipse cx="477.542" cy="467.595" rx="1.09277" ry="0.328598" fill="white"/>
<ellipse cx="641.457" cy="467.595" rx="1.09277" ry="0.328598" fill="white"/>
<ellipse cx="805.373" cy="467.595" rx="1.09277" ry="0.328598" fill="white"/>
<ellipse cx="969.289" cy="467.595" rx="1.09277" ry="0.328598" fill="white"/>
<ellipse cx="1133.2" cy="467.595" rx="1.09274" ry="0.328598" fill="white"/>
<ellipse cx="1297.12" cy="467.595" rx="1.09277" ry="0.328598" fill="white"/>
<ellipse cx="1461.04" cy="467.595" rx="1.09277" ry="0.328598" fill="white"/>
<ellipse cx="1624.95" cy="467.595" rx="1.09277" ry="0.328598" fill="white"/>
<ellipse cx="237.132" cy="503.084" rx="1.09277" ry="0.328598" fill="white"/>
<ellipse cx="401.048" cy="503.084" rx="1.09277" ry="0.328598" fill="white"/>
<ellipse cx="564.963" cy="503.084" rx="1.09277" ry="0.328598" fill="white"/>
<ellipse cx="728.879" cy="503.084" rx="1.09277" ry="0.328598" fill="white"/>
<ellipse cx="892.795" cy="503.084" rx="1.09277" ry="0.328598" fill="white"/>
<ellipse cx="1056.71" cy="503.084" rx="1.09281" ry="0.328598" fill="white"/>
<ellipse cx="1220.63" cy="503.084" rx="1.09281" ry="0.328598" fill="white"/>
<ellipse cx="1384.54" cy="503.084" rx="1.09277" ry="0.328598" fill="white"/>
<ellipse cx="1548.46" cy="503.084" rx="1.09277" ry="0.328598" fill="white"/>
<ellipse cx="171.565" cy="539.23" rx="1.09277" ry="0.328598" fill="white"/>
<ellipse cx="335.481" cy="539.23" rx="1.09277" ry="0.328598" fill="white"/>
<ellipse cx="499.397" cy="539.23" rx="1.09277" ry="0.328598" fill="white"/>
<ellipse cx="663.313" cy="539.23" rx="1.09276" ry="0.328598" fill="white"/>
<ellipse cx="827.229" cy="539.23" rx="1.09277" ry="0.328598" fill="white"/>
<ellipse cx="991.144" cy="539.23" rx="1.09277" ry="0.328598" fill="white"/>
<ellipse cx="1155.06" cy="539.23" rx="1.09277" ry="0.328598" fill="white"/>
<ellipse cx="1318.98" cy="539.23" rx="1.09277" ry="0.328598" fill="white"/>
<ellipse cx="1482.89" cy="539.23" rx="1.09277" ry="0.328598" fill="white"/>
<ellipse cx="1646.81" cy="539.23" rx="1.09277" ry="0.328598" fill="white"/>
<ellipse cx="105.999" cy="575.376" rx="1.09277" ry="0.328598" fill="white"/>
<ellipse cx="269.915" cy="575.376" rx="1.09277" ry="0.328598" fill="white"/>
<ellipse cx="433.831" cy="575.376" rx="1.09279" ry="0.328598" fill="white"/>
<ellipse cx="597.746" cy="575.376" rx="1.09277" ry="0.328598" fill="white"/>
<ellipse cx="761.662" cy="575.376" rx="1.09277" ry="0.328598" fill="white"/>
<ellipse cx="925.578" cy="575.376" rx="1.09277" ry="0.328598" fill="white"/>
<ellipse cx="1089.49" cy="575.376" rx="1.09284" ry="0.328598" fill="white"/>
<ellipse cx="1253.41" cy="575.376" rx="1.09277" ry="0.328598" fill="white"/>
<ellipse cx="1417.33" cy="575.376" rx="1.09277" ry="0.328598" fill="white"/>
<ellipse cx="1581.24" cy="575.376" rx="1.09277" ry="0.328598" fill="white"/>
<ellipse cx="171.565" cy="611.522" rx="1.09277" ry="0.328598" fill="white"/>
<ellipse cx="335.481" cy="611.522" rx="1.09277" ry="0.328598" fill="white"/>
<ellipse cx="499.397" cy="611.522" rx="1.09277" ry="0.328598" fill="white"/>
<ellipse cx="663.313" cy="611.522" rx="1.09276" ry="0.328598" fill="white"/>
<ellipse cx="827.229" cy="611.522" rx="1.09277" ry="0.328598" fill="white"/>
<ellipse cx="991.144" cy="611.522" rx="1.09277" ry="0.328598" fill="white"/>
<ellipse cx="1155.06" cy="611.522" rx="1.09277" ry="0.328598" fill="white"/>
<ellipse cx="1318.98" cy="611.522" rx="1.09277" ry="0.328598" fill="white"/>
<ellipse cx="1482.89" cy="611.522" rx="1.09277" ry="0.328598" fill="white"/>
<ellipse cx="127.854" cy="644.382" rx="1.09277" ry="0.328598" fill="white"/>
<ellipse cx="291.77" cy="644.382" rx="1.09277" ry="0.328598" fill="white"/>
<ellipse cx="455.686" cy="644.382" rx="1.09277" ry="0.328598" fill="white"/>
<ellipse cx="619.602" cy="644.382" rx="1.09279" ry="0.328598" fill="white"/>
<ellipse cx="783.518" cy="644.382" rx="1.09277" ry="0.328598" fill="white"/>
<ellipse cx="947.434" cy="644.382" rx="1.09277" ry="0.328598" fill="white"/>
<ellipse cx="1111.35" cy="644.382" rx="1.09281" ry="0.328598" fill="white"/>
<ellipse cx="1275.27" cy="644.382" rx="1.09287" ry="0.328598" fill="white"/>
<ellipse cx="1439.18" cy="644.382" rx="1.09277" ry="0.328598" fill="white"/>
<ellipse cx="1439.18" cy="644.382" rx="1.09277" ry="0.328598" fill="white"/>
<ellipse cx="215.276" cy="677.241" rx="1.09277" ry="0.328598" fill="white"/>
<ellipse cx="379.192" cy="677.241" rx="1.09277" ry="0.328598" fill="white"/>
<ellipse cx="543.108" cy="677.241" rx="1.09277" ry="0.328598" fill="white"/>
<ellipse cx="707.024" cy="677.241" rx="1.09277" ry="0.328598" fill="white"/>
<ellipse cx="870.94" cy="677.241" rx="1.09277" ry="0.328598" fill="white"/>
<ellipse cx="1034.86" cy="677.241" rx="1.09277" ry="0.328598" fill="white"/>
<ellipse cx="1198.77" cy="677.241" rx="1.09284" ry="0.328598" fill="white"/>
<ellipse cx="1362.69" cy="677.241" rx="1.09277" ry="0.328598" fill="white"/>
<ellipse cx="1526.6" cy="677.241" rx="1.09277" ry="0.328598" fill="white"/>
<ellipse cx="1646.81" cy="611.522" rx="1.09277" ry="0.328598" fill="white"/>
<ellipse cx="171.565" cy="3.61458" rx="1.09277" ry="0.328598" fill="white"/>
<ellipse cx="335.481" cy="3.61458" rx="1.09277" ry="0.328598" fill="white"/>
<ellipse cx="499.397" cy="3.61458" rx="1.09277" ry="0.328598" fill="white"/>
<ellipse cx="663.312" cy="3.61458" rx="1.09276" ry="0.328598" fill="white"/>
<ellipse cx="827.228" cy="3.61458" rx="1.09277" ry="0.328598" fill="white"/>
<ellipse cx="991.144" cy="3.61458" rx="1.09277" ry="0.328598" fill="white"/>
<ellipse cx="1155.06" cy="3.61458" rx="1.09277" ry="0.328598" fill="white"/>
<ellipse cx="1318.98" cy="3.61458" rx="1.09277" ry="0.328598" fill="white"/>
<ellipse cx="1482.89" cy="3.61458" rx="1.09277" ry="0.328598" fill="white"/>
<ellipse cx="1646.81" cy="3.61458" rx="1.09277" ry="0.328598" fill="white"/>
<ellipse cx="226.204" cy="36.4744" rx="1.09277" ry="0.328598" fill="white"/>
<ellipse cx="390.12" cy="36.4744" rx="1.09277" ry="0.328598" fill="white"/>
<ellipse cx="554.035" cy="36.4744" rx="1.09277" ry="0.328598" fill="white"/>
<ellipse cx="717.951" cy="36.4744" rx="1.09272" ry="0.328598" fill="white"/>
<ellipse cx="881.867" cy="36.4744" rx="1.09277" ry="0.328598" fill="white"/>
<ellipse cx="1045.78" cy="36.4744" rx="1.09277" ry="0.328598" fill="white"/>
<ellipse cx="1209.7" cy="36.4744" rx="1.09277" ry="0.328598" fill="white"/>
<ellipse cx="1373.61" cy="36.4744" rx="1.09277" ry="0.328598" fill="white"/>
<ellipse cx="1537.53" cy="36.4744" rx="1.09277" ry="0.328598" fill="white"/>
<ellipse cx="1701.45" cy="36.4744" rx="1.09277" ry="0.328598" fill="white"/>
<ellipse cx="127.854" cy="69.3343" rx="1.09277" ry="0.328598" fill="white"/>
<ellipse cx="291.77" cy="69.3343" rx="1.09277" ry="0.328598" fill="white"/>
<ellipse cx="455.686" cy="69.3343" rx="1.09277" ry="0.328598" fill="white"/>
<ellipse cx="619.602" cy="69.3343" rx="1.09279" ry="0.328598" fill="white"/>
<ellipse cx="783.518" cy="69.3343" rx="1.09277" ry="0.328598" fill="white"/>
<ellipse cx="947.433" cy="69.3343" rx="1.09277" ry="0.328598" fill="white"/>
<ellipse cx="1111.35" cy="69.3343" rx="1.09281" ry="0.328598" fill="white"/>
<ellipse cx="1275.26" cy="69.3343" rx="1.09287" ry="0.328598" fill="white"/>
<ellipse cx="1439.18" cy="69.3343" rx="1.09277" ry="0.328598" fill="white"/>
<ellipse cx="1603.1" cy="69.3343" rx="1.09277" ry="0.328598" fill="white"/>
<ellipse cx="116.927" cy="102.194" rx="1.09277" ry="0.328598" fill="white"/>
<ellipse cx="280.842" cy="102.194" rx="1.09277" ry="0.328598" fill="white"/>
<ellipse cx="444.758" cy="102.194" rx="1.09277" ry="0.328598" fill="white"/>
<ellipse cx="608.674" cy="102.194" rx="1.09276" ry="0.328598" fill="white"/>
<ellipse cx="772.59" cy="102.194" rx="1.09277" ry="0.328598" fill="white"/>
<ellipse cx="936.505" cy="102.194" rx="1.09277" ry="0.328598" fill="white"/>
<ellipse cx="1100.42" cy="102.194" rx="1.09277" ry="0.328598" fill="white"/>
<ellipse cx="1264.34" cy="102.194" rx="1.09277" ry="0.328598" fill="white"/>
<ellipse cx="1428.25" cy="102.194" rx="1.09277" ry="0.328598" fill="white"/>
<ellipse cx="1592.17" cy="102.194" rx="1.09277" ry="0.328598" fill="white"/>
<ellipse cx="193.421" cy="135.054" rx="1.09277" ry="0.328598" fill="white"/>
<ellipse cx="357.336" cy="135.054" rx="1.09277" ry="0.328598" fill="white"/>
<ellipse cx="521.252" cy="135.054" rx="1.09277" ry="0.328598" fill="white"/>
<ellipse cx="685.168" cy="135.054" rx="1.09277" ry="0.328598" fill="white"/>
<ellipse cx="849.084" cy="135.054" rx="1.09277" ry="0.328598" fill="white"/>
<ellipse cx="1013" cy="135.054" rx="1.09277" ry="0.328598" fill="white"/>
<ellipse cx="1176.92" cy="135.054" rx="1.09274" ry="0.328598" fill="white"/>
<ellipse cx="1340.83" cy="135.054" rx="1.09277" ry="0.328598" fill="white"/>
<ellipse cx="1504.75" cy="135.054" rx="1.09277" ry="0.328598" fill="white"/>
<ellipse cx="1668.66" cy="135.054" rx="1.09277" ry="0.328598" fill="white"/>
<ellipse cx="160.637" cy="167.914" rx="1.09277" ry="0.328598" fill="white"/>
<ellipse cx="324.553" cy="167.914" rx="1.09277" ry="0.328598" fill="white"/>
<ellipse cx="488.469" cy="167.914" rx="1.09277" ry="0.328598" fill="white"/>
<ellipse cx="652.385" cy="167.914" rx="1.09277" ry="0.328598" fill="white"/>
<ellipse cx="816.301" cy="167.914" rx="1.09277" ry="0.328598" fill="white"/>
<ellipse cx="980.216" cy="167.914" rx="1.09277" ry="0.328598" fill="white"/>
<ellipse cx="1144.13" cy="167.914" rx="1.09284" ry="0.328598" fill="white"/>
<ellipse cx="1308.05" cy="167.914" rx="1.09277" ry="0.328598" fill="white"/>
<ellipse cx="1471.96" cy="167.914" rx="1.09277" ry="0.328598" fill="white"/>
<ellipse cx="1635.88" cy="167.914" rx="1.09277" ry="0.328598" fill="white"/>
<ellipse cx="193.421" cy="200.774" rx="1.09277" ry="0.328598" fill="white"/>
<ellipse cx="357.336" cy="200.774" rx="1.09277" ry="0.328598" fill="white"/>
<ellipse cx="521.252" cy="200.774" rx="1.09277" ry="0.328598" fill="white"/>
<ellipse cx="685.168" cy="200.774" rx="1.09277" ry="0.328598" fill="white"/>
<ellipse cx="849.084" cy="200.774" rx="1.09277" ry="0.328598" fill="white"/>
<ellipse cx="1013" cy="200.774" rx="1.09277" ry="0.328598" fill="white"/>
<ellipse cx="1176.92" cy="200.774" rx="1.09274" ry="0.328598" fill="white"/>
<ellipse cx="1340.83" cy="200.774" rx="1.09277" ry="0.328598" fill="white"/>
<ellipse cx="1504.75" cy="200.774" rx="1.09277" ry="0.328598" fill="white"/>
<ellipse cx="1668.66" cy="200.774" rx="1.09277" ry="0.328598" fill="white"/>
<ellipse cx="138.782" cy="234.291" rx="1.09277" ry="0.328598" fill="white"/>
<ellipse cx="302.698" cy="234.291" rx="1.09278" ry="0.328598" fill="white"/>
<ellipse cx="466.614" cy="234.291" rx="1.09277" ry="0.328598" fill="white"/>
<ellipse cx="630.529" cy="234.291" rx="1.09277" ry="0.328598" fill="white"/>
<ellipse cx="794.445" cy="234.291" rx="1.09277" ry="0.328598" fill="white"/>
<ellipse cx="958.361" cy="234.291" rx="1.09277" ry="0.328598" fill="white"/>
<ellipse cx="1122.28" cy="234.291" rx="1.09274" ry="0.328598" fill="white"/>
<ellipse cx="1286.19" cy="234.291" rx="1.09274" ry="0.328598" fill="white"/>
<ellipse cx="1450.11" cy="234.291" rx="1.09277" ry="0.328598" fill="white"/>
<ellipse cx="1614.02" cy="234.291" rx="1.09277" ry="0.328598" fill="white"/>
<ellipse cx="204.348" cy="267.15" rx="1.09277" ry="0.328598" fill="white"/>
<ellipse cx="368.264" cy="267.15" rx="1.09277" ry="0.328598" fill="white"/>
<ellipse cx="532.18" cy="267.15" rx="1.09277" ry="0.328598" fill="white"/>
<ellipse cx="696.096" cy="267.15" rx="1.09277" ry="0.328598" fill="white"/>
<ellipse cx="860.011" cy="267.15" rx="1.09277" ry="0.328598" fill="white"/>
<ellipse cx="1023.93" cy="267.15" rx="1.09277" ry="0.328598" fill="white"/>
<ellipse cx="1187.84" cy="267.15" rx="1.09274" ry="0.328598" fill="white"/>
<ellipse cx="1351.76" cy="267.15" rx="1.09277" ry="0.328598" fill="white"/>
<ellipse cx="1515.67" cy="267.15" rx="1.09277" ry="0.328598" fill="white"/>
<ellipse cx="182.493" cy="300.01" rx="1.09277" ry="0.328598" fill="white"/>
<ellipse cx="346.409" cy="300.01" rx="1.09277" ry="0.328598" fill="white"/>
<ellipse cx="510.324" cy="300.01" rx="1.09277" ry="0.328598" fill="white"/>
<ellipse cx="674.24" cy="300.01" rx="1.09279" ry="0.328598" fill="white"/>
<ellipse cx="838.156" cy="300.01" rx="1.09277" ry="0.328598" fill="white"/>
<ellipse cx="1002.07" cy="300.01" rx="1.09277" ry="0.328598" fill="white"/>
<ellipse cx="1165.99" cy="300.01" rx="1.09281" ry="0.328598" fill="white"/>
<ellipse cx="1329.9" cy="300.01" rx="1.09277" ry="0.328598" fill="white"/>
<ellipse cx="1493.82" cy="300.01" rx="1.09277" ry="0.328598" fill="white"/>
<ellipse cx="1657.73" cy="300.01" rx="1.09277" ry="0.328598" fill="white"/>
<ellipse cx="248.059" cy="332.87" rx="1.09277" ry="0.328593" fill="white"/>
<ellipse cx="411.975" cy="332.87" rx="1.09277" ry="0.328593" fill="white"/>
<ellipse cx="575.891" cy="332.87" rx="1.09277" ry="0.328593" fill="white"/>
<ellipse cx="739.807" cy="332.87" rx="1.09277" ry="0.328593" fill="white"/>
<ellipse cx="903.722" cy="332.87" rx="1.09277" ry="0.328593" fill="white"/>
<ellipse cx="1067.64" cy="332.87" rx="1.09274" ry="0.328593" fill="white"/>
<ellipse cx="1231.55" cy="332.87" rx="1.09274" ry="0.328593" fill="white"/>
<ellipse cx="1395.47" cy="332.87" rx="1.09277" ry="0.328593" fill="white"/>
<ellipse cx="1559.39" cy="332.87" rx="1.09277" ry="0.328593" fill="white"/>
<ellipse cx="1723.3" cy="332.213" rx="1.09277" ry="0.328598" fill="white"/>
<ellipse cx="160.637" cy="365.73" rx="1.09277" ry="0.328598" fill="white"/>
<ellipse cx="324.553" cy="365.73" rx="1.09277" ry="0.328598" fill="white"/>
<ellipse cx="488.469" cy="365.73" rx="1.09277" ry="0.328598" fill="white"/>
<ellipse cx="652.385" cy="365.73" rx="1.09277" ry="0.328598" fill="white"/>
<ellipse cx="816.301" cy="365.73" rx="1.09277" ry="0.328598" fill="white"/>
<ellipse cx="980.216" cy="365.73" rx="1.09277" ry="0.328598" fill="white"/>
<ellipse cx="1144.13" cy="365.73" rx="1.09284" ry="0.328598" fill="white"/>
<ellipse cx="1308.05" cy="365.73" rx="1.09277" ry="0.328598" fill="white"/>
<ellipse cx="1471.96" cy="365.73" rx="1.09277" ry="0.328598" fill="white"/>
<ellipse cx="1635.88" cy="365.73" rx="1.09277" ry="0.328598" fill="white"/>
<ellipse cx="193.421" cy="398.59" rx="1.09277" ry="0.328598" fill="white"/>
<ellipse cx="357.336" cy="398.59" rx="1.09277" ry="0.328598" fill="white"/>
<ellipse cx="521.252" cy="398.59" rx="1.09277" ry="0.328598" fill="white"/>
<ellipse cx="685.168" cy="398.59" rx="1.09277" ry="0.328598" fill="white"/>
<ellipse cx="849.084" cy="398.59" rx="1.09277" ry="0.328598" fill="white"/>
<ellipse cx="1013" cy="398.59" rx="1.09277" ry="0.328598" fill="white"/>
<ellipse cx="1176.92" cy="398.59" rx="1.09274" ry="0.328598" fill="white"/>
<ellipse cx="1340.83" cy="398.59" rx="1.09277" ry="0.328598" fill="white"/>
<ellipse cx="1504.75" cy="398.59" rx="1.09277" ry="0.328598" fill="white"/>
<ellipse cx="1668.66" cy="398.59" rx="1.09277" ry="0.328598" fill="white"/>
<ellipse cx="269.915" cy="434.736" rx="1.09277" ry="0.328598" fill="white"/>
<ellipse cx="433.83" cy="434.736" rx="1.09279" ry="0.328598" fill="white"/>
<ellipse cx="597.746" cy="434.736" rx="1.09277" ry="0.328598" fill="white"/>
<ellipse cx="761.662" cy="434.736" rx="1.09277" ry="0.328598" fill="white"/>
<ellipse cx="925.578" cy="434.736" rx="1.09277" ry="0.328598" fill="white"/>
<ellipse cx="1089.49" cy="434.736" rx="1.09284" ry="0.328598" fill="white"/>
<ellipse cx="1253.41" cy="434.736" rx="1.09277" ry="0.328598" fill="white"/>
<ellipse cx="1417.33" cy="434.736" rx="1.09277" ry="0.328598" fill="white"/>
<ellipse cx="1581.24" cy="434.736" rx="1.09277" ry="0.328598" fill="white"/>
<ellipse cx="1745.16" cy="434.079" rx="1.09277" ry="0.328598" fill="white"/>
<ellipse cx="204.348" cy="470.881" rx="1.09277" ry="0.328598" fill="white"/>
<ellipse cx="368.264" cy="470.881" rx="1.09277" ry="0.328598" fill="white"/>
<ellipse cx="532.18" cy="470.881" rx="1.09277" ry="0.328598" fill="white"/>
<ellipse cx="696.096" cy="470.881" rx="1.09277" ry="0.328598" fill="white"/>
<ellipse cx="860.011" cy="470.881" rx="1.09277" ry="0.328598" fill="white"/>
<ellipse cx="1023.93" cy="470.881" rx="1.09277" ry="0.328598" fill="white"/>
<ellipse cx="1187.84" cy="470.881" rx="1.09274" ry="0.328598" fill="white"/>
<ellipse cx="1351.76" cy="470.881" rx="1.09277" ry="0.328598" fill="white"/>
<ellipse cx="1515.67" cy="470.881" rx="1.09277" ry="0.328598" fill="white"/>
<ellipse cx="1679.59" cy="470.881" rx="1.09277" ry="0.328598" fill="white"/>
<ellipse cx="291.77" cy="506.37" rx="1.09277" ry="0.328568" fill="white"/>
<ellipse cx="455.686" cy="506.37" rx="1.09277" ry="0.328568" fill="white"/>
<ellipse cx="619.602" cy="506.37" rx="1.09279" ry="0.328568" fill="white"/>
<ellipse cx="783.518" cy="506.37" rx="1.09277" ry="0.328568" fill="white"/>
<ellipse cx="947.433" cy="506.37" rx="1.09277" ry="0.328568" fill="white"/>
<ellipse cx="1111.35" cy="506.37" rx="1.09281" ry="0.328568" fill="white"/>
<ellipse cx="1275.26" cy="506.37" rx="1.09287" ry="0.328568" fill="white"/>
<ellipse cx="1439.18" cy="506.37" rx="1.09277" ry="0.328568" fill="white"/>
<ellipse cx="1603.1" cy="506.37" rx="1.09277" ry="0.328568" fill="white"/>
<ellipse cx="226.204" cy="542.516" rx="1.09277" ry="0.328598" fill="white"/>
<ellipse cx="390.12" cy="542.516" rx="1.09277" ry="0.328598" fill="white"/>
<ellipse cx="554.035" cy="542.516" rx="1.09277" ry="0.328598" fill="white"/>
<ellipse cx="717.951" cy="542.516" rx="1.09272" ry="0.328598" fill="white"/>
<ellipse cx="881.867" cy="542.516" rx="1.09277" ry="0.328598" fill="white"/>
<ellipse cx="1045.78" cy="542.516" rx="1.09277" ry="0.328598" fill="white"/>
<ellipse cx="1209.7" cy="542.516" rx="1.09277" ry="0.328598" fill="white"/>
<ellipse cx="1373.61" cy="542.516" rx="1.09277" ry="0.328598" fill="white"/>
<ellipse cx="1537.53" cy="542.516" rx="1.09277" ry="0.328598" fill="white"/>
<ellipse cx="1701.45" cy="542.516" rx="1.09277" ry="0.328598" fill="white"/>
<ellipse cx="160.637" cy="578.662" rx="1.09277" ry="0.328598" fill="white"/>
<ellipse cx="324.553" cy="578.662" rx="1.09277" ry="0.328598" fill="white"/>
<ellipse cx="488.469" cy="578.662" rx="1.09277" ry="0.328598" fill="white"/>
<ellipse cx="652.385" cy="578.662" rx="1.09277" ry="0.328598" fill="white"/>
<ellipse cx="816.301" cy="578.662" rx="1.09277" ry="0.328598" fill="white"/>
<ellipse cx="980.216" cy="578.662" rx="1.09277" ry="0.328598" fill="white"/>
<ellipse cx="1144.13" cy="578.662" rx="1.09284" ry="0.328598" fill="white"/>
<ellipse cx="1308.05" cy="578.662" rx="1.09277" ry="0.328598" fill="white"/>
<ellipse cx="1471.96" cy="578.662" rx="1.09277" ry="0.328598" fill="white"/>
<ellipse cx="1635.88" cy="578.662" rx="1.09277" ry="0.328598" fill="white"/>
<ellipse cx="226.204" cy="614.808" rx="1.09277" ry="0.328598" fill="white"/>
<ellipse cx="390.12" cy="614.808" rx="1.09277" ry="0.328598" fill="white"/>
<ellipse cx="554.035" cy="614.808" rx="1.09277" ry="0.328598" fill="white"/>
<ellipse cx="717.951" cy="614.808" rx="1.09272" ry="0.328598" fill="white"/>
<ellipse cx="881.867" cy="614.808" rx="1.09277" ry="0.328598" fill="white"/>
<ellipse cx="1045.78" cy="614.808" rx="1.09277" ry="0.328598" fill="white"/>
<ellipse cx="1209.7" cy="614.808" rx="1.09277" ry="0.328598" fill="white"/>
<ellipse cx="1373.61" cy="614.808" rx="1.09277" ry="0.328598" fill="white"/>
<ellipse cx="1537.53" cy="614.808" rx="1.09277" ry="0.328598" fill="white"/>
<ellipse cx="182.493" cy="647.668" rx="1.09277" ry="0.328598" fill="white"/>
<ellipse cx="346.409" cy="647.668" rx="1.09277" ry="0.328598" fill="white"/>
<ellipse cx="510.324" cy="647.668" rx="1.09277" ry="0.328598" fill="white"/>
<ellipse cx="674.24" cy="647.668" rx="1.09279" ry="0.328598" fill="white"/>
<ellipse cx="838.156" cy="647.668" rx="1.09277" ry="0.328598" fill="white"/>
<ellipse cx="1002.07" cy="647.668" rx="1.09277" ry="0.328598" fill="white"/>
<ellipse cx="1165.99" cy="647.668" rx="1.09281" ry="0.328598" fill="white"/>
<ellipse cx="1329.9" cy="647.668" rx="1.09277" ry="0.328598" fill="white"/>
<ellipse cx="1493.82" cy="647.668" rx="1.09277" ry="0.328598" fill="white"/>
<ellipse cx="1493.82" cy="647.668" rx="1.09277" ry="0.328598" fill="white"/>
<ellipse cx="269.915" cy="680.527" rx="1.09277" ry="0.328598" fill="white"/>
<ellipse cx="433.83" cy="680.527" rx="1.09279" ry="0.328598" fill="white"/>
<ellipse cx="597.746" cy="680.527" rx="1.09277" ry="0.328598" fill="white"/>
<ellipse cx="761.662" cy="680.527" rx="1.09277" ry="0.328598" fill="white"/>
<ellipse cx="925.578" cy="680.527" rx="1.09277" ry="0.328598" fill="white"/>
<ellipse cx="1089.49" cy="680.527" rx="1.09284" ry="0.328598" fill="white"/>
<ellipse cx="1253.41" cy="680.527" rx="1.09277" ry="0.328598" fill="white"/>
<ellipse cx="1417.33" cy="680.527" rx="1.09277" ry="0.328598" fill="white"/>
<ellipse cx="1581.24" cy="680.527" rx="1.09277" ry="0.328598" fill="white"/>
<ellipse cx="1701.45" cy="614.808" rx="1.09277" ry="0.328598" fill="white"/>
<ellipse cx="55.7313" cy="16.7585" rx="1.09277" ry="0.328598" fill="white"/>
<ellipse cx="219.647" cy="16.7585" rx="1.09277" ry="0.328598" fill="white"/>
<ellipse cx="383.563" cy="16.7585" rx="1.09277" ry="0.328598" fill="white"/>
<ellipse cx="547.479" cy="16.7585" rx="1.09277" ry="0.328598" fill="white"/>
<ellipse cx="711.395" cy="16.7585" rx="1.09277" ry="0.328598" fill="white"/>
<ellipse cx="875.31" cy="16.7585" rx="1.09277" ry="0.328598" fill="white"/>
<ellipse cx="1039.23" cy="16.7585" rx="1.09277" ry="0.328598" fill="white"/>
<ellipse cx="1203.14" cy="16.7585" rx="1.09277" ry="0.328598" fill="white"/>
<ellipse cx="1367.06" cy="16.7585" rx="1.09277" ry="0.328598" fill="white"/>
<ellipse cx="1530.97" cy="16.7585" rx="1.09277" ry="0.328598" fill="white"/>
<ellipse cx="110.37" cy="49.6184" rx="1.09277" ry="0.328598" fill="white"/>
<ellipse cx="274.286" cy="49.6184" rx="1.09277" ry="0.328598" fill="white"/>
<ellipse cx="438.202" cy="49.6184" rx="1.09277" ry="0.328598" fill="white"/>
<ellipse cx="602.117" cy="49.6184" rx="1.09277" ry="0.328598" fill="white"/>
<ellipse cx="766.033" cy="49.6184" rx="1.09277" ry="0.328598" fill="white"/>
<ellipse cx="929.949" cy="49.6184" rx="1.09277" ry="0.328598" fill="white"/>
<ellipse cx="1093.86" cy="49.6184" rx="1.09277" ry="0.328598" fill="white"/>
<ellipse cx="1257.78" cy="49.6184" rx="1.09277" ry="0.328598" fill="white"/>
<ellipse cx="1421.7" cy="49.6184" rx="1.09277" ry="0.328598" fill="white"/>
<ellipse cx="1585.61" cy="49.6184" rx="1.09277" ry="0.328598" fill="white"/>
<ellipse cx="12.0205" cy="82.4782" rx="1.09277" ry="0.328598" fill="white"/>
<ellipse cx="175.936" cy="82.4782" rx="1.09277" ry="0.328598" fill="white"/>
<ellipse cx="339.852" cy="82.4782" rx="1.09277" ry="0.328598" fill="white"/>
<ellipse cx="503.768" cy="82.4782" rx="1.09277" ry="0.328598" fill="white"/>
<ellipse cx="667.684" cy="82.4782" rx="1.09277" ry="0.328598" fill="white"/>
<ellipse cx="831.599" cy="82.4782" rx="1.09277" ry="0.328598" fill="white"/>
<ellipse cx="995.515" cy="82.4782" rx="1.09277" ry="0.328598" fill="white"/>
<ellipse cx="1159.43" cy="82.4782" rx="1.09277" ry="0.328598" fill="white"/>
<ellipse cx="1323.35" cy="82.4782" rx="1.09277" ry="0.328598" fill="white"/>
<ellipse cx="1487.26" cy="82.4782" rx="1.09277" ry="0.328598" fill="white"/>
<ellipse cx="1.09277" cy="115.338" rx="1.09277" ry="0.328598" fill="white"/>
<ellipse cx="165.009" cy="115.338" rx="1.09277" ry="0.328598" fill="white"/>
<ellipse cx="328.924" cy="115.338" rx="1.09277" ry="0.328598" fill="white"/>
<ellipse cx="492.84" cy="115.338" rx="1.09277" ry="0.328598" fill="white"/>
<ellipse cx="656.756" cy="115.338" rx="1.09277" ry="0.328598" fill="white"/>
<ellipse cx="820.672" cy="115.338" rx="1.09277" ry="0.328598" fill="white"/>
<ellipse cx="984.588" cy="115.338" rx="1.09277" ry="0.328598" fill="white"/>
<ellipse cx="1148.5" cy="115.338" rx="1.09277" ry="0.328598" fill="white"/>
<ellipse cx="1312.42" cy="115.338" rx="1.09277" ry="0.328598" fill="white"/>
<ellipse cx="1476.33" cy="115.338" rx="1.09277" ry="0.328598" fill="white"/>
<ellipse cx="77.5868" cy="148.198" rx="1.09277" ry="0.328598" fill="white"/>
<ellipse cx="241.503" cy="148.198" rx="1.09277" ry="0.328598" fill="white"/>
<ellipse cx="405.418" cy="148.198" rx="1.09277" ry="0.328598" fill="white"/>
<ellipse cx="569.334" cy="148.198" rx="1.09277" ry="0.328598" fill="white"/>
<ellipse cx="733.25" cy="148.198" rx="1.09277" ry="0.328598" fill="white"/>
<ellipse cx="897.166" cy="148.198" rx="1.09277" ry="0.328598" fill="white"/>
<ellipse cx="1061.08" cy="148.198" rx="1.09281" ry="0.328598" fill="white"/>
<ellipse cx="1225" cy="148.198" rx="1.09284" ry="0.328598" fill="white"/>
<ellipse cx="1388.91" cy="148.198" rx="1.09277" ry="0.328598" fill="white"/>
<ellipse cx="1552.83" cy="148.198" rx="1.09277" ry="0.328598" fill="white"/>
<ellipse cx="44.8037" cy="181.058" rx="1.09278" ry="0.328598" fill="white"/>
<ellipse cx="208.719" cy="181.058" rx="1.09277" ry="0.328598" fill="white"/>
<ellipse cx="372.635" cy="181.058" rx="1.09277" ry="0.328598" fill="white"/>
<ellipse cx="536.551" cy="181.058" rx="1.09277" ry="0.328598" fill="white"/>
<ellipse cx="700.467" cy="181.058" rx="1.09277" ry="0.328598" fill="white"/>
<ellipse cx="864.383" cy="181.058" rx="1.09277" ry="0.328598" fill="white"/>
<ellipse cx="1028.3" cy="181.058" rx="1.09277" ry="0.328598" fill="white"/>
<ellipse cx="1192.21" cy="181.058" rx="1.09274" ry="0.328598" fill="white"/>
<ellipse cx="1356.13" cy="181.058" rx="1.09277" ry="0.328598" fill="white"/>
<ellipse cx="1520.05" cy="181.058" rx="1.09277" ry="0.328598" fill="white"/>
<ellipse cx="77.5868" cy="213.918" rx="1.09277" ry="0.328598" fill="white"/>
<ellipse cx="241.503" cy="213.918" rx="1.09277" ry="0.328598" fill="white"/>
<ellipse cx="405.418" cy="213.918" rx="1.09277" ry="0.328598" fill="white"/>
<ellipse cx="569.334" cy="213.918" rx="1.09277" ry="0.328598" fill="white"/>
<ellipse cx="733.25" cy="213.918" rx="1.09277" ry="0.328598" fill="white"/>
<ellipse cx="897.166" cy="213.918" rx="1.09277" ry="0.328598" fill="white"/>
<ellipse cx="1061.08" cy="213.918" rx="1.09281" ry="0.328598" fill="white"/>
<ellipse cx="1225" cy="213.918" rx="1.09284" ry="0.328598" fill="white"/>
<ellipse cx="1388.91" cy="213.918" rx="1.09277" ry="0.328598" fill="white"/>
<ellipse cx="1552.83" cy="213.918" rx="1.09277" ry="0.328598" fill="white"/>
<ellipse cx="22.9483" cy="247.434" rx="1.09277" ry="0.328598" fill="white"/>
<ellipse cx="186.864" cy="247.434" rx="1.09277" ry="0.328598" fill="white"/>
<ellipse cx="350.78" cy="247.434" rx="1.09277" ry="0.328598" fill="white"/>
<ellipse cx="514.696" cy="247.434" rx="1.09277" ry="0.328598" fill="white"/>
<ellipse cx="678.611" cy="247.434" rx="1.09277" ry="0.328598" fill="white"/>
<ellipse cx="842.527" cy="247.434" rx="1.09277" ry="0.328598" fill="white"/>
<ellipse cx="1006.44" cy="247.434" rx="1.09277" ry="0.328598" fill="white"/>
<ellipse cx="1170.36" cy="247.434" rx="1.09281" ry="0.328598" fill="white"/>
<ellipse cx="1334.27" cy="247.434" rx="1.09277" ry="0.328598" fill="white"/>
<ellipse cx="1498.19" cy="247.434" rx="1.09277" ry="0.328598" fill="white"/>
<ellipse cx="88.5145" cy="280.294" rx="1.09277" ry="0.328598" fill="white"/>
<ellipse cx="252.43" cy="280.294" rx="1.09277" ry="0.328598" fill="white"/>
<ellipse cx="416.346" cy="280.294" rx="1.09277" ry="0.328598" fill="white"/>
<ellipse cx="580.262" cy="280.294" rx="1.09277" ry="0.328598" fill="white"/>
<ellipse cx="744.178" cy="280.294" rx="1.09277" ry="0.328598" fill="white"/>
<ellipse cx="908.094" cy="280.294" rx="1.09277" ry="0.328598" fill="white"/>
<ellipse cx="1072.01" cy="280.294" rx="1.09274" ry="0.328598" fill="white"/>
<ellipse cx="1235.93" cy="280.294" rx="1.09274" ry="0.328598" fill="white"/>
<ellipse cx="1399.84" cy="280.294" rx="1.09277" ry="0.328598" fill="white"/>
<ellipse cx="66.659" cy="313.154" rx="1.09277" ry="0.328598" fill="white"/>
<ellipse cx="230.575" cy="313.154" rx="1.09277" ry="0.328598" fill="white"/>
<ellipse cx="394.491" cy="313.154" rx="1.09277" ry="0.328598" fill="white"/>
<ellipse cx="558.407" cy="313.154" rx="1.09277" ry="0.328598" fill="white"/>
<ellipse cx="722.322" cy="313.154" rx="1.09277" ry="0.328598" fill="white"/>
<ellipse cx="886.238" cy="313.154" rx="1.09277" ry="0.328598" fill="white"/>
<ellipse cx="1050.15" cy="313.154" rx="1.09277" ry="0.328598" fill="white"/>
<ellipse cx="1214.07" cy="313.154" rx="1.09277" ry="0.328598" fill="white"/>
<ellipse cx="1377.99" cy="313.154" rx="1.09277" ry="0.328598" fill="white"/>
<ellipse cx="1541.9" cy="313.154" rx="1.09277" ry="0.328598" fill="white"/>
<ellipse cx="132.225" cy="346.014" rx="1.09277" ry="0.328593" fill="white"/>
<ellipse cx="296.141" cy="346.014" rx="1.09277" ry="0.328593" fill="white"/>
<ellipse cx="460.057" cy="346.014" rx="1.09277" ry="0.328593" fill="white"/>
<ellipse cx="623.973" cy="346.014" rx="1.09277" ry="0.328593" fill="white"/>
<ellipse cx="787.888" cy="346.014" rx="1.09277" ry="0.328593" fill="white"/>
<ellipse cx="951.804" cy="346.014" rx="1.09277" ry="0.328593" fill="white"/>
<ellipse cx="1115.72" cy="346.014" rx="1.09281" ry="0.328593" fill="white"/>
<ellipse cx="1279.64" cy="346.014" rx="1.09284" ry="0.328593" fill="white"/>
<ellipse cx="1443.55" cy="346.014" rx="1.09277" ry="0.328593" fill="white"/>
<ellipse cx="1607.47" cy="346.014" rx="1.09277" ry="0.328593" fill="white"/>
<ellipse cx="44.8037" cy="378.874" rx="1.09278" ry="0.328598" fill="white"/>
<ellipse cx="208.719" cy="378.874" rx="1.09277" ry="0.328598" fill="white"/>
<ellipse cx="372.635" cy="378.874" rx="1.09277" ry="0.328598" fill="white"/>
<ellipse cx="536.551" cy="378.874" rx="1.09277" ry="0.328598" fill="white"/>
<ellipse cx="700.467" cy="378.874" rx="1.09277" ry="0.328598" fill="white"/>
<ellipse cx="864.383" cy="378.874" rx="1.09277" ry="0.328598" fill="white"/>
<ellipse cx="1028.3" cy="378.874" rx="1.09277" ry="0.328598" fill="white"/>
<ellipse cx="1192.21" cy="378.874" rx="1.09274" ry="0.328598" fill="white"/>
<ellipse cx="1356.13" cy="378.874" rx="1.09277" ry="0.328598" fill="white"/>
<ellipse cx="77.5868" cy="411.734" rx="1.09277" ry="0.328598" fill="white"/>
<ellipse cx="241.503" cy="411.734" rx="1.09277" ry="0.328598" fill="white"/>
<ellipse cx="405.418" cy="411.734" rx="1.09277" ry="0.328598" fill="white"/>
<ellipse cx="569.334" cy="411.734" rx="1.09277" ry="0.328598" fill="white"/>
<ellipse cx="733.25" cy="411.734" rx="1.09277" ry="0.328598" fill="white"/>
<ellipse cx="897.166" cy="411.734" rx="1.09277" ry="0.328598" fill="white"/>
<ellipse cx="1061.08" cy="411.734" rx="1.09281" ry="0.328598" fill="white"/>
<ellipse cx="1225" cy="411.734" rx="1.09284" ry="0.328598" fill="white"/>
<ellipse cx="1388.91" cy="411.734" rx="1.09277" ry="0.328598" fill="white"/>
<ellipse cx="1552.83" cy="411.734" rx="1.09277" ry="0.328598" fill="white"/>
<ellipse cx="154.081" cy="447.88" rx="1.09277" ry="0.328598" fill="white"/>
<ellipse cx="317.997" cy="447.88" rx="1.09277" ry="0.328598" fill="white"/>
<ellipse cx="481.912" cy="447.88" rx="1.09277" ry="0.328598" fill="white"/>
<ellipse cx="645.828" cy="447.88" rx="1.09277" ry="0.328598" fill="white"/>
<ellipse cx="809.744" cy="447.88" rx="1.09277" ry="0.328598" fill="white"/>
<ellipse cx="973.66" cy="447.88" rx="1.09277" ry="0.328598" fill="white"/>
<ellipse cx="1137.58" cy="447.88" rx="1.09274" ry="0.328598" fill="white"/>
<ellipse cx="1301.49" cy="447.88" rx="1.09277" ry="0.328598" fill="white"/>
<ellipse cx="1465.41" cy="447.88" rx="1.09277" ry="0.328598" fill="white"/>
<ellipse cx="1629.32" cy="447.88" rx="1.09277" ry="0.328598" fill="white"/>
<ellipse cx="88.5145" cy="484.025" rx="1.09277" ry="0.328588" fill="white"/>
<ellipse cx="252.43" cy="484.025" rx="1.09277" ry="0.328588" fill="white"/>
<ellipse cx="416.346" cy="484.025" rx="1.09277" ry="0.328588" fill="white"/>
<ellipse cx="580.262" cy="484.025" rx="1.09277" ry="0.328588" fill="white"/>
<ellipse cx="744.178" cy="484.025" rx="1.09277" ry="0.328588" fill="white"/>
<ellipse cx="908.094" cy="484.025" rx="1.09277" ry="0.328588" fill="white"/>
<ellipse cx="1072.01" cy="484.025" rx="1.09274" ry="0.328588" fill="white"/>
<ellipse cx="1235.93" cy="484.025" rx="1.09274" ry="0.328588" fill="white"/>
<ellipse cx="1399.84" cy="484.025" rx="1.09277" ry="0.328588" fill="white"/>
<ellipse cx="1563.76" cy="484.025" rx="1.09277" ry="0.328588" fill="white"/>
<ellipse cx="175.936" cy="519.514" rx="1.09277" ry="0.328598" fill="white"/>
<ellipse cx="339.852" cy="519.514" rx="1.09277" ry="0.328598" fill="white"/>
<ellipse cx="503.768" cy="519.514" rx="1.09277" ry="0.328598" fill="white"/>
<ellipse cx="667.684" cy="519.514" rx="1.09277" ry="0.328598" fill="white"/>
<ellipse cx="831.599" cy="519.514" rx="1.09277" ry="0.328598" fill="white"/>
<ellipse cx="995.515" cy="519.514" rx="1.09277" ry="0.328598" fill="white"/>
<ellipse cx="1159.43" cy="519.514" rx="1.09277" ry="0.328598" fill="white"/>
<ellipse cx="1323.35" cy="519.514" rx="1.09277" ry="0.328598" fill="white"/>
<ellipse cx="1487.26" cy="519.514" rx="1.09277" ry="0.328598" fill="white"/>
<ellipse cx="110.37" cy="555.66" rx="1.09277" ry="0.328598" fill="white"/>
<ellipse cx="274.286" cy="555.66" rx="1.09277" ry="0.328598" fill="white"/>
<ellipse cx="438.202" cy="555.66" rx="1.09277" ry="0.328598" fill="white"/>
<ellipse cx="602.117" cy="555.66" rx="1.09277" ry="0.328598" fill="white"/>
<ellipse cx="766.033" cy="555.66" rx="1.09277" ry="0.328598" fill="white"/>
<ellipse cx="929.949" cy="555.66" rx="1.09277" ry="0.328598" fill="white"/>
<ellipse cx="1093.86" cy="555.66" rx="1.09277" ry="0.328598" fill="white"/>
<ellipse cx="1257.78" cy="555.66" rx="1.09277" ry="0.328598" fill="white"/>
<ellipse cx="1421.7" cy="555.66" rx="1.09277" ry="0.328598" fill="white"/>
<ellipse cx="1585.61" cy="555.66" rx="1.09277" ry="0.328598" fill="white"/>
<ellipse cx="44.8037" cy="591.806" rx="1.09278" ry="0.328598" fill="white"/>
<ellipse cx="208.719" cy="591.806" rx="1.09277" ry="0.328598" fill="white"/>
<ellipse cx="372.635" cy="591.806" rx="1.09277" ry="0.328598" fill="white"/>
<ellipse cx="536.551" cy="591.806" rx="1.09277" ry="0.328598" fill="white"/>
<ellipse cx="700.467" cy="591.806" rx="1.09277" ry="0.328598" fill="white"/>
<ellipse cx="864.383" cy="591.806" rx="1.09277" ry="0.328598" fill="white"/>
<ellipse cx="1028.3" cy="591.806" rx="1.09277" ry="0.328598" fill="white"/>
<ellipse cx="1192.21" cy="591.806" rx="1.09274" ry="0.328598" fill="white"/>
<ellipse cx="1356.13" cy="591.806" rx="1.09277" ry="0.328598" fill="white"/>
<ellipse cx="1520.05" cy="591.806" rx="1.09277" ry="0.328598" fill="white"/>
<ellipse cx="110.37" cy="627.952" rx="1.09277" ry="0.328598" fill="white"/>
<ellipse cx="274.286" cy="627.952" rx="1.09277" ry="0.328598" fill="white"/>
<ellipse cx="438.202" cy="627.952" rx="1.09277" ry="0.328598" fill="white"/>
<ellipse cx="602.117" cy="627.952" rx="1.09277" ry="0.328598" fill="white"/>
<ellipse cx="766.033" cy="627.952" rx="1.09277" ry="0.328598" fill="white"/>
<ellipse cx="929.949" cy="627.952" rx="1.09277" ry="0.328598" fill="white"/>
<ellipse cx="1093.86" cy="627.952" rx="1.09277" ry="0.328598" fill="white"/>
<ellipse cx="1257.78" cy="627.952" rx="1.09277" ry="0.328598" fill="white"/>
<ellipse cx="1421.7" cy="627.952" rx="1.09277" ry="0.328598" fill="white"/>
<ellipse cx="66.659" cy="660.811" rx="1.09277" ry="0.328598" fill="white"/>
<ellipse cx="230.575" cy="660.811" rx="1.09277" ry="0.328598" fill="white"/>
<ellipse cx="394.491" cy="660.811" rx="1.09277" ry="0.328598" fill="white"/>
<ellipse cx="558.407" cy="660.811" rx="1.09277" ry="0.328598" fill="white"/>
<ellipse cx="722.322" cy="660.811" rx="1.09277" ry="0.328598" fill="white"/>
<ellipse cx="886.238" cy="660.811" rx="1.09277" ry="0.328598" fill="white"/>
<ellipse cx="1050.15" cy="660.811" rx="1.09277" ry="0.328598" fill="white"/>
<ellipse cx="1214.07" cy="660.811" rx="1.09277" ry="0.328598" fill="white"/>
<ellipse cx="1377.99" cy="660.811" rx="1.09277" ry="0.328598" fill="white"/>
<ellipse cx="1377.99" cy="660.811" rx="1.09277" ry="0.328598" fill="white"/>
<ellipse cx="154.081" cy="693.671" rx="1.09277" ry="0.328598" fill="white"/>
<ellipse cx="317.997" cy="693.671" rx="1.09277" ry="0.328598" fill="white"/>
<ellipse cx="481.912" cy="693.671" rx="1.09277" ry="0.328598" fill="white"/>
<ellipse cx="645.828" cy="693.671" rx="1.09277" ry="0.328598" fill="white"/>
<ellipse cx="809.744" cy="693.671" rx="1.09277" ry="0.328598" fill="white"/>
<ellipse cx="973.66" cy="693.671" rx="1.09277" ry="0.328598" fill="white"/>
<ellipse cx="1137.58" cy="693.671" rx="1.09274" ry="0.328598" fill="white"/>
<ellipse cx="1301.49" cy="693.671" rx="1.09277" ry="0.328598" fill="white"/>
<ellipse cx="1465.41" cy="693.671" rx="1.09277" ry="0.328598" fill="white"/>
<ellipse cx="1585.61" cy="627.952" rx="1.09277" ry="0.328598" fill="white"/>
<ellipse cx="103.813" cy="13.8012" rx="2.18555" ry="0.657202" fill="white"/>
<ellipse cx="431.645" cy="17.0871" rx="2.18554" ry="0.657182" fill="white"/>
<ellipse cx="759.476" cy="13.8012" rx="2.18554" ry="0.657202" fill="white"/>
<ellipse cx="1087.31" cy="10.5152" rx="2.18554" ry="0.657197" fill="white"/>
<ellipse cx="1415.14" cy="13.8012" rx="2.18554" ry="0.657202" fill="white"/>
<ellipse cx="1742.97" cy="17.0871" rx="2.18554" ry="0.657182" fill="white"/>
<ellipse cx="147.524" cy="79.5208" rx="2.18554" ry="0.657197" fill="white"/>
<ellipse cx="475.356" cy="82.8069" rx="2.18554" ry="0.657197" fill="white"/>
<ellipse cx="803.187" cy="79.5208" rx="2.18554" ry="0.657197" fill="white"/>
<ellipse cx="1131.02" cy="76.2349" rx="2.18554" ry="0.657197" fill="white"/>
<ellipse cx="1458.85" cy="79.5208" rx="2.18554" ry="0.657197" fill="white"/>
<ellipse cx="1786.68" cy="82.8069" rx="2.18554" ry="0.657197" fill="white"/>
<ellipse cx="81.9578" cy="145.241" rx="2.18554" ry="0.657197" fill="white"/>
<ellipse cx="409.789" cy="148.526" rx="2.18557" ry="0.657197" fill="white"/>
<ellipse cx="737.621" cy="145.241" rx="2.18554" ry="0.657197" fill="white"/>
<ellipse cx="1065.45" cy="141.955" rx="2.18554" ry="0.657197" fill="white"/>
<ellipse cx="1393.28" cy="145.241" rx="2.18554" ry="0.657197" fill="white"/>
<ellipse cx="1721.12" cy="148.526" rx="2.18554" ry="0.657197" fill="white"/>
<ellipse cx="213.09" cy="210.96" rx="2.18554" ry="0.657197" fill="white"/>
<ellipse cx="540.922" cy="214.246" rx="2.18554" ry="0.657197" fill="white"/>
<ellipse cx="868.754" cy="210.96" rx="2.18554" ry="0.657197" fill="white"/>
<ellipse cx="1196.59" cy="207.674" rx="2.18554" ry="0.657197" fill="white"/>
<ellipse cx="1524.42" cy="210.96" rx="2.18554" ry="0.657197" fill="white"/>
<ellipse cx="1852.25" cy="214.246" rx="2.18554" ry="0.657197" fill="white"/>
<ellipse cx="158.452" cy="277.337" rx="2.18554" ry="0.657197" fill="white"/>
<ellipse cx="486.283" cy="280.623" rx="2.18554" ry="0.657197" fill="white"/>
<ellipse cx="814.115" cy="277.337" rx="2.18554" ry="0.657197" fill="white"/>
<ellipse cx="1141.95" cy="274.051" rx="2.18554" ry="0.657197" fill="white"/>
<ellipse cx="1469.78" cy="277.337" rx="2.18554" ry="0.657197" fill="white"/>
<ellipse cx="1797.61" cy="279.966" rx="2.18554" ry="0.657197" fill="white"/>
<ellipse cx="103.813" cy="343.057" rx="2.18555" ry="0.657192" fill="white"/>
<ellipse cx="431.645" cy="346.343" rx="2.18554" ry="0.657202" fill="white"/>
<ellipse cx="759.476" cy="343.057" rx="2.18554" ry="0.657192" fill="white"/>
<ellipse cx="1087.31" cy="339.771" rx="2.18554" ry="0.657202" fill="white"/>
<ellipse cx="1415.14" cy="343.057" rx="2.18554" ry="0.657192" fill="white"/>
<ellipse cx="1742.97" cy="345.686" rx="2.18554" ry="0.657192" fill="white"/>
<ellipse cx="278.657" cy="408.776" rx="2.18554" ry="0.657197" fill="white"/>
<ellipse cx="606.488" cy="412.062" rx="2.18554" ry="0.657197" fill="white"/>
<ellipse cx="934.32" cy="408.776" rx="2.18554" ry="0.657197" fill="white"/>
<ellipse cx="1262.15" cy="405.49" rx="2.18554" ry="0.657197" fill="white"/>
<ellipse cx="1589.98" cy="408.776" rx="2.18554" ry="0.657197" fill="white"/>
<ellipse cx="1917.81" cy="411.405" rx="2.18554" ry="0.657197" fill="white"/>
<ellipse cx="74.3083" cy="474.496" rx="2.18554" ry="0.657197" fill="white"/>
<ellipse cx="402.14" cy="477.782" rx="2.18554" ry="0.657237" fill="white"/>
<ellipse cx="729.971" cy="474.496" rx="2.18554" ry="0.657197" fill="white"/>
<ellipse cx="1057.8" cy="471.21" rx="2.18554" ry="0.657197" fill="white"/>
<ellipse cx="1385.63" cy="474.496" rx="2.18554" ry="0.657197" fill="white"/>
<ellipse cx="1713.47" cy="477.125" rx="2.18554" ry="0.657167" fill="white"/>
<ellipse cx="99.4422" cy="531.015" rx="2.18554" ry="0.657197" fill="white"/>
<ellipse cx="427.274" cy="534.301" rx="2.18555" ry="0.657197" fill="white"/>
<ellipse cx="755.105" cy="531.015" rx="2.18554" ry="0.657197" fill="white"/>
<ellipse cx="1082.94" cy="527.729" rx="2.18551" ry="0.657197" fill="white"/>
<ellipse cx="1410.77" cy="531.015" rx="2.18554" ry="0.657197" fill="white"/>
<ellipse cx="1738.6" cy="534.301" rx="2.18554" ry="0.657197" fill="white"/>
<ellipse cx="179.214" cy="601.335" rx="2.18554" ry="0.657197" fill="white"/>
<ellipse cx="507.046" cy="604.621" rx="2.18554" ry="0.657197" fill="white"/>
<ellipse cx="834.878" cy="601.335" rx="2.18554" ry="0.657197" fill="white"/>
<ellipse cx="1162.71" cy="598.049" rx="2.18554" ry="0.657197" fill="white"/>
<ellipse cx="1490.54" cy="601.335" rx="2.18554" ry="0.657197" fill="white"/>
<ellipse cx="1818.37" cy="604.621" rx="2.18554" ry="0.657197" fill="white"/>
<ellipse cx="105.999" cy="671.655" rx="2.18554" ry="0.657197" fill="white"/>
<ellipse cx="433.83" cy="674.941" rx="2.18557" ry="0.657197" fill="white"/>
<ellipse cx="761.662" cy="671.655" rx="2.18554" ry="0.657197" fill="white"/>
<ellipse cx="1089.49" cy="668.369" rx="2.18554" ry="0.657197" fill="white"/>
<ellipse cx="1417.32" cy="671.655" rx="2.18554" ry="0.657197" fill="white"/>
<ellipse cx="1745.16" cy="674.941" rx="2.18554" ry="0.657197" fill="white"/>
</svg>
