<svg width="30" height="30" viewBox="0 0 30 30" fill="none" xmlns="http://www.w3.org/2000/svg">
<g clip-path="url(#clip0_97_57)">
<path d="M20.8178 9.86788L9.81379 16.6927C9.62005 16.8128 9.53191 17.0488 9.59952 17.2665L11.0756 22.0228C11.1066 22.1227 11.2522 22.109 11.2639 22.005L11.6227 18.8157C11.6365 18.6925 11.6956 18.5788 11.7885 18.4967L21.1069 10.2565C21.33 10.0592 21.0709 9.71088 20.8178 9.86788Z" fill="white"/>
<path d="M10 0C4.47715 0 0 4.47715 0 10V20C0 25.5228 4.47715 30 10 30H20C25.5228 30 30 25.5228 30 20V10C30 4.47715 25.5228 0 20 0H10ZM25.007 7.79526L21.5819 24.1707C21.4211 24.9391 20.5199 25.2843 19.887 24.8197L17.7522 23.2527C16.0098 21.9737 13.5922 22.1707 12.0799 23.7148V23.7148C11.6173 24.1872 10.8182 23.996 10.6195 23.3654L10.3147 22.3982C9.3159 19.229 6.806 16.7643 3.61917 15.8232V15.8232C2.95036 15.6257 2.91093 14.6933 3.56072 14.44L23.6221 6.62233C24.3857 6.32478 25.1748 6.99307 25.007 7.79526Z" fill="white"/>
</g>
<defs>
<clipPath id="clip0_97_57">
<rect width="30" height="30" fill="white"/>
</clipPath>
</defs>
</svg>
