<svg width="131" height="126" viewBox="0 0 131 126" fill="none" xmlns="http://www.w3.org/2000/svg">
<path d="M83.6281 69.6841C79.9181 76.4061 78.028 89.4751 86.688 98.0701C95.488 106.797 120.798 105.8 120.798 105.8L125.908 111.68" stroke="#131515" stroke-width="8.1175" stroke-linecap="round" stroke-linejoin="round"/>
<path fill-rule="evenodd" clip-rule="evenodd" d="M112.958 101.616L112.788 109.736C114.218 109.81 115.518 109.849 116.638 109.868C117.538 109.884 118.328 109.886 118.978 109.882L122.848 114.332C124.318 116.025 126.878 116.205 128.568 114.735C130.258 113.265 130.438 110.701 128.968 109.009L123.868 103.129C123.058 102.2 121.868 101.687 120.638 101.735L120.588 101.737C120.548 101.738 120.488 101.74 120.398 101.743C120.228 101.747 119.978 101.753 119.638 101.758C118.968 101.768 117.988 101.773 116.778 101.752C115.668 101.733 114.368 101.693 112.958 101.616Z" fill="#FFCD6C" stroke="#FFCD6C" stroke-width="0.5"/>
<path d="M64.5782 81.3599C62.7782 88.5139 63.5483 101.654 72.0283 108.862C80.6383 116.18 94.7783 112.649 94.7783 112.649L98.6183 121.664" stroke="#131515" stroke-width="8.1175" stroke-linecap="round" stroke-linejoin="round"/>
<path fill-rule="evenodd" clip-rule="evenodd" d="M86.1982 109.435L86.8983 117.56C88.9783 117.559 90.8382 117.394 92.3082 117.202L94.8883 123.255C95.7683 125.317 98.1483 126.276 100.218 125.397C102.278 124.518 103.238 122.134 102.358 120.072L98.5183 111.058C97.7283 109.226 95.7382 108.231 93.8082 108.709V108.71L93.7983 108.712C93.7783 108.715 93.7583 108.721 93.7183 108.73C93.6383 108.747 93.5183 108.775 93.3483 108.81C93.0083 108.879 92.4883 108.975 91.8383 109.072C90.5283 109.266 88.7083 109.456 86.6583 109.441C86.5083 109.44 86.3482 109.438 86.1982 109.435ZM93.7983 108.711C93.7983 108.711 93.7983 108.733 94.7783 112.649L93.7983 108.711Z" fill="#FFCD6C" stroke="#FFCD6C" stroke-width="0.5"/>
<path d="M108.448 93.4348C108.448 93.4348 99.2383 91.4738 94.0283 88.6288C89.5783 86.1998 83.7183 80.7578 83.7183 80.7578" stroke="#131515" stroke-width="8.11492" stroke-linecap="round" stroke-linejoin="round"/>
<path d="M41.6282 0.0120511C48.2782 0.246051 54.7281 3.86504 58.4381 9.44404C62.6281 4.22304 69.3982 1.20004 76.0382 1.56704C82.6782 1.93404 89.0582 5.68505 92.6482 11.341C96.2382 16.998 96.9682 24.4151 94.1382 30.8271C101.108 32.0531 107.398 36.744 110.588 43.119C113.798 49.494 113.838 57.398 110.708 63.813C107.578 70.228 101.338 75.0051 94.3982 76.272C96.4882 81.869 96.4082 88.062 94.1482 93.597C91.8882 99.131 87.4682 103.522 81.8982 105.57C76.3982 107.596 71.6682 107.148 66.8782 105.661C62.0982 104.174 58.2282 100.844 54.5182 96.0941C50.3982 100.49 46.2582 103.458 41.3582 104.507C36.4582 105.557 31.7082 105.576 26.4082 103.062C21.0482 100.52 17.0482 95.7491 15.2882 90.0331C13.5382 84.317 14.0182 78.1421 16.6082 72.757C9.80819 70.869 4.01819 65.5481 1.48819 58.8771C-1.06181 52.2061 -0.291827 44.338 3.46817 38.278C7.22817 32.217 13.9082 28.112 20.9582 27.52C18.7182 20.879 20.1182 13.558 24.2082 8.24804C28.2982 2.93904 34.9782 -0.220949 41.6282 0.0120511Z" fill="#FF3E00"/>
<path d="M45.6979 51.2649C44.9779 55.0729 41.9379 58.0449 37.9479 57.8649C33.9579 57.6849 31.2279 54.4009 30.8779 50.5449" stroke="#131515" stroke-width="4.05875" stroke-linecap="round" stroke-linejoin="round"/>
<path d="M55.1782 51.6938C55.5582 55.5518 58.3082 58.7859 62.2982 58.9659C66.2882 59.1469 69.3082 56.1229 69.9982 52.3129" stroke="#131515" stroke-width="4.05875" stroke-linecap="round" stroke-linejoin="round"/>
<path d="M23.6422 67.1371C21.436 67.0374 19.7283 65.168 19.828 62.9618C19.9277 60.7556 21.797 59.0479 24.0033 59.1476C26.2095 59.2473 27.9172 61.1166 27.8175 63.3229C27.7178 65.5291 25.8485 67.2368 23.6422 67.1371Z" fill="white" fill-opacity="0.2"/>
<path d="M75.6725 69.4881C73.4662 69.3884 71.7585 67.5191 71.8582 65.3129C71.9579 63.1067 73.8273 61.399 76.0335 61.4987C78.2398 61.5984 79.9475 63.4677 79.8478 65.6739C79.7481 67.8802 77.8788 69.5878 75.6725 69.4881Z" fill="white" fill-opacity="0.2"/>
<path d="M44.5082 63.3828C44.4382 64.9528 45.4383 68.5288 49.6383 68.7178C53.7683 68.9048 55.1482 65.4368 55.2182 63.8668" stroke="#131515" stroke-width="4.05875" stroke-linecap="round" stroke-linejoin="round"/>
<path d="M115.168 83.2461C115.168 83.2461 105.818 82.1841 100.358 79.8551C95.6982 77.8671 89.3281 73.0181 89.3281 73.0181" fill="#131515"/>
<path d="M115.168 83.2461C115.168 83.2461 105.818 82.1841 100.358 79.8551C95.6982 77.8671 89.3281 73.0181 89.3281 73.0181" stroke="#131515" stroke-width="8.11492" stroke-linecap="round" stroke-linejoin="round"/>
</svg>
